G04 MADE WITH FRITZING*
G04 WWW.FRITZING.ORG*
G04 DOUBLE SIDED*
G04 HOLES PLATED*
G04 CONTOUR ON CENTER OF CONTOUR VECTOR*
%ASAXBY*%
%FSLAX23Y23*%
%MOIN*%
%OFA0B0*%
%SFA1.0B1.0*%
%ADD10C,0.039370*%
%ADD11C,0.076000*%
%ADD12C,0.070000*%
%ADD13C,0.138425*%
%ADD14C,0.078000*%
%ADD15C,0.075000*%
%ADD16R,0.075000X0.075000*%
%ADD17C,0.024000*%
%ADD18R,0.001000X0.001000*%
%LNCOPPER1*%
G90*
G70*
G54D10*
X84Y202D03*
X348Y610D03*
X276Y274D03*
X372Y1402D03*
X996Y1426D03*
X852Y1522D03*
X2028Y922D03*
X1836Y298D03*
X1284Y418D03*
G54D11*
X820Y121D03*
X120Y121D03*
X220Y121D03*
X320Y121D03*
X420Y121D03*
X520Y121D03*
X620Y121D03*
X720Y121D03*
G54D12*
X1420Y921D03*
G54D13*
X1920Y421D03*
G54D12*
X1420Y521D03*
X1420Y721D03*
X1420Y1121D03*
X1420Y421D03*
X1420Y621D03*
X1420Y821D03*
X1420Y1021D03*
G54D13*
X1920Y1121D03*
G54D12*
X1420Y921D03*
G54D13*
X1920Y421D03*
G54D12*
X1420Y521D03*
X1420Y721D03*
X1420Y1121D03*
X1420Y421D03*
X1420Y621D03*
X1420Y821D03*
X1420Y1021D03*
G54D13*
X1920Y1121D03*
G54D14*
X1820Y121D03*
X1920Y121D03*
X120Y1821D03*
X120Y1921D03*
G54D13*
X365Y1071D03*
X1165Y1071D03*
G54D12*
X1020Y1121D03*
X920Y1121D03*
X820Y1121D03*
X720Y1121D03*
X620Y1121D03*
X520Y1121D03*
X520Y321D03*
X620Y321D03*
X720Y321D03*
X820Y321D03*
X920Y321D03*
X1020Y321D03*
G54D13*
X365Y371D03*
X1165Y371D03*
G54D12*
X420Y1921D03*
X520Y1921D03*
X620Y1921D03*
X720Y1921D03*
X820Y1921D03*
X920Y1921D03*
X1720Y1321D03*
X1620Y1321D03*
X1520Y1321D03*
X1420Y1321D03*
X1320Y1321D03*
X1220Y1321D03*
X1120Y1321D03*
X1020Y1321D03*
X920Y1321D03*
X820Y1321D03*
X720Y1321D03*
X620Y1321D03*
X520Y1321D03*
X420Y1321D03*
X1720Y1921D03*
X1620Y1921D03*
X1520Y1921D03*
X1420Y1921D03*
X1320Y1921D03*
X1220Y1921D03*
X1120Y1921D03*
X1020Y1921D03*
G54D15*
X920Y121D03*
X1320Y121D03*
X1720Y121D03*
X1420Y121D03*
X120Y1021D03*
X120Y921D03*
X120Y1221D03*
X120Y1621D03*
G54D16*
X120Y1021D03*
G54D17*
X820Y1301D02*
X820Y1141D01*
D02*
X924Y1354D02*
X136Y1615D01*
D02*
X922Y1341D02*
X924Y1354D01*
D02*
X876Y226D02*
X830Y304D01*
D02*
X1812Y226D02*
X876Y226D01*
D02*
X1906Y134D02*
X1812Y226D01*
D02*
X516Y370D02*
X60Y754D01*
D02*
X518Y341D02*
X516Y370D01*
D02*
X1817Y102D02*
X1812Y58D01*
D02*
X60Y1690D02*
X112Y1804D01*
D02*
X60Y754D02*
X60Y1690D01*
D02*
X804Y226D02*
X733Y306D01*
D02*
X804Y178D02*
X804Y226D01*
D02*
X1476Y178D02*
X804Y178D01*
D02*
X1644Y58D02*
X1476Y178D01*
D02*
X1812Y58D02*
X1644Y58D01*
D02*
X1788Y850D02*
X1434Y534D01*
D02*
X1788Y1378D02*
X1788Y850D01*
D02*
X1332Y1378D02*
X1788Y1378D01*
D02*
X1320Y1901D02*
X1332Y1378D01*
D02*
X204Y226D02*
X217Y140D01*
D02*
X92Y204D02*
X204Y226D01*
D02*
X130Y907D02*
X343Y617D01*
D02*
X269Y272D02*
X91Y205D01*
D02*
X369Y1395D02*
X180Y946D01*
X180Y946D02*
X136Y928D01*
D02*
X1337Y121D02*
X1402Y121D01*
D02*
X847Y1528D02*
X532Y1906D01*
D02*
X923Y1902D02*
X995Y1434D01*
D02*
X1356Y370D02*
X1572Y370D01*
D02*
X1356Y562D02*
X1356Y370D01*
D02*
X1405Y608D02*
X1356Y562D01*
D02*
X1908Y922D02*
X2020Y922D01*
D02*
X1572Y538D02*
X1908Y922D01*
D02*
X1572Y370D02*
X1572Y538D01*
D02*
X1828Y298D02*
X1332Y298D01*
X1332Y298D02*
X1287Y411D01*
D02*
X1027Y1102D02*
X1281Y426D01*
D02*
X1432Y1906D02*
X2028Y1162D01*
X2028Y1162D02*
X2076Y970D01*
D02*
X2076Y850D02*
X1596Y298D01*
D02*
X2076Y970D02*
X2076Y850D01*
D02*
X1596Y298D02*
X1836Y298D01*
G54D18*
D02*
G04 End of Copper1*
M02*