; NON-PLATED HOLES START AT T1
; THROUGH (PLATED) HOLES START AT T100
M48
INCH
T100C0.038000
T101C0.040000
T102C0.039370
T103C0.035000
T104C0.015748
T105C0.098425
T106C0.037194
%
T100
X001197Y018209
X019197Y001209
X001197Y019209
X018197Y001209
T101
X006197Y011209
X009197Y011209
X007197Y003209
X008197Y003209
X010197Y003209
X008197Y011209
X007197Y011209
X010197Y011209
X005197Y011209
X006197Y003209
X005197Y003209
X009197Y003209
T102
X005197Y001209
X014197Y007209
X012197Y019209
X011197Y019209
X015197Y013209
X014197Y011209
X010197Y013209
X016197Y013209
X005197Y019209
X014197Y008209
X002197Y001209
X014197Y005209
X010197Y019209
X014197Y009209
X013197Y013209
X008197Y019209
X009197Y019209
X013197Y019209
X001197Y001209
X004197Y001209
X006197Y019209
X017197Y019209
X007197Y019209
X006197Y013209
X007197Y013209
X014197Y019209
X005197Y013209
X014197Y006209
X004197Y019209
X016197Y019209
X008197Y001209
X008197Y013209
X004197Y013209
X009197Y013209
X007197Y001209
X006197Y001209
X015197Y019209
X014197Y013209
X012197Y013209
X014197Y004209
X003197Y001209
X017197Y013209
X011197Y013209
X014197Y010209
T103
X001197Y009209
X001197Y010209
X009197Y001209
X014197Y001209
X013197Y001209
X017197Y001209
X001197Y012209
X001197Y016209
T104
X018360Y002984
X009959Y014264
X012840Y004184
X020280Y009224
X003719Y014024
X003479Y006104
X008519Y015224
X000839Y002024
X002759Y002744
T105
X019197Y011209
X019197Y004209
X003647Y010709
X011647Y010709
X011647Y003709
X003647Y003709
T106
X001197Y008209
X001197Y007209
X001197Y003209
X001197Y005209
X001197Y004209
X001197Y006209
T00
M30
