G04 MADE WITH FRITZING*
G04 WWW.FRITZING.ORG*
G04 DOUBLE SIDED*
G04 HOLES PLATED*
G04 CONTOUR ON CENTER OF CONTOUR VECTOR*
%ASAXBY*%
%FSLAX23Y23*%
%MOIN*%
%OFA0B0*%
%SFA1.0B1.0*%
%ADD10C,0.038360X0.0063604*%
%ADD11R,2.178520X2.038450X2.162520X2.022450*%
%ADD12C,0.008000*%
%ADD13R,0.001000X0.001000*%
%LNSILK0*%
G90*
G70*
G54D10*
X1560Y861D03*
G54D12*
X4Y2034D02*
X2175Y2034D01*
X2175Y4D01*
X4Y4D01*
X4Y2034D01*
D02*
G54D13*
X1414Y1221D02*
X1926Y1221D01*
X1405Y1220D02*
X1935Y1220D01*
X1400Y1219D02*
X1940Y1219D01*
X1395Y1218D02*
X1944Y1218D01*
X1392Y1217D02*
X1948Y1217D01*
X1389Y1216D02*
X1951Y1216D01*
X1386Y1215D02*
X1954Y1215D01*
X1383Y1214D02*
X1956Y1214D01*
X1381Y1213D02*
X1412Y1213D01*
X1927Y1213D02*
X1959Y1213D01*
X1379Y1212D02*
X1404Y1212D01*
X1936Y1212D02*
X1961Y1212D01*
X1377Y1211D02*
X1399Y1211D01*
X1941Y1211D02*
X1963Y1211D01*
X1374Y1210D02*
X1395Y1210D01*
X1945Y1210D02*
X1965Y1210D01*
X1373Y1209D02*
X1392Y1209D01*
X1948Y1209D02*
X1967Y1209D01*
X1371Y1208D02*
X1389Y1208D01*
X1951Y1208D02*
X1969Y1208D01*
X1369Y1207D02*
X1386Y1207D01*
X1954Y1207D02*
X1971Y1207D01*
X1367Y1206D02*
X1384Y1206D01*
X1956Y1206D02*
X1972Y1206D01*
X1366Y1205D02*
X1381Y1205D01*
X1958Y1205D02*
X1974Y1205D01*
X1364Y1204D02*
X1379Y1204D01*
X1961Y1204D02*
X1975Y1204D01*
X1363Y1203D02*
X1377Y1203D01*
X1963Y1203D02*
X1977Y1203D01*
X1362Y1202D02*
X1375Y1202D01*
X1964Y1202D02*
X1978Y1202D01*
X991Y1201D02*
X1008Y1201D01*
X1188Y1201D02*
X1211Y1201D01*
X1360Y1201D02*
X1374Y1201D01*
X1966Y1201D02*
X1979Y1201D01*
X991Y1200D02*
X1010Y1200D01*
X1184Y1200D02*
X1212Y1200D01*
X1359Y1200D02*
X1372Y1200D01*
X1968Y1200D02*
X1981Y1200D01*
X991Y1199D02*
X1010Y1199D01*
X1182Y1199D02*
X1212Y1199D01*
X1358Y1199D02*
X1370Y1199D01*
X1969Y1199D02*
X1982Y1199D01*
X991Y1198D02*
X1011Y1198D01*
X1051Y1198D02*
X1051Y1198D01*
X1181Y1198D02*
X1212Y1198D01*
X1356Y1198D02*
X1369Y1198D01*
X1971Y1198D02*
X1983Y1198D01*
X991Y1197D02*
X1011Y1197D01*
X1049Y1197D02*
X1053Y1197D01*
X1180Y1197D02*
X1212Y1197D01*
X1355Y1197D02*
X1367Y1197D01*
X1972Y1197D02*
X1985Y1197D01*
X991Y1196D02*
X1010Y1196D01*
X1048Y1196D02*
X1054Y1196D01*
X1180Y1196D02*
X1212Y1196D01*
X1354Y1196D02*
X1366Y1196D01*
X1974Y1196D02*
X1986Y1196D01*
X991Y1195D02*
X1010Y1195D01*
X1048Y1195D02*
X1054Y1195D01*
X1179Y1195D02*
X1212Y1195D01*
X1353Y1195D02*
X1364Y1195D01*
X1975Y1195D02*
X1987Y1195D01*
X991Y1194D02*
X997Y1194D01*
X1048Y1194D02*
X1054Y1194D01*
X1179Y1194D02*
X1187Y1194D01*
X1205Y1194D02*
X1212Y1194D01*
X1352Y1194D02*
X1363Y1194D01*
X1977Y1194D02*
X1988Y1194D01*
X991Y1193D02*
X997Y1193D01*
X1048Y1193D02*
X1054Y1193D01*
X1178Y1193D02*
X1185Y1193D01*
X1206Y1193D02*
X1212Y1193D01*
X1351Y1193D02*
X1362Y1193D01*
X1978Y1193D02*
X1989Y1193D01*
X991Y1192D02*
X997Y1192D01*
X1048Y1192D02*
X1054Y1192D01*
X1178Y1192D02*
X1184Y1192D01*
X1206Y1192D02*
X1212Y1192D01*
X1350Y1192D02*
X1361Y1192D01*
X1979Y1192D02*
X1990Y1192D01*
X991Y1191D02*
X997Y1191D01*
X1048Y1191D02*
X1054Y1191D01*
X1178Y1191D02*
X1184Y1191D01*
X1206Y1191D02*
X1212Y1191D01*
X1349Y1191D02*
X1359Y1191D01*
X1980Y1191D02*
X1991Y1191D01*
X991Y1190D02*
X997Y1190D01*
X1048Y1190D02*
X1054Y1190D01*
X1178Y1190D02*
X1184Y1190D01*
X1206Y1190D02*
X1212Y1190D01*
X1348Y1190D02*
X1358Y1190D01*
X1981Y1190D02*
X1992Y1190D01*
X991Y1189D02*
X997Y1189D01*
X1048Y1189D02*
X1054Y1189D01*
X1178Y1189D02*
X1184Y1189D01*
X1206Y1189D02*
X1212Y1189D01*
X1347Y1189D02*
X1357Y1189D01*
X1982Y1189D02*
X1993Y1189D01*
X991Y1188D02*
X997Y1188D01*
X1048Y1188D02*
X1054Y1188D01*
X1178Y1188D02*
X1184Y1188D01*
X1206Y1188D02*
X1212Y1188D01*
X1346Y1188D02*
X1356Y1188D01*
X1984Y1188D02*
X1994Y1188D01*
X991Y1187D02*
X997Y1187D01*
X1048Y1187D02*
X1054Y1187D01*
X1178Y1187D02*
X1184Y1187D01*
X1206Y1187D02*
X1212Y1187D01*
X1345Y1187D02*
X1355Y1187D01*
X1985Y1187D02*
X1995Y1187D01*
X991Y1186D02*
X997Y1186D01*
X1033Y1186D02*
X1059Y1186D01*
X1085Y1186D02*
X1096Y1186D01*
X1107Y1186D02*
X1109Y1186D01*
X1137Y1186D02*
X1152Y1186D01*
X1178Y1186D02*
X1184Y1186D01*
X1206Y1186D02*
X1212Y1186D01*
X1344Y1186D02*
X1354Y1186D01*
X1986Y1186D02*
X1995Y1186D01*
X991Y1185D02*
X997Y1185D01*
X1032Y1185D02*
X1060Y1185D01*
X1083Y1185D02*
X1097Y1185D01*
X1106Y1185D02*
X1110Y1185D01*
X1134Y1185D02*
X1154Y1185D01*
X1178Y1185D02*
X1184Y1185D01*
X1206Y1185D02*
X1212Y1185D01*
X1343Y1185D02*
X1353Y1185D01*
X1987Y1185D02*
X1996Y1185D01*
X991Y1184D02*
X997Y1184D01*
X1031Y1184D02*
X1061Y1184D01*
X1082Y1184D02*
X1098Y1184D01*
X1105Y1184D02*
X1111Y1184D01*
X1133Y1184D02*
X1154Y1184D01*
X1178Y1184D02*
X1184Y1184D01*
X1206Y1184D02*
X1212Y1184D01*
X1343Y1184D02*
X1352Y1184D01*
X1987Y1184D02*
X1997Y1184D01*
X991Y1183D02*
X997Y1183D01*
X1031Y1183D02*
X1061Y1183D01*
X1081Y1183D02*
X1099Y1183D01*
X1105Y1183D02*
X1111Y1183D01*
X1132Y1183D02*
X1154Y1183D01*
X1178Y1183D02*
X1184Y1183D01*
X1206Y1183D02*
X1212Y1183D01*
X1342Y1183D02*
X1351Y1183D01*
X1988Y1183D02*
X1998Y1183D01*
X991Y1182D02*
X997Y1182D01*
X1031Y1182D02*
X1061Y1182D01*
X1080Y1182D02*
X1100Y1182D01*
X1105Y1182D02*
X1111Y1182D01*
X1131Y1182D02*
X1154Y1182D01*
X1178Y1182D02*
X1184Y1182D01*
X1206Y1182D02*
X1212Y1182D01*
X1341Y1182D02*
X1350Y1182D01*
X1989Y1182D02*
X1999Y1182D01*
X991Y1181D02*
X997Y1181D01*
X1032Y1181D02*
X1060Y1181D01*
X1079Y1181D02*
X1102Y1181D01*
X1105Y1181D02*
X1111Y1181D01*
X1130Y1181D02*
X1154Y1181D01*
X1178Y1181D02*
X1184Y1181D01*
X1206Y1181D02*
X1212Y1181D01*
X1340Y1181D02*
X1350Y1181D01*
X1990Y1181D02*
X1999Y1181D01*
X991Y1180D02*
X997Y1180D01*
X1033Y1180D02*
X1059Y1180D01*
X1078Y1180D02*
X1103Y1180D01*
X1105Y1180D02*
X1111Y1180D01*
X1130Y1180D02*
X1153Y1180D01*
X1178Y1180D02*
X1184Y1180D01*
X1206Y1180D02*
X1212Y1180D01*
X1340Y1180D02*
X1349Y1180D01*
X1991Y1180D02*
X2000Y1180D01*
X991Y1179D02*
X997Y1179D01*
X1048Y1179D02*
X1054Y1179D01*
X1078Y1179D02*
X1086Y1179D01*
X1094Y1179D02*
X1111Y1179D01*
X1129Y1179D02*
X1137Y1179D01*
X1178Y1179D02*
X1184Y1179D01*
X1206Y1179D02*
X1212Y1179D01*
X1339Y1179D02*
X1348Y1179D01*
X1992Y1179D02*
X2001Y1179D01*
X991Y1178D02*
X997Y1178D01*
X1048Y1178D02*
X1054Y1178D01*
X1078Y1178D02*
X1084Y1178D01*
X1095Y1178D02*
X1111Y1178D01*
X1129Y1178D02*
X1136Y1178D01*
X1178Y1178D02*
X1184Y1178D01*
X1206Y1178D02*
X1212Y1178D01*
X1338Y1178D02*
X1347Y1178D01*
X1993Y1178D02*
X2001Y1178D01*
X991Y1177D02*
X997Y1177D01*
X1048Y1177D02*
X1054Y1177D01*
X1078Y1177D02*
X1084Y1177D01*
X1096Y1177D02*
X1111Y1177D01*
X1129Y1177D02*
X1135Y1177D01*
X1178Y1177D02*
X1184Y1177D01*
X1206Y1177D02*
X1212Y1177D01*
X1337Y1177D02*
X1346Y1177D01*
X1993Y1177D02*
X2002Y1177D01*
X991Y1176D02*
X997Y1176D01*
X1048Y1176D02*
X1054Y1176D01*
X1078Y1176D02*
X1084Y1176D01*
X1098Y1176D02*
X1111Y1176D01*
X1129Y1176D02*
X1135Y1176D01*
X1178Y1176D02*
X1185Y1176D01*
X1206Y1176D02*
X1212Y1176D01*
X1337Y1176D02*
X1346Y1176D01*
X1994Y1176D02*
X2003Y1176D01*
X991Y1175D02*
X997Y1175D01*
X1048Y1175D02*
X1054Y1175D01*
X1078Y1175D02*
X1084Y1175D01*
X1099Y1175D02*
X1111Y1175D01*
X1129Y1175D02*
X1135Y1175D01*
X1179Y1175D02*
X1186Y1175D01*
X1206Y1175D02*
X1212Y1175D01*
X1336Y1175D02*
X1345Y1175D01*
X1995Y1175D02*
X2004Y1175D01*
X991Y1174D02*
X997Y1174D01*
X1048Y1174D02*
X1054Y1174D01*
X1078Y1174D02*
X1084Y1174D01*
X1100Y1174D02*
X1111Y1174D01*
X1129Y1174D02*
X1135Y1174D01*
X1179Y1174D02*
X1212Y1174D01*
X1335Y1174D02*
X1344Y1174D01*
X1996Y1174D02*
X2004Y1174D01*
X991Y1173D02*
X997Y1173D01*
X1048Y1173D02*
X1054Y1173D01*
X1078Y1173D02*
X1083Y1173D01*
X1101Y1173D02*
X1111Y1173D01*
X1129Y1173D02*
X1135Y1173D01*
X1179Y1173D02*
X1212Y1173D01*
X1335Y1173D02*
X1343Y1173D01*
X1996Y1173D02*
X2005Y1173D01*
X991Y1172D02*
X997Y1172D01*
X1048Y1172D02*
X1054Y1172D01*
X1078Y1172D02*
X1083Y1172D01*
X1102Y1172D02*
X1111Y1172D01*
X1129Y1172D02*
X1135Y1172D01*
X1180Y1172D02*
X1212Y1172D01*
X1334Y1172D02*
X1343Y1172D01*
X1997Y1172D02*
X2005Y1172D01*
X979Y1171D02*
X982Y1171D01*
X991Y1171D02*
X997Y1171D01*
X1048Y1171D02*
X1054Y1171D01*
X1080Y1171D02*
X1082Y1171D01*
X1103Y1171D02*
X1111Y1171D01*
X1129Y1171D02*
X1155Y1171D01*
X1181Y1171D02*
X1212Y1171D01*
X1334Y1171D02*
X1342Y1171D01*
X1998Y1171D02*
X2006Y1171D01*
X978Y1170D02*
X983Y1170D01*
X991Y1170D02*
X997Y1170D01*
X1048Y1170D02*
X1054Y1170D01*
X1105Y1170D02*
X1111Y1170D01*
X1129Y1170D02*
X1157Y1170D01*
X1182Y1170D02*
X1212Y1170D01*
X1333Y1170D02*
X1341Y1170D01*
X1998Y1170D02*
X2007Y1170D01*
X977Y1169D02*
X983Y1169D01*
X991Y1169D02*
X997Y1169D01*
X1048Y1169D02*
X1054Y1169D01*
X1105Y1169D02*
X1111Y1169D01*
X1128Y1169D02*
X1158Y1169D01*
X1183Y1169D02*
X1212Y1169D01*
X1333Y1169D02*
X1341Y1169D01*
X1999Y1169D02*
X2007Y1169D01*
X977Y1168D02*
X983Y1168D01*
X991Y1168D02*
X997Y1168D01*
X1048Y1168D02*
X1054Y1168D01*
X1105Y1168D02*
X1111Y1168D01*
X1128Y1168D02*
X1159Y1168D01*
X1186Y1168D02*
X1212Y1168D01*
X1332Y1168D02*
X1340Y1168D01*
X1999Y1168D02*
X2008Y1168D01*
X977Y1167D02*
X983Y1167D01*
X991Y1167D02*
X997Y1167D01*
X1048Y1167D02*
X1054Y1167D01*
X1105Y1167D02*
X1111Y1167D01*
X1128Y1167D02*
X1160Y1167D01*
X1206Y1167D02*
X1212Y1167D01*
X1332Y1167D02*
X1340Y1167D01*
X2000Y1167D02*
X2008Y1167D01*
X977Y1166D02*
X983Y1166D01*
X991Y1166D02*
X997Y1166D01*
X1048Y1166D02*
X1054Y1166D01*
X1105Y1166D02*
X1111Y1166D01*
X1128Y1166D02*
X1160Y1166D01*
X1206Y1166D02*
X1212Y1166D01*
X1331Y1166D02*
X1339Y1166D01*
X2001Y1166D02*
X2009Y1166D01*
X977Y1165D02*
X983Y1165D01*
X991Y1165D02*
X997Y1165D01*
X1048Y1165D02*
X1054Y1165D01*
X1105Y1165D02*
X1111Y1165D01*
X1128Y1165D02*
X1161Y1165D01*
X1206Y1165D02*
X1212Y1165D01*
X1331Y1165D02*
X1338Y1165D01*
X2001Y1165D02*
X2009Y1165D01*
X977Y1164D02*
X983Y1164D01*
X991Y1164D02*
X997Y1164D01*
X1048Y1164D02*
X1054Y1164D01*
X1105Y1164D02*
X1111Y1164D01*
X1128Y1164D02*
X1136Y1164D01*
X1154Y1164D02*
X1161Y1164D01*
X1206Y1164D02*
X1212Y1164D01*
X1330Y1164D02*
X1338Y1164D01*
X2002Y1164D02*
X2010Y1164D01*
X977Y1163D02*
X983Y1163D01*
X991Y1163D02*
X997Y1163D01*
X1048Y1163D02*
X1054Y1163D01*
X1105Y1163D02*
X1111Y1163D01*
X1128Y1163D02*
X1135Y1163D01*
X1155Y1163D02*
X1161Y1163D01*
X1206Y1163D02*
X1212Y1163D01*
X1330Y1163D02*
X1337Y1163D01*
X2002Y1163D02*
X2010Y1163D01*
X977Y1162D02*
X983Y1162D01*
X991Y1162D02*
X997Y1162D01*
X1048Y1162D02*
X1054Y1162D01*
X1105Y1162D02*
X1111Y1162D01*
X1128Y1162D02*
X1134Y1162D01*
X1155Y1162D02*
X1161Y1162D01*
X1206Y1162D02*
X1212Y1162D01*
X1329Y1162D02*
X1337Y1162D01*
X2003Y1162D02*
X2011Y1162D01*
X977Y1161D02*
X983Y1161D01*
X991Y1161D02*
X997Y1161D01*
X1048Y1161D02*
X1054Y1161D01*
X1105Y1161D02*
X1111Y1161D01*
X1128Y1161D02*
X1134Y1161D01*
X1155Y1161D02*
X1161Y1161D01*
X1206Y1161D02*
X1212Y1161D01*
X1329Y1161D02*
X1336Y1161D01*
X2003Y1161D02*
X2011Y1161D01*
X977Y1160D02*
X983Y1160D01*
X991Y1160D02*
X997Y1160D01*
X1048Y1160D02*
X1054Y1160D01*
X1105Y1160D02*
X1111Y1160D01*
X1128Y1160D02*
X1134Y1160D01*
X1155Y1160D02*
X1161Y1160D01*
X1206Y1160D02*
X1212Y1160D01*
X1328Y1160D02*
X1336Y1160D01*
X2004Y1160D02*
X2011Y1160D01*
X977Y1159D02*
X983Y1159D01*
X991Y1159D02*
X997Y1159D01*
X1048Y1159D02*
X1054Y1159D01*
X1105Y1159D02*
X1111Y1159D01*
X1128Y1159D02*
X1134Y1159D01*
X1155Y1159D02*
X1161Y1159D01*
X1206Y1159D02*
X1212Y1159D01*
X1328Y1159D02*
X1335Y1159D01*
X2004Y1159D02*
X2012Y1159D01*
X977Y1158D02*
X983Y1158D01*
X991Y1158D02*
X997Y1158D01*
X1048Y1158D02*
X1054Y1158D01*
X1105Y1158D02*
X1111Y1158D01*
X1128Y1158D02*
X1135Y1158D01*
X1155Y1158D02*
X1161Y1158D01*
X1206Y1158D02*
X1212Y1158D01*
X1327Y1158D02*
X1335Y1158D01*
X2005Y1158D02*
X2012Y1158D01*
X977Y1157D02*
X983Y1157D01*
X991Y1157D02*
X997Y1157D01*
X1048Y1157D02*
X1054Y1157D01*
X1105Y1157D02*
X1111Y1157D01*
X1128Y1157D02*
X1136Y1157D01*
X1155Y1157D02*
X1161Y1157D01*
X1206Y1157D02*
X1212Y1157D01*
X1327Y1157D02*
X1335Y1157D01*
X2005Y1157D02*
X2013Y1157D01*
X977Y1156D02*
X983Y1156D01*
X991Y1156D02*
X997Y1156D01*
X1048Y1156D02*
X1054Y1156D01*
X1105Y1156D02*
X1111Y1156D01*
X1128Y1156D02*
X1138Y1156D01*
X1155Y1156D02*
X1161Y1156D01*
X1206Y1156D02*
X1212Y1156D01*
X1327Y1156D02*
X1334Y1156D01*
X2006Y1156D02*
X2013Y1156D01*
X977Y1155D02*
X983Y1155D01*
X991Y1155D02*
X997Y1155D01*
X1047Y1155D02*
X1054Y1155D01*
X1105Y1155D02*
X1111Y1155D01*
X1128Y1155D02*
X1140Y1155D01*
X1154Y1155D02*
X1161Y1155D01*
X1206Y1155D02*
X1212Y1155D01*
X1326Y1155D02*
X1334Y1155D01*
X2006Y1155D02*
X2013Y1155D01*
X977Y1154D02*
X984Y1154D01*
X991Y1154D02*
X997Y1154D01*
X1045Y1154D02*
X1054Y1154D01*
X1105Y1154D02*
X1111Y1154D01*
X1128Y1154D02*
X1142Y1154D01*
X1152Y1154D02*
X1161Y1154D01*
X1206Y1154D02*
X1212Y1154D01*
X1326Y1154D02*
X1333Y1154D01*
X2006Y1154D02*
X2014Y1154D01*
X977Y1153D02*
X995Y1153D01*
X1045Y1153D02*
X1053Y1153D01*
X1105Y1153D02*
X1111Y1153D01*
X1128Y1153D02*
X1160Y1153D01*
X1206Y1153D02*
X1212Y1153D01*
X1326Y1153D02*
X1333Y1153D01*
X2007Y1153D02*
X2014Y1153D01*
X977Y1152D02*
X994Y1152D01*
X1046Y1152D02*
X1053Y1152D01*
X1105Y1152D02*
X1111Y1152D01*
X1128Y1152D02*
X1160Y1152D01*
X1206Y1152D02*
X1212Y1152D01*
X1325Y1152D02*
X1333Y1152D01*
X2007Y1152D02*
X2014Y1152D01*
X977Y1151D02*
X993Y1151D01*
X1047Y1151D02*
X1052Y1151D01*
X1105Y1151D02*
X1111Y1151D01*
X1128Y1151D02*
X1159Y1151D01*
X1206Y1151D02*
X1212Y1151D01*
X1325Y1151D02*
X1332Y1151D01*
X2007Y1151D02*
X2015Y1151D01*
X977Y1150D02*
X992Y1150D01*
X1048Y1150D02*
X1051Y1150D01*
X1105Y1150D02*
X1111Y1150D01*
X1128Y1150D02*
X1134Y1150D01*
X1136Y1150D02*
X1158Y1150D01*
X1206Y1150D02*
X1212Y1150D01*
X1325Y1150D02*
X1332Y1150D01*
X2008Y1150D02*
X2015Y1150D01*
X978Y1149D02*
X991Y1149D01*
X1049Y1149D02*
X1050Y1149D01*
X1106Y1149D02*
X1111Y1149D01*
X1128Y1149D02*
X1133Y1149D01*
X1137Y1149D02*
X1157Y1149D01*
X1206Y1149D02*
X1211Y1149D01*
X1324Y1149D02*
X1332Y1149D01*
X2008Y1149D02*
X2015Y1149D01*
X978Y1148D02*
X990Y1148D01*
X1106Y1148D02*
X1110Y1148D01*
X1129Y1148D02*
X1133Y1148D01*
X1139Y1148D02*
X1156Y1148D01*
X1207Y1148D02*
X1211Y1148D01*
X1324Y1148D02*
X1331Y1148D01*
X2008Y1148D02*
X2016Y1148D01*
X980Y1147D02*
X989Y1147D01*
X1108Y1147D02*
X1108Y1147D01*
X1131Y1147D02*
X1131Y1147D01*
X1141Y1147D02*
X1152Y1147D01*
X1209Y1147D02*
X1209Y1147D01*
X1324Y1147D02*
X1331Y1147D01*
X2009Y1147D02*
X2016Y1147D01*
X1324Y1146D02*
X1331Y1146D01*
X2009Y1146D02*
X2016Y1146D01*
X1323Y1145D02*
X1330Y1145D01*
X2009Y1145D02*
X2016Y1145D01*
X1323Y1144D02*
X1330Y1144D01*
X2010Y1144D02*
X2017Y1144D01*
X1323Y1143D02*
X1330Y1143D01*
X2010Y1143D02*
X2017Y1143D01*
X1323Y1142D02*
X1330Y1142D01*
X2010Y1142D02*
X2017Y1142D01*
X1322Y1141D02*
X1329Y1141D01*
X2010Y1141D02*
X2017Y1141D01*
X1322Y1140D02*
X1329Y1140D01*
X2010Y1140D02*
X2017Y1140D01*
X1322Y1139D02*
X1329Y1139D01*
X2011Y1139D02*
X2018Y1139D01*
X1322Y1138D02*
X1329Y1138D01*
X2011Y1138D02*
X2018Y1138D01*
X1322Y1137D02*
X1329Y1137D01*
X2011Y1137D02*
X2018Y1137D01*
X1322Y1136D02*
X1329Y1136D01*
X2011Y1136D02*
X2018Y1136D01*
X1321Y1135D02*
X1328Y1135D01*
X2011Y1135D02*
X2018Y1135D01*
X1321Y1134D02*
X1328Y1134D01*
X2011Y1134D02*
X2018Y1134D01*
X1321Y1133D02*
X1328Y1133D01*
X2012Y1133D02*
X2019Y1133D01*
X1321Y1132D02*
X1328Y1132D01*
X2012Y1132D02*
X2019Y1132D01*
X1321Y1131D02*
X1328Y1131D01*
X2012Y1131D02*
X2019Y1131D01*
X1321Y1130D02*
X1328Y1130D01*
X2012Y1130D02*
X2019Y1130D01*
X1321Y1129D02*
X1328Y1129D01*
X2012Y1129D02*
X2019Y1129D01*
X1321Y1128D02*
X1328Y1128D01*
X2012Y1128D02*
X2019Y1128D01*
X1321Y1127D02*
X1328Y1127D01*
X2012Y1127D02*
X2019Y1127D01*
X1321Y1126D02*
X1328Y1126D01*
X2012Y1126D02*
X2019Y1126D01*
X1320Y1125D02*
X1327Y1125D01*
X2012Y1125D02*
X2019Y1125D01*
X1320Y1124D02*
X1327Y1124D01*
X2012Y1124D02*
X2019Y1124D01*
X1320Y1123D02*
X1327Y1123D01*
X2012Y1123D02*
X2019Y1123D01*
X1320Y1122D02*
X1327Y1122D01*
X2012Y1122D02*
X2019Y1122D01*
X1320Y1121D02*
X1327Y1121D01*
X2012Y1121D02*
X2019Y1121D01*
X1320Y1120D02*
X1327Y1120D01*
X2012Y1120D02*
X2019Y1120D01*
X1320Y1119D02*
X1327Y1119D01*
X2012Y1119D02*
X2019Y1119D01*
X1320Y1118D02*
X1327Y1118D01*
X2012Y1118D02*
X2019Y1118D01*
X1320Y1117D02*
X1327Y1117D01*
X2012Y1117D02*
X2019Y1117D01*
X1320Y1116D02*
X1327Y1116D01*
X2012Y1116D02*
X2019Y1116D01*
X1320Y1115D02*
X1327Y1115D01*
X2012Y1115D02*
X2019Y1115D01*
X1320Y1114D02*
X1327Y1114D01*
X2012Y1114D02*
X2019Y1114D01*
X1320Y1113D02*
X1327Y1113D01*
X2012Y1113D02*
X2019Y1113D01*
X1320Y1112D02*
X1327Y1112D01*
X2012Y1112D02*
X2019Y1112D01*
X1320Y1111D02*
X1327Y1111D01*
X2012Y1111D02*
X2019Y1111D01*
X1320Y1110D02*
X1327Y1110D01*
X2012Y1110D02*
X2019Y1110D01*
X1320Y1109D02*
X1327Y1109D01*
X2012Y1109D02*
X2019Y1109D01*
X1320Y1108D02*
X1327Y1108D01*
X2012Y1108D02*
X2019Y1108D01*
X1320Y1107D02*
X1327Y1107D01*
X2012Y1107D02*
X2019Y1107D01*
X1320Y1106D02*
X1327Y1106D01*
X2012Y1106D02*
X2019Y1106D01*
X1320Y1105D02*
X1327Y1105D01*
X2012Y1105D02*
X2019Y1105D01*
X1320Y1104D02*
X1327Y1104D01*
X2012Y1104D02*
X2019Y1104D01*
X1320Y1103D02*
X1327Y1103D01*
X2012Y1103D02*
X2019Y1103D01*
X1320Y1102D02*
X1327Y1102D01*
X2012Y1102D02*
X2019Y1102D01*
X1320Y1101D02*
X1327Y1101D01*
X2012Y1101D02*
X2019Y1101D01*
X1320Y1100D02*
X1327Y1100D01*
X2012Y1100D02*
X2019Y1100D01*
X1320Y1099D02*
X1327Y1099D01*
X2012Y1099D02*
X2019Y1099D01*
X1320Y1098D02*
X1327Y1098D01*
X2012Y1098D02*
X2019Y1098D01*
X1320Y1097D02*
X1327Y1097D01*
X2012Y1097D02*
X2019Y1097D01*
X1320Y1096D02*
X1327Y1096D01*
X2012Y1096D02*
X2019Y1096D01*
X1320Y1095D02*
X1327Y1095D01*
X2012Y1095D02*
X2019Y1095D01*
X1320Y1094D02*
X1327Y1094D01*
X2012Y1094D02*
X2019Y1094D01*
X1320Y1093D02*
X1327Y1093D01*
X2012Y1093D02*
X2019Y1093D01*
X1320Y1092D02*
X1327Y1092D01*
X2012Y1092D02*
X2019Y1092D01*
X1320Y1091D02*
X1327Y1091D01*
X2012Y1091D02*
X2019Y1091D01*
X1320Y1090D02*
X1327Y1090D01*
X2012Y1090D02*
X2019Y1090D01*
X1320Y1089D02*
X1327Y1089D01*
X2012Y1089D02*
X2019Y1089D01*
X1320Y1088D02*
X1327Y1088D01*
X2012Y1088D02*
X2019Y1088D01*
X1320Y1087D02*
X1327Y1087D01*
X2012Y1087D02*
X2019Y1087D01*
X1320Y1086D02*
X1327Y1086D01*
X2012Y1086D02*
X2019Y1086D01*
X1320Y1085D02*
X1327Y1085D01*
X2012Y1085D02*
X2019Y1085D01*
X1320Y1084D02*
X1327Y1084D01*
X2012Y1084D02*
X2019Y1084D01*
X1320Y1083D02*
X1327Y1083D01*
X2012Y1083D02*
X2019Y1083D01*
X1320Y1082D02*
X1327Y1082D01*
X2012Y1082D02*
X2019Y1082D01*
X1320Y1081D02*
X1327Y1081D01*
X2012Y1081D02*
X2019Y1081D01*
X1320Y1080D02*
X1327Y1080D01*
X2012Y1080D02*
X2019Y1080D01*
X1320Y1079D02*
X1327Y1079D01*
X2012Y1079D02*
X2019Y1079D01*
X1320Y1078D02*
X1327Y1078D01*
X2012Y1078D02*
X2019Y1078D01*
X1320Y1077D02*
X1327Y1077D01*
X2012Y1077D02*
X2019Y1077D01*
X1320Y1076D02*
X1327Y1076D01*
X2012Y1076D02*
X2019Y1076D01*
X1320Y1075D02*
X1327Y1075D01*
X2012Y1075D02*
X2019Y1075D01*
X1320Y1074D02*
X1327Y1074D01*
X2012Y1074D02*
X2019Y1074D01*
X1320Y1073D02*
X1327Y1073D01*
X2012Y1073D02*
X2019Y1073D01*
X1320Y1072D02*
X1327Y1072D01*
X2012Y1072D02*
X2019Y1072D01*
X1320Y1071D02*
X1327Y1071D01*
X2012Y1071D02*
X2019Y1071D01*
X1320Y1070D02*
X1327Y1070D01*
X2012Y1070D02*
X2019Y1070D01*
X1320Y1069D02*
X1327Y1069D01*
X2012Y1069D02*
X2019Y1069D01*
X1320Y1068D02*
X1327Y1068D01*
X2012Y1068D02*
X2019Y1068D01*
X1320Y1067D02*
X1327Y1067D01*
X2012Y1067D02*
X2019Y1067D01*
X1320Y1066D02*
X1327Y1066D01*
X2012Y1066D02*
X2019Y1066D01*
X1320Y1065D02*
X1327Y1065D01*
X2012Y1065D02*
X2019Y1065D01*
X1320Y1064D02*
X1327Y1064D01*
X2012Y1064D02*
X2019Y1064D01*
X1320Y1063D02*
X1327Y1063D01*
X2012Y1063D02*
X2019Y1063D01*
X1320Y1062D02*
X1327Y1062D01*
X2012Y1062D02*
X2019Y1062D01*
X1320Y1061D02*
X1327Y1061D01*
X2012Y1061D02*
X2019Y1061D01*
X1320Y1060D02*
X1327Y1060D01*
X2012Y1060D02*
X2019Y1060D01*
X1320Y1059D02*
X1327Y1059D01*
X2012Y1059D02*
X2019Y1059D01*
X1320Y1058D02*
X1327Y1058D01*
X2012Y1058D02*
X2019Y1058D01*
X1320Y1057D02*
X1327Y1057D01*
X2012Y1057D02*
X2019Y1057D01*
X1320Y1056D02*
X1327Y1056D01*
X2012Y1056D02*
X2019Y1056D01*
X1320Y1055D02*
X1327Y1055D01*
X2012Y1055D02*
X2019Y1055D01*
X1320Y1054D02*
X1327Y1054D01*
X2012Y1054D02*
X2019Y1054D01*
X1320Y1053D02*
X1327Y1053D01*
X2012Y1053D02*
X2019Y1053D01*
X1320Y1052D02*
X1327Y1052D01*
X2012Y1052D02*
X2019Y1052D01*
X1320Y1051D02*
X1327Y1051D01*
X2012Y1051D02*
X2019Y1051D01*
X1320Y1050D02*
X1327Y1050D01*
X2012Y1050D02*
X2019Y1050D01*
X1320Y1049D02*
X1327Y1049D01*
X2012Y1049D02*
X2019Y1049D01*
X1320Y1048D02*
X1327Y1048D01*
X2012Y1048D02*
X2019Y1048D01*
X1320Y1047D02*
X1327Y1047D01*
X2012Y1047D02*
X2019Y1047D01*
X1320Y1046D02*
X1327Y1046D01*
X2012Y1046D02*
X2019Y1046D01*
X1320Y1045D02*
X1327Y1045D01*
X2012Y1045D02*
X2019Y1045D01*
X1320Y1044D02*
X1327Y1044D01*
X2012Y1044D02*
X2019Y1044D01*
X1320Y1043D02*
X1327Y1043D01*
X2012Y1043D02*
X2019Y1043D01*
X1320Y1042D02*
X1327Y1042D01*
X2012Y1042D02*
X2019Y1042D01*
X1320Y1041D02*
X1327Y1041D01*
X2012Y1041D02*
X2019Y1041D01*
X1320Y1040D02*
X1327Y1040D01*
X2012Y1040D02*
X2019Y1040D01*
X1320Y1039D02*
X1327Y1039D01*
X2012Y1039D02*
X2019Y1039D01*
X1320Y1038D02*
X1327Y1038D01*
X2012Y1038D02*
X2019Y1038D01*
X1320Y1037D02*
X1327Y1037D01*
X2012Y1037D02*
X2019Y1037D01*
X1320Y1036D02*
X1327Y1036D01*
X2012Y1036D02*
X2019Y1036D01*
X1320Y1035D02*
X1327Y1035D01*
X2012Y1035D02*
X2019Y1035D01*
X1320Y1034D02*
X1327Y1034D01*
X2012Y1034D02*
X2019Y1034D01*
X1320Y1033D02*
X1327Y1033D01*
X2012Y1033D02*
X2019Y1033D01*
X1320Y1032D02*
X1327Y1032D01*
X2012Y1032D02*
X2019Y1032D01*
X1320Y1031D02*
X1327Y1031D01*
X2012Y1031D02*
X2019Y1031D01*
X1320Y1030D02*
X1327Y1030D01*
X2012Y1030D02*
X2019Y1030D01*
X1320Y1029D02*
X1327Y1029D01*
X2012Y1029D02*
X2019Y1029D01*
X1320Y1028D02*
X1327Y1028D01*
X2012Y1028D02*
X2019Y1028D01*
X1320Y1027D02*
X1327Y1027D01*
X2012Y1027D02*
X2019Y1027D01*
X1320Y1026D02*
X1327Y1026D01*
X2012Y1026D02*
X2019Y1026D01*
X1320Y1025D02*
X1327Y1025D01*
X2012Y1025D02*
X2019Y1025D01*
X1320Y1024D02*
X1327Y1024D01*
X2012Y1024D02*
X2019Y1024D01*
X1320Y1023D02*
X1327Y1023D01*
X2012Y1023D02*
X2019Y1023D01*
X1320Y1022D02*
X1327Y1022D01*
X2012Y1022D02*
X2019Y1022D01*
X1320Y1021D02*
X1327Y1021D01*
X2012Y1021D02*
X2019Y1021D01*
X1320Y1020D02*
X1327Y1020D01*
X2012Y1020D02*
X2019Y1020D01*
X1320Y1019D02*
X1327Y1019D01*
X2012Y1019D02*
X2019Y1019D01*
X1320Y1018D02*
X1327Y1018D01*
X2012Y1018D02*
X2019Y1018D01*
X1320Y1017D02*
X1327Y1017D01*
X2012Y1017D02*
X2019Y1017D01*
X1320Y1016D02*
X1327Y1016D01*
X2012Y1016D02*
X2019Y1016D01*
X1320Y1015D02*
X1327Y1015D01*
X2012Y1015D02*
X2019Y1015D01*
X1320Y1014D02*
X1327Y1014D01*
X2012Y1014D02*
X2019Y1014D01*
X1320Y1013D02*
X1327Y1013D01*
X2012Y1013D02*
X2019Y1013D01*
X1320Y1012D02*
X1327Y1012D01*
X2012Y1012D02*
X2019Y1012D01*
X1320Y1011D02*
X1327Y1011D01*
X2012Y1011D02*
X2019Y1011D01*
X1320Y1010D02*
X1327Y1010D01*
X2012Y1010D02*
X2019Y1010D01*
X1320Y1009D02*
X1327Y1009D01*
X2012Y1009D02*
X2019Y1009D01*
X1320Y1008D02*
X1327Y1008D01*
X2012Y1008D02*
X2019Y1008D01*
X1320Y1007D02*
X1327Y1007D01*
X2012Y1007D02*
X2019Y1007D01*
X1320Y1006D02*
X1327Y1006D01*
X2012Y1006D02*
X2019Y1006D01*
X1320Y1005D02*
X1327Y1005D01*
X2012Y1005D02*
X2019Y1005D01*
X1320Y1004D02*
X1327Y1004D01*
X2012Y1004D02*
X2019Y1004D01*
X1320Y1003D02*
X1327Y1003D01*
X2012Y1003D02*
X2019Y1003D01*
X1320Y1002D02*
X1327Y1002D01*
X2012Y1002D02*
X2019Y1002D01*
X1320Y1001D02*
X1327Y1001D01*
X2012Y1001D02*
X2019Y1001D01*
X1320Y1000D02*
X1327Y1000D01*
X2012Y1000D02*
X2019Y1000D01*
X1320Y999D02*
X1327Y999D01*
X2012Y999D02*
X2019Y999D01*
X1320Y998D02*
X1327Y998D01*
X2012Y998D02*
X2019Y998D01*
X1320Y997D02*
X1327Y997D01*
X2012Y997D02*
X2019Y997D01*
X1320Y996D02*
X1327Y996D01*
X2012Y996D02*
X2019Y996D01*
X1320Y995D02*
X1327Y995D01*
X2012Y995D02*
X2019Y995D01*
X1320Y994D02*
X1327Y994D01*
X2012Y994D02*
X2019Y994D01*
X1320Y993D02*
X1327Y993D01*
X2012Y993D02*
X2019Y993D01*
X1320Y992D02*
X1327Y992D01*
X2012Y992D02*
X2019Y992D01*
X1320Y991D02*
X1327Y991D01*
X2012Y991D02*
X2019Y991D01*
X1320Y990D02*
X1327Y990D01*
X2012Y990D02*
X2019Y990D01*
X1320Y989D02*
X1327Y989D01*
X2012Y989D02*
X2019Y989D01*
X1320Y988D02*
X1327Y988D01*
X2012Y988D02*
X2019Y988D01*
X1320Y987D02*
X1327Y987D01*
X2012Y987D02*
X2019Y987D01*
X1320Y986D02*
X1327Y986D01*
X2012Y986D02*
X2019Y986D01*
X1320Y985D02*
X1327Y985D01*
X2012Y985D02*
X2019Y985D01*
X1320Y984D02*
X1327Y984D01*
X2012Y984D02*
X2019Y984D01*
X1320Y983D02*
X1327Y983D01*
X2012Y983D02*
X2019Y983D01*
X1320Y982D02*
X1327Y982D01*
X2012Y982D02*
X2019Y982D01*
X1320Y981D02*
X1327Y981D01*
X2012Y981D02*
X2019Y981D01*
X1320Y980D02*
X1327Y980D01*
X2012Y980D02*
X2019Y980D01*
X1320Y979D02*
X1327Y979D01*
X2012Y979D02*
X2019Y979D01*
X1320Y978D02*
X1327Y978D01*
X2012Y978D02*
X2019Y978D01*
X1320Y977D02*
X1327Y977D01*
X2012Y977D02*
X2019Y977D01*
X1320Y976D02*
X1327Y976D01*
X2012Y976D02*
X2019Y976D01*
X1320Y975D02*
X1327Y975D01*
X2012Y975D02*
X2019Y975D01*
X1320Y974D02*
X1327Y974D01*
X2012Y974D02*
X2019Y974D01*
X1320Y973D02*
X1327Y973D01*
X2012Y973D02*
X2019Y973D01*
X1320Y972D02*
X1327Y972D01*
X2012Y972D02*
X2019Y972D01*
X1320Y971D02*
X1327Y971D01*
X2012Y971D02*
X2019Y971D01*
X1320Y970D02*
X1327Y970D01*
X2012Y970D02*
X2019Y970D01*
X1320Y969D02*
X1327Y969D01*
X2012Y969D02*
X2019Y969D01*
X1320Y968D02*
X1327Y968D01*
X2012Y968D02*
X2019Y968D01*
X1320Y967D02*
X1327Y967D01*
X2012Y967D02*
X2019Y967D01*
X1320Y966D02*
X1327Y966D01*
X2012Y966D02*
X2019Y966D01*
X1320Y965D02*
X1327Y965D01*
X2012Y965D02*
X2019Y965D01*
X1320Y964D02*
X1327Y964D01*
X2012Y964D02*
X2019Y964D01*
X1320Y963D02*
X1327Y963D01*
X2012Y963D02*
X2019Y963D01*
X1320Y962D02*
X1327Y962D01*
X2012Y962D02*
X2019Y962D01*
X1320Y961D02*
X1327Y961D01*
X2012Y961D02*
X2019Y961D01*
X1320Y960D02*
X1327Y960D01*
X2012Y960D02*
X2019Y960D01*
X1320Y959D02*
X1327Y959D01*
X2012Y959D02*
X2019Y959D01*
X1320Y958D02*
X1327Y958D01*
X2012Y958D02*
X2019Y958D01*
X1320Y957D02*
X1327Y957D01*
X2012Y957D02*
X2019Y957D01*
X1320Y956D02*
X1327Y956D01*
X2012Y956D02*
X2019Y956D01*
X1320Y955D02*
X1327Y955D01*
X2012Y955D02*
X2019Y955D01*
X1320Y954D02*
X1327Y954D01*
X2012Y954D02*
X2019Y954D01*
X1320Y953D02*
X1327Y953D01*
X2012Y953D02*
X2019Y953D01*
X1320Y952D02*
X1327Y952D01*
X2012Y952D02*
X2019Y952D01*
X1320Y951D02*
X1327Y951D01*
X2012Y951D02*
X2019Y951D01*
X1320Y950D02*
X1327Y950D01*
X2012Y950D02*
X2019Y950D01*
X1320Y949D02*
X1327Y949D01*
X2012Y949D02*
X2019Y949D01*
X1320Y948D02*
X1327Y948D01*
X2012Y948D02*
X2019Y948D01*
X1320Y947D02*
X1327Y947D01*
X2012Y947D02*
X2019Y947D01*
X1320Y946D02*
X1327Y946D01*
X2012Y946D02*
X2019Y946D01*
X1320Y945D02*
X1327Y945D01*
X2012Y945D02*
X2017Y945D01*
X1320Y944D02*
X1327Y944D01*
X2012Y944D02*
X2016Y944D01*
X1320Y943D02*
X1327Y943D01*
X2012Y943D02*
X2014Y943D01*
X1320Y942D02*
X1327Y942D01*
X2012Y942D02*
X2012Y942D01*
X1320Y941D02*
X1327Y941D01*
X1320Y940D02*
X1327Y940D01*
X1320Y939D02*
X1327Y939D01*
X1320Y938D02*
X1327Y938D01*
X1320Y937D02*
X1327Y937D01*
X1320Y936D02*
X1327Y936D01*
X1320Y935D02*
X1327Y935D01*
X1320Y934D02*
X1327Y934D01*
X1320Y933D02*
X1327Y933D01*
X1320Y932D02*
X1327Y932D01*
X1320Y931D02*
X1327Y931D01*
X1320Y930D02*
X1327Y930D01*
X1320Y929D02*
X1327Y929D01*
X1320Y928D02*
X1327Y928D01*
X1320Y927D02*
X1327Y927D01*
X1320Y926D02*
X1327Y926D01*
X1320Y925D02*
X1327Y925D01*
X1320Y924D02*
X1327Y924D01*
X1320Y923D02*
X1327Y923D01*
X1320Y922D02*
X1327Y922D01*
X1320Y921D02*
X1327Y921D01*
X1320Y920D02*
X1327Y920D01*
X1320Y919D02*
X1327Y919D01*
X1320Y918D02*
X1327Y918D01*
X1320Y917D02*
X1327Y917D01*
X1320Y916D02*
X1327Y916D01*
X1320Y915D02*
X1327Y915D01*
X1320Y914D02*
X1327Y914D01*
X1320Y913D02*
X1327Y913D01*
X1320Y912D02*
X1327Y912D01*
X1320Y911D02*
X1327Y911D01*
X1320Y910D02*
X1327Y910D01*
X1320Y909D02*
X1327Y909D01*
X1320Y908D02*
X1327Y908D01*
X1320Y907D02*
X1327Y907D01*
X1320Y906D02*
X1327Y906D01*
X1320Y905D02*
X1327Y905D01*
X1320Y904D02*
X1327Y904D01*
X2012Y904D02*
X2012Y904D01*
X1320Y903D02*
X1327Y903D01*
X2012Y903D02*
X2013Y903D01*
X1320Y902D02*
X1327Y902D01*
X2012Y902D02*
X2015Y902D01*
X1320Y901D02*
X1327Y901D01*
X2012Y901D02*
X2016Y901D01*
X1320Y900D02*
X1327Y900D01*
X2012Y900D02*
X2019Y900D01*
X1320Y899D02*
X1327Y899D01*
X2012Y899D02*
X2019Y899D01*
X1320Y898D02*
X1327Y898D01*
X2012Y898D02*
X2019Y898D01*
X1320Y897D02*
X1327Y897D01*
X2012Y897D02*
X2019Y897D01*
X1320Y896D02*
X1327Y896D01*
X2012Y896D02*
X2019Y896D01*
X1320Y895D02*
X1327Y895D01*
X2012Y895D02*
X2019Y895D01*
X1320Y894D02*
X1327Y894D01*
X2012Y894D02*
X2019Y894D01*
X1320Y893D02*
X1327Y893D01*
X2012Y893D02*
X2019Y893D01*
X1320Y892D02*
X1327Y892D01*
X2012Y892D02*
X2019Y892D01*
X1320Y891D02*
X1327Y891D01*
X2012Y891D02*
X2019Y891D01*
X1320Y890D02*
X1327Y890D01*
X2012Y890D02*
X2019Y890D01*
X1320Y889D02*
X1327Y889D01*
X2012Y889D02*
X2019Y889D01*
X1320Y888D02*
X1327Y888D01*
X2012Y888D02*
X2019Y888D01*
X1320Y887D02*
X1327Y887D01*
X2012Y887D02*
X2019Y887D01*
X1320Y886D02*
X1327Y886D01*
X2012Y886D02*
X2019Y886D01*
X1320Y885D02*
X1327Y885D01*
X2012Y885D02*
X2019Y885D01*
X1320Y884D02*
X1327Y884D01*
X2012Y884D02*
X2019Y884D01*
X1320Y883D02*
X1327Y883D01*
X2012Y883D02*
X2019Y883D01*
X1320Y882D02*
X1327Y882D01*
X2012Y882D02*
X2019Y882D01*
X1320Y881D02*
X1327Y881D01*
X2012Y881D02*
X2019Y881D01*
X1320Y880D02*
X1327Y880D01*
X2012Y880D02*
X2019Y880D01*
X1320Y879D02*
X1327Y879D01*
X2012Y879D02*
X2019Y879D01*
X1320Y878D02*
X1327Y878D01*
X2012Y878D02*
X2019Y878D01*
X1320Y877D02*
X1327Y877D01*
X2012Y877D02*
X2019Y877D01*
X1320Y876D02*
X1327Y876D01*
X2012Y876D02*
X2019Y876D01*
X1320Y875D02*
X1327Y875D01*
X2012Y875D02*
X2019Y875D01*
X1320Y874D02*
X1327Y874D01*
X2012Y874D02*
X2019Y874D01*
X1320Y873D02*
X1327Y873D01*
X2012Y873D02*
X2019Y873D01*
X1320Y872D02*
X1327Y872D01*
X2012Y872D02*
X2019Y872D01*
X1320Y871D02*
X1327Y871D01*
X2012Y871D02*
X2019Y871D01*
X1320Y870D02*
X1327Y870D01*
X2012Y870D02*
X2019Y870D01*
X1320Y869D02*
X1327Y869D01*
X2012Y869D02*
X2019Y869D01*
X1320Y868D02*
X1327Y868D01*
X2012Y868D02*
X2019Y868D01*
X1320Y867D02*
X1327Y867D01*
X2012Y867D02*
X2019Y867D01*
X1320Y866D02*
X1327Y866D01*
X2012Y866D02*
X2019Y866D01*
X1320Y865D02*
X1327Y865D01*
X2012Y865D02*
X2019Y865D01*
X1320Y864D02*
X1327Y864D01*
X2012Y864D02*
X2019Y864D01*
X1320Y863D02*
X1327Y863D01*
X2012Y863D02*
X2019Y863D01*
X1320Y862D02*
X1327Y862D01*
X2012Y862D02*
X2019Y862D01*
X1320Y861D02*
X1327Y861D01*
X2012Y861D02*
X2019Y861D01*
X1320Y860D02*
X1327Y860D01*
X2012Y860D02*
X2019Y860D01*
X1320Y859D02*
X1327Y859D01*
X2012Y859D02*
X2019Y859D01*
X1320Y858D02*
X1327Y858D01*
X2012Y858D02*
X2019Y858D01*
X1320Y857D02*
X1327Y857D01*
X2012Y857D02*
X2019Y857D01*
X1320Y856D02*
X1327Y856D01*
X2012Y856D02*
X2019Y856D01*
X1320Y855D02*
X1327Y855D01*
X2012Y855D02*
X2019Y855D01*
X1320Y854D02*
X1327Y854D01*
X2012Y854D02*
X2019Y854D01*
X1320Y853D02*
X1327Y853D01*
X2012Y853D02*
X2019Y853D01*
X1320Y852D02*
X1327Y852D01*
X2012Y852D02*
X2019Y852D01*
X1320Y851D02*
X1327Y851D01*
X2012Y851D02*
X2019Y851D01*
X1320Y850D02*
X1327Y850D01*
X2012Y850D02*
X2019Y850D01*
X1320Y849D02*
X1327Y849D01*
X2012Y849D02*
X2019Y849D01*
X1320Y848D02*
X1327Y848D01*
X2012Y848D02*
X2019Y848D01*
X1320Y847D02*
X1327Y847D01*
X2012Y847D02*
X2019Y847D01*
X1320Y846D02*
X1327Y846D01*
X2012Y846D02*
X2019Y846D01*
X1320Y845D02*
X1327Y845D01*
X2012Y845D02*
X2019Y845D01*
X1320Y844D02*
X1327Y844D01*
X2012Y844D02*
X2019Y844D01*
X1320Y843D02*
X1327Y843D01*
X2012Y843D02*
X2019Y843D01*
X1320Y842D02*
X1327Y842D01*
X2012Y842D02*
X2019Y842D01*
X1320Y841D02*
X1327Y841D01*
X2012Y841D02*
X2019Y841D01*
X1320Y840D02*
X1327Y840D01*
X2012Y840D02*
X2019Y840D01*
X1320Y839D02*
X1327Y839D01*
X2012Y839D02*
X2019Y839D01*
X1320Y838D02*
X1327Y838D01*
X2012Y838D02*
X2019Y838D01*
X1320Y837D02*
X1327Y837D01*
X2012Y837D02*
X2019Y837D01*
X1320Y836D02*
X1327Y836D01*
X2012Y836D02*
X2019Y836D01*
X1320Y835D02*
X1327Y835D01*
X2012Y835D02*
X2019Y835D01*
X1320Y834D02*
X1327Y834D01*
X2012Y834D02*
X2019Y834D01*
X1320Y833D02*
X1327Y833D01*
X2012Y833D02*
X2019Y833D01*
X1320Y832D02*
X1327Y832D01*
X2012Y832D02*
X2019Y832D01*
X1320Y831D02*
X1327Y831D01*
X2012Y831D02*
X2019Y831D01*
X1320Y830D02*
X1327Y830D01*
X2012Y830D02*
X2019Y830D01*
X1320Y829D02*
X1327Y829D01*
X2012Y829D02*
X2019Y829D01*
X1320Y828D02*
X1327Y828D01*
X2012Y828D02*
X2019Y828D01*
X1320Y827D02*
X1327Y827D01*
X2012Y827D02*
X2019Y827D01*
X1320Y826D02*
X1327Y826D01*
X2012Y826D02*
X2019Y826D01*
X1320Y825D02*
X1327Y825D01*
X2012Y825D02*
X2019Y825D01*
X1320Y824D02*
X1327Y824D01*
X2012Y824D02*
X2019Y824D01*
X1320Y823D02*
X1327Y823D01*
X2012Y823D02*
X2019Y823D01*
X1320Y822D02*
X1327Y822D01*
X2012Y822D02*
X2019Y822D01*
X1320Y821D02*
X1327Y821D01*
X2012Y821D02*
X2019Y821D01*
X1320Y820D02*
X1327Y820D01*
X2012Y820D02*
X2019Y820D01*
X1320Y819D02*
X1327Y819D01*
X2012Y819D02*
X2019Y819D01*
X1320Y818D02*
X1327Y818D01*
X2012Y818D02*
X2019Y818D01*
X1320Y817D02*
X1327Y817D01*
X2012Y817D02*
X2019Y817D01*
X1320Y816D02*
X1327Y816D01*
X2012Y816D02*
X2019Y816D01*
X1320Y815D02*
X1327Y815D01*
X2012Y815D02*
X2019Y815D01*
X1320Y814D02*
X1327Y814D01*
X2012Y814D02*
X2019Y814D01*
X1320Y813D02*
X1327Y813D01*
X2012Y813D02*
X2019Y813D01*
X1320Y812D02*
X1327Y812D01*
X2012Y812D02*
X2019Y812D01*
X1320Y811D02*
X1327Y811D01*
X2012Y811D02*
X2019Y811D01*
X1320Y810D02*
X1327Y810D01*
X2012Y810D02*
X2019Y810D01*
X1320Y809D02*
X1327Y809D01*
X2012Y809D02*
X2019Y809D01*
X1320Y808D02*
X1327Y808D01*
X2012Y808D02*
X2019Y808D01*
X1320Y807D02*
X1327Y807D01*
X2012Y807D02*
X2019Y807D01*
X1320Y806D02*
X1327Y806D01*
X2012Y806D02*
X2019Y806D01*
X1320Y805D02*
X1327Y805D01*
X2012Y805D02*
X2019Y805D01*
X1320Y804D02*
X1327Y804D01*
X2012Y804D02*
X2019Y804D01*
X1320Y803D02*
X1327Y803D01*
X2012Y803D02*
X2019Y803D01*
X1320Y802D02*
X1327Y802D01*
X2012Y802D02*
X2019Y802D01*
X1320Y801D02*
X1327Y801D01*
X2012Y801D02*
X2019Y801D01*
X1320Y800D02*
X1327Y800D01*
X2012Y800D02*
X2019Y800D01*
X1320Y799D02*
X1327Y799D01*
X2012Y799D02*
X2019Y799D01*
X1320Y798D02*
X1327Y798D01*
X2012Y798D02*
X2019Y798D01*
X1320Y797D02*
X1327Y797D01*
X2012Y797D02*
X2019Y797D01*
X1320Y796D02*
X1327Y796D01*
X2012Y796D02*
X2019Y796D01*
X1320Y795D02*
X1327Y795D01*
X2012Y795D02*
X2019Y795D01*
X1320Y794D02*
X1327Y794D01*
X2012Y794D02*
X2019Y794D01*
X1320Y793D02*
X1327Y793D01*
X2012Y793D02*
X2019Y793D01*
X1320Y792D02*
X1327Y792D01*
X2012Y792D02*
X2019Y792D01*
X1320Y791D02*
X1327Y791D01*
X2012Y791D02*
X2019Y791D01*
X1320Y790D02*
X1327Y790D01*
X2012Y790D02*
X2019Y790D01*
X1320Y789D02*
X1327Y789D01*
X2012Y789D02*
X2019Y789D01*
X1320Y788D02*
X1327Y788D01*
X2012Y788D02*
X2019Y788D01*
X1320Y787D02*
X1327Y787D01*
X2012Y787D02*
X2019Y787D01*
X1320Y786D02*
X1327Y786D01*
X2012Y786D02*
X2019Y786D01*
X1320Y785D02*
X1327Y785D01*
X2012Y785D02*
X2019Y785D01*
X1320Y784D02*
X1327Y784D01*
X2012Y784D02*
X2019Y784D01*
X1320Y783D02*
X1327Y783D01*
X2012Y783D02*
X2019Y783D01*
X1320Y782D02*
X1327Y782D01*
X2012Y782D02*
X2019Y782D01*
X1320Y781D02*
X1327Y781D01*
X2012Y781D02*
X2019Y781D01*
X1320Y780D02*
X1327Y780D01*
X2012Y780D02*
X2019Y780D01*
X1320Y779D02*
X1327Y779D01*
X2012Y779D02*
X2019Y779D01*
X1320Y778D02*
X1327Y778D01*
X2012Y778D02*
X2019Y778D01*
X1320Y777D02*
X1327Y777D01*
X2012Y777D02*
X2019Y777D01*
X1320Y776D02*
X1327Y776D01*
X2012Y776D02*
X2019Y776D01*
X1320Y775D02*
X1327Y775D01*
X2012Y775D02*
X2019Y775D01*
X1320Y774D02*
X1327Y774D01*
X2012Y774D02*
X2019Y774D01*
X1320Y773D02*
X1327Y773D01*
X2012Y773D02*
X2019Y773D01*
X1320Y772D02*
X1327Y772D01*
X2012Y772D02*
X2019Y772D01*
X1320Y771D02*
X1327Y771D01*
X2012Y771D02*
X2019Y771D01*
X1320Y770D02*
X1327Y770D01*
X2012Y770D02*
X2019Y770D01*
X1320Y769D02*
X1327Y769D01*
X2012Y769D02*
X2019Y769D01*
X1320Y768D02*
X1327Y768D01*
X2012Y768D02*
X2019Y768D01*
X1320Y767D02*
X1327Y767D01*
X2012Y767D02*
X2019Y767D01*
X1320Y766D02*
X1327Y766D01*
X2012Y766D02*
X2019Y766D01*
X1320Y765D02*
X1327Y765D01*
X2012Y765D02*
X2019Y765D01*
X1320Y764D02*
X1327Y764D01*
X2012Y764D02*
X2019Y764D01*
X1320Y763D02*
X1327Y763D01*
X2012Y763D02*
X2019Y763D01*
X1320Y762D02*
X1327Y762D01*
X2012Y762D02*
X2019Y762D01*
X1320Y761D02*
X1327Y761D01*
X2012Y761D02*
X2019Y761D01*
X1320Y760D02*
X1327Y760D01*
X2012Y760D02*
X2019Y760D01*
X1320Y759D02*
X1327Y759D01*
X2012Y759D02*
X2019Y759D01*
X1320Y758D02*
X1327Y758D01*
X2012Y758D02*
X2019Y758D01*
X1320Y757D02*
X1327Y757D01*
X2012Y757D02*
X2019Y757D01*
X1320Y756D02*
X1327Y756D01*
X2012Y756D02*
X2019Y756D01*
X1320Y755D02*
X1327Y755D01*
X2012Y755D02*
X2019Y755D01*
X1320Y754D02*
X1327Y754D01*
X2012Y754D02*
X2019Y754D01*
X1320Y753D02*
X1327Y753D01*
X2012Y753D02*
X2019Y753D01*
X1320Y752D02*
X1327Y752D01*
X2012Y752D02*
X2019Y752D01*
X1320Y751D02*
X1327Y751D01*
X2012Y751D02*
X2019Y751D01*
X1320Y750D02*
X1327Y750D01*
X2012Y750D02*
X2019Y750D01*
X1320Y749D02*
X1327Y749D01*
X2012Y749D02*
X2019Y749D01*
X1320Y748D02*
X1327Y748D01*
X2012Y748D02*
X2019Y748D01*
X1320Y747D02*
X1327Y747D01*
X2012Y747D02*
X2019Y747D01*
X1320Y746D02*
X1327Y746D01*
X2012Y746D02*
X2019Y746D01*
X1320Y745D02*
X1327Y745D01*
X2012Y745D02*
X2019Y745D01*
X1320Y744D02*
X1327Y744D01*
X2012Y744D02*
X2019Y744D01*
X1320Y743D02*
X1327Y743D01*
X2012Y743D02*
X2019Y743D01*
X1320Y742D02*
X1327Y742D01*
X2012Y742D02*
X2019Y742D01*
X1320Y741D02*
X1327Y741D01*
X2012Y741D02*
X2019Y741D01*
X1320Y740D02*
X1327Y740D01*
X2012Y740D02*
X2019Y740D01*
X1320Y739D02*
X1327Y739D01*
X2012Y739D02*
X2019Y739D01*
X1320Y738D02*
X1327Y738D01*
X2012Y738D02*
X2019Y738D01*
X1320Y737D02*
X1327Y737D01*
X2012Y737D02*
X2019Y737D01*
X1320Y736D02*
X1327Y736D01*
X2012Y736D02*
X2019Y736D01*
X1320Y735D02*
X1327Y735D01*
X2012Y735D02*
X2019Y735D01*
X1320Y734D02*
X1327Y734D01*
X2012Y734D02*
X2019Y734D01*
X1320Y733D02*
X1327Y733D01*
X2012Y733D02*
X2019Y733D01*
X1320Y732D02*
X1327Y732D01*
X2012Y732D02*
X2019Y732D01*
X1320Y731D02*
X1327Y731D01*
X2012Y731D02*
X2019Y731D01*
X1320Y730D02*
X1327Y730D01*
X2012Y730D02*
X2019Y730D01*
X1320Y729D02*
X1327Y729D01*
X2012Y729D02*
X2019Y729D01*
X1320Y728D02*
X1327Y728D01*
X2012Y728D02*
X2019Y728D01*
X1320Y727D02*
X1327Y727D01*
X2012Y727D02*
X2019Y727D01*
X1320Y726D02*
X1327Y726D01*
X2012Y726D02*
X2019Y726D01*
X1320Y725D02*
X1327Y725D01*
X2012Y725D02*
X2019Y725D01*
X1320Y724D02*
X1327Y724D01*
X2012Y724D02*
X2019Y724D01*
X1320Y723D02*
X1327Y723D01*
X2012Y723D02*
X2019Y723D01*
X1320Y722D02*
X1327Y722D01*
X2012Y722D02*
X2019Y722D01*
X1320Y721D02*
X1327Y721D01*
X2012Y721D02*
X2019Y721D01*
X1320Y720D02*
X1327Y720D01*
X2012Y720D02*
X2019Y720D01*
X1320Y719D02*
X1327Y719D01*
X2012Y719D02*
X2019Y719D01*
X1320Y718D02*
X1327Y718D01*
X2012Y718D02*
X2019Y718D01*
X1320Y717D02*
X1327Y717D01*
X2012Y717D02*
X2019Y717D01*
X1320Y716D02*
X1327Y716D01*
X2012Y716D02*
X2019Y716D01*
X1320Y715D02*
X1327Y715D01*
X2012Y715D02*
X2019Y715D01*
X1320Y714D02*
X1327Y714D01*
X2012Y714D02*
X2019Y714D01*
X1320Y713D02*
X1327Y713D01*
X2012Y713D02*
X2019Y713D01*
X1320Y712D02*
X1327Y712D01*
X2012Y712D02*
X2019Y712D01*
X1320Y711D02*
X1327Y711D01*
X2012Y711D02*
X2019Y711D01*
X1320Y710D02*
X1327Y710D01*
X2012Y710D02*
X2019Y710D01*
X1320Y709D02*
X1327Y709D01*
X2012Y709D02*
X2019Y709D01*
X1320Y708D02*
X1327Y708D01*
X2012Y708D02*
X2019Y708D01*
X1320Y707D02*
X1327Y707D01*
X2012Y707D02*
X2019Y707D01*
X1320Y706D02*
X1327Y706D01*
X2012Y706D02*
X2019Y706D01*
X1320Y705D02*
X1327Y705D01*
X2012Y705D02*
X2019Y705D01*
X1320Y704D02*
X1327Y704D01*
X2012Y704D02*
X2019Y704D01*
X1320Y703D02*
X1327Y703D01*
X2012Y703D02*
X2019Y703D01*
X1320Y702D02*
X1327Y702D01*
X2012Y702D02*
X2019Y702D01*
X1320Y701D02*
X1327Y701D01*
X2012Y701D02*
X2019Y701D01*
X1320Y700D02*
X1327Y700D01*
X2012Y700D02*
X2019Y700D01*
X1320Y699D02*
X1327Y699D01*
X2012Y699D02*
X2019Y699D01*
X1320Y698D02*
X1327Y698D01*
X2012Y698D02*
X2019Y698D01*
X1320Y697D02*
X1327Y697D01*
X2012Y697D02*
X2019Y697D01*
X1320Y696D02*
X1327Y696D01*
X2012Y696D02*
X2019Y696D01*
X1320Y695D02*
X1327Y695D01*
X2012Y695D02*
X2019Y695D01*
X1320Y694D02*
X1327Y694D01*
X2012Y694D02*
X2019Y694D01*
X1320Y693D02*
X1327Y693D01*
X2012Y693D02*
X2019Y693D01*
X1320Y692D02*
X1327Y692D01*
X2012Y692D02*
X2019Y692D01*
X1320Y691D02*
X1327Y691D01*
X2012Y691D02*
X2019Y691D01*
X1320Y690D02*
X1327Y690D01*
X2012Y690D02*
X2019Y690D01*
X1320Y689D02*
X1327Y689D01*
X2012Y689D02*
X2019Y689D01*
X1320Y688D02*
X1327Y688D01*
X2012Y688D02*
X2019Y688D01*
X1320Y687D02*
X1327Y687D01*
X2012Y687D02*
X2019Y687D01*
X1320Y686D02*
X1327Y686D01*
X2012Y686D02*
X2019Y686D01*
X1320Y685D02*
X1327Y685D01*
X2012Y685D02*
X2019Y685D01*
X1320Y684D02*
X1327Y684D01*
X2012Y684D02*
X2019Y684D01*
X1320Y683D02*
X1327Y683D01*
X2012Y683D02*
X2019Y683D01*
X1320Y682D02*
X1327Y682D01*
X2012Y682D02*
X2019Y682D01*
X1320Y681D02*
X1327Y681D01*
X2012Y681D02*
X2019Y681D01*
X1320Y680D02*
X1327Y680D01*
X2012Y680D02*
X2019Y680D01*
X1320Y679D02*
X1327Y679D01*
X2012Y679D02*
X2019Y679D01*
X1320Y678D02*
X1327Y678D01*
X2012Y678D02*
X2019Y678D01*
X1320Y677D02*
X1327Y677D01*
X2012Y677D02*
X2019Y677D01*
X1320Y676D02*
X1327Y676D01*
X2012Y676D02*
X2019Y676D01*
X1320Y675D02*
X1327Y675D01*
X2012Y675D02*
X2019Y675D01*
X1320Y674D02*
X1327Y674D01*
X2012Y674D02*
X2019Y674D01*
X1320Y673D02*
X1327Y673D01*
X2012Y673D02*
X2019Y673D01*
X1320Y672D02*
X1327Y672D01*
X2012Y672D02*
X2019Y672D01*
X1320Y671D02*
X1327Y671D01*
X2012Y671D02*
X2019Y671D01*
X1320Y670D02*
X1327Y670D01*
X2012Y670D02*
X2019Y670D01*
X1320Y669D02*
X1327Y669D01*
X2012Y669D02*
X2019Y669D01*
X1320Y668D02*
X1327Y668D01*
X2012Y668D02*
X2019Y668D01*
X1320Y667D02*
X1327Y667D01*
X2012Y667D02*
X2019Y667D01*
X1320Y666D02*
X1327Y666D01*
X2012Y666D02*
X2019Y666D01*
X1320Y665D02*
X1327Y665D01*
X2012Y665D02*
X2019Y665D01*
X1320Y664D02*
X1327Y664D01*
X2012Y664D02*
X2019Y664D01*
X1320Y663D02*
X1327Y663D01*
X2012Y663D02*
X2019Y663D01*
X1320Y662D02*
X1327Y662D01*
X2012Y662D02*
X2019Y662D01*
X1320Y661D02*
X1327Y661D01*
X2012Y661D02*
X2019Y661D01*
X1320Y660D02*
X1327Y660D01*
X2012Y660D02*
X2019Y660D01*
X1320Y659D02*
X1327Y659D01*
X2012Y659D02*
X2019Y659D01*
X1320Y658D02*
X1327Y658D01*
X2012Y658D02*
X2019Y658D01*
X1320Y657D02*
X1327Y657D01*
X2012Y657D02*
X2019Y657D01*
X1320Y656D02*
X1327Y656D01*
X2012Y656D02*
X2019Y656D01*
X1320Y655D02*
X1327Y655D01*
X2012Y655D02*
X2019Y655D01*
X1320Y654D02*
X1327Y654D01*
X2012Y654D02*
X2019Y654D01*
X1320Y653D02*
X1327Y653D01*
X2012Y653D02*
X2019Y653D01*
X1320Y652D02*
X1327Y652D01*
X2012Y652D02*
X2019Y652D01*
X1320Y651D02*
X1327Y651D01*
X2012Y651D02*
X2019Y651D01*
X1320Y650D02*
X1327Y650D01*
X2012Y650D02*
X2019Y650D01*
X1320Y649D02*
X1327Y649D01*
X2012Y649D02*
X2019Y649D01*
X1320Y648D02*
X1327Y648D01*
X2012Y648D02*
X2019Y648D01*
X1320Y647D02*
X1327Y647D01*
X2012Y647D02*
X2019Y647D01*
X1320Y646D02*
X1327Y646D01*
X2012Y646D02*
X2019Y646D01*
X1320Y645D02*
X1327Y645D01*
X2012Y645D02*
X2019Y645D01*
X1320Y644D02*
X1327Y644D01*
X2012Y644D02*
X2019Y644D01*
X1320Y643D02*
X1327Y643D01*
X2012Y643D02*
X2019Y643D01*
X1320Y642D02*
X1327Y642D01*
X2012Y642D02*
X2019Y642D01*
X1320Y641D02*
X1327Y641D01*
X2012Y641D02*
X2019Y641D01*
X1320Y640D02*
X1327Y640D01*
X2012Y640D02*
X2019Y640D01*
X1320Y639D02*
X1327Y639D01*
X2012Y639D02*
X2019Y639D01*
X1320Y638D02*
X1327Y638D01*
X2012Y638D02*
X2019Y638D01*
X1320Y637D02*
X1327Y637D01*
X2012Y637D02*
X2019Y637D01*
X1320Y636D02*
X1327Y636D01*
X2012Y636D02*
X2019Y636D01*
X1320Y635D02*
X1327Y635D01*
X2012Y635D02*
X2019Y635D01*
X1320Y634D02*
X1327Y634D01*
X2012Y634D02*
X2019Y634D01*
X1320Y633D02*
X1327Y633D01*
X2012Y633D02*
X2019Y633D01*
X1320Y632D02*
X1327Y632D01*
X2012Y632D02*
X2019Y632D01*
X1320Y631D02*
X1327Y631D01*
X2012Y631D02*
X2019Y631D01*
X1320Y630D02*
X1327Y630D01*
X2012Y630D02*
X2019Y630D01*
X1320Y629D02*
X1327Y629D01*
X2012Y629D02*
X2019Y629D01*
X1320Y628D02*
X1327Y628D01*
X2012Y628D02*
X2019Y628D01*
X1320Y627D02*
X1327Y627D01*
X2012Y627D02*
X2019Y627D01*
X1320Y626D02*
X1327Y626D01*
X2012Y626D02*
X2019Y626D01*
X1320Y625D02*
X1327Y625D01*
X2012Y625D02*
X2019Y625D01*
X1320Y624D02*
X1327Y624D01*
X2012Y624D02*
X2019Y624D01*
X1320Y623D02*
X1327Y623D01*
X2012Y623D02*
X2019Y623D01*
X1320Y622D02*
X1327Y622D01*
X2012Y622D02*
X2019Y622D01*
X1320Y621D02*
X1327Y621D01*
X2012Y621D02*
X2019Y621D01*
X1320Y620D02*
X1327Y620D01*
X2012Y620D02*
X2019Y620D01*
X1320Y619D02*
X1327Y619D01*
X2012Y619D02*
X2019Y619D01*
X1320Y618D02*
X1327Y618D01*
X2012Y618D02*
X2019Y618D01*
X1320Y617D02*
X1327Y617D01*
X2012Y617D02*
X2019Y617D01*
X1320Y616D02*
X1327Y616D01*
X2012Y616D02*
X2019Y616D01*
X1320Y615D02*
X1327Y615D01*
X2012Y615D02*
X2019Y615D01*
X1320Y614D02*
X1327Y614D01*
X2012Y614D02*
X2019Y614D01*
X1320Y613D02*
X1327Y613D01*
X2012Y613D02*
X2019Y613D01*
X1320Y612D02*
X1327Y612D01*
X2012Y612D02*
X2019Y612D01*
X1320Y611D02*
X1327Y611D01*
X2012Y611D02*
X2019Y611D01*
X1320Y610D02*
X1327Y610D01*
X2012Y610D02*
X2019Y610D01*
X1320Y609D02*
X1327Y609D01*
X2012Y609D02*
X2019Y609D01*
X1320Y608D02*
X1327Y608D01*
X2012Y608D02*
X2019Y608D01*
X1320Y607D02*
X1327Y607D01*
X2012Y607D02*
X2019Y607D01*
X1320Y606D02*
X1327Y606D01*
X2012Y606D02*
X2019Y606D01*
X1320Y605D02*
X1327Y605D01*
X2012Y605D02*
X2019Y605D01*
X1320Y604D02*
X1327Y604D01*
X2012Y604D02*
X2019Y604D01*
X1320Y603D02*
X1327Y603D01*
X2012Y603D02*
X2019Y603D01*
X1320Y602D02*
X1327Y602D01*
X2012Y602D02*
X2019Y602D01*
X1320Y601D02*
X1327Y601D01*
X2012Y601D02*
X2019Y601D01*
X1320Y600D02*
X1327Y600D01*
X2012Y600D02*
X2019Y600D01*
X1320Y599D02*
X1327Y599D01*
X2012Y599D02*
X2019Y599D01*
X1320Y598D02*
X1327Y598D01*
X2012Y598D02*
X2019Y598D01*
X1320Y597D02*
X1327Y597D01*
X2012Y597D02*
X2019Y597D01*
X1320Y596D02*
X1327Y596D01*
X2012Y596D02*
X2019Y596D01*
X1320Y595D02*
X1327Y595D01*
X2012Y595D02*
X2019Y595D01*
X1320Y594D02*
X1327Y594D01*
X2012Y594D02*
X2019Y594D01*
X1320Y593D02*
X1327Y593D01*
X2012Y593D02*
X2019Y593D01*
X1320Y592D02*
X1327Y592D01*
X2012Y592D02*
X2019Y592D01*
X1320Y591D02*
X1327Y591D01*
X2012Y591D02*
X2019Y591D01*
X1320Y590D02*
X1327Y590D01*
X2012Y590D02*
X2019Y590D01*
X1320Y589D02*
X1327Y589D01*
X2012Y589D02*
X2019Y589D01*
X1320Y588D02*
X1327Y588D01*
X2012Y588D02*
X2019Y588D01*
X1320Y587D02*
X1327Y587D01*
X2012Y587D02*
X2019Y587D01*
X1320Y586D02*
X1327Y586D01*
X2012Y586D02*
X2019Y586D01*
X1320Y585D02*
X1327Y585D01*
X2012Y585D02*
X2019Y585D01*
X1320Y584D02*
X1327Y584D01*
X2012Y584D02*
X2019Y584D01*
X1320Y583D02*
X1327Y583D01*
X2012Y583D02*
X2019Y583D01*
X1320Y582D02*
X1327Y582D01*
X2012Y582D02*
X2019Y582D01*
X1320Y581D02*
X1327Y581D01*
X2012Y581D02*
X2019Y581D01*
X1320Y580D02*
X1327Y580D01*
X2012Y580D02*
X2019Y580D01*
X1320Y579D02*
X1327Y579D01*
X2012Y579D02*
X2019Y579D01*
X1320Y578D02*
X1327Y578D01*
X2012Y578D02*
X2019Y578D01*
X1320Y577D02*
X1327Y577D01*
X2012Y577D02*
X2019Y577D01*
X1320Y576D02*
X1327Y576D01*
X2012Y576D02*
X2019Y576D01*
X1320Y575D02*
X1327Y575D01*
X2012Y575D02*
X2019Y575D01*
X1320Y574D02*
X1327Y574D01*
X2012Y574D02*
X2019Y574D01*
X1320Y573D02*
X1327Y573D01*
X2012Y573D02*
X2019Y573D01*
X1320Y572D02*
X1327Y572D01*
X2012Y572D02*
X2019Y572D01*
X1320Y571D02*
X1327Y571D01*
X2012Y571D02*
X2019Y571D01*
X1320Y570D02*
X1327Y570D01*
X2012Y570D02*
X2019Y570D01*
X1320Y569D02*
X1327Y569D01*
X2012Y569D02*
X2019Y569D01*
X1320Y568D02*
X1327Y568D01*
X2012Y568D02*
X2019Y568D01*
X1320Y567D02*
X1327Y567D01*
X2012Y567D02*
X2019Y567D01*
X1320Y566D02*
X1327Y566D01*
X2012Y566D02*
X2019Y566D01*
X1320Y565D02*
X1327Y565D01*
X2012Y565D02*
X2019Y565D01*
X1320Y564D02*
X1327Y564D01*
X2012Y564D02*
X2019Y564D01*
X1320Y563D02*
X1327Y563D01*
X2012Y563D02*
X2019Y563D01*
X1320Y562D02*
X1327Y562D01*
X2012Y562D02*
X2019Y562D01*
X1320Y561D02*
X1327Y561D01*
X2012Y561D02*
X2019Y561D01*
X1320Y560D02*
X1327Y560D01*
X2012Y560D02*
X2019Y560D01*
X1320Y559D02*
X1327Y559D01*
X2012Y559D02*
X2019Y559D01*
X1320Y558D02*
X1327Y558D01*
X2012Y558D02*
X2019Y558D01*
X1320Y557D02*
X1327Y557D01*
X2012Y557D02*
X2019Y557D01*
X1320Y556D02*
X1327Y556D01*
X2012Y556D02*
X2019Y556D01*
X1320Y555D02*
X1327Y555D01*
X2012Y555D02*
X2019Y555D01*
X1320Y554D02*
X1327Y554D01*
X2012Y554D02*
X2019Y554D01*
X1320Y553D02*
X1327Y553D01*
X2012Y553D02*
X2019Y553D01*
X1320Y552D02*
X1327Y552D01*
X2012Y552D02*
X2019Y552D01*
X1320Y551D02*
X1327Y551D01*
X2012Y551D02*
X2019Y551D01*
X1320Y550D02*
X1327Y550D01*
X2012Y550D02*
X2019Y550D01*
X1320Y549D02*
X1327Y549D01*
X2012Y549D02*
X2019Y549D01*
X1320Y548D02*
X1327Y548D01*
X2012Y548D02*
X2019Y548D01*
X1320Y547D02*
X1327Y547D01*
X2012Y547D02*
X2019Y547D01*
X1320Y546D02*
X1327Y546D01*
X2012Y546D02*
X2019Y546D01*
X1320Y545D02*
X1327Y545D01*
X2012Y545D02*
X2019Y545D01*
X1320Y544D02*
X1327Y544D01*
X2012Y544D02*
X2019Y544D01*
X1320Y543D02*
X1327Y543D01*
X2012Y543D02*
X2019Y543D01*
X1320Y542D02*
X1327Y542D01*
X2012Y542D02*
X2019Y542D01*
X1320Y541D02*
X1327Y541D01*
X2012Y541D02*
X2019Y541D01*
X1320Y540D02*
X1327Y540D01*
X2012Y540D02*
X2019Y540D01*
X1320Y539D02*
X1327Y539D01*
X2012Y539D02*
X2019Y539D01*
X1320Y538D02*
X1327Y538D01*
X2012Y538D02*
X2019Y538D01*
X1320Y537D02*
X1327Y537D01*
X2012Y537D02*
X2019Y537D01*
X1320Y536D02*
X1327Y536D01*
X2012Y536D02*
X2019Y536D01*
X1320Y535D02*
X1327Y535D01*
X2012Y535D02*
X2019Y535D01*
X1320Y534D02*
X1327Y534D01*
X2012Y534D02*
X2019Y534D01*
X1320Y533D02*
X1327Y533D01*
X2012Y533D02*
X2019Y533D01*
X1320Y532D02*
X1327Y532D01*
X2012Y532D02*
X2019Y532D01*
X1320Y531D02*
X1327Y531D01*
X2012Y531D02*
X2019Y531D01*
X1320Y530D02*
X1327Y530D01*
X2012Y530D02*
X2019Y530D01*
X1320Y529D02*
X1327Y529D01*
X2012Y529D02*
X2019Y529D01*
X1320Y528D02*
X1327Y528D01*
X2012Y528D02*
X2019Y528D01*
X1320Y527D02*
X1327Y527D01*
X2012Y527D02*
X2019Y527D01*
X1320Y526D02*
X1327Y526D01*
X2012Y526D02*
X2019Y526D01*
X1320Y525D02*
X1327Y525D01*
X2012Y525D02*
X2019Y525D01*
X1320Y524D02*
X1327Y524D01*
X2012Y524D02*
X2019Y524D01*
X1320Y523D02*
X1327Y523D01*
X2012Y523D02*
X2019Y523D01*
X1320Y522D02*
X1327Y522D01*
X2012Y522D02*
X2019Y522D01*
X1320Y521D02*
X1327Y521D01*
X2012Y521D02*
X2019Y521D01*
X1320Y520D02*
X1327Y520D01*
X2012Y520D02*
X2019Y520D01*
X1320Y519D02*
X1327Y519D01*
X2012Y519D02*
X2019Y519D01*
X1320Y518D02*
X1327Y518D01*
X2012Y518D02*
X2019Y518D01*
X1320Y517D02*
X1327Y517D01*
X2012Y517D02*
X2019Y517D01*
X1320Y516D02*
X1327Y516D01*
X2012Y516D02*
X2019Y516D01*
X1320Y515D02*
X1327Y515D01*
X2012Y515D02*
X2019Y515D01*
X1320Y514D02*
X1327Y514D01*
X2012Y514D02*
X2019Y514D01*
X1320Y513D02*
X1327Y513D01*
X2012Y513D02*
X2019Y513D01*
X1320Y512D02*
X1327Y512D01*
X2012Y512D02*
X2019Y512D01*
X1320Y511D02*
X1327Y511D01*
X2012Y511D02*
X2019Y511D01*
X1320Y510D02*
X1327Y510D01*
X2012Y510D02*
X2019Y510D01*
X1320Y509D02*
X1327Y509D01*
X2012Y509D02*
X2019Y509D01*
X1320Y508D02*
X1327Y508D01*
X2012Y508D02*
X2019Y508D01*
X1320Y507D02*
X1327Y507D01*
X2012Y507D02*
X2019Y507D01*
X1320Y506D02*
X1327Y506D01*
X2012Y506D02*
X2019Y506D01*
X1320Y505D02*
X1327Y505D01*
X2012Y505D02*
X2019Y505D01*
X1320Y504D02*
X1327Y504D01*
X2012Y504D02*
X2019Y504D01*
X1320Y503D02*
X1327Y503D01*
X2012Y503D02*
X2019Y503D01*
X1320Y502D02*
X1327Y502D01*
X2012Y502D02*
X2019Y502D01*
X1320Y501D02*
X1327Y501D01*
X2012Y501D02*
X2019Y501D01*
X1320Y500D02*
X1327Y500D01*
X2012Y500D02*
X2019Y500D01*
X1320Y499D02*
X1327Y499D01*
X2012Y499D02*
X2019Y499D01*
X1320Y498D02*
X1327Y498D01*
X2012Y498D02*
X2019Y498D01*
X1320Y497D02*
X1327Y497D01*
X2012Y497D02*
X2019Y497D01*
X1320Y496D02*
X1327Y496D01*
X2012Y496D02*
X2019Y496D01*
X1320Y495D02*
X1327Y495D01*
X2012Y495D02*
X2019Y495D01*
X1320Y494D02*
X1327Y494D01*
X2012Y494D02*
X2019Y494D01*
X1320Y493D02*
X1327Y493D01*
X2012Y493D02*
X2019Y493D01*
X1320Y492D02*
X1327Y492D01*
X2012Y492D02*
X2019Y492D01*
X1320Y491D02*
X1327Y491D01*
X2012Y491D02*
X2019Y491D01*
X1320Y490D02*
X1327Y490D01*
X2012Y490D02*
X2019Y490D01*
X1320Y489D02*
X1327Y489D01*
X2012Y489D02*
X2019Y489D01*
X1320Y488D02*
X1327Y488D01*
X2012Y488D02*
X2019Y488D01*
X1320Y487D02*
X1327Y487D01*
X2012Y487D02*
X2019Y487D01*
X1320Y486D02*
X1327Y486D01*
X2012Y486D02*
X2019Y486D01*
X1320Y485D02*
X1327Y485D01*
X2012Y485D02*
X2019Y485D01*
X1320Y484D02*
X1327Y484D01*
X2012Y484D02*
X2019Y484D01*
X1320Y483D02*
X1327Y483D01*
X2012Y483D02*
X2019Y483D01*
X1320Y482D02*
X1327Y482D01*
X2012Y482D02*
X2019Y482D01*
X1320Y481D02*
X1327Y481D01*
X2012Y481D02*
X2019Y481D01*
X1320Y480D02*
X1327Y480D01*
X2012Y480D02*
X2019Y480D01*
X1320Y479D02*
X1327Y479D01*
X2012Y479D02*
X2019Y479D01*
X1320Y478D02*
X1327Y478D01*
X2012Y478D02*
X2019Y478D01*
X1320Y477D02*
X1327Y477D01*
X2012Y477D02*
X2019Y477D01*
X1320Y476D02*
X1327Y476D01*
X2012Y476D02*
X2019Y476D01*
X1320Y475D02*
X1327Y475D01*
X2012Y475D02*
X2019Y475D01*
X1320Y474D02*
X1327Y474D01*
X2012Y474D02*
X2019Y474D01*
X1320Y473D02*
X1327Y473D01*
X2012Y473D02*
X2019Y473D01*
X1320Y472D02*
X1327Y472D01*
X2012Y472D02*
X2019Y472D01*
X1320Y471D02*
X1327Y471D01*
X2012Y471D02*
X2019Y471D01*
X1320Y470D02*
X1327Y470D01*
X2012Y470D02*
X2019Y470D01*
X1320Y469D02*
X1327Y469D01*
X2012Y469D02*
X2019Y469D01*
X1320Y468D02*
X1327Y468D01*
X2012Y468D02*
X2019Y468D01*
X1320Y467D02*
X1327Y467D01*
X2012Y467D02*
X2019Y467D01*
X1320Y466D02*
X1327Y466D01*
X2012Y466D02*
X2019Y466D01*
X1320Y465D02*
X1327Y465D01*
X2012Y465D02*
X2019Y465D01*
X1320Y464D02*
X1327Y464D01*
X2012Y464D02*
X2019Y464D01*
X1320Y463D02*
X1327Y463D01*
X2012Y463D02*
X2019Y463D01*
X1320Y462D02*
X1327Y462D01*
X2012Y462D02*
X2019Y462D01*
X1320Y461D02*
X1327Y461D01*
X2012Y461D02*
X2019Y461D01*
X1320Y460D02*
X1327Y460D01*
X2012Y460D02*
X2019Y460D01*
X1320Y459D02*
X1327Y459D01*
X2012Y459D02*
X2019Y459D01*
X1320Y458D02*
X1327Y458D01*
X2012Y458D02*
X2019Y458D01*
X1320Y457D02*
X1327Y457D01*
X2012Y457D02*
X2019Y457D01*
X1320Y456D02*
X1327Y456D01*
X2012Y456D02*
X2019Y456D01*
X1320Y455D02*
X1327Y455D01*
X2012Y455D02*
X2019Y455D01*
X1320Y454D02*
X1327Y454D01*
X2012Y454D02*
X2019Y454D01*
X1320Y453D02*
X1327Y453D01*
X2012Y453D02*
X2019Y453D01*
X1320Y452D02*
X1327Y452D01*
X2012Y452D02*
X2019Y452D01*
X1320Y451D02*
X1327Y451D01*
X2012Y451D02*
X2019Y451D01*
X1320Y450D02*
X1327Y450D01*
X2012Y450D02*
X2019Y450D01*
X1320Y449D02*
X1327Y449D01*
X2012Y449D02*
X2019Y449D01*
X1320Y448D02*
X1327Y448D01*
X2012Y448D02*
X2019Y448D01*
X1320Y447D02*
X1327Y447D01*
X2012Y447D02*
X2019Y447D01*
X1320Y446D02*
X1327Y446D01*
X2012Y446D02*
X2019Y446D01*
X1320Y445D02*
X1327Y445D01*
X2012Y445D02*
X2019Y445D01*
X1320Y444D02*
X1327Y444D01*
X2012Y444D02*
X2019Y444D01*
X1320Y443D02*
X1327Y443D01*
X2012Y443D02*
X2019Y443D01*
X1320Y442D02*
X1327Y442D01*
X2012Y442D02*
X2019Y442D01*
X1320Y441D02*
X1327Y441D01*
X2012Y441D02*
X2019Y441D01*
X1320Y440D02*
X1327Y440D01*
X2012Y440D02*
X2019Y440D01*
X1320Y439D02*
X1327Y439D01*
X2012Y439D02*
X2019Y439D01*
X1320Y438D02*
X1327Y438D01*
X2012Y438D02*
X2019Y438D01*
X1320Y437D02*
X1327Y437D01*
X2012Y437D02*
X2019Y437D01*
X1320Y436D02*
X1327Y436D01*
X2012Y436D02*
X2019Y436D01*
X1320Y435D02*
X1327Y435D01*
X2012Y435D02*
X2019Y435D01*
X1320Y434D02*
X1327Y434D01*
X2012Y434D02*
X2019Y434D01*
X1320Y433D02*
X1327Y433D01*
X2012Y433D02*
X2019Y433D01*
X1320Y432D02*
X1327Y432D01*
X2012Y432D02*
X2019Y432D01*
X1320Y431D02*
X1327Y431D01*
X2012Y431D02*
X2019Y431D01*
X1320Y430D02*
X1327Y430D01*
X2012Y430D02*
X2019Y430D01*
X1320Y429D02*
X1327Y429D01*
X2012Y429D02*
X2019Y429D01*
X1320Y428D02*
X1327Y428D01*
X2012Y428D02*
X2019Y428D01*
X1320Y427D02*
X1327Y427D01*
X2012Y427D02*
X2019Y427D01*
X1320Y426D02*
X1327Y426D01*
X2012Y426D02*
X2019Y426D01*
X1320Y425D02*
X1327Y425D01*
X2012Y425D02*
X2019Y425D01*
X1320Y424D02*
X1327Y424D01*
X2012Y424D02*
X2019Y424D01*
X1320Y423D02*
X1327Y423D01*
X2012Y423D02*
X2019Y423D01*
X1320Y422D02*
X1327Y422D01*
X2012Y422D02*
X2019Y422D01*
X1320Y421D02*
X1327Y421D01*
X2012Y421D02*
X2019Y421D01*
X1320Y420D02*
X1327Y420D01*
X2012Y420D02*
X2019Y420D01*
X1320Y419D02*
X1327Y419D01*
X2012Y419D02*
X2019Y419D01*
X1320Y418D02*
X1327Y418D01*
X2012Y418D02*
X2019Y418D01*
X1321Y417D02*
X1327Y417D01*
X2012Y417D02*
X2019Y417D01*
X1321Y416D02*
X1328Y416D01*
X2012Y416D02*
X2019Y416D01*
X1321Y415D02*
X1328Y415D01*
X2012Y415D02*
X2019Y415D01*
X1321Y414D02*
X1328Y414D01*
X2012Y414D02*
X2019Y414D01*
X1321Y413D02*
X1328Y413D01*
X2012Y413D02*
X2019Y413D01*
X1321Y412D02*
X1328Y412D01*
X2012Y412D02*
X2019Y412D01*
X1321Y411D02*
X1328Y411D01*
X2012Y411D02*
X2019Y411D01*
X1321Y410D02*
X1328Y410D01*
X2012Y410D02*
X2019Y410D01*
X1321Y409D02*
X1328Y409D01*
X2011Y409D02*
X2018Y409D01*
X1321Y408D02*
X1328Y408D01*
X2011Y408D02*
X2018Y408D01*
X1321Y407D02*
X1328Y407D01*
X2011Y407D02*
X2018Y407D01*
X1322Y406D02*
X1329Y406D01*
X2011Y406D02*
X2018Y406D01*
X1322Y405D02*
X1329Y405D01*
X2011Y405D02*
X2018Y405D01*
X1322Y404D02*
X1329Y404D01*
X2011Y404D02*
X2018Y404D01*
X1322Y403D02*
X1329Y403D01*
X2010Y403D02*
X2018Y403D01*
X1322Y402D02*
X1329Y402D01*
X2010Y402D02*
X2017Y402D01*
X1323Y401D02*
X1330Y401D01*
X2010Y401D02*
X2017Y401D01*
X1323Y400D02*
X1330Y400D01*
X2010Y400D02*
X2017Y400D01*
X1323Y399D02*
X1330Y399D01*
X2010Y399D02*
X2017Y399D01*
X1323Y398D02*
X1330Y398D01*
X2009Y398D02*
X2016Y398D01*
X1323Y397D02*
X1331Y397D01*
X2009Y397D02*
X2016Y397D01*
X1324Y396D02*
X1331Y396D01*
X2009Y396D02*
X2016Y396D01*
X1324Y395D02*
X1331Y395D01*
X2009Y395D02*
X2016Y395D01*
X1324Y394D02*
X1331Y394D01*
X2008Y394D02*
X2015Y394D01*
X1325Y393D02*
X1332Y393D01*
X2008Y393D02*
X2015Y393D01*
X1325Y392D02*
X1332Y392D01*
X2008Y392D02*
X2015Y392D01*
X1325Y391D02*
X1332Y391D01*
X2007Y391D02*
X2014Y391D01*
X1326Y390D02*
X1333Y390D01*
X2007Y390D02*
X2014Y390D01*
X1326Y389D02*
X1333Y389D01*
X2006Y389D02*
X2014Y389D01*
X1326Y388D02*
X1334Y388D01*
X2006Y388D02*
X2013Y388D01*
X1327Y387D02*
X1334Y387D01*
X2006Y387D02*
X2013Y387D01*
X1327Y386D02*
X1334Y386D01*
X2005Y386D02*
X2013Y386D01*
X1327Y385D02*
X1335Y385D01*
X2005Y385D02*
X2012Y385D01*
X1328Y384D02*
X1335Y384D01*
X2004Y384D02*
X2012Y384D01*
X1328Y383D02*
X1336Y383D01*
X2004Y383D02*
X2012Y383D01*
X1329Y382D02*
X1336Y382D01*
X2003Y382D02*
X2011Y382D01*
X1329Y381D02*
X1337Y381D01*
X2003Y381D02*
X2011Y381D01*
X1329Y380D02*
X1337Y380D01*
X2003Y380D02*
X2010Y380D01*
X1330Y379D02*
X1338Y379D01*
X2002Y379D02*
X2010Y379D01*
X1330Y378D02*
X1338Y378D01*
X2001Y378D02*
X2009Y378D01*
X1331Y377D02*
X1339Y377D01*
X2001Y377D02*
X2009Y377D01*
X1331Y376D02*
X1339Y376D01*
X2000Y376D02*
X2008Y376D01*
X1332Y375D02*
X1340Y375D01*
X2000Y375D02*
X2008Y375D01*
X1332Y374D02*
X1341Y374D01*
X1999Y374D02*
X2007Y374D01*
X1333Y373D02*
X1341Y373D01*
X1999Y373D02*
X2007Y373D01*
X1334Y372D02*
X1342Y372D01*
X1998Y372D02*
X2006Y372D01*
X1334Y371D02*
X1342Y371D01*
X1997Y371D02*
X2006Y371D01*
X1335Y370D02*
X1343Y370D01*
X1997Y370D02*
X2005Y370D01*
X1335Y369D02*
X1344Y369D01*
X1996Y369D02*
X2004Y369D01*
X1336Y368D02*
X1345Y368D01*
X1995Y368D02*
X2004Y368D01*
X1336Y367D02*
X1345Y367D01*
X1994Y367D02*
X2003Y367D01*
X1337Y366D02*
X1346Y366D01*
X1994Y366D02*
X2002Y366D01*
X1338Y365D02*
X1347Y365D01*
X1993Y365D02*
X2002Y365D01*
X1339Y364D02*
X1347Y364D01*
X1992Y364D02*
X2001Y364D01*
X1339Y363D02*
X1348Y363D01*
X1991Y363D02*
X2000Y363D01*
X1340Y362D02*
X1349Y362D01*
X1991Y362D02*
X2000Y362D01*
X1341Y361D02*
X1350Y361D01*
X1990Y361D02*
X1999Y361D01*
X1342Y360D02*
X1351Y360D01*
X1989Y360D02*
X1998Y360D01*
X1342Y359D02*
X1352Y359D01*
X1988Y359D02*
X1997Y359D01*
X1343Y358D02*
X1353Y358D01*
X1987Y358D02*
X1997Y358D01*
X1344Y357D02*
X1354Y357D01*
X1986Y357D02*
X1996Y357D01*
X1345Y356D02*
X1355Y356D01*
X1985Y356D02*
X1995Y356D01*
X1346Y355D02*
X1356Y355D01*
X1984Y355D02*
X1994Y355D01*
X1346Y354D02*
X1357Y354D01*
X1983Y354D02*
X1993Y354D01*
X1347Y353D02*
X1358Y353D01*
X1982Y353D02*
X1992Y353D01*
X1348Y352D02*
X1359Y352D01*
X1981Y352D02*
X1991Y352D01*
X1349Y351D02*
X1360Y351D01*
X1980Y351D02*
X1990Y351D01*
X1350Y350D02*
X1361Y350D01*
X1978Y350D02*
X1989Y350D01*
X1351Y349D02*
X1363Y349D01*
X1977Y349D02*
X1988Y349D01*
X1352Y348D02*
X1364Y348D01*
X1976Y348D02*
X1987Y348D01*
X1354Y347D02*
X1365Y347D01*
X1974Y347D02*
X1986Y347D01*
X1355Y346D02*
X1367Y346D01*
X1973Y346D02*
X1985Y346D01*
X1356Y345D02*
X1368Y345D01*
X1972Y345D02*
X1984Y345D01*
X1357Y344D02*
X1370Y344D01*
X1970Y344D02*
X1983Y344D01*
X1358Y343D02*
X1371Y343D01*
X1968Y343D02*
X1981Y343D01*
X1360Y342D02*
X1373Y342D01*
X1967Y342D02*
X1980Y342D01*
X1361Y341D02*
X1375Y341D01*
X1965Y341D02*
X1979Y341D01*
X1362Y340D02*
X1376Y340D01*
X1963Y340D02*
X1977Y340D01*
X1364Y339D02*
X1378Y339D01*
X1961Y339D02*
X1976Y339D01*
X1365Y338D02*
X1381Y338D01*
X1959Y338D02*
X1974Y338D01*
X1367Y337D02*
X1383Y337D01*
X1957Y337D02*
X1973Y337D01*
X1368Y336D02*
X1385Y336D01*
X1955Y336D02*
X1971Y336D01*
X1370Y335D02*
X1388Y335D01*
X1952Y335D02*
X1970Y335D01*
X1372Y334D02*
X1390Y334D01*
X1949Y334D02*
X1968Y334D01*
X1374Y333D02*
X1394Y333D01*
X1946Y333D02*
X1966Y333D01*
X1376Y332D02*
X1397Y332D01*
X1942Y332D02*
X1964Y332D01*
X1378Y331D02*
X1402Y331D01*
X1938Y331D02*
X1962Y331D01*
X1380Y330D02*
X1408Y330D01*
X1931Y330D02*
X1960Y330D01*
X1382Y329D02*
X1957Y329D01*
X1385Y328D02*
X1955Y328D01*
X1388Y327D02*
X1952Y327D01*
X1391Y326D02*
X1949Y326D01*
X1394Y325D02*
X1946Y325D01*
X1398Y324D02*
X1942Y324D01*
X1403Y323D02*
X1831Y323D01*
X1841Y323D02*
X1937Y323D01*
X1410Y322D02*
X1828Y322D01*
X1844Y322D02*
X1930Y322D01*
D02*
G04 End of Silk0*
M02*