G04 MADE WITH FRITZING*
G04 WWW.FRITZING.ORG*
G04 DOUBLE SIDED*
G04 HOLES PLATED*
G04 CONTOUR ON CENTER OF CONTOUR VECTOR*
%ASAXBY*%
%FSLAX23Y23*%
%MOIN*%
%OFA0B0*%
%SFA1.0B1.0*%
%ADD10C,0.049370*%
%ADD11C,0.086000*%
%ADD12C,0.080000*%
%ADD13C,0.148425*%
%ADD14C,0.088000*%
%ADD15C,0.085000*%
%ADD16R,0.085000X0.085000*%
%ADD17R,0.001000X0.001000*%
%LNMASK1*%
G90*
G70*
G54D10*
X84Y202D03*
X348Y610D03*
X276Y274D03*
X372Y1402D03*
X996Y1426D03*
X852Y1522D03*
X2028Y922D03*
X1836Y298D03*
X1284Y418D03*
G54D11*
X820Y121D03*
X120Y121D03*
X220Y121D03*
X320Y121D03*
X420Y121D03*
X520Y121D03*
X620Y121D03*
X720Y121D03*
G54D12*
X1420Y921D03*
G54D13*
X1920Y421D03*
G54D12*
X1420Y521D03*
X1420Y721D03*
X1420Y1121D03*
X1420Y421D03*
X1420Y621D03*
X1420Y821D03*
X1420Y1021D03*
G54D13*
X1920Y1121D03*
G54D12*
X1420Y921D03*
G54D13*
X1920Y421D03*
G54D12*
X1420Y521D03*
X1420Y721D03*
X1420Y1121D03*
X1420Y421D03*
X1420Y621D03*
X1420Y821D03*
X1420Y1021D03*
G54D13*
X1920Y1121D03*
G54D14*
X1820Y121D03*
X1920Y121D03*
X120Y1821D03*
X120Y1921D03*
G54D13*
X365Y1071D03*
X1165Y1071D03*
G54D12*
X1020Y1121D03*
X920Y1121D03*
X820Y1121D03*
X720Y1121D03*
X620Y1121D03*
X520Y1121D03*
X520Y321D03*
X620Y321D03*
X720Y321D03*
X820Y321D03*
X920Y321D03*
X1020Y321D03*
G54D13*
X365Y371D03*
X1165Y371D03*
G54D12*
X420Y1921D03*
X520Y1921D03*
X620Y1921D03*
X720Y1921D03*
X820Y1921D03*
X920Y1921D03*
X1720Y1321D03*
X1620Y1321D03*
X1520Y1321D03*
X1420Y1321D03*
X1320Y1321D03*
X1220Y1321D03*
X1120Y1321D03*
X1020Y1321D03*
X920Y1321D03*
X820Y1321D03*
X720Y1321D03*
X620Y1321D03*
X520Y1321D03*
X420Y1321D03*
X1720Y1921D03*
X1620Y1921D03*
X1520Y1921D03*
X1420Y1921D03*
X1320Y1921D03*
X1220Y1921D03*
X1120Y1921D03*
X1020Y1921D03*
G54D15*
X920Y121D03*
X1320Y121D03*
X1720Y121D03*
X1420Y121D03*
X120Y1021D03*
X120Y921D03*
X120Y1221D03*
X120Y1621D03*
G54D16*
X120Y1021D03*
G54D17*
D02*
G04 End of Mask1*
M02*