<?xml version="1.0" encoding="UTF-8" standalone="no"?>
<svg
   xmlns:dc="http://purl.org/dc/elements/1.1/"
   xmlns:cc="http://creativecommons.org/ns#"
   xmlns:rdf="http://www.w3.org/1999/02/22-rdf-syntax-ns#"
   xmlns:svg="http://www.w3.org/2000/svg"
   xmlns="http://www.w3.org/2000/svg"
   xmlns:sodipodi="http://sodipodi.sourceforge.net/DTD/sodipodi-0.dtd"
   xmlns:inkscape="http://www.inkscape.org/namespaces/inkscape"
   version="1.1"
   id="svg10"
   xml:space="preserve"
   width="500mm"
   height="500mm"
   viewBox="0 0 1889.7638 1889.7638"
   sodipodi:docname="Qlocktwo_blank.svg"
   inkscape:version="1.0.2 (e86c8708, 2021-01-15)"
   inkscape:export-filename="/Users/gert/OneDrive/github/NeoWordClock/images/Qlocktwo_blank.png"
   inkscape:export-xdpi="150"
   inkscape:export-ydpi="150"><metadata
     id="metadata16"><rdf:RDF><cc:Work
         rdf:about=""><dc:format>image/svg+xml</dc:format><dc:type
           rdf:resource="http://purl.org/dc/dcmitype/StillImage" /><dc:title></dc:title></cc:Work></rdf:RDF></metadata><defs
     id="defs14"><clipPath
       clipPathUnits="userSpaceOnUse"
       id="clipPath48"><path
         d="M 0,1275.59 H 1275.59 V 0 H 0 Z"
         id="path46" /></clipPath></defs><sodipodi:namedview
     pagecolor="#ffffff"
     bordercolor="#666666"
     borderopacity="1"
     objecttolerance="10"
     gridtolerance="10"
     guidetolerance="10"
     inkscape:pageopacity="0.70980392"
     inkscape:pageshadow="2"
     inkscape:window-width="1440"
     inkscape:window-height="900"
     id="namedview12"
     showgrid="false"
     inkscape:zoom="0.33690291"
     inkscape:cx="644.02454"
     inkscape:cy="936.47158"
     inkscape:window-x="0"
     inkscape:window-y="0"
     inkscape:window-maximized="0"
     inkscape:current-layer="g18"
     inkscape:snap-grids="false"
     inkscape:snap-to-guides="false"
     inkscape:document-units="mm"
     units="mm" /><g
     id="g18"
     inkscape:groupmode="layer"
     inkscape:label="Qlocktwo_blank"
     transform="matrix(1.3333333,0,0,-1.3333333,0,1700.7867)"><rect
       style="fill:#000000;fill-opacity:1;stroke-width:0.75"
       id="rect1022"
       width="1518.2417"
       height="1502.6584"
       x="-42.297054"
       y="-1323.9348"
       transform="scale(1,-1)" /><text
       transform="scale(1,-1)"
       style="font-style:normal;font-variant:normal;font-weight:normal;font-stretch:normal;font-size:82px;font-family:Monaco;-inkscape-font-specification:'Monaco, Normal';font-variant-ligatures:no-common-ligatures;font-variant-caps:normal;font-variant-numeric:normal;font-variant-east-asian:normal;writing-mode:lr-tb;fill:#ffffff;fill-opacity:1;fill-rule:nonzero;stroke:none"
       id="text40"
       x="192.21759"
       y="-997.12836"><tspan
         sodipodi:role="line"
         id="tspan144"
         x="192.21759"
         y="-997.12836">H E T M I S E V I J F</tspan><tspan
         sodipodi:role="line"
         id="tspan146"
         x="192.21759"
         y="-894.62836">T I E N A D K W A R T</tspan><tspan
         sodipodi:role="line"
         id="tspan148"
         x="192.21759"
         y="-792.12836">T W I N T I G B Y N A</tspan><tspan
         sodipodi:role="line"
         id="tspan150"
         x="192.21759"
         y="-689.62836">V O O R H A P O V E R</tspan><tspan
         sodipodi:role="line"
         id="tspan152"
         x="192.21759"
         y="-587.12836">H A L F P I N E E N G</tspan><tspan
         sodipodi:role="line"
         id="tspan154"
         x="192.21759"
         y="-484.62836">T W E E E S S D R I E</tspan><tspan
         sodipodi:role="line"
         id="tspan156"
         x="192.21759"
         y="-382.12836">V I E R V I J F Z E S</tspan><tspan
         sodipodi:role="line"
         id="tspan158"
         x="192.21759"
         y="-279.62836">Z E V E N E N E G E N</tspan><tspan
         sodipodi:role="line"
         id="tspan160"
         x="192.21759"
         y="-177.12836">A C H T T I E N E L F</tspan><tspan
         sodipodi:role="line"
         id="tspan162"
         x="192.21759"
         y="-74.628357">T W A A L F R T U U R</tspan></text><g
       id="g50"
       transform="matrix(2.2904377,0,0,2.2904377,110.55118,1160.7869)"
       style="fill:#ffffff;fill-opacity:1"><path
         d="m 0,0 c 0,-1.709 -1.385,-3.094 -3.094,-3.094 -1.709,0 -3.094,1.385 -3.094,3.094 0,1.709 1.385,3.094 3.094,3.094 C -1.385,3.094 0,1.709 0,0"
         style="fill:#ffffff;fill-opacity:1;fill-rule:nonzero;stroke:none"
         id="path52" /></g><g
       id="g54"
       transform="matrix(2.2904377,0,0,2.2904377,110.55119,-29.76431)"
       style="fill:#ffffff;fill-opacity:1"><path
         d="m 0,0 c 0,-1.709 -1.385,-3.094 -3.094,-3.094 -1.709,0 -3.094,1.385 -3.094,3.094 0,1.709 1.385,3.094 3.094,3.094 C -1.385,3.094 0,1.709 0,0"
         style="fill:#ffffff;fill-opacity:1;fill-rule:nonzero;stroke:none"
         id="path56" /></g><g
       id="g58"
       transform="matrix(2.2904377,0,0,2.2904377,1320.9449,-29.764311)"><path
         d="m 0,0 c 0,-1.709 -1.385,-3.094 -3.094,-3.094 -1.709,0 -3.094,1.385 -3.094,3.094 0,1.709 1.385,3.094 3.094,3.094 C -1.385,3.094 0,1.709 0,0"
         style="fill:#ffffff;fill-opacity:1;fill-rule:nonzero;stroke:none"
         id="path60" /></g><g
       id="g62"
       transform="matrix(2.2904377,0,0,2.2904377,1320.9449,1163.6215)"
       style="fill:#ffffff;fill-opacity:1"><path
         d="m 0,0 c 0,-1.709 -1.385,-3.094 -3.094,-3.094 -1.709,0 -3.094,1.385 -3.094,3.094 0,1.709 1.385,3.094 3.094,3.094 C -1.385,3.094 0,1.709 0,0"
         style="fill:#ffffff;fill-opacity:1;fill-rule:nonzero;stroke:none"
         id="path64" /></g></g></svg>
