  0
SECTION
  2
HEADER
  9
$ACADVER
  1
AC1014
  9
$HANDSEED
  5
FFFF
  9
$MEASUREMENT
 70
     1
  0
ENDSEC
  0
SECTION
  2
TABLES
  0
TABLE
  2
VPORT
  5
8
330
0
100
AcDbSymbolTable
 70
     4
  0
VPORT
  5
2E
330
8
100
AcDbSymbolTableRecord
100
AcDbViewportTableRecord
  2
*ACTIVE
 70
     0
 10
0.0
 20
0.0
 11
1.0
 21
1.0
 12
210.0
 22
148.5
 13
0.0
 23
0.0
 14
10.0
 24
10.0
 15
10.0
 25
10.0
 16
0.0
 26
0.0
 36
1.0
 17
0.0
 27
0.0
 37
0.0
 40
341.0
 41
1.24
 42
50.0
 43
0.0
 44
0.0
 50
0.0
 51
0.0
 71
     0
 72
   100
 73
     1
 74
     3
 75
     0
 76
     0
 77
     0
 78
     0
  0
ENDTAB
  0
TABLE
  2
LTYPE
  5
5
330
0
100
AcDbSymbolTable
 70
     1
  0
LTYPE
  5
14
330
5
100
AcDbSymbolTableRecord
100
AcDbLinetypeTableRecord
  2
BYBLOCK
 70
     0
  3

 72
    65
 73
     0
 40
0.0
  0
LTYPE
  5
15
330
5
100
AcDbSymbolTableRecord
100
AcDbLinetypeTableRecord
  2
BYLAYER
 70
     0
  3

 72
    65
 73
     0
 40
0.0
  0
LTYPE
  5
16
330
5
100
AcDbSymbolTableRecord
100
AcDbLinetypeTableRecord
  2
CONTINUOUS
 70
     0
  3
Solid line
 72
    65
 73
     0
 40
0.0
  0
ENDTAB
  0
TABLE
  2
LAYER
  5
2
100
AcDbSymbolTable
 70
2
  0
LAYER
  5
50
100
AcDbSymbolTableRecord
100
AcDbLayerTableRecord
  2
0
 70
0
  6
CONTINUOUS
  0
LAYER
  5
51
100
AcDbSymbolTableRecord
100
AcDbLayerTableRecord
  2
Qlocktwo_blank_laser_v3
 70
0
  6
CONTINUOUS
  0
ENDTAB
  0
TABLE
  2
STYLE
  5
3
330
0
100
AcDbSymbolTable
 70
     1
  0
STYLE
  5
11
330
3
100
AcDbSymbolTableRecord
100
AcDbTextStyleTableRecord
  2
STANDARD
 70
     0
 40
0.0
 41
1.0
 50
0.0
 71
     0
 42
2.5
  3
txt
  4

  0
ENDTAB
  0
TABLE
  2
VIEW
  5
6
330
0
100
AcDbSymbolTable
 70
     0
  0
ENDTAB
  0
TABLE
  2
UCS
  5
7
330
0
100
AcDbSymbolTable
 70
     0
  0
ENDTAB
  0
TABLE
  2
APPID
  5
9
330
0
100
AcDbSymbolTable
 70
     2
  0
APPID
  5
12
330
9
100
AcDbSymbolTableRecord
100
AcDbRegAppTableRecord
  2
ACAD
 70
     0
  0
ENDTAB
  0
TABLE
  2
DIMSTYLE
  5
A
330
0
100
AcDbSymbolTable
 70
     1
  0
DIMSTYLE
105
27
330
A
100
AcDbSymbolTableRecord
100
AcDbDimStyleTableRecord
  2
ISO-25
 70
     0
  3

  4

  5

  6

  7

 40
1.0
 41
2.5
 42
0.625
 43
3.75
 44
1.25
 45
0.0
 46
0.0
 47
0.0
 48
0.0
140
2.5
141
2.5
142
0.0
143
0.03937007874016
144
1.0
145
0.0
146
1.0
147
0.625
 71
     0
 72
     0
 73
     0
 74
     0
 75
     0
 76
     0
 77
     1
 78
     8
170
     0
171
     3
172
     1
173
     0
174
     0
175
     0
176
     0
177
     0
178
     0
270
     2
271
     2
272
     2
273
     2
274
     3
340
11
275
     0
280
     0
281
     0
282
     0
283
     0
284
     8
285
     0
286
     0
287
     3
288
     0
  0
ENDTAB
  0
TABLE
  2
BLOCK_RECORD
  5
1
330
0
100
AcDbSymbolTable
 70
     1
  0
BLOCK_RECORD
  5
1F
330
1
100
AcDbSymbolTableRecord
100
AcDbBlockTableRecord
  2
*MODEL_SPACE
  0
BLOCK_RECORD
  5
1B
330
1
100
AcDbSymbolTableRecord
100
AcDbBlockTableRecord
  2
*PAPER_SPACE
  0
ENDTAB
  0
ENDSEC
  0
SECTION
  2
BLOCKS
  0
BLOCK
  5
20
330
1F
100
AcDbEntity
  8
0
100
AcDbBlockBegin
  2
*MODEL_SPACE
 70
     0
 10
0.0
 20
0.0
 30
0.0
  3
*MODEL_SPACE
  1

  0
ENDBLK
  5
21
330
1F
100
AcDbEntity
  8
0
100
AcDbBlockEnd
  0
BLOCK
  5
1C
330
1B
100
AcDbEntity
 67
     1
  8
0
100
AcDbBlockBegin
  2
*PAPER_SPACE
  1

  0
ENDBLK
  5
1D
330
1B
100
AcDbEntity
 67
     1
  8
0
100
AcDbBlockEnd
  0
ENDSEC
  0
SECTION
  2
ENTITIES
  0
LWPOLYLINE
  5
100
100
AcDbEntity
  8
Qlocktwo_blank_laser_v3
 62
5
100
AcDbPolyline
 90
11
 70
1
 10
345.618597
 20
366.693167
 30
0.0
 10
352.439903
 20
387.358168
 30
0.0
 10
356.367375
 20
387.308780
 30
0.0
 10
362.994300
 20
366.547117
 30
0.0
 10
358.871037
 20
366.595448
 30
0.0
 10
357.741090
 20
370.915561
 30
0.0
 10
354.256001
 20
370.865820
 30
0.0
 10
354.256001
 20
374.154059
 30
0.0
 10
356.710274
 20
374.154059
 30
0.0
 10
354.208023
 20
382.645414
 30
0.0
 10
349.397197
 20
366.644837
 30
0.0
  0
LWPOLYLINE
  5
101
100
AcDbEntity
  8
Qlocktwo_blank_laser_v3
 62
5
100
AcDbPolyline
 90
12
 70
1
 10
83.051587
 20
402.766079
 30
0.0
 10
79.292390
 20
402.766079
 30
0.0
 10
79.292390
 20
411.932650
 30
0.0
 10
73.686403
 20
411.932650
 30
0.0
 10
73.686403
 20
402.766079
 30
0.0
 10
69.927205
 20
402.766079
 30
0.0
 10
69.927205
 20
423.475177
 30
0.0
 10
73.686403
 20
423.475177
 30
0.0
 10
73.686403
 20
415.212422
 30
0.0
 10
79.292390
 20
415.212422
 30
0.0
 10
79.292390
 20
423.475177
 30
0.0
 10
83.051587
 20
423.475177
 30
0.0
  0
LWPOLYLINE
  5
102
100
AcDbEntity
  8
Qlocktwo_blank_laser_v3
 62
5
100
AcDbPolyline
 90
12
 70
1
 10
118.376258
 20
402.766079
 30
0.0
 10
104.617935
 20
402.766079
 30
0.0
 10
104.617935
 20
423.475177
 30
0.0
 10
118.012191
 20
423.475177
 30
0.0
 10
118.012191
 20
420.294888
 30
0.0
 10
108.377132
 20
420.294888
 30
0.0
 10
108.377132
 20
415.212422
 30
0.0
 10
117.218442
 20
415.212422
 30
0.0
 10
117.218442
 20
412.015552
 30
0.0
 10
108.377132
 20
412.015552
 30
0.0
 10
108.377132
 20
405.946721
 30
0.0
 10
118.376258
 20
405.946721
 30
0.0
  0
LWPOLYLINE
  5
103
100
AcDbEntity
  8
Qlocktwo_blank_laser_v3
 62
5
100
AcDbPolyline
 90
8
 70
1
 10
153.805350
 20
420.294888
 30
0.0
 10
147.758744
 20
420.294888
 30
0.0
 10
147.758744
 20
402.766079
 30
0.0
 10
143.988258
 20
402.766079
 30
0.0
 10
143.988258
 20
420.294888
 30
0.0
 10
137.941651
 20
420.294888
 30
0.0
 10
137.941651
 20
423.475177
 30
0.0
 10
153.805350
 20
423.475177
 30
0.0
  0
SPLINE
  5
104
100
AcDbEntity
  8
Qlocktwo_blank_laser_v3
 62
5
100
AcDbSpline
 70
8
 71
3
 72
8
 73
4
 74
0
 40
0
 40
0
 40
0
 40
0
 40
1
 40
1
 40
1
 40
1
 10
179.764836
 20
418.090028
 30
0.0
 10
180.065403
 20
417.534404
 30
0.0
 10
180.310583
 20
417.006649
 30
0.0
 10
180.497908
 20
416.507821
 30
0.0
  0
LWPOLYLINE
  5
105
100
AcDbEntity
  8
Qlocktwo_blank_laser_v3
 62
5
100
AcDbPolyline
 90
13
 70
0
 10
187.785233
 20
402.766079
 30
0.0
 10
184.086361
 20
402.766079
 30
0.0
 10
184.086361
 20
415.085775
 30
0.0
 10
184.202072
 20
418.007126
 30
0.0
 10
180.795652
 20
411.651839
 30
0.0
 10
180.217097
 20
411.651839
 30
0.0
 10
176.799388
 20
418.007126
 30
0.0
 10
176.909808
 20
415.085775
 30
0.0
 10
176.909808
 20
402.766079
 30
0.0
 10
173.321355
 20
402.766079
 30
0.0
 10
173.321355
 20
423.475177
 30
0.0
 10
176.909808
 20
423.475177
 30
0.0
 10
179.764836
 20
418.090028
 30
0.0
  0
SPLINE
  5
106
100
AcDbEntity
  8
Qlocktwo_blank_laser_v3
 62
5
100
AcDbSpline
 70
8
 71
3
 72
8
 73
4
 74
0
 40
0
 40
0
 40
0
 40
0
 40
1
 40
1
 40
1
 40
1
 10
180.679941
 20
416.987599
 30
0.0
 10
180.757199
 20
417.166457
 30
0.0
 10
181.123735
 20
417.883301
 30
0.0
 10
181.782371
 20
419.137072
 30
0.0
  0
LWPOLYLINE
  5
107
100
AcDbEntity
  8
Qlocktwo_blank_laser_v3
 62
5
100
AcDbPolyline
 90
2
 70
0
 10
180.497908
 20
416.507821
 30
0.0
 10
180.679941
 20
416.987599
 30
0.0
  0
LWPOLYLINE
  5
108
100
AcDbEntity
  8
Qlocktwo_blank_laser_v3
 62
5
100
AcDbPolyline
 90
4
 70
0
 10
181.782371
 20
419.137072
 30
0.0
 10
184.086361
 20
423.475177
 30
0.0
 10
187.785233
 20
423.475177
 30
0.0
 10
187.785233
 20
402.766079
 30
0.0
  0
SPLINE
  5
109
100
AcDbEntity
  8
Qlocktwo_blank_laser_v3
 62
5
100
AcDbSpline
 70
8
 71
3
 72
8
 73
4
 74
0
 40
0
 40
0
 40
0
 40
0
 40
1
 40
1
 40
1
 40
1
 10
252.944297
 20
418.249837
 30
0.0
 10
252.803539
 20
419.848272
 30
0.0
 10
251.764609
 20
420.647665
 30
0.0
 10
249.824333
 20
420.647665
 30
0.0
  0
SPLINE
  5
10a
100
AcDbEntity
  8
Qlocktwo_blank_laser_v3
 62
5
100
AcDbSpline
 70
8
 71
3
 72
8
 73
4
 74
0
 40
0
 40
0
 40
0
 40
0
 40
1
 40
1
 40
1
 40
1
 10
249.824333
 20
420.647665
 30
0.0
 10
247.835726
 20
420.647665
 30
0.0
 10
246.842305
 20
419.875788
 30
0.0
 10
246.842305
 20
418.332387
 30
0.0
  0
SPLINE
  5
10b
100
AcDbEntity
  8
Qlocktwo_blank_laser_v3
 62
5
100
AcDbSpline
 70
8
 71
3
 72
8
 73
4
 74
0
 40
0
 40
0
 40
0
 40
0
 40
1
 40
1
 40
1
 40
1
 10
246.842305
 20
418.332387
 30
0.0
 10
246.842305
 20
417.512532
 30
0.0
 10
247.161921
 20
416.904696
 30
0.0
 10
247.801507
 20
416.507821
 30
0.0
  0
SPLINE
  5
10c
100
AcDbEntity
  8
Qlocktwo_blank_laser_v3
 62
5
100
AcDbSpline
 70
8
 71
3
 72
8
 73
4
 74
0
 40
0
 40
0
 40
0
 40
0
 40
1
 40
1
 40
1
 40
1
 10
247.801507
 20
416.507821
 30
0.0
 10
248.443562
 20
416.113769
 30
0.0
 10
249.494839
 20
415.747233
 30
0.0
 10
250.954279
 20
415.405392
 30
0.0
  0
SPLINE
  5
10d
100
AcDbEntity
  8
Qlocktwo_blank_laser_v3
 62
5
100
AcDbSpline
 70
8
 71
3
 72
8
 73
4
 74
0
 40
0
 40
0
 40
0
 40
0
 40
1
 40
1
 40
1
 40
1
 10
250.954279
 20
415.405392
 30
0.0
 10
253.437480
 20
414.813078
 30
0.0
 10
255.115996
 20
413.983345
 30
0.0
 10
255.987003
 20
412.914077
 30
0.0
  0
SPLINE
  5
10e
100
AcDbEntity
  8
Qlocktwo_blank_laser_v3
 62
5
100
AcDbSpline
 70
8
 71
3
 72
8
 73
4
 74
0
 40
0
 40
0
 40
0
 40
0
 40
1
 40
1
 40
1
 40
1
 10
255.987003
 20
412.914077
 30
0.0
 10
256.858011
 20
411.844455
 30
0.0
 10
257.293339
 20
410.467918
 30
0.0
 10
257.293339
 20
408.785522
 30
0.0
  0
SPLINE
  5
10f
100
AcDbEntity
  8
Qlocktwo_blank_laser_v3
 62
5
100
AcDbSpline
 70
8
 71
3
 72
8
 73
4
 74
0
 40
0
 40
0
 40
0
 40
0
 40
1
 40
1
 40
1
 40
1
 10
257.293339
 20
408.785522
 30
0.0
 10
257.293339
 20
406.730593
 30
0.0
 10
256.561678
 20
405.154383
 30
0.0
 10
255.099415
 20
404.055834
 30
0.0
  0
SPLINE
  5
110
100
AcDbEntity
  8
Qlocktwo_blank_laser_v3
 62
5
100
AcDbSpline
 70
8
 71
3
 72
8
 73
4
 74
0
 40
0
 40
0
 40
0
 40
0
 40
1
 40
1
 40
1
 40
1
 10
255.099415
 20
404.055834
 30
0.0
 10
253.636094
 20
402.960459
 30
0.0
 10
251.976981
 20
402.413301
 30
0.0
 10
250.122077
 20
402.413301
 30
0.0
  0
SPLINE
  5
111
100
AcDbEntity
  8
Qlocktwo_blank_laser_v3
 62
5
100
AcDbSpline
 70
8
 71
3
 72
8
 73
4
 74
0
 40
0
 40
0
 40
0
 40
0
 40
1
 40
1
 40
1
 40
1
 10
250.122077
 20
402.413301
 30
0.0
 10
245.591003
 20
402.413301
 30
0.0
 10
243.005849
 20
404.582530
 30
0.0
 10
242.366264
 20
408.923105
 30
0.0
  0
LWPOLYLINE
  5
112
100
AcDbEntity
  8
Qlocktwo_blank_laser_v3
 62
5
100
AcDbPolyline
 90
12
 70
1
 10
220.315200
 20
402.766079
 30
0.0
 10
210.189074
 20
402.766079
 30
0.0
 10
210.189074
 20
405.946721
 30
0.0
 10
213.369716
 20
405.946721
 30
0.0
 10
213.369716
 20
420.294888
 30
0.0
 10
210.189074
 20
420.294888
 30
0.0
 10
210.189074
 20
423.475177
 30
0.0
 10
220.315200
 20
423.475177
 30
0.0
 10
220.315200
 20
420.294888
 30
0.0
 10
217.140202
 20
420.294888
 30
0.0
 10
217.140202
 20
405.946721
 30
0.0
 10
220.315200
 20
405.946721
 30
0.0
  0
SPLINE
  5
113
100
AcDbEntity
  8
Qlocktwo_blank_laser_v3
 62
5
100
AcDbSpline
 70
8
 71
3
 72
8
 73
4
 74
0
 40
0
 40
0
 40
0
 40
0
 40
1
 40
1
 40
1
 40
1
 10
246.125814
 20
409.303399
 30
0.0
 10
246.445430
 20
406.836779
 30
0.0
 10
247.786337
 20
405.604880
 30
0.0
 10
250.149594
 20
405.604880
 30
0.0
  0
SPLINE
  5
114
100
AcDbEntity
  8
Qlocktwo_blank_laser_v3
 62
5
100
AcDbSpline
 70
8
 71
3
 72
8
 73
4
 74
0
 40
0
 40
0
 40
0
 40
0
 40
1
 40
1
 40
1
 40
1
 10
250.149594
 20
405.604880
 30
0.0
 10
251.203693
 20
405.604880
 30
0.0
 10
252.029192
 20
405.891335
 30
0.0
 10
252.624681
 20
406.464598
 30
0.0
  0
SPLINE
  5
115
100
AcDbEntity
  8
Qlocktwo_blank_laser_v3
 62
5
100
AcDbSpline
 70
8
 71
3
 72
8
 73
4
 74
0
 40
0
 40
0
 40
0
 40
0
 40
1
 40
1
 40
1
 40
1
 10
252.624681
 20
406.464598
 30
0.0
 10
253.222639
 20
407.040684
 30
0.0
 10
253.522852
 20
407.815383
 30
0.0
 10
253.522852
 20
408.785522
 30
0.0
  0
SPLINE
  5
116
100
AcDbEntity
  8
Qlocktwo_blank_laser_v3
 62
5
100
AcDbSpline
 70
8
 71
3
 72
8
 73
4
 74
0
 40
0
 40
0
 40
0
 40
0
 40
1
 40
1
 40
1
 40
1
 10
253.522852
 20
408.785522
 30
0.0
 10
253.522852
 20
409.658999
 30
0.0
 10
253.239219
 20
410.313754
 30
0.0
 10
252.674070
 20
410.747670
 30
0.0
  0
SPLINE
  5
117
100
AcDbEntity
  8
Qlocktwo_blank_laser_v3
 62
5
100
AcDbSpline
 70
8
 71
3
 72
8
 73
4
 74
0
 40
0
 40
0
 40
0
 40
0
 40
1
 40
1
 40
1
 40
1
 10
252.674070
 20
410.747670
 30
0.0
 10
252.111742
 20
411.180528
 30
0.0
 10
250.874552
 20
411.636669
 30
0.0
 10
248.964614
 20
412.114683
 30
0.0
  0
SPLINE
  5
118
100
AcDbEntity
  8
Qlocktwo_blank_laser_v3
 62
5
100
AcDbSpline
 70
8
 71
3
 72
8
 73
4
 74
0
 40
0
 40
0
 40
0
 40
0
 40
1
 40
1
 40
1
 40
1
 10
248.964614
 20
412.114683
 30
0.0
 10
246.795385
 20
412.632913
 30
0.0
 10
245.283734
 20
413.387857
 30
0.0
 10
244.427895
 20
414.380220
 30
0.0
  0
SPLINE
  5
119
100
AcDbEntity
  8
Qlocktwo_blank_laser_v3
 62
5
100
AcDbSpline
 70
8
 71
3
 72
8
 73
4
 74
0
 40
0
 40
0
 40
0
 40
0
 40
1
 40
1
 40
1
 40
1
 10
244.427895
 20
414.380220
 30
0.0
 10
243.570999
 20
415.375053
 30
0.0
 10
243.143785
 20
416.593193
 30
0.0
 10
243.143785
 20
418.034642
 30
0.0
  0
SPLINE
  5
11a
100
AcDbEntity
  8
Qlocktwo_blank_laser_v3
 62
5
100
AcDbSpline
 70
8
 71
3
 72
8
 73
4
 74
0
 40
0
 40
0
 40
0
 40
0
 40
1
 40
1
 40
1
 40
1
 10
243.143785
 20
418.034642
 30
0.0
 10
243.143785
 20
419.082039
 30
0.0
 10
243.402724
 20
420.057821
 30
0.0
 10
243.920954
 20
420.961637
 30
0.0
  0
SPLINE
  5
11b
100
AcDbEntity
  8
Qlocktwo_blank_laser_v3
 62
5
100
AcDbSpline
 70
8
 71
3
 72
8
 73
4
 74
0
 40
0
 40
0
 40
0
 40
0
 40
1
 40
1
 40
1
 40
1
 10
243.920954
 20
420.961637
 30
0.0
 10
244.438832
 20
421.865806
 30
0.0
 10
245.201184
 20
422.568539
 30
0.0
 10
246.208364
 20
423.073011
 30
0.0
  0
SPLINE
  5
11c
100
AcDbEntity
  8
Qlocktwo_blank_laser_v3
 62
5
100
AcDbSpline
 70
8
 71
3
 72
8
 73
4
 74
0
 40
0
 40
0
 40
0
 40
0
 40
1
 40
1
 40
1
 40
1
 10
246.208364
 20
423.073011
 30
0.0
 10
247.214485
 20
423.575719
 30
0.0
 10
248.437917
 20
423.827955
 30
0.0
 10
249.879366
 20
423.827955
 30
0.0
  0
SPLINE
  5
11d
100
AcDbEntity
  8
Qlocktwo_blank_laser_v3
 62
5
100
AcDbSpline
 70
8
 71
3
 72
8
 73
4
 74
0
 40
0
 40
0
 40
0
 40
0
 40
1
 40
1
 40
1
 40
1
 10
249.879366
 20
423.827955
 30
0.0
 10
254.241107
 20
423.827955
 30
0.0
 10
256.529928
 20
422.022792
 30
0.0
 10
256.747592
 20
418.414937
 30
0.0
  0
LWPOLYLINE
  5
11e
100
AcDbEntity
  8
Qlocktwo_blank_laser_v3
 62
5
100
AcDbPolyline
 90
2
 70
0
 10
242.366264
 20
408.923105
 30
0.0
 10
246.125814
 20
409.303399
 30
0.0
  0
LWPOLYLINE
  5
11f
100
AcDbEntity
  8
Qlocktwo_blank_laser_v3
 62
5
100
AcDbPolyline
 90
2
 70
0
 10
256.747592
 20
418.414937
 30
0.0
 10
252.944297
 20
418.249837
 30
0.0
  0
LWPOLYLINE
  5
120
100
AcDbEntity
  8
Qlocktwo_blank_laser_v3
 62
5
100
AcDbPolyline
 90
12
 70
1
 10
291.829551
 20
402.766079
 30
0.0
 10
278.071228
 20
402.766079
 30
0.0
 10
278.071228
 20
423.475177
 30
0.0
 10
291.465838
 20
423.475177
 30
0.0
 10
291.465838
 20
420.294888
 30
0.0
 10
281.830778
 20
420.294888
 30
0.0
 10
281.830778
 20
415.212422
 30
0.0
 10
290.672088
 20
415.212422
 30
0.0
 10
290.672088
 20
412.015552
 30
0.0
 10
281.830778
 20
412.015552
 30
0.0
 10
281.830778
 20
405.946721
 30
0.0
 10
291.829551
 20
405.946721
 30
0.0
  0
LWPOLYLINE
  5
121
100
AcDbEntity
  8
Qlocktwo_blank_laser_v3
 62
5
100
AcDbPolyline
 90
9
 70
1
 10
327.975488
 20
423.475177
 30
0.0
 10
321.212037
 20
402.766079
 30
0.0
 10
317.298676
 20
402.766079
 30
0.0
 10
310.672809
 20
423.475177
 30
0.0
 10
314.542426
 20
423.475177
 30
0.0
 10
318.373589
 20
411.017898
 30
0.0
 10
319.349019
 20
407.655222
 30
0.0
 10
320.280705
 20
411.045414
 30
0.0
 10
324.150321
 20
423.475177
 30
0.0
  0
SPLINE
  5
122
100
AcDbEntity
  8
Qlocktwo_blank_laser_v3
 62
5
100
AcDbSpline
 70
8
 71
3
 72
8
 73
4
 74
0
 40
0
 40
0
 40
0
 40
0
 40
1
 40
1
 40
1
 40
1
 10
394.744276
 20
410.405829
 30
0.0
 10
394.744276
 20
409.259302
 30
0.0
 10
394.675484
 20
408.245066
 30
0.0
 10
394.540371
 20
407.363123
 30
0.0
  0
SPLINE
  5
123
100
AcDbEntity
  8
Qlocktwo_blank_laser_v3
 62
5
100
AcDbSpline
 70
8
 71
3
 72
8
 73
4
 74
0
 40
0
 40
0
 40
0
 40
0
 40
1
 40
1
 40
1
 40
1
 10
394.540371
 20
407.363123
 30
0.0
 10
394.403846
 20
406.484001
 30
0.0
 10
394.051068
 20
405.638041
 30
0.0
 10
393.482038
 20
404.822066
 30
0.0
  0
SPLINE
  5
124
100
AcDbEntity
  8
Qlocktwo_blank_laser_v3
 62
5
100
AcDbSpline
 70
8
 71
3
 72
8
 73
4
 74
0
 40
0
 40
0
 40
0
 40
0
 40
1
 40
1
 40
1
 40
1
 10
393.482038
 20
404.822066
 30
0.0
 10
392.911597
 20
404.006445
 30
0.0
 10
392.150656
 20
403.400020
 30
0.0
 10
391.199920
 20
403.003145
 30
0.0
  0
SPLINE
  5
125
100
AcDbEntity
  8
Qlocktwo_blank_laser_v3
 62
5
100
AcDbSpline
 70
8
 71
3
 72
8
 73
4
 74
0
 40
0
 40
0
 40
0
 40
0
 40
1
 40
1
 40
1
 40
1
 10
391.199920
 20
403.003145
 30
0.0
 10
390.247774
 20
402.610504
 30
0.0
 10
389.145344
 20
402.413301
 30
0.0
 10
387.892631
 20
402.413301
 30
0.0
  0
SPLINE
  5
126
100
AcDbEntity
  8
Qlocktwo_blank_laser_v3
 62
5
100
AcDbSpline
 70
8
 71
3
 72
8
 73
4
 74
0
 40
0
 40
0
 40
0
 40
0
 40
1
 40
1
 40
1
 40
1
 10
387.892631
 20
402.413301
 30
0.0
 10
385.783022
 20
402.413301
 30
0.0
 10
384.151426
 20
402.983743
 30
0.0
 10
382.997843
 20
404.127447
 30
0.0
  0
SPLINE
  5
127
100
AcDbEntity
  8
Qlocktwo_blank_laser_v3
 62
5
100
AcDbSpline
 70
8
 71
3
 72
8
 73
4
 74
0
 40
0
 40
0
 40
0
 40
0
 40
1
 40
1
 40
1
 40
1
 10
382.997843
 20
404.127447
 30
0.0
 10
381.847083
 20
405.273974
 30
0.0
 10
381.242422
 20
406.962367
 30
0.0
 10
381.184214
 20
409.193332
 30
0.0
  0
LWPOLYLINE
  5
128
100
AcDbEntity
  8
Qlocktwo_blank_laser_v3
 62
5
100
AcDbPolyline
 90
12
 70
1
 10
359.077764
 20
402.766079
 30
0.0
 10
348.951991
 20
402.766079
 30
0.0
 10
348.951991
 20
405.946721
 30
0.0
 10
352.132633
 20
405.946721
 30
0.0
 10
352.132633
 20
420.294888
 30
0.0
 10
348.951991
 20
420.294888
 30
0.0
 10
348.951991
 20
423.475177
 30
0.0
 10
359.077764
 20
423.475177
 30
0.0
 10
359.077764
 20
420.294888
 30
0.0
 10
355.902767
 20
420.294888
 30
0.0
 10
355.902767
 20
405.946721
 30
0.0
 10
359.077764
 20
405.946721
 30
0.0
  0
SPLINE
  5
129
100
AcDbEntity
  8
Qlocktwo_blank_laser_v3
 62
5
100
AcDbSpline
 70
8
 71
3
 72
8
 73
4
 74
0
 40
0
 40
0
 40
0
 40
0
 40
1
 40
1
 40
1
 40
1
 10
385.142025
 20
409.716854
 30
0.0
 10
385.263380
 20
407.051973
 30
0.0
 10
386.227874
 20
405.720591
 30
0.0
 10
388.035859
 20
405.720591
 30
0.0
  0
SPLINE
  5
12a
100
AcDbEntity
  8
Qlocktwo_blank_laser_v3
 62
5
100
AcDbSpline
 70
8
 71
3
 72
8
 73
4
 74
0
 40
0
 40
0
 40
0
 40
0
 40
1
 40
1
 40
1
 40
1
 10
388.035859
 20
405.720591
 30
0.0
 10
389.052917
 20
405.720591
 30
0.0
 10
389.799746
 20
406.026449
 30
0.0
 10
390.273879
 20
406.640987
 30
0.0
  0
SPLINE
  5
12b
100
AcDbEntity
  8
Qlocktwo_blank_laser_v3
 62
5
100
AcDbSpline
 70
8
 71
3
 72
8
 73
4
 74
0
 40
0
 40
0
 40
0
 40
0
 40
1
 40
1
 40
1
 40
1
 10
390.273879
 20
406.640987
 30
0.0
 10
390.750835
 20
407.258348
 30
0.0
 10
390.990371
 20
408.416164
 30
0.0
 10
390.990371
 20
410.113729
 30
0.0
  0
LWPOLYLINE
  5
12c
100
AcDbEntity
  8
Qlocktwo_blank_laser_v3
 62
5
100
AcDbPolyline
 90
2
 70
0
 10
381.184214
 20
409.193332
 30
0.0
 10
385.142025
 20
409.716854
 30
0.0
  0
LWPOLYLINE
  5
12d
100
AcDbEntity
  8
Qlocktwo_blank_laser_v3
 62
5
100
AcDbPolyline
 90
4
 70
0
 10
390.990371
 20
410.113729
 30
0.0
 10
390.990371
 20
423.475177
 30
0.0
 10
394.744276
 20
423.475177
 30
0.0
 10
394.744276
 20
410.405829
 30
0.0
  0
LWPOLYLINE
  5
12e
100
AcDbEntity
  8
Qlocktwo_blank_laser_v3
 62
5
100
AcDbPolyline
 90
10
 70
1
 10
431.088474
 20
420.294888
 30
0.0
 10
420.593343
 20
420.294888
 30
0.0
 10
420.593343
 20
414.887161
 30
0.0
 10
429.787783
 20
414.887161
 30
0.0
 10
429.787783
 20
411.706872
 30
0.0
 10
420.593343
 20
411.706872
 30
0.0
 10
420.593343
 20
402.766079
 30
0.0
 10
416.834145
 20
402.766079
 30
0.0
 10
416.834145
 20
423.475177
 30
0.0
 10
431.088474
 20
423.475177
 30
0.0
  0
LWPOLYLINE
  5
12f
100
AcDbEntity
  8
Qlocktwo_blank_laser_v3
 62
5
100
AcDbPolyline
 90
8
 70
1
 10
84.423892
 20
384.135193
 30
0.0
 10
78.377285
 20
384.135193
 30
0.0
 10
78.377285
 20
366.606384
 30
0.0
 10
74.606799
 20
366.606384
 30
0.0
 10
74.606799
 20
384.135193
 30
0.0
 10
68.560193
 20
384.135193
 30
0.0
 10
68.560193
 20
387.315482
 30
0.0
 10
84.423892
 20
387.315482
 30
0.0
  0
LWPOLYLINE
  5
130
100
AcDbEntity
  8
Qlocktwo_blank_laser_v3
 62
5
100
AcDbPolyline
 90
12
 70
1
 10
116.243012
 20
366.606384
 30
0.0
 10
106.117239
 20
366.606384
 30
0.0
 10
106.117239
 20
369.787026
 30
0.0
 10
109.297528
 20
369.787026
 30
0.0
 10
109.297528
 20
384.135193
 30
0.0
 10
106.117239
 20
384.135193
 30
0.0
 10
106.117239
 20
387.315482
 30
0.0
 10
116.243012
 20
387.315482
 30
0.0
 10
116.243012
 20
384.135193
 30
0.0
 10
113.068014
 20
384.135193
 30
0.0
 10
113.068014
 20
369.787026
 30
0.0
 10
116.243012
 20
369.787026
 30
0.0
  0
LWPOLYLINE
  5
131
100
AcDbEntity
  8
Qlocktwo_blank_laser_v3
 62
5
100
AcDbPolyline
 90
12
 70
1
 10
153.066987
 20
366.606384
 30
0.0
 10
139.308664
 20
366.606384
 30
0.0
 10
139.308664
 20
387.315482
 30
0.0
 10
152.702920
 20
387.315482
 30
0.0
 10
152.702920
 20
384.135193
 30
0.0
 10
143.067861
 20
384.135193
 30
0.0
 10
143.067861
 20
379.052727
 30
0.0
 10
151.909171
 20
379.052727
 30
0.0
 10
151.909171
 20
375.855858
 30
0.0
 10
143.067861
 20
375.855858
 30
0.0
 10
143.067861
 20
369.787026
 30
0.0
 10
153.066987
 20
369.787026
 30
0.0
  0
LWPOLYLINE
  5
132
100
AcDbEntity
  8
Qlocktwo_blank_laser_v3
 62
5
100
AcDbPolyline
 90
14
 70
1
 10
187.476552
 20
366.606384
 30
0.0
 10
183.888100
 20
366.606384
 30
0.0
 10
177.758590
 20
378.926080
 30
0.0
 10
176.826905
 20
381.296392
 30
0.0
 10
177.036455
 20
378.413495
 30
0.0
 10
177.036455
 20
366.606384
 30
0.0
 10
173.646616
 20
366.606384
 30
0.0
 10
173.646616
 20
387.315482
 30
0.0
 10
177.234716
 20
387.315482
 30
0.0
 10
183.364225
 20
374.995786
 30
0.0
 10
184.295910
 20
372.625827
 30
0.0
 10
184.086361
 20
375.519661
 30
0.0
 10
184.086361
 20
387.315482
 30
0.0
 10
187.476552
 20
387.315482
 30
0.0
  0
SPLINE
  5
133
100
AcDbEntity
  8
Qlocktwo_blank_laser_v3
 62
5
100
AcDbSpline
 70
8
 71
3
 72
8
 73
4
 74
0
 40
0
 40
0
 40
0
 40
0
 40
1
 40
1
 40
1
 40
1
 10
283.622182
 20
376.324346
 30
0.0
 10
283.622182
 20
376.342338
 30
0.0
 10
283.391819
 20
376.079166
 30
0.0
 10
282.933208
 20
375.536241
 30
0.0
  0
LWPOLYLINE
  5
134
100
AcDbEntity
  8
Qlocktwo_blank_laser_v3
 62
5
100
AcDbPolyline
 90
3
 70
0
 10
293.229725
 20
366.606384
 30
0.0
 10
288.820006
 20
366.606384
 30
0.0
 10
283.622182
 20
376.324346
 30
0.0
  0
LWPOLYLINE
  5
135
100
AcDbEntity
  8
Qlocktwo_blank_laser_v3
 62
5
100
AcDbPolyline
 90
11
 70
0
 10
282.933208
 20
375.536241
 30
0.0
 10
281.830778
 20
374.218617
 30
0.0
 10
281.830778
 20
366.606384
 30
0.0
 10
278.071228
 20
366.606384
 30
0.0
 10
278.071228
 20
387.315482
 30
0.0
 10
281.830778
 20
387.315482
 30
0.0
 10
281.830778
 20
378.992050
 30
0.0
 10
288.511326
 20
387.315482
 30
0.0
 10
292.794398
 20
387.315482
 30
0.0
 10
285.915236
 20
379.108114
 30
0.0
 10
293.229725
 20
366.606384
 30
0.0
  0
SPLINE
  5
136
100
AcDbEntity
  8
Qlocktwo_blank_laser_v3
 62
5
100
AcDbSpline
 70
8
 71
3
 72
8
 73
4
 74
0
 40
0
 40
0
 40
0
 40
0
 40
1
 40
1
 40
1
 40
1
 10
319.966380
 20
373.441448
 30
0.0
 10
319.825974
 20
373.783290
 30
0.0
 10
319.663344
 20
374.348087
 30
0.0
 10
319.476019
 20
375.139367
 30
0.0
  0
LWPOLYLINE
  5
137
100
AcDbEntity
  8
Qlocktwo_blank_laser_v3
 62
5
100
AcDbPolyline
 90
4
 70
0
 10
327.975488
 20
387.315482
 30
0.0
 10
325.544851
 20
366.606384
 30
0.0
 10
322.739211
 20
366.606384
 30
0.0
 10
319.966380
 20
373.441448
 30
0.0
  0
SPLINE
  5
138
100
AcDbEntity
  8
Qlocktwo_blank_laser_v3
 62
5
100
AcDbSpline
 70
8
 71
3
 72
8
 73
4
 74
0
 40
0
 40
0
 40
0
 40
0
 40
1
 40
1
 40
1
 40
1
 10
319.249889
 20
374.246134
 30
0.0
 10
319.201558
 20
374.050695
 30
0.0
 10
319.045983
 20
373.628773
 30
0.0
 10
318.781400
 20
372.978604
 30
0.0
  0
LWPOLYLINE
  5
139
100
AcDbEntity
  8
Qlocktwo_blank_laser_v3
 62
5
100
AcDbPolyline
 90
2
 70
0
 10
319.476019
 20
375.139367
 30
0.0
 10
319.249889
 20
374.246134
 30
0.0
  0
SPLINE
  5
13a
100
AcDbEntity
  8
Qlocktwo_blank_laser_v3
 62
5
100
AcDbSpline
 70
8
 71
3
 72
8
 73
4
 74
0
 40
0
 40
0
 40
0
 40
0
 40
1
 40
1
 40
1
 40
1
 10
316.152149
 20
373.259415
 30
0.0
 10
316.342297
 20
373.777645
 30
0.0
 10
316.682727
 20
374.639128
 30
0.0
 10
317.171676
 20
375.844922
 30
0.0
  0
LWPOLYLINE
  5
13b
100
AcDbEntity
  8
Qlocktwo_blank_laser_v3
 62
5
100
AcDbPolyline
 90
8
 70
0
 10
318.781400
 20
372.978604
 30
0.0
 10
316.196247
 20
366.606384
 30
0.0
 10
313.103799
 20
366.606384
 30
0.0
 10
310.672809
 20
387.315482
 30
0.0
 10
314.432359
 20
387.315482
 30
0.0
 10
315.474111
 20
376.153602
 30
0.0
 10
315.672372
 20
371.931208
 30
0.0
 10
316.152149
 20
373.259415
 30
0.0
  0
SPLINE
  5
13c
100
AcDbEntity
  8
Qlocktwo_blank_laser_v3
 62
5
100
AcDbSpline
 70
8
 71
3
 72
8
 73
4
 74
0
 40
0
 40
0
 40
0
 40
0
 40
1
 40
1
 40
1
 40
1
 10
319.756830
 20
380.745001
 30
0.0
 10
321.836454
 20
375.706986
 30
0.0
 10
323.003794
 20
372.769054
 30
0.0
 10
323.257089
 20
371.931208
 30
0.0
  0
LWPOLYLINE
  5
13d
100
AcDbEntity
  8
Qlocktwo_blank_laser_v3
 62
5
100
AcDbPolyline
 90
3
 70
0
 10
317.171676
 20
375.844922
 30
0.0
 10
319.178275
 20
380.745001
 30
0.0
 10
319.756830
 20
380.745001
 30
0.0
  0
LWPOLYLINE
  5
13e
100
AcDbEntity
  8
Qlocktwo_blank_laser_v3
 62
5
100
AcDbPolyline
 90
4
 70
0
 10
323.257089
 20
371.931208
 30
0.0
 10
323.455702
 20
376.153602
 30
0.0
 10
324.503099
 20
387.315482
 30
0.0
 10
327.975488
 20
387.315482
 30
0.0
  0
LWPOLYLINE
  5
13f
100
AcDbEntity
  8
Qlocktwo_blank_laser_v3
 62
5
100
AcDbPolyline
 90
8
 70
1
 10
431.331184
 20
384.135193
 30
0.0
 10
425.284225
 20
384.135193
 30
0.0
 10
425.284225
 20
366.606384
 30
0.0
 10
421.514092
 20
366.606384
 30
0.0
 10
421.514092
 20
384.135193
 30
0.0
 10
415.467133
 20
384.135193
 30
0.0
 10
415.467133
 20
387.315482
 30
0.0
 10
431.331184
 20
387.315482
 30
0.0
  0
LWPOLYLINE
  5
140
100
AcDbEntity
  8
Qlocktwo_blank_laser_v3
 62
5
100
AcDbPolyline
 90
8
 70
1
 10
84.423892
 20
347.975498
 30
0.0
 10
78.377285
 20
347.975498
 30
0.0
 10
78.377285
 20
330.446689
 30
0.0
 10
74.606799
 20
330.446689
 30
0.0
 10
74.606799
 20
347.975498
 30
0.0
 10
68.560193
 20
347.975498
 30
0.0
 10
68.560193
 20
351.155787
 30
0.0
 10
84.423892
 20
351.155787
 30
0.0
  0
SPLINE
  5
141
100
AcDbEntity
  8
Qlocktwo_blank_laser_v3
 62
5
100
AcDbSpline
 70
8
 71
3
 72
8
 73
4
 74
0
 40
0
 40
0
 40
0
 40
0
 40
1
 40
1
 40
1
 40
1
 10
111.822357
 20
337.281754
 30
0.0
 10
111.681599
 20
337.623595
 30
0.0
 10
111.518968
 20
338.188392
 30
0.0
 10
111.331643
 20
338.979672
 30
0.0
  0
LWPOLYLINE
  5
142
100
AcDbEntity
  8
Qlocktwo_blank_laser_v3
 62
5
100
AcDbPolyline
 90
4
 70
0
 10
119.831465
 20
351.155787
 30
0.0
 10
117.400475
 20
330.446689
 30
0.0
 10
114.594835
 20
330.446689
 30
0.0
 10
111.822357
 20
337.281754
 30
0.0
  0
SPLINE
  5
143
100
AcDbEntity
  8
Qlocktwo_blank_laser_v3
 62
5
100
AcDbSpline
 70
8
 71
3
 72
8
 73
4
 74
0
 40
0
 40
0
 40
0
 40
0
 40
1
 40
1
 40
1
 40
1
 10
111.105513
 20
338.086439
 30
0.0
 10
111.057535
 20
337.891000
 30
0.0
 10
110.901608
 20
337.469078
 30
0.0
 10
110.637025
 20
336.818909
 30
0.0
  0
LWPOLYLINE
  5
144
100
AcDbEntity
  8
Qlocktwo_blank_laser_v3
 62
5
100
AcDbPolyline
 90
2
 70
0
 10
111.331643
 20
338.979672
 30
0.0
 10
111.105513
 20
338.086439
 30
0.0
  0
SPLINE
  5
145
100
AcDbEntity
  8
Qlocktwo_blank_laser_v3
 62
5
100
AcDbSpline
 70
8
 71
3
 72
8
 73
4
 74
0
 40
0
 40
0
 40
0
 40
0
 40
1
 40
1
 40
1
 40
1
 10
108.007774
 20
337.099720
 30
0.0
 10
108.197921
 20
337.617950
 30
0.0
 10
108.538351
 20
338.479433
 30
0.0
 10
109.027654
 20
339.685227
 30
0.0
  0
LWPOLYLINE
  5
146
100
AcDbEntity
  8
Qlocktwo_blank_laser_v3
 62
5
100
AcDbPolyline
 90
8
 70
0
 10
110.637025
 20
336.818909
 30
0.0
 10
108.051871
 20
330.446689
 30
0.0
 10
104.959423
 20
330.446689
 30
0.0
 10
102.528786
 20
351.155787
 30
0.0
 10
106.287983
 20
351.155787
 30
0.0
 10
107.329735
 20
339.993907
 30
0.0
 10
107.528349
 20
335.771513
 30
0.0
 10
108.007774
 20
337.099720
 30
0.0
  0
SPLINE
  5
147
100
AcDbEntity
  8
Qlocktwo_blank_laser_v3
 62
5
100
AcDbSpline
 70
8
 71
3
 72
8
 73
4
 74
0
 40
0
 40
0
 40
0
 40
0
 40
1
 40
1
 40
1
 40
1
 10
111.612807
 20
344.585306
 30
0.0
 10
113.692078
 20
339.547291
 30
0.0
 10
114.859419
 20
336.609360
 30
0.0
 10
115.113066
 20
335.771513
 30
0.0
  0
LWPOLYLINE
  5
148
100
AcDbEntity
  8
Qlocktwo_blank_laser_v3
 62
5
100
AcDbPolyline
 90
3
 70
0
 10
109.027654
 20
339.685227
 30
0.0
 10
111.033899
 20
344.585306
 30
0.0
 10
111.612807
 20
344.585306
 30
0.0
  0
LWPOLYLINE
  5
149
100
AcDbEntity
  8
Qlocktwo_blank_laser_v3
 62
5
100
AcDbPolyline
 90
4
 70
0
 10
115.113066
 20
335.771513
 30
0.0
 10
115.311327
 20
339.993907
 30
0.0
 10
116.358723
 20
351.155787
 30
0.0
 10
119.831465
 20
351.155787
 30
0.0
  0
LWPOLYLINE
  5
14a
100
AcDbEntity
  8
Qlocktwo_blank_laser_v3
 62
5
100
AcDbPolyline
 90
12
 70
1
 10
150.933741
 20
330.446689
 30
0.0
 10
140.807968
 20
330.446689
 30
0.0
 10
140.807968
 20
333.627331
 30
0.0
 10
143.988258
 20
333.627331
 30
0.0
 10
143.988258
 20
347.975498
 30
0.0
 10
140.807968
 20
347.975498
 30
0.0
 10
140.807968
 20
351.155787
 30
0.0
 10
150.933741
 20
351.155787
 30
0.0
 10
150.933741
 20
347.975498
 30
0.0
 10
147.758744
 20
347.975498
 30
0.0
 10
147.758744
 20
333.627331
 30
0.0
 10
150.933741
 20
333.627331
 30
0.0
  0
LWPOLYLINE
  5
14b
100
AcDbEntity
  8
Qlocktwo_blank_laser_v3
 62
5
100
AcDbPolyline
 90
14
 70
1
 10
187.476552
 20
330.446689
 30
0.0
 10
183.888100
 20
330.446689
 30
0.0
 10
177.758590
 20
342.766385
 30
0.0
 10
176.826905
 20
345.136698
 30
0.0
 10
177.036455
 20
342.253800
 30
0.0
 10
177.036455
 20
330.446689
 30
0.0
 10
173.646616
 20
330.446689
 30
0.0
 10
173.646616
 20
351.155787
 30
0.0
 10
177.234716
 20
351.155787
 30
0.0
 10
183.364225
 20
338.836091
 30
0.0
 10
184.295910
 20
336.466132
 30
0.0
 10
184.086361
 20
339.359966
 30
0.0
 10
184.086361
 20
351.155787
 30
0.0
 10
187.476552
 20
351.155787
 30
0.0
  0
LWPOLYLINE
  5
14c
100
AcDbEntity
  8
Qlocktwo_blank_laser_v3
 62
5
100
AcDbPolyline
 90
8
 70
1
 10
223.186809
 20
347.975498
 30
0.0
 10
217.140202
 20
347.975498
 30
0.0
 10
217.140202
 20
330.446689
 30
0.0
 10
213.369716
 20
330.446689
 30
0.0
 10
213.369716
 20
347.975498
 30
0.0
 10
207.323110
 20
347.975498
 30
0.0
 10
207.323110
 20
351.155787
 30
0.0
 10
223.186809
 20
351.155787
 30
0.0
  0
LWPOLYLINE
  5
14d
100
AcDbEntity
  8
Qlocktwo_blank_laser_v3
 62
5
100
AcDbPolyline
 90
12
 70
1
 10
255.005929
 20
330.446689
 30
0.0
 10
244.879803
 20
330.446689
 30
0.0
 10
244.879803
 20
333.627331
 30
0.0
 10
248.060445
 20
333.627331
 30
0.0
 10
248.060445
 20
347.975498
 30
0.0
 10
244.879803
 20
347.975498
 30
0.0
 10
244.879803
 20
351.155787
 30
0.0
 10
255.005929
 20
351.155787
 30
0.0
 10
255.005929
 20
347.975498
 30
0.0
 10
251.830932
 20
347.975498
 30
0.0
 10
251.830932
 20
333.627331
 30
0.0
 10
255.005929
 20
333.627331
 30
0.0
  0
SPLINE
  5
14e
100
AcDbEntity
  8
Qlocktwo_blank_laser_v3
 62
5
100
AcDbSpline
 70
8
 71
3
 72
8
 73
4
 74
0
 40
0
 40
0
 40
0
 40
0
 40
1
 40
1
 40
1
 40
1
 10
288.428776
 20
345.053795
 30
0.0
 10
287.747915
 20
347.181749
 30
0.0
 10
286.534008
 20
348.245373
 30
0.0
 10
284.785290
 20
348.245373
 30
0.0
  0
SPLINE
  5
14f
100
AcDbEntity
  8
Qlocktwo_blank_laser_v3
 62
5
100
AcDbSpline
 70
8
 71
3
 72
8
 73
4
 74
0
 40
0
 40
0
 40
0
 40
0
 40
1
 40
1
 40
1
 40
1
 10
284.785290
 20
348.245373
 30
0.0
 10
283.266583
 20
348.245373
 30
0.0
 10
282.216364
 20
347.636479
 30
0.0
 10
281.632165
 20
346.420808
 30
0.0
  0
SPLINE
  5
150
100
AcDbEntity
  8
Qlocktwo_blank_laser_v3
 62
5
100
AcDbSpline
 70
8
 71
3
 72
8
 73
4
 74
0
 40
0
 40
0
 40
0
 40
0
 40
1
 40
1
 40
1
 40
1
 10
281.632165
 20
346.420808
 30
0.0
 10
281.047965
 20
345.208311
 30
0.0
 10
280.755865
 20
343.314954
 30
0.0
 10
280.755865
 20
340.743559
 30
0.0
  0
SPLINE
  5
151
100
AcDbEntity
  8
Qlocktwo_blank_laser_v3
 62
5
100
AcDbSpline
 70
8
 71
3
 72
8
 73
4
 74
0
 40
0
 40
0
 40
0
 40
0
 40
1
 40
1
 40
1
 40
1
 10
280.755865
 20
340.743559
 30
0.0
 10
280.755865
 20
338.078325
 30
0.0
 10
281.056079
 20
336.187438
 30
0.0
 10
281.659681
 20
335.071250
 30
0.0
  0
SPLINE
  5
152
100
AcDbEntity
  8
Qlocktwo_blank_laser_v3
 62
5
100
AcDbSpline
 70
8
 71
3
 72
8
 73
4
 74
0
 40
0
 40
0
 40
0
 40
0
 40
1
 40
1
 40
1
 40
1
 10
281.659681
 20
335.071250
 30
0.0
 10
282.261872
 20
333.957884
 30
0.0
 10
283.313502
 20
333.401201
 30
0.0
 10
284.812807
 20
333.401201
 30
0.0
  0
SPLINE
  5
153
100
AcDbEntity
  8
Qlocktwo_blank_laser_v3
 62
5
100
AcDbSpline
 70
8
 71
3
 72
8
 73
4
 74
0
 40
0
 40
0
 40
0
 40
0
 40
1
 40
1
 40
1
 40
1
 10
284.812807
 20
333.401201
 30
0.0
 10
286.138544
 20
333.401201
 30
0.0
 10
287.151369
 20
333.766326
 30
0.0
 10
287.849868
 20
334.497986
 30
0.0
  0
LWPOLYLINE
  5
154
100
AcDbEntity
  8
Qlocktwo_blank_laser_v3
 62
5
100
AcDbPolyline
 90
2
 70
0
 10
292.099779
 20
346.012997
 30
0.0
 10
288.428776
 20
345.053795
 30
0.0
  0
SPLINE
  5
155
100
AcDbEntity
  8
Qlocktwo_blank_laser_v3
 62
5
100
AcDbSpline
 70
8
 71
3
 72
8
 73
4
 74
0
 40
0
 40
0
 40
0
 40
0
 40
1
 40
1
 40
1
 40
1
 10
292.072262
 20
333.456234
 30
0.0
 10
290.112583
 20
331.232325
 30
0.0
 10
287.702407
 20
330.121428
 30
0.0
 10
284.840323
 20
330.121428
 30
0.0
  0
SPLINE
  5
156
100
AcDbEntity
  8
Qlocktwo_blank_laser_v3
 62
5
100
AcDbSpline
 70
8
 71
3
 72
8
 73
4
 74
0
 40
0
 40
0
 40
0
 40
0
 40
1
 40
1
 40
1
 40
1
 10
284.840323
 20
330.121428
 30
0.0
 10
282.135225
 20
330.121428
 30
0.0
 10
280.138505
 20
330.975856
 30
0.0
 10
278.848750
 20
332.684710
 30
0.0
  0
SPLINE
  5
157
100
AcDbEntity
  8
Qlocktwo_blank_laser_v3
 62
5
100
AcDbSpline
 70
8
 71
3
 72
8
 73
4
 74
0
 40
0
 40
0
 40
0
 40
0
 40
1
 40
1
 40
1
 40
1
 10
278.848750
 20
332.684710
 30
0.0
 10
277.558643
 20
334.393564
 30
0.0
 10
276.913765
 20
337.069381
 30
0.0
 10
276.913765
 20
340.715690
 30
0.0
  0
SPLINE
  5
158
100
AcDbEntity
  8
Qlocktwo_blank_laser_v3
 62
5
100
AcDbSpline
 70
8
 71
3
 72
8
 73
4
 74
0
 40
0
 40
0
 40
0
 40
0
 40
1
 40
1
 40
1
 40
1
 10
276.913765
 20
340.715690
 30
0.0
 10
276.913765
 20
347.910587
 30
0.0
 10
279.526436
 20
351.508565
 30
0.0
 10
284.752129
 20
351.508565
 30
0.0
  0
SPLINE
  5
159
100
AcDbEntity
  8
Qlocktwo_blank_laser_v3
 62
5
100
AcDbSpline
 70
8
 71
3
 72
8
 73
4
 74
0
 40
0
 40
0
 40
0
 40
0
 40
1
 40
1
 40
1
 40
1
 10
284.752129
 20
351.508565
 30
0.0
 10
288.650673
 20
351.508565
 30
0.0
 10
291.099302
 20
349.675886
 30
0.0
 10
292.099779
 20
346.012997
 30
0.0
  0
LWPOLYLINE
  5
15a
100
AcDbEntity
  8
Qlocktwo_blank_laser_v3
 62
5
100
AcDbPolyline
 90
6
 70
0
 10
287.849868
 20
334.497986
 30
0.0
 10
287.849868
 20
338.230019
 30
0.0
 10
284.950390
 20
338.230019
 30
0.0
 10
284.950390
 20
341.410309
 30
0.0
 10
292.072262
 20
341.410309
 30
0.0
 10
292.072262
 20
333.456234
 30
0.0
  0
LWPOLYLINE
  5
15b
100
AcDbEntity
  8
Qlocktwo_blank_laser_v3
 62
5
100
AcDbPolyline
 90
1
 70
1
 10
292.099779
 20
346.012997
 30
0.0
  0
LWPOLYLINE
  5
15c
100
AcDbEntity
  8
Qlocktwo_blank_laser_v3
 62
5
100
AcDbPolyline
 90
9
 70
1
 10
362.666217
 20
351.155787
 30
0.0
 10
355.902767
 20
339.117255
 30
0.0
 10
355.902767
 20
330.446689
 30
0.0
 10
352.132633
 20
330.446689
 30
0.0
 10
352.132633
 20
339.150416
 30
0.0
 10
345.363538
 20
351.155787
 30
0.0
 10
349.447996
 20
351.155787
 30
0.0
 10
354.106071
 20
342.314477
 30
0.0
 10
358.785664
 20
351.155787
 30
0.0
  0
LWPOLYLINE
  5
15d
100
AcDbEntity
  8
Qlocktwo_blank_laser_v3
 62
5
100
AcDbPolyline
 90
14
 70
1
 10
395.620575
 20
330.446689
 30
0.0
 10
392.032123
 20
330.446689
 30
0.0
 10
385.902613
 20
342.766385
 30
0.0
 10
384.971281
 20
345.136698
 30
0.0
 10
385.180831
 20
342.253800
 30
0.0
 10
385.180831
 20
330.446689
 30
0.0
 10
381.790639
 20
330.446689
 30
0.0
 10
381.790639
 20
351.155787
 30
0.0
 10
385.379092
 20
351.155787
 30
0.0
 10
391.508601
 20
338.836091
 30
0.0
 10
392.440286
 20
336.466132
 30
0.0
 10
392.230736
 20
339.359966
 30
0.0
 10
392.230736
 20
351.155787
 30
0.0
 10
395.620575
 20
351.155787
 30
0.0
  0
LWPOLYLINE
  5
15e
100
AcDbEntity
  8
Qlocktwo_blank_laser_v3
 62
5
100
AcDbPolyline
 90
9
 70
1
 10
85.140736
 20
314.996093
 30
0.0
 10
78.377285
 20
294.286994
 30
0.0
 10
74.463571
 20
294.286994
 30
0.0
 10
67.838057
 20
314.996093
 30
0.0
 10
71.707673
 20
314.996093
 30
0.0
 10
75.538484
 20
302.538813
 30
0.0
 10
76.514267
 20
299.176138
 30
0.0
 10
77.445600
 20
302.566330
 30
0.0
 10
81.315216
 20
314.996093
 30
0.0
  0
LWPOLYLINE
  5
15f
100
AcDbEntity
  8
Qlocktwo_blank_laser_v3
 62
5
100
AcDbPolyline
 90
12
 70
1
 10
221.814504
 20
294.286994
 30
0.0
 10
218.054954
 20
294.286994
 30
0.0
 10
218.054954
 20
303.453565
 30
0.0
 10
212.449320
 20
303.453565
 30
0.0
 10
212.449320
 20
294.286994
 30
0.0
 10
208.689770
 20
294.286994
 30
0.0
 10
208.689770
 20
314.996093
 30
0.0
 10
212.449320
 20
314.996093
 30
0.0
 10
212.449320
 20
306.733338
 30
0.0
 10
218.054954
 20
306.733338
 30
0.0
 10
218.054954
 20
314.996093
 30
0.0
 10
221.814504
 20
314.996093
 30
0.0
  0
SPLINE
  5
160
100
AcDbEntity
  8
Qlocktwo_blank_laser_v3
 62
5
100
AcDbSpline
 70
8
 71
3
 72
8
 73
4
 74
0
 40
0
 40
0
 40
0
 40
0
 40
1
 40
1
 40
1
 40
1
 10
252.437003
 20
301.772580
 30
0.0
 10
251.334574
 20
305.303178
 30
0.0
 10
250.491435
 20
308.081301
 30
0.0
 10
249.906883
 20
310.106949
 30
0.0
  0
SPLINE
  5
161
100
AcDbEntity
  8
Qlocktwo_blank_laser_v3
 62
5
100
AcDbSpline
 70
8
 71
3
 72
8
 73
4
 74
0
 40
0
 40
0
 40
0
 40
0
 40
1
 40
1
 40
1
 40
1
 10
249.906883
 20
310.106949
 30
0.0
 10
249.369603
 20
308.063309
 30
0.0
 10
248.551159
 20
305.285186
 30
0.0
 10
247.448729
 20
301.772580
 30
0.0
  0
LWPOLYLINE
  5
162
100
AcDbEntity
  8
Qlocktwo_blank_laser_v3
 62
5
100
AcDbPolyline
 90
8
 70
1
 10
258.594029
 20
294.286994
 30
0.0
 10
254.713477
 20
294.286994
 30
0.0
 10
253.412786
 20
298.509388
 30
0.0
 10
246.417913
 20
298.509388
 30
0.0
 10
245.105934
 20
294.286994
 30
0.0
 10
241.291703
 20
294.286994
 30
0.0
 10
248.060445
 20
314.996093
 30
0.0
 10
251.968515
 20
314.996093
 30
0.0
  0
LWPOLYLINE
  5
163
100
AcDbEntity
  8
Qlocktwo_blank_laser_v3
 62
5
100
AcDbPolyline
 90
2
 70
0
 10
247.448729
 20
301.772580
 30
0.0
 10
252.437003
 20
301.772580
 30
0.0
  0
LWPOLYLINE
  5
164
100
AcDbEntity
  8
Qlocktwo_blank_laser_v3
 62
5
100
AcDbPolyline
 90
9
 70
1
 10
362.666217
 20
314.996093
 30
0.0
 10
355.902767
 20
294.286994
 30
0.0
 10
351.989406
 20
294.286994
 30
0.0
 10
345.363538
 20
314.996093
 30
0.0
 10
349.233155
 20
314.996093
 30
0.0
 10
353.063966
 20
302.538813
 30
0.0
 10
354.039749
 20
299.176138
 30
0.0
 10
354.971434
 20
302.566330
 30
0.0
 10
358.841050
 20
314.996093
 30
0.0
  0
LWPOLYLINE
  5
165
100
AcDbEntity
  8
Qlocktwo_blank_laser_v3
 62
5
100
AcDbPolyline
 90
12
 70
1
 10
395.901739
 20
294.286994
 30
0.0
 10
382.143416
 20
294.286994
 30
0.0
 10
382.143416
 20
314.996093
 30
0.0
 10
395.538025
 20
314.996093
 30
0.0
 10
395.538025
 20
311.815803
 30
0.0
 10
385.902613
 20
311.815803
 30
0.0
 10
385.902613
 20
306.733338
 30
0.0
 10
394.744276
 20
306.733338
 30
0.0
 10
394.744276
 20
303.536468
 30
0.0
 10
385.902613
 20
303.536468
 30
0.0
 10
385.902613
 20
297.467636
 30
0.0
 10
395.901739
 20
297.467636
 30
0.0
  0
LWPOLYLINE
  5
166
100
AcDbEntity
  8
Qlocktwo_blank_laser_v3
 62
5
100
AcDbPolyline
 90
12
 70
1
 10
83.051587
 20
258.127300
 30
0.0
 10
79.292390
 20
258.127300
 30
0.0
 10
79.292390
 20
267.293870
 30
0.0
 10
73.686403
 20
267.293870
 30
0.0
 10
73.686403
 20
258.127300
 30
0.0
 10
69.927205
 20
258.127300
 30
0.0
 10
69.927205
 20
278.836398
 30
0.0
 10
73.686403
 20
278.836398
 30
0.0
 10
73.686403
 20
270.573643
 30
0.0
 10
79.292390
 20
270.573643
 30
0.0
 10
79.292390
 20
278.836398
 30
0.0
 10
83.051587
 20
278.836398
 30
0.0
  0
LWPOLYLINE
  5
167
100
AcDbEntity
  8
Qlocktwo_blank_laser_v3
 62
5
100
AcDbPolyline
 90
6
 70
1
 10
153.772542
 20
258.127300
 30
0.0
 10
139.308664
 20
258.127300
 30
0.0
 10
139.308664
 20
278.836398
 30
0.0
 10
143.067861
 20
278.836398
 30
0.0
 10
143.067861
 20
261.307942
 30
0.0
 10
153.772542
 20
261.307942
 30
0.0
  0
LWPOLYLINE
  5
168
100
AcDbEntity
  8
Qlocktwo_blank_laser_v3
 62
5
100
AcDbPolyline
 90
10
 70
1
 10
188.253721
 20
275.656109
 30
0.0
 10
177.758590
 20
275.656109
 30
0.0
 10
177.758590
 20
270.248382
 30
0.0
 10
186.952678
 20
270.248382
 30
0.0
 10
186.952678
 20
267.068093
 30
0.0
 10
177.758590
 20
267.068093
 30
0.0
 10
177.758590
 20
258.127300
 30
0.0
 10
173.999393
 20
258.127300
 30
0.0
 10
173.999393
 20
278.836398
 30
0.0
 10
188.253721
 20
278.836398
 30
0.0
  0
LWPOLYLINE
  5
169
100
AcDbEntity
  8
Qlocktwo_blank_laser_v3
 62
5
100
AcDbPolyline
 90
12
 70
1
 10
255.005929
 20
258.127300
 30
0.0
 10
244.879803
 20
258.127300
 30
0.0
 10
244.879803
 20
261.307942
 30
0.0
 10
248.060445
 20
261.307942
 30
0.0
 10
248.060445
 20
275.656109
 30
0.0
 10
244.879803
 20
275.656109
 30
0.0
 10
244.879803
 20
278.836398
 30
0.0
 10
255.005929
 20
278.836398
 30
0.0
 10
255.005929
 20
275.656109
 30
0.0
 10
251.830932
 20
275.656109
 30
0.0
 10
251.830932
 20
261.307942
 30
0.0
 10
255.005929
 20
261.307942
 30
0.0
  0
LWPOLYLINE
  5
16a
100
AcDbEntity
  8
Qlocktwo_blank_laser_v3
 62
5
100
AcDbPolyline
 90
14
 70
1
 10
291.548740
 20
258.127300
 30
0.0
 10
287.960288
 20
258.127300
 30
0.0
 10
281.830778
 20
270.446996
 30
0.0
 10
280.899093
 20
272.817308
 30
0.0
 10
281.108643
 20
269.934410
 30
0.0
 10
281.108643
 20
258.127300
 30
0.0
 10
277.718451
 20
258.127300
 30
0.0
 10
277.718451
 20
278.836398
 30
0.0
 10
281.306904
 20
278.836398
 30
0.0
 10
287.436413
 20
266.516702
 30
0.0
 10
288.368098
 20
264.146742
 30
0.0
 10
288.158548
 20
267.040576
 30
0.0
 10
288.158548
 20
278.836398
 30
0.0
 10
291.548740
 20
278.836398
 30
0.0
  0
LWPOLYLINE
  5
16b
100
AcDbEntity
  8
Qlocktwo_blank_laser_v3
 62
5
100
AcDbPolyline
 90
12
 70
1
 10
326.520281
 20
258.127300
 30
0.0
 10
312.761958
 20
258.127300
 30
0.0
 10
312.761958
 20
278.836398
 30
0.0
 10
326.156567
 20
278.836398
 30
0.0
 10
326.156567
 20
275.656109
 30
0.0
 10
316.521508
 20
275.656109
 30
0.0
 10
316.521508
 20
270.573643
 30
0.0
 10
325.362818
 20
270.573643
 30
0.0
 10
325.362818
 20
267.376773
 30
0.0
 10
316.521508
 20
267.376773
 30
0.0
 10
316.521508
 20
261.307942
 30
0.0
 10
326.520281
 20
261.307942
 30
0.0
  0
LWPOLYLINE
  5
16c
100
AcDbEntity
  8
Qlocktwo_blank_laser_v3
 62
5
100
AcDbPolyline
 90
12
 70
1
 10
361.211010
 20
258.127300
 30
0.0
 10
347.452687
 20
258.127300
 30
0.0
 10
347.452687
 20
278.836398
 30
0.0
 10
360.847296
 20
278.836398
 30
0.0
 10
360.847296
 20
275.656109
 30
0.0
 10
351.211884
 20
275.656109
 30
0.0
 10
351.211884
 20
270.573643
 30
0.0
 10
360.053547
 20
270.573643
 30
0.0
 10
360.053547
 20
267.376773
 30
0.0
 10
351.211884
 20
267.376773
 30
0.0
 10
351.211884
 20
261.307942
 30
0.0
 10
361.211010
 20
261.307942
 30
0.0
  0
LWPOLYLINE
  5
16d
100
AcDbEntity
  8
Qlocktwo_blank_laser_v3
 62
5
100
AcDbPolyline
 90
14
 70
1
 10
395.620575
 20
258.127300
 30
0.0
 10
392.032123
 20
258.127300
 30
0.0
 10
385.902613
 20
270.446996
 30
0.0
 10
384.971281
 20
272.817308
 30
0.0
 10
385.180831
 20
269.934410
 30
0.0
 10
385.180831
 20
258.127300
 30
0.0
 10
381.790639
 20
258.127300
 30
0.0
 10
381.790639
 20
278.836398
 30
0.0
 10
385.379092
 20
278.836398
 30
0.0
 10
391.508601
 20
266.516702
 30
0.0
 10
392.440286
 20
264.146742
 30
0.0
 10
392.230736
 20
267.040576
 30
0.0
 10
392.230736
 20
278.836398
 30
0.0
 10
395.620575
 20
278.836398
 30
0.0
  0
SPLINE
  5
16e
100
AcDbEntity
  8
Qlocktwo_blank_laser_v3
 62
5
100
AcDbSpline
 70
8
 71
3
 72
8
 73
4
 74
0
 40
0
 40
0
 40
0
 40
0
 40
1
 40
1
 40
1
 40
1
 10
427.191693
 20
272.734405
 30
0.0
 10
426.510833
 20
274.862359
 30
0.0
 10
425.296572
 20
275.925983
 30
0.0
 10
423.547854
 20
275.925983
 30
0.0
  0
SPLINE
  5
16f
100
AcDbEntity
  8
Qlocktwo_blank_laser_v3
 62
5
100
AcDbSpline
 70
8
 71
3
 72
8
 73
4
 74
0
 40
0
 40
0
 40
0
 40
0
 40
1
 40
1
 40
1
 40
1
 10
423.547854
 20
275.925983
 30
0.0
 10
422.029500
 20
275.925983
 30
0.0
 10
420.979281
 20
275.317089
 30
0.0
 10
420.395082
 20
274.101418
 30
0.0
  0
SPLINE
  5
170
100
AcDbEntity
  8
Qlocktwo_blank_laser_v3
 62
5
100
AcDbSpline
 70
8
 71
3
 72
8
 73
4
 74
0
 40
0
 40
0
 40
0
 40
0
 40
1
 40
1
 40
1
 40
1
 10
420.395082
 20
274.101418
 30
0.0
 10
419.810882
 20
272.888922
 30
0.0
 10
419.518782
 20
270.995565
 30
0.0
 10
419.518782
 20
268.424170
 30
0.0
  0
SPLINE
  5
171
100
AcDbEntity
  8
Qlocktwo_blank_laser_v3
 62
5
100
AcDbSpline
 70
8
 71
3
 72
8
 73
4
 74
0
 40
0
 40
0
 40
0
 40
0
 40
1
 40
1
 40
1
 40
1
 10
419.518782
 20
268.424170
 30
0.0
 10
419.518782
 20
265.758935
 30
0.0
 10
419.818996
 20
263.868048
 30
0.0
 10
420.422598
 20
262.751860
 30
0.0
  0
SPLINE
  5
172
100
AcDbEntity
  8
Qlocktwo_blank_laser_v3
 62
5
100
AcDbSpline
 70
8
 71
3
 72
8
 73
4
 74
0
 40
0
 40
0
 40
0
 40
0
 40
1
 40
1
 40
1
 40
1
 10
420.422598
 20
262.751860
 30
0.0
 10
421.024790
 20
261.638494
 30
0.0
 10
422.076419
 20
261.081811
 30
0.0
 10
423.575724
 20
261.081811
 30
0.0
  0
SPLINE
  5
173
100
AcDbEntity
  8
Qlocktwo_blank_laser_v3
 62
5
100
AcDbSpline
 70
8
 71
3
 72
8
 73
4
 74
0
 40
0
 40
0
 40
0
 40
0
 40
1
 40
1
 40
1
 40
1
 10
423.575724
 20
261.081811
 30
0.0
 10
424.901109
 20
261.081811
 30
0.0
 10
425.913933
 20
261.446936
 30
0.0
 10
426.612785
 20
262.178596
 30
0.0
  0
LWPOLYLINE
  5
174
100
AcDbEntity
  8
Qlocktwo_blank_laser_v3
 62
5
100
AcDbPolyline
 90
2
 70
0
 10
430.862696
 20
273.693607
 30
0.0
 10
427.191693
 20
272.734405
 30
0.0
  0
SPLINE
  5
175
100
AcDbEntity
  8
Qlocktwo_blank_laser_v3
 62
5
100
AcDbSpline
 70
8
 71
3
 72
8
 73
4
 74
0
 40
0
 40
0
 40
0
 40
0
 40
1
 40
1
 40
1
 40
1
 10
430.835179
 20
261.136845
 30
0.0
 10
428.875500
 20
258.912935
 30
0.0
 10
426.465324
 20
257.802039
 30
0.0
 10
423.603240
 20
257.802039
 30
0.0
  0
SPLINE
  5
176
100
AcDbEntity
  8
Qlocktwo_blank_laser_v3
 62
5
100
AcDbSpline
 70
8
 71
3
 72
8
 73
4
 74
0
 40
0
 40
0
 40
0
 40
0
 40
1
 40
1
 40
1
 40
1
 10
423.603240
 20
257.802039
 30
0.0
 10
420.898142
 20
257.802039
 30
0.0
 10
418.901422
 20
258.656466
 30
0.0
 10
417.611314
 20
260.365320
 30
0.0
  0
SPLINE
  5
177
100
AcDbEntity
  8
Qlocktwo_blank_laser_v3
 62
5
100
AcDbSpline
 70
8
 71
3
 72
8
 73
4
 74
0
 40
0
 40
0
 40
0
 40
0
 40
1
 40
1
 40
1
 40
1
 10
417.611314
 20
260.365320
 30
0.0
 10
416.321560
 20
262.074174
 30
0.0
 10
415.676682
 20
264.749992
 30
0.0
 10
415.676682
 20
268.396300
 30
0.0
  0
SPLINE
  5
178
100
AcDbEntity
  8
Qlocktwo_blank_laser_v3
 62
5
100
AcDbSpline
 70
8
 71
3
 72
8
 73
4
 74
0
 40
0
 40
0
 40
0
 40
0
 40
1
 40
1
 40
1
 40
1
 10
415.676682
 20
268.396300
 30
0.0
 10
415.676682
 20
275.591197
 30
0.0
 10
418.289353
 20
279.189175
 30
0.0
 10
423.515046
 20
279.189175
 30
0.0
  0
SPLINE
  5
179
100
AcDbEntity
  8
Qlocktwo_blank_laser_v3
 62
5
100
AcDbSpline
 70
8
 71
3
 72
8
 73
4
 74
0
 40
0
 40
0
 40
0
 40
0
 40
1
 40
1
 40
1
 40
1
 10
423.515046
 20
279.189175
 30
0.0
 10
427.413237
 20
279.189175
 30
0.0
 10
429.862219
 20
277.356496
 30
0.0
 10
430.862696
 20
273.693607
 30
0.0
  0
LWPOLYLINE
  5
17a
100
AcDbEntity
  8
Qlocktwo_blank_laser_v3
 62
5
100
AcDbPolyline
 90
6
 70
0
 10
426.612785
 20
262.178596
 30
0.0
 10
426.612785
 20
265.910630
 30
0.0
 10
423.713307
 20
265.910630
 30
0.0
 10
423.713307
 20
269.090919
 30
0.0
 10
430.835179
 20
269.090919
 30
0.0
 10
430.835179
 20
261.136845
 30
0.0
  0
LWPOLYLINE
  5
17b
100
AcDbEntity
  8
Qlocktwo_blank_laser_v3
 62
5
100
AcDbPolyline
 90
1
 70
1
 10
430.862696
 20
273.693607
 30
0.0
  0
LWPOLYLINE
  5
17c
100
AcDbEntity
  8
Qlocktwo_blank_laser_v3
 62
5
100
AcDbPolyline
 90
8
 70
1
 10
84.423892
 20
239.496414
 30
0.0
 10
78.377285
 20
239.496414
 30
0.0
 10
78.377285
 20
221.967605
 30
0.0
 10
74.606799
 20
221.967605
 30
0.0
 10
74.606799
 20
239.496414
 30
0.0
 10
68.560193
 20
239.496414
 30
0.0
 10
68.560193
 20
242.676703
 30
0.0
 10
84.423892
 20
242.676703
 30
0.0
  0
SPLINE
  5
17d
100
AcDbEntity
  8
Qlocktwo_blank_laser_v3
 62
5
100
AcDbSpline
 70
8
 71
3
 72
8
 73
4
 74
0
 40
0
 40
0
 40
0
 40
0
 40
1
 40
1
 40
1
 40
1
 10
111.822357
 20
228.802669
 30
0.0
 10
111.681599
 20
229.144510
 30
0.0
 10
111.518968
 20
229.709307
 30
0.0
 10
111.331643
 20
230.500587
 30
0.0
  0
LWPOLYLINE
  5
17e
100
AcDbEntity
  8
Qlocktwo_blank_laser_v3
 62
5
100
AcDbPolyline
 90
4
 70
0
 10
119.831465
 20
242.676703
 30
0.0
 10
117.400475
 20
221.967605
 30
0.0
 10
114.594835
 20
221.967605
 30
0.0
 10
111.822357
 20
228.802669
 30
0.0
  0
SPLINE
  5
17f
100
AcDbEntity
  8
Qlocktwo_blank_laser_v3
 62
5
100
AcDbSpline
 70
8
 71
3
 72
8
 73
4
 74
0
 40
0
 40
0
 40
0
 40
0
 40
1
 40
1
 40
1
 40
1
 10
111.105513
 20
229.607354
 30
0.0
 10
111.057535
 20
229.411916
 30
0.0
 10
110.901608
 20
228.989994
 30
0.0
 10
110.637025
 20
228.339825
 30
0.0
  0
LWPOLYLINE
  5
180
100
AcDbEntity
  8
Qlocktwo_blank_laser_v3
 62
5
100
AcDbPolyline
 90
2
 70
0
 10
111.331643
 20
230.500587
 30
0.0
 10
111.105513
 20
229.607354
 30
0.0
  0
SPLINE
  5
181
100
AcDbEntity
  8
Qlocktwo_blank_laser_v3
 62
5
100
AcDbSpline
 70
8
 71
3
 72
8
 73
4
 74
0
 40
0
 40
0
 40
0
 40
0
 40
1
 40
1
 40
1
 40
1
 10
108.007774
 20
228.620636
 30
0.0
 10
108.197921
 20
229.138866
 30
0.0
 10
108.538351
 20
230.000349
 30
0.0
 10
109.027654
 20
231.206142
 30
0.0
  0
LWPOLYLINE
  5
182
100
AcDbEntity
  8
Qlocktwo_blank_laser_v3
 62
5
100
AcDbPolyline
 90
8
 70
0
 10
110.637025
 20
228.339825
 30
0.0
 10
108.051871
 20
221.967605
 30
0.0
 10
104.959423
 20
221.967605
 30
0.0
 10
102.528786
 20
242.676703
 30
0.0
 10
106.287983
 20
242.676703
 30
0.0
 10
107.329735
 20
231.514822
 30
0.0
 10
107.528349
 20
227.292428
 30
0.0
 10
108.007774
 20
228.620636
 30
0.0
  0
SPLINE
  5
183
100
AcDbEntity
  8
Qlocktwo_blank_laser_v3
 62
5
100
AcDbSpline
 70
8
 71
3
 72
8
 73
4
 74
0
 40
0
 40
0
 40
0
 40
0
 40
1
 40
1
 40
1
 40
1
 10
111.612807
 20
236.106222
 30
0.0
 10
113.692078
 20
231.068206
 30
0.0
 10
114.859419
 20
228.130275
 30
0.0
 10
115.113066
 20
227.292428
 30
0.0
  0
LWPOLYLINE
  5
184
100
AcDbEntity
  8
Qlocktwo_blank_laser_v3
 62
5
100
AcDbPolyline
 90
3
 70
0
 10
109.027654
 20
231.206142
 30
0.0
 10
111.033899
 20
236.106222
 30
0.0
 10
111.612807
 20
236.106222
 30
0.0
  0
LWPOLYLINE
  5
185
100
AcDbEntity
  8
Qlocktwo_blank_laser_v3
 62
5
100
AcDbPolyline
 90
4
 70
0
 10
115.113066
 20
227.292428
 30
0.0
 10
115.311327
 20
231.514822
 30
0.0
 10
116.358723
 20
242.676703
 30
0.0
 10
119.831465
 20
242.676703
 30
0.0
  0
LWPOLYLINE
  5
186
100
AcDbEntity
  8
Qlocktwo_blank_laser_v3
 62
5
100
AcDbPolyline
 90
12
 70
1
 10
153.066987
 20
221.967605
 30
0.0
 10
139.308664
 20
221.967605
 30
0.0
 10
139.308664
 20
242.676703
 30
0.0
 10
152.702920
 20
242.676703
 30
0.0
 10
152.702920
 20
239.496414
 30
0.0
 10
143.067861
 20
239.496414
 30
0.0
 10
143.067861
 20
234.413948
 30
0.0
 10
151.909171
 20
234.413948
 30
0.0
 10
151.909171
 20
231.217078
 30
0.0
 10
143.067861
 20
231.217078
 30
0.0
 10
143.067861
 20
225.148247
 30
0.0
 10
153.066987
 20
225.148247
 30
0.0
  0
LWPOLYLINE
  5
187
100
AcDbEntity
  8
Qlocktwo_blank_laser_v3
 62
5
100
AcDbPolyline
 90
12
 70
1
 10
187.757716
 20
221.967605
 30
0.0
 10
173.999393
 20
221.967605
 30
0.0
 10
173.999393
 20
242.676703
 30
0.0
 10
187.393650
 20
242.676703
 30
0.0
 10
187.393650
 20
239.496414
 30
0.0
 10
177.758590
 20
239.496414
 30
0.0
 10
177.758590
 20
234.413948
 30
0.0
 10
186.599900
 20
234.413948
 30
0.0
 10
186.599900
 20
231.217078
 30
0.0
 10
177.758590
 20
231.217078
 30
0.0
 10
177.758590
 20
225.148247
 30
0.0
 10
187.757716
 20
225.148247
 30
0.0
  0
SPLINE
  5
188
100
AcDbEntity
  8
Qlocktwo_blank_laser_v3
 62
5
100
AcDbSpline
 70
8
 71
3
 72
8
 73
4
 74
0
 40
0
 40
0
 40
0
 40
0
 40
1
 40
1
 40
1
 40
1
 10
252.944297
 20
237.451362
 30
0.0
 10
252.803539
 20
239.049797
 30
0.0
 10
251.764609
 20
239.849191
 30
0.0
 10
249.824333
 20
239.849191
 30
0.0
  0
SPLINE
  5
189
100
AcDbEntity
  8
Qlocktwo_blank_laser_v3
 62
5
100
AcDbSpline
 70
8
 71
3
 72
8
 73
4
 74
0
 40
0
 40
0
 40
0
 40
0
 40
1
 40
1
 40
1
 40
1
 10
249.824333
 20
239.849191
 30
0.0
 10
247.835726
 20
239.849191
 30
0.0
 10
246.842305
 20
239.077314
 30
0.0
 10
246.842305
 20
237.533912
 30
0.0
  0
SPLINE
  5
18a
100
AcDbEntity
  8
Qlocktwo_blank_laser_v3
 62
5
100
AcDbSpline
 70
8
 71
3
 72
8
 73
4
 74
0
 40
0
 40
0
 40
0
 40
0
 40
1
 40
1
 40
1
 40
1
 10
246.842305
 20
237.533912
 30
0.0
 10
246.842305
 20
236.714057
 30
0.0
 10
247.161921
 20
236.106222
 30
0.0
 10
247.801507
 20
235.709347
 30
0.0
  0
SPLINE
  5
18b
100
AcDbEntity
  8
Qlocktwo_blank_laser_v3
 62
5
100
AcDbSpline
 70
8
 71
3
 72
8
 73
4
 74
0
 40
0
 40
0
 40
0
 40
0
 40
1
 40
1
 40
1
 40
1
 10
247.801507
 20
235.709347
 30
0.0
 10
248.443562
 20
235.315295
 30
0.0
 10
249.494839
 20
234.948759
 30
0.0
 10
250.954279
 20
234.606917
 30
0.0
  0
SPLINE
  5
18c
100
AcDbEntity
  8
Qlocktwo_blank_laser_v3
 62
5
100
AcDbSpline
 70
8
 71
3
 72
8
 73
4
 74
0
 40
0
 40
0
 40
0
 40
0
 40
1
 40
1
 40
1
 40
1
 10
250.954279
 20
234.606917
 30
0.0
 10
253.437480
 20
234.014604
 30
0.0
 10
255.115996
 20
233.184871
 30
0.0
 10
255.987003
 20
232.115603
 30
0.0
  0
SPLINE
  5
18d
100
AcDbEntity
  8
Qlocktwo_blank_laser_v3
 62
5
100
AcDbSpline
 70
8
 71
3
 72
8
 73
4
 74
0
 40
0
 40
0
 40
0
 40
0
 40
1
 40
1
 40
1
 40
1
 10
255.987003
 20
232.115603
 30
0.0
 10
256.858011
 20
231.045981
 30
0.0
 10
257.293339
 20
229.669443
 30
0.0
 10
257.293339
 20
227.987047
 30
0.0
  0
SPLINE
  5
18e
100
AcDbEntity
  8
Qlocktwo_blank_laser_v3
 62
5
100
AcDbSpline
 70
8
 71
3
 72
8
 73
4
 74
0
 40
0
 40
0
 40
0
 40
0
 40
1
 40
1
 40
1
 40
1
 10
257.293339
 20
227.987047
 30
0.0
 10
257.293339
 20
225.932118
 30
0.0
 10
256.561678
 20
224.355908
 30
0.0
 10
255.099415
 20
223.257359
 30
0.0
  0
SPLINE
  5
18f
100
AcDbEntity
  8
Qlocktwo_blank_laser_v3
 62
5
100
AcDbSpline
 70
8
 71
3
 72
8
 73
4
 74
0
 40
0
 40
0
 40
0
 40
0
 40
1
 40
1
 40
1
 40
1
 10
255.099415
 20
223.257359
 30
0.0
 10
253.636094
 20
222.161985
 30
0.0
 10
251.976981
 20
221.614827
 30
0.0
 10
250.122077
 20
221.614827
 30
0.0
  0
SPLINE
  5
190
100
AcDbEntity
  8
Qlocktwo_blank_laser_v3
 62
5
100
AcDbSpline
 70
8
 71
3
 72
8
 73
4
 74
0
 40
0
 40
0
 40
0
 40
0
 40
1
 40
1
 40
1
 40
1
 10
250.122077
 20
221.614827
 30
0.0
 10
245.591003
 20
221.614827
 30
0.0
 10
243.005849
 20
223.784056
 30
0.0
 10
242.366264
 20
228.124631
 30
0.0
  0
LWPOLYLINE
  5
191
100
AcDbEntity
  8
Qlocktwo_blank_laser_v3
 62
5
100
AcDbPolyline
 90
12
 70
1
 10
222.448093
 20
221.967605
 30
0.0
 10
208.689770
 20
221.967605
 30
0.0
 10
208.689770
 20
242.676703
 30
0.0
 10
222.084379
 20
242.676703
 30
0.0
 10
222.084379
 20
239.496414
 30
0.0
 10
212.449320
 20
239.496414
 30
0.0
 10
212.449320
 20
234.413948
 30
0.0
 10
221.290630
 20
234.413948
 30
0.0
 10
221.290630
 20
231.217078
 30
0.0
 10
212.449320
 20
231.217078
 30
0.0
 10
212.449320
 20
225.148247
 30
0.0
 10
222.448093
 20
225.148247
 30
0.0
  0
SPLINE
  5
192
100
AcDbEntity
  8
Qlocktwo_blank_laser_v3
 62
5
100
AcDbSpline
 70
8
 71
3
 72
8
 73
4
 74
0
 40
0
 40
0
 40
0
 40
0
 40
1
 40
1
 40
1
 40
1
 10
246.125814
 20
228.504925
 30
0.0
 10
246.445430
 20
226.038304
 30
0.0
 10
247.786337
 20
224.806405
 30
0.0
 10
250.149594
 20
224.806405
 30
0.0
  0
SPLINE
  5
193
100
AcDbEntity
  8
Qlocktwo_blank_laser_v3
 62
5
100
AcDbSpline
 70
8
 71
3
 72
8
 73
4
 74
0
 40
0
 40
0
 40
0
 40
0
 40
1
 40
1
 40
1
 40
1
 10
250.149594
 20
224.806405
 30
0.0
 10
251.203693
 20
224.806405
 30
0.0
 10
252.029192
 20
225.092861
 30
0.0
 10
252.624681
 20
225.666124
 30
0.0
  0
SPLINE
  5
194
100
AcDbEntity
  8
Qlocktwo_blank_laser_v3
 62
5
100
AcDbSpline
 70
8
 71
3
 72
8
 73
4
 74
0
 40
0
 40
0
 40
0
 40
0
 40
1
 40
1
 40
1
 40
1
 10
252.624681
 20
225.666124
 30
0.0
 10
253.222639
 20
226.242210
 30
0.0
 10
253.522852
 20
227.016909
 30
0.0
 10
253.522852
 20
227.987047
 30
0.0
  0
SPLINE
  5
195
100
AcDbEntity
  8
Qlocktwo_blank_laser_v3
 62
5
100
AcDbSpline
 70
8
 71
3
 72
8
 73
4
 74
0
 40
0
 40
0
 40
0
 40
0
 40
1
 40
1
 40
1
 40
1
 10
253.522852
 20
227.987047
 30
0.0
 10
253.522852
 20
228.860525
 30
0.0
 10
253.239219
 20
229.515280
 30
0.0
 10
252.674070
 20
229.949196
 30
0.0
  0
SPLINE
  5
196
100
AcDbEntity
  8
Qlocktwo_blank_laser_v3
 62
5
100
AcDbSpline
 70
8
 71
3
 72
8
 73
4
 74
0
 40
0
 40
0
 40
0
 40
0
 40
1
 40
1
 40
1
 40
1
 10
252.674070
 20
229.949196
 30
0.0
 10
252.111742
 20
230.382054
 30
0.0
 10
250.874552
 20
230.838195
 30
0.0
 10
248.964614
 20
231.316209
 30
0.0
  0
SPLINE
  5
197
100
AcDbEntity
  8
Qlocktwo_blank_laser_v3
 62
5
100
AcDbSpline
 70
8
 71
3
 72
8
 73
4
 74
0
 40
0
 40
0
 40
0
 40
0
 40
1
 40
1
 40
1
 40
1
 10
248.964614
 20
231.316209
 30
0.0
 10
246.795385
 20
231.834439
 30
0.0
 10
245.283734
 20
232.589383
 30
0.0
 10
244.427895
 20
233.581746
 30
0.0
  0
SPLINE
  5
198
100
AcDbEntity
  8
Qlocktwo_blank_laser_v3
 62
5
100
AcDbSpline
 70
8
 71
3
 72
8
 73
4
 74
0
 40
0
 40
0
 40
0
 40
0
 40
1
 40
1
 40
1
 40
1
 10
244.427895
 20
233.581746
 30
0.0
 10
243.570999
 20
234.576579
 30
0.0
 10
243.143785
 20
235.794719
 30
0.0
 10
243.143785
 20
237.236168
 30
0.0
  0
SPLINE
  5
199
100
AcDbEntity
  8
Qlocktwo_blank_laser_v3
 62
5
100
AcDbSpline
 70
8
 71
3
 72
8
 73
4
 74
0
 40
0
 40
0
 40
0
 40
0
 40
1
 40
1
 40
1
 40
1
 10
243.143785
 20
237.236168
 30
0.0
 10
243.143785
 20
238.283565
 30
0.0
 10
243.402724
 20
239.259347
 30
0.0
 10
243.920954
 20
240.163163
 30
0.0
  0
SPLINE
  5
19a
100
AcDbEntity
  8
Qlocktwo_blank_laser_v3
 62
5
100
AcDbSpline
 70
8
 71
3
 72
8
 73
4
 74
0
 40
0
 40
0
 40
0
 40
0
 40
1
 40
1
 40
1
 40
1
 10
243.920954
 20
240.163163
 30
0.0
 10
244.438832
 20
241.067332
 30
0.0
 10
245.201184
 20
241.770065
 30
0.0
 10
246.208364
 20
242.274537
 30
0.0
  0
SPLINE
  5
19b
100
AcDbEntity
  8
Qlocktwo_blank_laser_v3
 62
5
100
AcDbSpline
 70
8
 71
3
 72
8
 73
4
 74
0
 40
0
 40
0
 40
0
 40
0
 40
1
 40
1
 40
1
 40
1
 10
246.208364
 20
242.274537
 30
0.0
 10
247.214485
 20
242.777245
 30
0.0
 10
248.437917
 20
243.029480
 30
0.0
 10
249.879366
 20
243.029480
 30
0.0
  0
SPLINE
  5
19c
100
AcDbEntity
  8
Qlocktwo_blank_laser_v3
 62
5
100
AcDbSpline
 70
8
 71
3
 72
8
 73
4
 74
0
 40
0
 40
0
 40
0
 40
0
 40
1
 40
1
 40
1
 40
1
 10
249.879366
 20
243.029480
 30
0.0
 10
254.241107
 20
243.029480
 30
0.0
 10
256.529928
 20
241.224318
 30
0.0
 10
256.747592
 20
237.616462
 30
0.0
  0
LWPOLYLINE
  5
19d
100
AcDbEntity
  8
Qlocktwo_blank_laser_v3
 62
5
100
AcDbPolyline
 90
2
 70
0
 10
242.366264
 20
228.124631
 30
0.0
 10
246.125814
 20
228.504925
 30
0.0
  0
SPLINE
  5
19e
100
AcDbEntity
  8
Qlocktwo_blank_laser_v3
 62
5
100
AcDbSpline
 70
8
 71
3
 72
8
 73
4
 74
0
 40
0
 40
0
 40
0
 40
0
 40
1
 40
1
 40
1
 40
1
 10
287.635027
 20
237.451362
 30
0.0
 10
287.494268
 20
239.049797
 30
0.0
 10
286.455339
 20
239.849191
 30
0.0
 10
284.515062
 20
239.849191
 30
0.0
  0
SPLINE
  5
19f
100
AcDbEntity
  8
Qlocktwo_blank_laser_v3
 62
5
100
AcDbSpline
 70
8
 71
3
 72
8
 73
4
 74
0
 40
0
 40
0
 40
0
 40
0
 40
1
 40
1
 40
1
 40
1
 10
284.515062
 20
239.849191
 30
0.0
 10
282.526456
 20
239.849191
 30
0.0
 10
281.533034
 20
239.077314
 30
0.0
 10
281.533034
 20
237.533912
 30
0.0
  0
SPLINE
  5
1a0
100
AcDbEntity
  8
Qlocktwo_blank_laser_v3
 62
5
100
AcDbSpline
 70
8
 71
3
 72
8
 73
4
 74
0
 40
0
 40
0
 40
0
 40
0
 40
1
 40
1
 40
1
 40
1
 10
281.533034
 20
237.533912
 30
0.0
 10
281.533034
 20
236.714057
 30
0.0
 10
281.852650
 20
236.106222
 30
0.0
 10
282.492236
 20
235.709347
 30
0.0
  0
SPLINE
  5
1a1
100
AcDbEntity
  8
Qlocktwo_blank_laser_v3
 62
5
100
AcDbSpline
 70
8
 71
3
 72
8
 73
4
 74
0
 40
0
 40
0
 40
0
 40
0
 40
1
 40
1
 40
1
 40
1
 10
282.492236
 20
235.709347
 30
0.0
 10
283.134291
 20
235.315295
 30
0.0
 10
284.185568
 20
234.948759
 30
0.0
 10
285.645009
 20
234.606917
 30
0.0
  0
SPLINE
  5
1a2
100
AcDbEntity
  8
Qlocktwo_blank_laser_v3
 62
5
100
AcDbSpline
 70
8
 71
3
 72
8
 73
4
 74
0
 40
0
 40
0
 40
0
 40
0
 40
1
 40
1
 40
1
 40
1
 10
285.645009
 20
234.606917
 30
0.0
 10
288.128210
 20
234.014604
 30
0.0
 10
289.806725
 20
233.184871
 30
0.0
 10
290.677733
 20
232.115603
 30
0.0
  0
SPLINE
  5
1a3
100
AcDbEntity
  8
Qlocktwo_blank_laser_v3
 62
5
100
AcDbSpline
 70
8
 71
3
 72
8
 73
4
 74
0
 40
0
 40
0
 40
0
 40
0
 40
1
 40
1
 40
1
 40
1
 10
290.677733
 20
232.115603
 30
0.0
 10
291.548740
 20
231.045981
 30
0.0
 10
291.984068
 20
229.669443
 30
0.0
 10
291.984068
 20
227.987047
 30
0.0
  0
SPLINE
  5
1a4
100
AcDbEntity
  8
Qlocktwo_blank_laser_v3
 62
5
100
AcDbSpline
 70
8
 71
3
 72
8
 73
4
 74
0
 40
0
 40
0
 40
0
 40
0
 40
1
 40
1
 40
1
 40
1
 10
291.984068
 20
227.987047
 30
0.0
 10
291.984068
 20
225.932118
 30
0.0
 10
291.252407
 20
224.355908
 30
0.0
 10
289.790144
 20
223.257359
 30
0.0
  0
SPLINE
  5
1a5
100
AcDbEntity
  8
Qlocktwo_blank_laser_v3
 62
5
100
AcDbSpline
 70
8
 71
3
 72
8
 73
4
 74
0
 40
0
 40
0
 40
0
 40
0
 40
1
 40
1
 40
1
 40
1
 10
289.790144
 20
223.257359
 30
0.0
 10
288.326823
 20
222.161985
 30
0.0
 10
286.667711
 20
221.614827
 30
0.0
 10
284.812807
 20
221.614827
 30
0.0
  0
SPLINE
  5
1a6
100
AcDbEntity
  8
Qlocktwo_blank_laser_v3
 62
5
100
AcDbSpline
 70
8
 71
3
 72
8
 73
4
 74
0
 40
0
 40
0
 40
0
 40
0
 40
1
 40
1
 40
1
 40
1
 10
284.812807
 20
221.614827
 30
0.0
 10
280.281732
 20
221.614827
 30
0.0
 10
277.696579
 20
223.784056
 30
0.0
 10
277.056993
 20
228.124631
 30
0.0
  0
LWPOLYLINE
  5
1a7
100
AcDbEntity
  8
Qlocktwo_blank_laser_v3
 62
5
100
AcDbPolyline
 90
2
 70
0
 10
256.747592
 20
237.616462
 30
0.0
 10
252.944297
 20
237.451362
 30
0.0
  0
SPLINE
  5
1a8
100
AcDbEntity
  8
Qlocktwo_blank_laser_v3
 62
5
100
AcDbSpline
 70
8
 71
3
 72
8
 73
4
 74
0
 40
0
 40
0
 40
0
 40
0
 40
1
 40
1
 40
1
 40
1
 10
280.816543
 20
228.504925
 30
0.0
 10
281.136159
 20
226.038304
 30
0.0
 10
282.477067
 20
224.806405
 30
0.0
 10
284.840323
 20
224.806405
 30
0.0
  0
SPLINE
  5
1a9
100
AcDbEntity
  8
Qlocktwo_blank_laser_v3
 62
5
100
AcDbSpline
 70
8
 71
3
 72
8
 73
4
 74
0
 40
0
 40
0
 40
0
 40
0
 40
1
 40
1
 40
1
 40
1
 10
284.840323
 20
224.806405
 30
0.0
 10
285.894422
 20
224.806405
 30
0.0
 10
286.719922
 20
225.092861
 30
0.0
 10
287.315410
 20
225.666124
 30
0.0
  0
SPLINE
  5
1aa
100
AcDbEntity
  8
Qlocktwo_blank_laser_v3
 62
5
100
AcDbSpline
 70
8
 71
3
 72
8
 73
4
 74
0
 40
0
 40
0
 40
0
 40
0
 40
1
 40
1
 40
1
 40
1
 10
287.315410
 20
225.666124
 30
0.0
 10
287.913368
 20
226.242210
 30
0.0
 10
288.213582
 20
227.016909
 30
0.0
 10
288.213582
 20
227.987047
 30
0.0
  0
SPLINE
  5
1ab
100
AcDbEntity
  8
Qlocktwo_blank_laser_v3
 62
5
100
AcDbSpline
 70
8
 71
3
 72
8
 73
4
 74
0
 40
0
 40
0
 40
0
 40
0
 40
1
 40
1
 40
1
 40
1
 10
288.213582
 20
227.987047
 30
0.0
 10
288.213582
 20
228.860525
 30
0.0
 10
287.929949
 20
229.515280
 30
0.0
 10
287.364799
 20
229.949196
 30
0.0
  0
SPLINE
  5
1ac
100
AcDbEntity
  8
Qlocktwo_blank_laser_v3
 62
5
100
AcDbSpline
 70
8
 71
3
 72
8
 73
4
 74
0
 40
0
 40
0
 40
0
 40
0
 40
1
 40
1
 40
1
 40
1
 10
287.364799
 20
229.949196
 30
0.0
 10
286.802472
 20
230.382054
 30
0.0
 10
285.565281
 20
230.838195
 30
0.0
 10
283.654991
 20
231.316209
 30
0.0
  0
SPLINE
  5
1ad
100
AcDbEntity
  8
Qlocktwo_blank_laser_v3
 62
5
100
AcDbSpline
 70
8
 71
3
 72
8
 73
4
 74
0
 40
0
 40
0
 40
0
 40
0
 40
1
 40
1
 40
1
 40
1
 10
283.654991
 20
231.316209
 30
0.0
 10
281.486115
 20
231.834439
 30
0.0
 10
279.974463
 20
232.589383
 30
0.0
 10
279.118625
 20
233.581746
 30
0.0
  0
SPLINE
  5
1ae
100
AcDbEntity
  8
Qlocktwo_blank_laser_v3
 62
5
100
AcDbSpline
 70
8
 71
3
 72
8
 73
4
 74
0
 40
0
 40
0
 40
0
 40
0
 40
1
 40
1
 40
1
 40
1
 10
279.118625
 20
233.581746
 30
0.0
 10
278.261375
 20
234.576579
 30
0.0
 10
277.834162
 20
235.794719
 30
0.0
 10
277.834162
 20
237.236168
 30
0.0
  0
SPLINE
  5
1af
100
AcDbEntity
  8
Qlocktwo_blank_laser_v3
 62
5
100
AcDbSpline
 70
8
 71
3
 72
8
 73
4
 74
0
 40
0
 40
0
 40
0
 40
0
 40
1
 40
1
 40
1
 40
1
 10
277.834162
 20
237.236168
 30
0.0
 10
277.834162
 20
238.283565
 30
0.0
 10
278.093453
 20
239.259347
 30
0.0
 10
278.611683
 20
240.163163
 30
0.0
  0
SPLINE
  5
1b0
100
AcDbEntity
  8
Qlocktwo_blank_laser_v3
 62
5
100
AcDbSpline
 70
8
 71
3
 72
8
 73
4
 74
0
 40
0
 40
0
 40
0
 40
0
 40
1
 40
1
 40
1
 40
1
 10
278.611683
 20
240.163163
 30
0.0
 10
279.129561
 20
241.067332
 30
0.0
 10
279.891913
 20
241.770065
 30
0.0
 10
280.899093
 20
242.274537
 30
0.0
  0
SPLINE
  5
1b1
100
AcDbEntity
  8
Qlocktwo_blank_laser_v3
 62
5
100
AcDbSpline
 70
8
 71
3
 72
8
 73
4
 74
0
 40
0
 40
0
 40
0
 40
0
 40
1
 40
1
 40
1
 40
1
 10
280.899093
 20
242.274537
 30
0.0
 10
281.905214
 20
242.777245
 30
0.0
 10
283.128647
 20
243.029480
 30
0.0
 10
284.570096
 20
243.029480
 30
0.0
  0
SPLINE
  5
1b2
100
AcDbEntity
  8
Qlocktwo_blank_laser_v3
 62
5
100
AcDbSpline
 70
8
 71
3
 72
8
 73
4
 74
0
 40
0
 40
0
 40
0
 40
0
 40
1
 40
1
 40
1
 40
1
 10
284.570096
 20
243.029480
 30
0.0
 10
288.931837
 20
243.029480
 30
0.0
 10
291.220657
 20
241.224318
 30
0.0
 10
291.438321
 20
237.616462
 30
0.0
  0
LWPOLYLINE
  5
1b3
100
AcDbEntity
  8
Qlocktwo_blank_laser_v3
 62
5
100
AcDbPolyline
 90
2
 70
0
 10
277.056993
 20
228.124631
 30
0.0
 10
280.816543
 20
228.504925
 30
0.0
  0
LWPOLYLINE
  5
1b4
100
AcDbEntity
  8
Qlocktwo_blank_laser_v3
 62
5
100
AcDbPolyline
 90
2
 70
0
 10
291.438321
 20
237.616462
 30
0.0
 10
287.635027
 20
237.451362
 30
0.0
  0
LWPOLYLINE
  5
1b5
100
AcDbEntity
  8
Qlocktwo_blank_laser_v3
 62
5
100
AcDbPolyline
 90
12
 70
1
 10
393.768493
 20
221.967605
 30
0.0
 10
383.642721
 20
221.967605
 30
0.0
 10
383.642721
 20
225.148247
 30
0.0
 10
386.823363
 20
225.148247
 30
0.0
 10
386.823363
 20
239.496414
 30
0.0
 10
383.642721
 20
239.496414
 30
0.0
 10
383.642721
 20
242.676703
 30
0.0
 10
393.768493
 20
242.676703
 30
0.0
 10
393.768493
 20
239.496414
 30
0.0
 10
390.593496
 20
239.496414
 30
0.0
 10
390.593496
 20
225.148247
 30
0.0
 10
393.768493
 20
225.148247
 30
0.0
  0
LWPOLYLINE
  5
1b6
100
AcDbEntity
  8
Qlocktwo_blank_laser_v3
 62
5
100
AcDbPolyline
 90
12
 70
1
 10
430.592468
 20
221.967605
 30
0.0
 10
416.834145
 20
221.967605
 30
0.0
 10
416.834145
 20
242.676703
 30
0.0
 10
430.228755
 20
242.676703
 30
0.0
 10
430.228755
 20
239.496414
 30
0.0
 10
420.593343
 20
239.496414
 30
0.0
 10
420.593343
 20
234.413948
 30
0.0
 10
429.435005
 20
234.413948
 30
0.0
 10
429.435005
 20
231.217078
 30
0.0
 10
420.593343
 20
231.217078
 30
0.0
 10
420.593343
 20
225.148247
 30
0.0
 10
430.592468
 20
225.148247
 30
0.0
  0
LWPOLYLINE
  5
1b7
100
AcDbEntity
  8
Qlocktwo_blank_laser_v3
 62
5
100
AcDbPolyline
 90
9
 70
1
 10
85.140736
 20
206.517008
 30
0.0
 10
78.377285
 20
185.807910
 30
0.0
 10
74.463571
 20
185.807910
 30
0.0
 10
67.838057
 20
206.517008
 30
0.0
 10
71.707673
 20
206.517008
 30
0.0
 10
75.538484
 20
194.059729
 30
0.0
 10
76.514267
 20
190.697053
 30
0.0
 10
77.445600
 20
194.087245
 30
0.0
 10
81.315216
 20
206.517008
 30
0.0
  0
LWPOLYLINE
  5
1b8
100
AcDbEntity
  8
Qlocktwo_blank_laser_v3
 62
5
100
AcDbPolyline
 90
12
 70
1
 10
116.243012
 20
185.807910
 30
0.0
 10
106.117239
 20
185.807910
 30
0.0
 10
106.117239
 20
188.988552
 30
0.0
 10
109.297528
 20
188.988552
 30
0.0
 10
109.297528
 20
203.336719
 30
0.0
 10
106.117239
 20
203.336719
 30
0.0
 10
106.117239
 20
206.517008
 30
0.0
 10
116.243012
 20
206.517008
 30
0.0
 10
116.243012
 20
203.336719
 30
0.0
 10
113.068014
 20
203.336719
 30
0.0
 10
113.068014
 20
188.988552
 30
0.0
 10
116.243012
 20
188.988552
 30
0.0
  0
LWPOLYLINE
  5
1b9
100
AcDbEntity
  8
Qlocktwo_blank_laser_v3
 62
5
100
AcDbPolyline
 90
12
 70
1
 10
153.066987
 20
185.807910
 30
0.0
 10
139.308664
 20
185.807910
 30
0.0
 10
139.308664
 20
206.517008
 30
0.0
 10
152.702920
 20
206.517008
 30
0.0
 10
152.702920
 20
203.336719
 30
0.0
 10
143.067861
 20
203.336719
 30
0.0
 10
143.067861
 20
198.254253
 30
0.0
 10
151.909171
 20
198.254253
 30
0.0
 10
151.909171
 20
195.057383
 30
0.0
 10
143.067861
 20
195.057383
 30
0.0
 10
143.067861
 20
188.988552
 30
0.0
 10
153.066987
 20
188.988552
 30
0.0
  0
LWPOLYLINE
  5
1ba
100
AcDbEntity
  8
Qlocktwo_blank_laser_v3
 62
5
100
AcDbPolyline
 90
9
 70
1
 10
223.903653
 20
206.517008
 30
0.0
 10
217.140202
 20
185.807910
 30
0.0
 10
213.226489
 20
185.807910
 30
0.0
 10
206.600974
 20
206.517008
 30
0.0
 10
210.470238
 20
206.517008
 30
0.0
 10
214.301402
 20
194.059729
 30
0.0
 10
215.276831
 20
190.697053
 30
0.0
 10
216.208517
 20
194.087245
 30
0.0
 10
220.078133
 20
206.517008
 30
0.0
  0
SPLINE
  5
1bb
100
AcDbEntity
  8
Qlocktwo_blank_laser_v3
 62
5
100
AcDbSpline
 70
8
 71
3
 72
8
 73
4
 74
0
 40
0
 40
0
 40
0
 40
0
 40
1
 40
1
 40
1
 40
1
 10
290.672088
 20
193.447660
 30
0.0
 10
290.672088
 20
192.301133
 30
0.0
 10
290.603297
 20
191.286897
 30
0.0
 10
290.468183
 20
190.404954
 30
0.0
  0
SPLINE
  5
1bc
100
AcDbEntity
  8
Qlocktwo_blank_laser_v3
 62
5
100
AcDbSpline
 70
8
 71
3
 72
8
 73
4
 74
0
 40
0
 40
0
 40
0
 40
0
 40
1
 40
1
 40
1
 40
1
 10
290.468183
 20
190.404954
 30
0.0
 10
290.331658
 20
189.525832
 30
0.0
 10
289.978880
 20
188.679872
 30
0.0
 10
289.409850
 20
187.863897
 30
0.0
  0
SPLINE
  5
1bd
100
AcDbEntity
  8
Qlocktwo_blank_laser_v3
 62
5
100
AcDbSpline
 70
8
 71
3
 72
8
 73
4
 74
0
 40
0
 40
0
 40
0
 40
0
 40
1
 40
1
 40
1
 40
1
 10
289.409850
 20
187.863897
 30
0.0
 10
288.839409
 20
187.048276
 30
0.0
 10
288.078821
 20
186.441851
 30
0.0
 10
287.127733
 20
186.044976
 30
0.0
  0
SPLINE
  5
1be
100
AcDbEntity
  8
Qlocktwo_blank_laser_v3
 62
5
100
AcDbSpline
 70
8
 71
3
 72
8
 73
4
 74
0
 40
0
 40
0
 40
0
 40
0
 40
1
 40
1
 40
1
 40
1
 10
287.127733
 20
186.044976
 30
0.0
 10
286.175586
 20
185.652335
 30
0.0
 10
285.073156
 20
185.455132
 30
0.0
 10
283.820443
 20
185.455132
 30
0.0
  0
SPLINE
  5
1bf
100
AcDbEntity
  8
Qlocktwo_blank_laser_v3
 62
5
100
AcDbSpline
 70
8
 71
3
 72
8
 73
4
 74
0
 40
0
 40
0
 40
0
 40
0
 40
1
 40
1
 40
1
 40
1
 10
283.820443
 20
185.455132
 30
0.0
 10
281.710834
 20
185.455132
 30
0.0
 10
280.079238
 20
186.025574
 30
0.0
 10
278.925655
 20
187.169278
 30
0.0
  0
SPLINE
  5
1c0
100
AcDbEntity
  8
Qlocktwo_blank_laser_v3
 62
5
100
AcDbSpline
 70
8
 71
3
 72
8
 73
4
 74
0
 40
0
 40
0
 40
0
 40
0
 40
1
 40
1
 40
1
 40
1
 10
278.925655
 20
187.169278
 30
0.0
 10
277.775248
 20
188.315805
 30
0.0
 10
277.170235
 20
190.004198
 30
0.0
 10
277.112379
 20
192.235163
 30
0.0
  0
LWPOLYLINE
  5
1c1
100
AcDbEntity
  8
Qlocktwo_blank_laser_v3
 62
5
100
AcDbPolyline
 90
12
 70
1
 10
255.005929
 20
185.807910
 30
0.0
 10
244.879803
 20
185.807910
 30
0.0
 10
244.879803
 20
188.988552
 30
0.0
 10
248.060445
 20
188.988552
 30
0.0
 10
248.060445
 20
203.336719
 30
0.0
 10
244.879803
 20
203.336719
 30
0.0
 10
244.879803
 20
206.517008
 30
0.0
 10
255.005929
 20
206.517008
 30
0.0
 10
255.005929
 20
203.336719
 30
0.0
 10
251.830932
 20
203.336719
 30
0.0
 10
251.830932
 20
188.988552
 30
0.0
 10
255.005929
 20
188.988552
 30
0.0
  0
SPLINE
  5
1c2
100
AcDbEntity
  8
Qlocktwo_blank_laser_v3
 62
5
100
AcDbSpline
 70
8
 71
3
 72
8
 73
4
 74
0
 40
0
 40
0
 40
0
 40
0
 40
1
 40
1
 40
1
 40
1
 10
281.069837
 20
192.758685
 30
0.0
 10
281.191193
 20
190.093804
 30
0.0
 10
282.155686
 20
188.762422
 30
0.0
 10
283.964024
 20
188.762422
 30
0.0
  0
SPLINE
  5
1c3
100
AcDbEntity
  8
Qlocktwo_blank_laser_v3
 62
5
100
AcDbSpline
 70
8
 71
3
 72
8
 73
4
 74
0
 40
0
 40
0
 40
0
 40
0
 40
1
 40
1
 40
1
 40
1
 10
283.964024
 20
188.762422
 30
0.0
 10
284.980729
 20
188.762422
 30
0.0
 10
285.727911
 20
189.068280
 30
0.0
 10
286.201692
 20
189.682818
 30
0.0
  0
SPLINE
  5
1c4
100
AcDbEntity
  8
Qlocktwo_blank_laser_v3
 62
5
100
AcDbSpline
 70
8
 71
3
 72
8
 73
4
 74
0
 40
0
 40
0
 40
0
 40
0
 40
1
 40
1
 40
1
 40
1
 10
286.201692
 20
189.682818
 30
0.0
 10
286.678647
 20
190.300179
 30
0.0
 10
286.918183
 20
191.457994
 30
0.0
 10
286.918183
 20
193.155560
 30
0.0
  0
LWPOLYLINE
  5
1c5
100
AcDbEntity
  8
Qlocktwo_blank_laser_v3
 62
5
100
AcDbPolyline
 90
2
 70
0
 10
277.112379
 20
192.235163
 30
0.0
 10
281.069837
 20
192.758685
 30
0.0
  0
LWPOLYLINE
  5
1c6
100
AcDbEntity
  8
Qlocktwo_blank_laser_v3
 62
5
100
AcDbPolyline
 90
4
 70
0
 10
286.918183
 20
193.155560
 30
0.0
 10
286.918183
 20
206.517008
 30
0.0
 10
290.672088
 20
206.517008
 30
0.0
 10
290.672088
 20
193.447660
 30
0.0
  0
LWPOLYLINE
  5
1c7
100
AcDbEntity
  8
Qlocktwo_blank_laser_v3
 62
5
100
AcDbPolyline
 90
10
 70
1
 10
327.016638
 20
203.336719
 30
0.0
 10
316.521508
 20
203.336719
 30
0.0
 10
316.521508
 20
197.928992
 30
0.0
 10
325.715595
 20
197.928992
 30
0.0
 10
325.715595
 20
194.748703
 30
0.0
 10
316.521508
 20
194.748703
 30
0.0
 10
316.521508
 20
185.807910
 30
0.0
 10
312.761958
 20
185.807910
 30
0.0
 10
312.761958
 20
206.517008
 30
0.0
 10
327.016638
 20
206.517008
 30
0.0
  0
LWPOLYLINE
  5
1c8
100
AcDbEntity
  8
Qlocktwo_blank_laser_v3
 62
5
100
AcDbPolyline
 90
10
 70
1
 10
361.707015
 20
185.807910
 30
0.0
 10
346.637065
 20
185.807910
 30
0.0
 10
346.637065
 20
189.225618
 30
0.0
 10
356.564224
 20
203.336719
 30
0.0
 10
346.989843
 20
203.336719
 30
0.0
 10
346.989843
 20
206.517008
 30
0.0
 10
361.271688
 20
206.517008
 30
0.0
 10
361.271688
 20
203.562496
 30
0.0
 10
351.030204
 20
188.988552
 30
0.0
 10
361.707015
 20
188.988552
 30
0.0
  0
SPLINE
  5
1c9
100
AcDbEntity
  8
Qlocktwo_blank_laser_v3
 62
5
100
AcDbSpline
 70
8
 71
3
 72
8
 73
4
 74
0
 40
0
 40
0
 40
0
 40
0
 40
1
 40
1
 40
1
 40
1
 10
426.397944
 20
201.291668
 30
0.0
 10
426.257186
 20
202.890103
 30
0.0
 10
425.218256
 20
203.689496
 30
0.0
 10
423.277979
 20
203.689496
 30
0.0
  0
SPLINE
  5
1ca
100
AcDbEntity
  8
Qlocktwo_blank_laser_v3
 62
5
100
AcDbSpline
 70
8
 71
3
 72
8
 73
4
 74
0
 40
0
 40
0
 40
0
 40
0
 40
1
 40
1
 40
1
 40
1
 10
423.277979
 20
203.689496
 30
0.0
 10
421.289373
 20
203.689496
 30
0.0
 10
420.295951
 20
202.917619
 30
0.0
 10
420.295951
 20
201.374218
 30
0.0
  0
SPLINE
  5
1cb
100
AcDbEntity
  8
Qlocktwo_blank_laser_v3
 62
5
100
AcDbSpline
 70
8
 71
3
 72
8
 73
4
 74
0
 40
0
 40
0
 40
0
 40
0
 40
1
 40
1
 40
1
 40
1
 10
420.295951
 20
201.374218
 30
0.0
 10
420.295951
 20
200.554363
 30
0.0
 10
420.615568
 20
199.946527
 30
0.0
 10
421.254800
 20
199.549652
 30
0.0
  0
SPLINE
  5
1cc
100
AcDbEntity
  8
Qlocktwo_blank_laser_v3
 62
5
100
AcDbSpline
 70
8
 71
3
 72
8
 73
4
 74
0
 40
0
 40
0
 40
0
 40
0
 40
1
 40
1
 40
1
 40
1
 10
421.254800
 20
199.549652
 30
0.0
 10
421.897208
 20
199.155600
 30
0.0
 10
422.948485
 20
198.789064
 30
0.0
 10
424.407926
 20
198.447223
 30
0.0
  0
SPLINE
  5
1cd
100
AcDbEntity
  8
Qlocktwo_blank_laser_v3
 62
5
100
AcDbSpline
 70
8
 71
3
 72
8
 73
4
 74
0
 40
0
 40
0
 40
0
 40
0
 40
1
 40
1
 40
1
 40
1
 10
424.407926
 20
198.447223
 30
0.0
 10
426.891127
 20
197.854909
 30
0.0
 10
428.569642
 20
197.025176
 30
0.0
 10
429.440297
 20
195.955908
 30
0.0
  0
SPLINE
  5
1ce
100
AcDbEntity
  8
Qlocktwo_blank_laser_v3
 62
5
100
AcDbSpline
 70
8
 71
3
 72
8
 73
4
 74
0
 40
0
 40
0
 40
0
 40
0
 40
1
 40
1
 40
1
 40
1
 10
429.440297
 20
195.955908
 30
0.0
 10
430.311305
 20
194.886286
 30
0.0
 10
430.746985
 20
193.509748
 30
0.0
 10
430.746985
 20
191.827353
 30
0.0
  0
SPLINE
  5
1cf
100
AcDbEntity
  8
Qlocktwo_blank_laser_v3
 62
5
100
AcDbSpline
 70
8
 71
3
 72
8
 73
4
 74
0
 40
0
 40
0
 40
0
 40
0
 40
1
 40
1
 40
1
 40
1
 10
430.746985
 20
191.827353
 30
0.0
 10
430.746985
 20
189.772424
 30
0.0
 10
430.014972
 20
188.196214
 30
0.0
 10
428.553062
 20
187.097664
 30
0.0
  0
SPLINE
  5
1d0
100
AcDbEntity
  8
Qlocktwo_blank_laser_v3
 62
5
100
AcDbSpline
 70
8
 71
3
 72
8
 73
4
 74
0
 40
0
 40
0
 40
0
 40
0
 40
1
 40
1
 40
1
 40
1
 10
428.553062
 20
187.097664
 30
0.0
 10
427.089388
 20
186.002290
 30
0.0
 10
425.430275
 20
185.455132
 30
0.0
 10
423.575724
 20
185.455132
 30
0.0
  0
SPLINE
  5
1d1
100
AcDbEntity
  8
Qlocktwo_blank_laser_v3
 62
5
100
AcDbSpline
 70
8
 71
3
 72
8
 73
4
 74
0
 40
0
 40
0
 40
0
 40
0
 40
1
 40
1
 40
1
 40
1
 10
423.575724
 20
185.455132
 30
0.0
 10
419.044649
 20
185.455132
 30
0.0
 10
416.459496
 20
187.624361
 30
0.0
 10
415.819910
 20
191.964936
 30
0.0
  0
LWPOLYLINE
  5
1d2
100
AcDbEntity
  8
Qlocktwo_blank_laser_v3
 62
5
100
AcDbPolyline
 90
12
 70
1
 10
395.901739
 20
185.807910
 30
0.0
 10
382.143416
 20
185.807910
 30
0.0
 10
382.143416
 20
206.517008
 30
0.0
 10
395.538025
 20
206.517008
 30
0.0
 10
395.538025
 20
203.336719
 30
0.0
 10
385.902613
 20
203.336719
 30
0.0
 10
385.902613
 20
198.254253
 30
0.0
 10
394.744276
 20
198.254253
 30
0.0
 10
394.744276
 20
195.057383
 30
0.0
 10
385.902613
 20
195.057383
 30
0.0
 10
385.902613
 20
188.988552
 30
0.0
 10
395.901739
 20
188.988552
 30
0.0
  0
SPLINE
  5
1d3
100
AcDbEntity
  8
Qlocktwo_blank_laser_v3
 62
5
100
AcDbSpline
 70
8
 71
3
 72
8
 73
4
 74
0
 40
0
 40
0
 40
0
 40
0
 40
1
 40
1
 40
1
 40
1
 10
419.579107
 20
192.345230
 30
0.0
 10
419.899076
 20
189.878610
 30
0.0
 10
421.239631
 20
188.646711
 30
0.0
 10
423.603240
 20
188.646711
 30
0.0
  0
SPLINE
  5
1d4
100
AcDbEntity
  8
Qlocktwo_blank_laser_v3
 62
5
100
AcDbSpline
 70
8
 71
3
 72
8
 73
4
 74
0
 40
0
 40
0
 40
0
 40
0
 40
1
 40
1
 40
1
 40
1
 10
423.603240
 20
188.646711
 30
0.0
 10
424.657340
 20
188.646711
 30
0.0
 10
425.482839
 20
188.933166
 30
0.0
 10
426.077975
 20
189.506429
 30
0.0
  0
SPLINE
  5
1d5
100
AcDbEntity
  8
Qlocktwo_blank_laser_v3
 62
5
100
AcDbSpline
 70
8
 71
3
 72
8
 73
4
 74
0
 40
0
 40
0
 40
0
 40
0
 40
1
 40
1
 40
1
 40
1
 10
426.077975
 20
189.506429
 30
0.0
 10
426.676285
 20
190.082515
 30
0.0
 10
426.976499
 20
190.857214
 30
0.0
 10
426.976499
 20
191.827353
 30
0.0
  0
SPLINE
  5
1d6
100
AcDbEntity
  8
Qlocktwo_blank_laser_v3
 62
5
100
AcDbSpline
 70
8
 71
3
 72
8
 73
4
 74
0
 40
0
 40
0
 40
0
 40
0
 40
1
 40
1
 40
1
 40
1
 10
426.976499
 20
191.827353
 30
0.0
 10
426.976499
 20
192.700830
 30
0.0
 10
426.692513
 20
193.355585
 30
0.0
 10
426.127716
 20
193.789501
 30
0.0
  0
SPLINE
  5
1d7
100
AcDbEntity
  8
Qlocktwo_blank_laser_v3
 62
5
100
AcDbSpline
 70
8
 71
3
 72
8
 73
4
 74
0
 40
0
 40
0
 40
0
 40
0
 40
1
 40
1
 40
1
 40
1
 10
426.127716
 20
193.789501
 30
0.0
 10
425.565389
 20
194.222359
 30
0.0
 10
424.327845
 20
194.678500
 30
0.0
 10
422.417908
 20
195.156514
 30
0.0
  0
SPLINE
  5
1d8
100
AcDbEntity
  8
Qlocktwo_blank_laser_v3
 62
5
100
AcDbSpline
 70
8
 71
3
 72
8
 73
4
 74
0
 40
0
 40
0
 40
0
 40
0
 40
1
 40
1
 40
1
 40
1
 10
422.417908
 20
195.156514
 30
0.0
 10
420.249032
 20
195.674744
 30
0.0
 10
418.737380
 20
196.429688
 30
0.0
 10
417.881542
 20
197.422051
 30
0.0
  0
SPLINE
  5
1d9
100
AcDbEntity
  8
Qlocktwo_blank_laser_v3
 62
5
100
AcDbSpline
 70
8
 71
3
 72
8
 73
4
 74
0
 40
0
 40
0
 40
0
 40
0
 40
1
 40
1
 40
1
 40
1
 10
417.881542
 20
197.422051
 30
0.0
 10
417.024293
 20
198.416884
 30
0.0
 10
416.597079
 20
199.635024
 30
0.0
 10
416.597079
 20
201.076473
 30
0.0
  0
SPLINE
  5
1da
100
AcDbEntity
  8
Qlocktwo_blank_laser_v3
 62
5
100
AcDbSpline
 70
8
 71
3
 72
8
 73
4
 74
0
 40
0
 40
0
 40
0
 40
0
 40
1
 40
1
 40
1
 40
1
 10
416.597079
 20
201.076473
 30
0.0
 10
416.597079
 20
202.123870
 30
0.0
 10
416.856370
 20
203.099652
 30
0.0
 10
417.374248
 20
204.003468
 30
0.0
  0
SPLINE
  5
1db
100
AcDbEntity
  8
Qlocktwo_blank_laser_v3
 62
5
100
AcDbSpline
 70
8
 71
3
 72
8
 73
4
 74
0
 40
0
 40
0
 40
0
 40
0
 40
1
 40
1
 40
1
 40
1
 10
417.374248
 20
204.003468
 30
0.0
 10
417.892478
 20
204.907637
 30
0.0
 10
418.654477
 20
205.610370
 30
0.0
 10
419.662010
 20
206.114842
 30
0.0
  0
SPLINE
  5
1dc
100
AcDbEntity
  8
Qlocktwo_blank_laser_v3
 62
5
100
AcDbSpline
 70
8
 71
3
 72
8
 73
4
 74
0
 40
0
 40
0
 40
0
 40
0
 40
1
 40
1
 40
1
 40
1
 10
419.662010
 20
206.114842
 30
0.0
 10
420.667779
 20
206.617550
 30
0.0
 10
421.891564
 20
206.869786
 30
0.0
 10
423.333013
 20
206.869786
 30
0.0
  0
SPLINE
  5
1dd
100
AcDbEntity
  8
Qlocktwo_blank_laser_v3
 62
5
100
AcDbSpline
 70
8
 71
3
 72
8
 73
4
 74
0
 40
0
 40
0
 40
0
 40
0
 40
1
 40
1
 40
1
 40
1
 10
423.333013
 20
206.869786
 30
0.0
 10
427.694401
 20
206.869786
 30
0.0
 10
429.983574
 20
205.064623
 30
0.0
 10
430.201238
 20
201.456767
 30
0.0
  0
LWPOLYLINE
  5
1de
100
AcDbEntity
  8
Qlocktwo_blank_laser_v3
 62
5
100
AcDbPolyline
 90
2
 70
0
 10
415.819910
 20
191.964936
 30
0.0
 10
419.579107
 20
192.345230
 30
0.0
  0
LWPOLYLINE
  5
1df
100
AcDbEntity
  8
Qlocktwo_blank_laser_v3
 62
5
100
AcDbPolyline
 90
2
 70
0
 10
430.201238
 20
201.456767
 30
0.0
 10
426.397944
 20
201.291668
 30
0.0
  0
LWPOLYLINE
  5
1e0
100
AcDbEntity
  8
Qlocktwo_blank_laser_v3
 62
5
100
AcDbPolyline
 90
10
 70
1
 10
84.181533
 20
149.648215
 30
0.0
 10
69.111231
 20
149.648215
 30
0.0
 10
69.111231
 20
153.065924
 30
0.0
 10
79.038743
 20
167.177024
 30
0.0
 10
69.464009
 20
167.177024
 30
0.0
 10
69.464009
 20
170.357313
 30
0.0
 10
83.746206
 20
170.357313
 30
0.0
 10
83.746206
 20
167.402802
 30
0.0
 10
73.504369
 20
152.828857
 30
0.0
 10
84.181533
 20
152.828857
 30
0.0
  0
LWPOLYLINE
  5
1e1
100
AcDbEntity
  8
Qlocktwo_blank_laser_v3
 62
5
100
AcDbPolyline
 90
12
 70
1
 10
118.376258
 20
149.648215
 30
0.0
 10
104.617935
 20
149.648215
 30
0.0
 10
104.617935
 20
170.357313
 30
0.0
 10
118.012191
 20
170.357313
 30
0.0
 10
118.012191
 20
167.177024
 30
0.0
 10
108.377132
 20
167.177024
 30
0.0
 10
108.377132
 20
162.094558
 30
0.0
 10
117.218442
 20
162.094558
 30
0.0
 10
117.218442
 20
158.897689
 30
0.0
 10
108.377132
 20
158.897689
 30
0.0
 10
108.377132
 20
152.828857
 30
0.0
 10
118.376258
 20
152.828857
 30
0.0
  0
LWPOLYLINE
  5
1e2
100
AcDbEntity
  8
Qlocktwo_blank_laser_v3
 62
5
100
AcDbPolyline
 90
9
 70
1
 10
154.522194
 20
170.357313
 30
0.0
 10
147.758744
 20
149.648215
 30
0.0
 10
143.845030
 20
149.648215
 30
0.0
 10
137.219516
 20
170.357313
 30
0.0
 10
141.089132
 20
170.357313
 30
0.0
 10
144.919943
 20
157.900034
 30
0.0
 10
145.895373
 20
154.537359
 30
0.0
 10
146.827058
 20
157.927550
 30
0.0
 10
150.696675
 20
170.357313
 30
0.0
  0
LWPOLYLINE
  5
1e3
100
AcDbEntity
  8
Qlocktwo_blank_laser_v3
 62
5
100
AcDbPolyline
 90
12
 70
1
 10
187.757716
 20
149.648215
 30
0.0
 10
173.999393
 20
149.648215
 30
0.0
 10
173.999393
 20
170.357313
 30
0.0
 10
187.393650
 20
170.357313
 30
0.0
 10
187.393650
 20
167.177024
 30
0.0
 10
177.758590
 20
167.177024
 30
0.0
 10
177.758590
 20
162.094558
 30
0.0
 10
186.599900
 20
162.094558
 30
0.0
 10
186.599900
 20
158.897689
 30
0.0
 10
177.758590
 20
158.897689
 30
0.0
 10
177.758590
 20
152.828857
 30
0.0
 10
187.757716
 20
152.828857
 30
0.0
  0
LWPOLYLINE
  5
1e4
100
AcDbEntity
  8
Qlocktwo_blank_laser_v3
 62
5
100
AcDbPolyline
 90
14
 70
1
 10
222.167282
 20
149.648215
 30
0.0
 10
218.578829
 20
149.648215
 30
0.0
 10
212.449320
 20
161.967911
 30
0.0
 10
211.517634
 20
164.338223
 30
0.0
 10
211.727184
 20
161.455326
 30
0.0
 10
211.727184
 20
149.648215
 30
0.0
 10
208.336992
 20
149.648215
 30
0.0
 10
208.336992
 20
170.357313
 30
0.0
 10
211.925445
 20
170.357313
 30
0.0
 10
218.054954
 20
158.037617
 30
0.0
 10
218.986640
 20
155.667658
 30
0.0
 10
218.777090
 20
158.561492
 30
0.0
 10
218.777090
 20
170.357313
 30
0.0
 10
222.167282
 20
170.357313
 30
0.0
  0
LWPOLYLINE
  5
1e5
100
AcDbEntity
  8
Qlocktwo_blank_laser_v3
 62
5
100
AcDbPolyline
 90
12
 70
1
 10
257.138822
 20
149.648215
 30
0.0
 10
243.380499
 20
149.648215
 30
0.0
 10
243.380499
 20
170.357313
 30
0.0
 10
256.775108
 20
170.357313
 30
0.0
 10
256.775108
 20
167.177024
 30
0.0
 10
247.140049
 20
167.177024
 30
0.0
 10
247.140049
 20
162.094558
 30
0.0
 10
255.981359
 20
162.094558
 30
0.0
 10
255.981359
 20
158.897689
 30
0.0
 10
247.140049
 20
158.897689
 30
0.0
 10
247.140049
 20
152.828857
 30
0.0
 10
257.138822
 20
152.828857
 30
0.0
  0
LWPOLYLINE
  5
1e6
100
AcDbEntity
  8
Qlocktwo_blank_laser_v3
 62
5
100
AcDbPolyline
 90
14
 70
1
 10
291.548740
 20
149.648215
 30
0.0
 10
287.960288
 20
149.648215
 30
0.0
 10
281.830778
 20
161.967911
 30
0.0
 10
280.899093
 20
164.338223
 30
0.0
 10
281.108643
 20
161.455326
 30
0.0
 10
281.108643
 20
149.648215
 30
0.0
 10
277.718451
 20
149.648215
 30
0.0
 10
277.718451
 20
170.357313
 30
0.0
 10
281.306904
 20
170.357313
 30
0.0
 10
287.436413
 20
158.037617
 30
0.0
 10
288.368098
 20
155.667658
 30
0.0
 10
288.158548
 20
158.561492
 30
0.0
 10
288.158548
 20
170.357313
 30
0.0
 10
291.548740
 20
170.357313
 30
0.0
  0
LWPOLYLINE
  5
1e7
100
AcDbEntity
  8
Qlocktwo_blank_laser_v3
 62
5
100
AcDbPolyline
 90
12
 70
1
 10
326.520281
 20
149.648215
 30
0.0
 10
312.761958
 20
149.648215
 30
0.0
 10
312.761958
 20
170.357313
 30
0.0
 10
326.156567
 20
170.357313
 30
0.0
 10
326.156567
 20
167.177024
 30
0.0
 10
316.521508
 20
167.177024
 30
0.0
 10
316.521508
 20
162.094558
 30
0.0
 10
325.362818
 20
162.094558
 30
0.0
 10
325.362818
 20
158.897689
 30
0.0
 10
316.521508
 20
158.897689
 30
0.0
 10
316.521508
 20
152.828857
 30
0.0
 10
326.520281
 20
152.828857
 30
0.0
  0
SPLINE
  5
1e8
100
AcDbEntity
  8
Qlocktwo_blank_laser_v3
 62
5
100
AcDbSpline
 70
8
 71
3
 72
8
 73
4
 74
0
 40
0
 40
0
 40
0
 40
0
 40
1
 40
1
 40
1
 40
1
 10
357.810235
 20
164.255321
 30
0.0
 10
357.129374
 20
166.383275
 30
0.0
 10
355.915467
 20
167.446899
 30
0.0
 10
354.166748
 20
167.446899
 30
0.0
  0
SPLINE
  5
1e9
100
AcDbEntity
  8
Qlocktwo_blank_laser_v3
 62
5
100
AcDbSpline
 70
8
 71
3
 72
8
 73
4
 74
0
 40
0
 40
0
 40
0
 40
0
 40
1
 40
1
 40
1
 40
1
 10
354.166748
 20
167.446899
 30
0.0
 10
352.648041
 20
167.446899
 30
0.0
 10
351.597823
 20
166.838005
 30
0.0
 10
351.013623
 20
165.622333
 30
0.0
  0
SPLINE
  5
1ea
100
AcDbEntity
  8
Qlocktwo_blank_laser_v3
 62
5
100
AcDbSpline
 70
8
 71
3
 72
8
 73
4
 74
0
 40
0
 40
0
 40
0
 40
0
 40
1
 40
1
 40
1
 40
1
 10
351.013623
 20
165.622333
 30
0.0
 10
350.429424
 20
164.409837
 30
0.0
 10
350.137324
 20
162.516480
 30
0.0
 10
350.137324
 20
159.945085
 30
0.0
  0
SPLINE
  5
1eb
100
AcDbEntity
  8
Qlocktwo_blank_laser_v3
 62
5
100
AcDbSpline
 70
8
 71
3
 72
8
 73
4
 74
0
 40
0
 40
0
 40
0
 40
0
 40
1
 40
1
 40
1
 40
1
 10
350.137324
 20
159.945085
 30
0.0
 10
350.137324
 20
157.279851
 30
0.0
 10
350.437537
 20
155.388963
 30
0.0
 10
351.041140
 20
154.272775
 30
0.0
  0
SPLINE
  5
1ec
100
AcDbEntity
  8
Qlocktwo_blank_laser_v3
 62
5
100
AcDbSpline
 70
8
 71
3
 72
8
 73
4
 74
0
 40
0
 40
0
 40
0
 40
0
 40
1
 40
1
 40
1
 40
1
 10
351.041140
 20
154.272775
 30
0.0
 10
351.643331
 20
153.159410
 30
0.0
 10
352.694961
 20
152.602727
 30
0.0
 10
354.194265
 20
152.602727
 30
0.0
  0
SPLINE
  5
1ed
100
AcDbEntity
  8
Qlocktwo_blank_laser_v3
 62
5
100
AcDbSpline
 70
8
 71
3
 72
8
 73
4
 74
0
 40
0
 40
0
 40
0
 40
0
 40
1
 40
1
 40
1
 40
1
 10
354.194265
 20
152.602727
 30
0.0
 10
355.519650
 20
152.602727
 30
0.0
 10
356.532827
 20
152.967851
 30
0.0
 10
357.231327
 20
153.699512
 30
0.0
  0
LWPOLYLINE
  5
1ee
100
AcDbEntity
  8
Qlocktwo_blank_laser_v3
 62
5
100
AcDbPolyline
 90
2
 70
0
 10
361.481237
 20
165.214523
 30
0.0
 10
357.810235
 20
164.255321
 30
0.0
  0
SPLINE
  5
1ef
100
AcDbEntity
  8
Qlocktwo_blank_laser_v3
 62
5
100
AcDbSpline
 70
8
 71
3
 72
8
 73
4
 74
0
 40
0
 40
0
 40
0
 40
0
 40
1
 40
1
 40
1
 40
1
 10
361.453721
 20
152.657760
 30
0.0
 10
359.494042
 20
150.433851
 30
0.0
 10
357.083866
 20
149.322954
 30
0.0
 10
354.221782
 20
149.322954
 30
0.0
  0
SPLINE
  5
1f0
100
AcDbEntity
  8
Qlocktwo_blank_laser_v3
 62
5
100
AcDbSpline
 70
8
 71
3
 72
8
 73
4
 74
0
 40
0
 40
0
 40
0
 40
0
 40
1
 40
1
 40
1
 40
1
 10
354.221782
 20
149.322954
 30
0.0
 10
351.516684
 20
149.322954
 30
0.0
 10
349.519963
 20
150.177381
 30
0.0
 10
348.229856
 20
151.886236
 30
0.0
  0
SPLINE
  5
1f1
100
AcDbEntity
  8
Qlocktwo_blank_laser_v3
 62
5
100
AcDbSpline
 70
8
 71
3
 72
8
 73
4
 74
0
 40
0
 40
0
 40
0
 40
0
 40
1
 40
1
 40
1
 40
1
 10
348.229856
 20
151.886236
 30
0.0
 10
346.940101
 20
153.595090
 30
0.0
 10
346.295224
 20
156.270907
 30
0.0
 10
346.295224
 20
159.917216
 30
0.0
  0
SPLINE
  5
1f2
100
AcDbEntity
  8
Qlocktwo_blank_laser_v3
 62
5
100
AcDbSpline
 70
8
 71
3
 72
8
 73
4
 74
0
 40
0
 40
0
 40
0
 40
0
 40
1
 40
1
 40
1
 40
1
 10
346.295224
 20
159.917216
 30
0.0
 10
346.295224
 20
167.112113
 30
0.0
 10
348.907894
 20
170.710091
 30
0.0
 10
354.133587
 20
170.710091
 30
0.0
  0
SPLINE
  5
1f3
100
AcDbEntity
  8
Qlocktwo_blank_laser_v3
 62
5
100
AcDbSpline
 70
8
 71
3
 72
8
 73
4
 74
0
 40
0
 40
0
 40
0
 40
0
 40
1
 40
1
 40
1
 40
1
 10
354.133587
 20
170.710091
 30
0.0
 10
358.032132
 20
170.710091
 30
0.0
 10
360.480760
 20
168.877412
 30
0.0
 10
361.481237
 20
165.214523
 30
0.0
  0
LWPOLYLINE
  5
1f4
100
AcDbEntity
  8
Qlocktwo_blank_laser_v3
 62
5
100
AcDbPolyline
 90
6
 70
0
 10
357.231327
 20
153.699512
 30
0.0
 10
357.231327
 20
157.431545
 30
0.0
 10
354.331848
 20
157.431545
 30
0.0
 10
354.331848
 20
160.611835
 30
0.0
 10
361.453721
 20
160.611835
 30
0.0
 10
361.453721
 20
152.657760
 30
0.0
  0
LWPOLYLINE
  5
1f5
100
AcDbEntity
  8
Qlocktwo_blank_laser_v3
 62
5
100
AcDbPolyline
 90
1
 70
1
 10
361.481237
 20
165.214523
 30
0.0
  0
LWPOLYLINE
  5
1f6
100
AcDbEntity
  8
Qlocktwo_blank_laser_v3
 62
5
100
AcDbPolyline
 90
12
 70
1
 10
395.901739
 20
149.648215
 30
0.0
 10
382.143416
 20
149.648215
 30
0.0
 10
382.143416
 20
170.357313
 30
0.0
 10
395.538025
 20
170.357313
 30
0.0
 10
395.538025
 20
167.177024
 30
0.0
 10
385.902613
 20
167.177024
 30
0.0
 10
385.902613
 20
162.094558
 30
0.0
 10
394.744276
 20
162.094558
 30
0.0
 10
394.744276
 20
158.897689
 30
0.0
 10
385.902613
 20
158.897689
 30
0.0
 10
385.902613
 20
152.828857
 30
0.0
 10
395.901739
 20
152.828857
 30
0.0
  0
SPLINE
  5
1f7
100
AcDbEntity
  8
Qlocktwo_blank_laser_v3
 62
5
100
AcDbSpline
 70
8
 71
3
 72
8
 73
4
 74
0
 40
0
 40
0
 40
0
 40
0
 40
1
 40
1
 40
1
 40
1
 10
119.114621
 20
119.645546
 30
0.0
 10
118.511371
 20
117.679164
 30
0.0
 10
117.534178
 20
116.106835
 30
0.0
 10
116.182334
 20
114.927147
 30
0.0
  0
SPLINE
  5
1f8
100
AcDbEntity
  8
Qlocktwo_blank_laser_v3
 62
5
100
AcDbSpline
 70
8
 71
3
 72
8
 73
4
 74
0
 40
0
 40
0
 40
0
 40
0
 40
1
 40
1
 40
1
 40
1
 10
116.182334
 20
114.927147
 30
0.0
 10
114.829080
 20
113.750281
 30
0.0
 10
113.230645
 20
113.163259
 30
0.0
 10
111.386677
 20
113.163259
 30
0.0
  0
SPLINE
  5
1f9
100
AcDbEntity
  8
Qlocktwo_blank_laser_v3
 62
5
100
AcDbSpline
 70
8
 71
3
 72
8
 73
4
 74
0
 40
0
 40
0
 40
0
 40
0
 40
1
 40
1
 40
1
 40
1
 10
111.386677
 20
113.163259
 30
0.0
 10
108.681579
 20
113.163259
 30
0.0
 10
106.684858
 20
114.017686
 30
0.0
 10
105.395104
 20
115.726541
 30
0.0
  0
SPLINE
  5
1fa
100
AcDbEntity
  8
Qlocktwo_blank_laser_v3
 62
5
100
AcDbSpline
 70
8
 71
3
 72
8
 73
4
 74
0
 40
0
 40
0
 40
0
 40
0
 40
1
 40
1
 40
1
 40
1
 10
105.395104
 20
115.726541
 30
0.0
 10
104.105349
 20
117.435395
 30
0.0
 10
103.460119
 20
120.111212
 30
0.0
 10
103.460119
 20
123.757521
 30
0.0
  0
SPLINE
  5
1fb
100
AcDbEntity
  8
Qlocktwo_blank_laser_v3
 62
5
100
AcDbSpline
 70
8
 71
3
 72
8
 73
4
 74
0
 40
0
 40
0
 40
0
 40
0
 40
1
 40
1
 40
1
 40
1
 10
103.460119
 20
123.757521
 30
0.0
 10
103.460119
 20
130.952418
 30
0.0
 10
106.073142
 20
134.550396
 30
0.0
 10
111.298482
 20
134.550396
 30
0.0
  0
SPLINE
  5
1fc
100
AcDbEntity
  8
Qlocktwo_blank_laser_v3
 62
5
100
AcDbSpline
 70
8
 71
3
 72
8
 73
4
 74
0
 40
0
 40
0
 40
0
 40
0
 40
1
 40
1
 40
1
 40
1
 10
111.298482
 20
134.550396
 30
0.0
 10
115.366360
 20
134.550396
 30
0.0
 10
117.959980
 20
132.561789
 30
0.0
 10
119.081813
 20
128.586339
 30
0.0
  0
LWPOLYLINE
  5
1fd
100
AcDbEntity
  8
Qlocktwo_blank_laser_v3
 62
5
100
AcDbPolyline
 90
14
 70
1
 10
430.311305
 20
149.648215
 30
0.0
 10
426.722852
 20
149.648215
 30
0.0
 10
420.593343
 20
161.967911
 30
0.0
 10
419.662010
 20
164.338223
 30
0.0
 10
419.871560
 20
161.455326
 30
0.0
 10
419.871560
 20
149.648215
 30
0.0
 10
416.481368
 20
149.648215
 30
0.0
 10
416.481368
 20
170.357313
 30
0.0
 10
420.069821
 20
170.357313
 30
0.0
 10
426.199330
 20
158.037617
 30
0.0
 10
427.131015
 20
155.667658
 30
0.0
 10
426.921466
 20
158.561492
 30
0.0
 10
426.921466
 20
170.357313
 30
0.0
 10
430.311305
 20
170.357313
 30
0.0
  0
SPLINE
  5
1fe
100
AcDbEntity
  8
Qlocktwo_blank_laser_v3
 62
5
100
AcDbSpline
 70
8
 71
3
 72
8
 73
4
 74
0
 40
0
 40
0
 40
0
 40
0
 40
1
 40
1
 40
1
 40
1
 10
115.399521
 20
127.627137
 30
0.0
 10
114.683030
 20
130.066241
 30
0.0
 10
113.326953
 20
131.287204
 30
0.0
 10
111.331643
 20
131.287204
 30
0.0
  0
SPLINE
  5
1ff
100
AcDbEntity
  8
Qlocktwo_blank_laser_v3
 62
5
100
AcDbSpline
 70
8
 71
3
 72
8
 73
4
 74
0
 40
0
 40
0
 40
0
 40
0
 40
1
 40
1
 40
1
 40
1
 10
111.331643
 20
131.287204
 30
0.0
 10
109.823872
 20
131.287204
 30
0.0
 10
108.775418
 20
130.686424
 30
0.0
 10
108.184163
 20
129.484864
 30
0.0
  0
SPLINE
  5
200
100
AcDbEntity
  8
Qlocktwo_blank_laser_v3
 62
5
100
AcDbSpline
 70
8
 71
3
 72
8
 73
4
 74
0
 40
0
 40
0
 40
0
 40
0
 40
1
 40
1
 40
1
 40
1
 10
108.184163
 20
129.484864
 30
0.0
 10
107.595730
 20
128.283303
 30
0.0
 10
107.302219
 20
126.382891
 30
0.0
 10
107.302219
 20
123.785390
 30
0.0
  0
SPLINE
  5
201
100
AcDbEntity
  8
Qlocktwo_blank_laser_v3
 62
5
100
AcDbSpline
 70
8
 71
3
 72
8
 73
4
 74
0
 40
0
 40
0
 40
0
 40
0
 40
1
 40
1
 40
1
 40
1
 10
107.302219
 20
123.785390
 30
0.0
 10
107.302219
 20
121.109220
 30
0.0
 10
107.605255
 20
119.216921
 30
0.0
 10
108.211679
 20
118.107789
 30
0.0
  0
SPLINE
  5
202
100
AcDbEntity
  8
Qlocktwo_blank_laser_v3
 62
5
100
AcDbSpline
 70
8
 71
3
 72
8
 73
4
 74
0
 40
0
 40
0
 40
0
 40
0
 40
1
 40
1
 40
1
 40
1
 10
108.211679
 20
118.107789
 30
0.0
 10
108.820926
 20
116.996893
 30
0.0
 10
109.870792
 20
116.443032
 30
0.0
 10
111.359160
 20
116.443032
 30
0.0
  0
SPLINE
  5
203
100
AcDbEntity
  8
Qlocktwo_blank_laser_v3
 62
5
100
AcDbSpline
 70
8
 71
3
 72
8
 73
4
 74
0
 40
0
 40
0
 40
0
 40
0
 40
1
 40
1
 40
1
 40
1
 10
111.359160
 20
116.443032
 30
0.0
 10
113.214064
 20
116.443032
 30
0.0
 10
114.640344
 20
117.877425
 30
0.0
 10
115.636587
 20
120.747976
 30
0.0
  0
LWPOLYLINE
  5
204
100
AcDbEntity
  8
Qlocktwo_blank_laser_v3
 62
5
100
AcDbPolyline
 90
2
 70
0
 10
119.081813
 20
128.586339
 30
0.0
 10
115.399521
 20
127.627137
 30
0.0
  0
LWPOLYLINE
  5
205
100
AcDbEntity
  8
Qlocktwo_blank_laser_v3
 62
5
100
AcDbPolyline
 90
2
 70
0
 10
115.636587
 20
120.747976
 30
0.0
 10
119.114621
 20
119.645546
 30
0.0
  0
LWPOLYLINE
  5
206
100
AcDbEntity
  8
Qlocktwo_blank_laser_v3
 62
5
100
AcDbPolyline
 90
12
 70
1
 10
152.433046
 20
113.488520
 30
0.0
 10
148.673849
 20
113.488520
 30
0.0
 10
148.673849
 20
122.655091
 30
0.0
 10
143.067861
 20
122.655091
 30
0.0
 10
143.067861
 20
113.488520
 30
0.0
 10
139.308664
 20
113.488520
 30
0.0
 10
139.308664
 20
134.197618
 30
0.0
 10
143.067861
 20
134.197618
 30
0.0
 10
143.067861
 20
125.934864
 30
0.0
 10
148.673849
 20
125.934864
 30
0.0
 10
148.673849
 20
134.197618
 30
0.0
 10
152.433046
 20
134.197618
 30
0.0
  0
LWPOLYLINE
  5
207
100
AcDbEntity
  8
Qlocktwo_blank_laser_v3
 62
5
100
AcDbPolyline
 90
8
 70
1
 10
188.496079
 20
131.017329
 30
0.0
 10
182.449473
 20
131.017329
 30
0.0
 10
182.449473
 20
113.488520
 30
0.0
 10
178.678987
 20
113.488520
 30
0.0
 10
178.678987
 20
131.017329
 30
0.0
 10
172.632380
 20
131.017329
 30
0.0
 10
172.632380
 20
134.197618
 30
0.0
 10
188.496079
 20
134.197618
 30
0.0
  0
LWPOLYLINE
  5
208
100
AcDbEntity
  8
Qlocktwo_blank_laser_v3
 62
5
100
AcDbPolyline
 90
8
 70
1
 10
223.186809
 20
131.017329
 30
0.0
 10
217.140202
 20
131.017329
 30
0.0
 10
217.140202
 20
113.488520
 30
0.0
 10
213.369716
 20
113.488520
 30
0.0
 10
213.369716
 20
131.017329
 30
0.0
 10
207.323110
 20
131.017329
 30
0.0
 10
207.323110
 20
134.197618
 30
0.0
 10
223.186809
 20
134.197618
 30
0.0
  0
LWPOLYLINE
  5
209
100
AcDbEntity
  8
Qlocktwo_blank_laser_v3
 62
5
100
AcDbPolyline
 90
12
 70
1
 10
255.005929
 20
113.488520
 30
0.0
 10
244.879803
 20
113.488520
 30
0.0
 10
244.879803
 20
116.669162
 30
0.0
 10
248.060445
 20
116.669162
 30
0.0
 10
248.060445
 20
131.017329
 30
0.0
 10
244.879803
 20
131.017329
 30
0.0
 10
244.879803
 20
134.197618
 30
0.0
 10
255.005929
 20
134.197618
 30
0.0
 10
255.005929
 20
131.017329
 30
0.0
 10
251.830932
 20
131.017329
 30
0.0
 10
251.830932
 20
116.669162
 30
0.0
 10
255.005929
 20
116.669162
 30
0.0
  0
LWPOLYLINE
  5
20a
100
AcDbEntity
  8
Qlocktwo_blank_laser_v3
 62
5
100
AcDbPolyline
 90
12
 70
1
 10
291.829551
 20
113.488520
 30
0.0
 10
278.071228
 20
113.488520
 30
0.0
 10
278.071228
 20
134.197618
 30
0.0
 10
291.465838
 20
134.197618
 30
0.0
 10
291.465838
 20
131.017329
 30
0.0
 10
281.830778
 20
131.017329
 30
0.0
 10
281.830778
 20
125.934864
 30
0.0
 10
290.672088
 20
125.934864
 30
0.0
 10
290.672088
 20
122.737994
 30
0.0
 10
281.830778
 20
122.737994
 30
0.0
 10
281.830778
 20
116.669162
 30
0.0
 10
291.829551
 20
116.669162
 30
0.0
  0
LWPOLYLINE
  5
20b
100
AcDbEntity
  8
Qlocktwo_blank_laser_v3
 62
5
100
AcDbPolyline
 90
14
 70
1
 10
326.239117
 20
113.488520
 30
0.0
 10
322.651017
 20
113.488520
 30
0.0
 10
316.521508
 20
125.808216
 30
0.0
 10
315.589822
 20
128.178529
 30
0.0
 10
315.799372
 20
125.295631
 30
0.0
 10
315.799372
 20
113.488520
 30
0.0
 10
312.409180
 20
113.488520
 30
0.0
 10
312.409180
 20
134.197618
 30
0.0
 10
315.997633
 20
134.197618
 30
0.0
 10
322.127142
 20
121.877922
 30
0.0
 10
323.058828
 20
119.507963
 30
0.0
 10
322.849278
 20
122.401797
 30
0.0
 10
322.849278
 20
134.197618
 30
0.0
 10
326.239117
 20
134.197618
 30
0.0
  0
LWPOLYLINE
  5
20c
100
AcDbEntity
  8
Qlocktwo_blank_laser_v3
 62
5
100
AcDbPolyline
 90
12
 70
1
 10
361.211010
 20
113.488520
 30
0.0
 10
347.452687
 20
113.488520
 30
0.0
 10
347.452687
 20
134.197618
 30
0.0
 10
360.847296
 20
134.197618
 30
0.0
 10
360.847296
 20
131.017329
 30
0.0
 10
351.211884
 20
131.017329
 30
0.0
 10
351.211884
 20
125.934864
 30
0.0
 10
360.053547
 20
125.934864
 30
0.0
 10
360.053547
 20
122.737994
 30
0.0
 10
351.211884
 20
122.737994
 30
0.0
 10
351.211884
 20
116.669162
 30
0.0
 10
361.211010
 20
116.669162
 30
0.0
  0
LWPOLYLINE
  5
20d
100
AcDbEntity
  8
Qlocktwo_blank_laser_v3
 62
5
100
AcDbPolyline
 90
6
 70
1
 10
396.607294
 20
113.488520
 30
0.0
 10
382.143416
 20
113.488520
 30
0.0
 10
382.143416
 20
134.197618
 30
0.0
 10
385.902613
 20
134.197618
 30
0.0
 10
385.902613
 20
116.669162
 30
0.0
 10
396.607294
 20
116.669162
 30
0.0
  0
LWPOLYLINE
  5
20e
100
AcDbEntity
  8
Qlocktwo_blank_laser_v3
 62
5
100
AcDbPolyline
 90
10
 70
1
 10
431.088474
 20
131.017329
 30
0.0
 10
420.593343
 20
131.017329
 30
0.0
 10
420.593343
 20
125.609603
 30
0.0
 10
429.787783
 20
125.609603
 30
0.0
 10
429.787783
 20
122.429313
 30
0.0
 10
420.593343
 20
122.429313
 30
0.0
 10
420.593343
 20
113.488520
 30
0.0
 10
416.834145
 20
113.488520
 30
0.0
 10
416.834145
 20
134.197618
 30
0.0
 10
431.088474
 20
134.197618
 30
0.0
  0
LWPOLYLINE
  5
20f
100
AcDbEntity
  8
Qlocktwo_blank_laser_v3
 62
5
100
AcDbPolyline
 90
8
 70
1
 10
84.423892
 20
94.857634
 30
0.0
 10
78.377285
 20
94.857634
 30
0.0
 10
78.377285
 20
77.328825
 30
0.0
 10
74.606799
 20
77.328825
 30
0.0
 10
74.606799
 20
94.857634
 30
0.0
 10
68.560193
 20
94.857634
 30
0.0
 10
68.560193
 20
98.037924
 30
0.0
 10
84.423892
 20
98.037924
 30
0.0
  0
SPLINE
  5
210
100
AcDbEntity
  8
Qlocktwo_blank_laser_v3
 62
5
100
AcDbSpline
 70
8
 71
3
 72
8
 73
4
 74
0
 40
0
 40
0
 40
0
 40
0
 40
1
 40
1
 40
1
 40
1
 10
111.822357
 20
84.163890
 30
0.0
 10
111.681599
 20
84.505731
 30
0.0
 10
111.518968
 20
85.070528
 30
0.0
 10
111.331643
 20
85.861808
 30
0.0
  0
LWPOLYLINE
  5
211
100
AcDbEntity
  8
Qlocktwo_blank_laser_v3
 62
5
100
AcDbPolyline
 90
4
 70
0
 10
119.831465
 20
98.037924
 30
0.0
 10
117.400475
 20
77.328825
 30
0.0
 10
114.594835
 20
77.328825
 30
0.0
 10
111.822357
 20
84.163890
 30
0.0
  0
SPLINE
  5
212
100
AcDbEntity
  8
Qlocktwo_blank_laser_v3
 62
5
100
AcDbSpline
 70
8
 71
3
 72
8
 73
4
 74
0
 40
0
 40
0
 40
0
 40
0
 40
1
 40
1
 40
1
 40
1
 10
111.105513
 20
84.968575
 30
0.0
 10
111.057535
 20
84.773136
 30
0.0
 10
110.901608
 20
84.351214
 30
0.0
 10
110.637025
 20
83.701046
 30
0.0
  0
LWPOLYLINE
  5
213
100
AcDbEntity
  8
Qlocktwo_blank_laser_v3
 62
5
100
AcDbPolyline
 90
2
 70
0
 10
111.331643
 20
85.861808
 30
0.0
 10
111.105513
 20
84.968575
 30
0.0
  0
SPLINE
  5
214
100
AcDbEntity
  8
Qlocktwo_blank_laser_v3
 62
5
100
AcDbSpline
 70
8
 71
3
 72
8
 73
4
 74
0
 40
0
 40
0
 40
0
 40
0
 40
1
 40
1
 40
1
 40
1
 10
108.007774
 20
83.981856
 30
0.0
 10
108.197921
 20
84.500087
 30
0.0
 10
108.538351
 20
85.361569
 30
0.0
 10
109.027654
 20
86.567363
 30
0.0
  0
LWPOLYLINE
  5
215
100
AcDbEntity
  8
Qlocktwo_blank_laser_v3
 62
5
100
AcDbPolyline
 90
8
 70
0
 10
110.637025
 20
83.701046
 30
0.0
 10
108.051871
 20
77.328825
 30
0.0
 10
104.959423
 20
77.328825
 30
0.0
 10
102.528786
 20
98.037924
 30
0.0
 10
106.287983
 20
98.037924
 30
0.0
 10
107.329735
 20
86.876043
 30
0.0
 10
107.528349
 20
82.653649
 30
0.0
 10
108.007774
 20
83.981856
 30
0.0
  0
SPLINE
  5
216
100
AcDbEntity
  8
Qlocktwo_blank_laser_v3
 62
5
100
AcDbSpline
 70
8
 71
3
 72
8
 73
4
 74
0
 40
0
 40
0
 40
0
 40
0
 40
1
 40
1
 40
1
 40
1
 10
111.612807
 20
91.467442
 30
0.0
 10
113.692078
 20
86.429427
 30
0.0
 10
114.859419
 20
83.491496
 30
0.0
 10
115.113066
 20
82.653649
 30
0.0
  0
LWPOLYLINE
  5
217
100
AcDbEntity
  8
Qlocktwo_blank_laser_v3
 62
5
100
AcDbPolyline
 90
3
 70
0
 10
109.027654
 20
86.567363
 30
0.0
 10
111.033899
 20
91.467442
 30
0.0
 10
111.612807
 20
91.467442
 30
0.0
  0
LWPOLYLINE
  5
218
100
AcDbEntity
  8
Qlocktwo_blank_laser_v3
 62
5
100
AcDbPolyline
 90
4
 70
0
 10
115.113066
 20
82.653649
 30
0.0
 10
115.311327
 20
86.876043
 30
0.0
 10
116.358723
 20
98.037924
 30
0.0
 10
119.831465
 20
98.037924
 30
0.0
  0
LWPOLYLINE
  5
219
100
AcDbEntity
  8
Qlocktwo_blank_laser_v3
 62
5
100
AcDbPolyline
 90
6
 70
1
 10
223.153648
 20
77.328825
 30
0.0
 10
208.689770
 20
77.328825
 30
0.0
 10
208.689770
 20
98.037924
 30
0.0
 10
212.449320
 20
98.037924
 30
0.0
 10
212.449320
 20
80.509467
 30
0.0
 10
223.153648
 20
80.509467
 30
0.0
  0
LWPOLYLINE
  5
21a
100
AcDbEntity
  8
Qlocktwo_blank_laser_v3
 62
5
100
AcDbPolyline
 90
10
 70
1
 10
257.635180
 20
94.857634
 30
0.0
 10
247.140049
 20
94.857634
 30
0.0
 10
247.140049
 20
89.449908
 30
0.0
 10
256.334136
 20
89.449908
 30
0.0
 10
256.334136
 20
86.269619
 30
0.0
 10
247.140049
 20
86.269619
 30
0.0
 10
247.140049
 20
77.328825
 30
0.0
 10
243.380499
 20
77.328825
 30
0.0
 10
243.380499
 20
98.037924
 30
0.0
 10
257.635180
 20
98.037924
 30
0.0
  0
SPLINE
  5
21b
100
AcDbEntity
  8
Qlocktwo_blank_laser_v3
 62
5
100
AcDbSpline
 70
8
 71
3
 72
8
 73
4
 74
0
 40
0
 40
0
 40
0
 40
0
 40
1
 40
1
 40
1
 40
1
 10
360.687488
 20
85.635677
 30
0.0
 10
360.687488
 20
82.290994
 30
0.0
 10
360.174902
 20
80.010640
 30
0.0
 10
359.149378
 20
78.794969
 30
0.0
  0
SPLINE
  5
21c
100
AcDbEntity
  8
Qlocktwo_blank_laser_v3
 62
5
100
AcDbSpline
 70
8
 71
3
 72
8
 73
4
 74
0
 40
0
 40
0
 40
0
 40
0
 40
1
 40
1
 40
1
 40
1
 10
359.149378
 20
78.794969
 30
0.0
 10
358.124207
 20
77.582472
 30
0.0
 10
356.489788
 20
76.976048
 30
0.0
 10
354.249298
 20
76.976048
 30
0.0
  0
SPLINE
  5
21d
100
AcDbEntity
  8
Qlocktwo_blank_laser_v3
 62
5
100
AcDbSpline
 70
8
 71
3
 72
8
 73
4
 74
0
 40
0
 40
0
 40
0
 40
0
 40
1
 40
1
 40
1
 40
1
 10
354.249298
 20
76.976048
 30
0.0
 10
351.868050
 20
76.976048
 30
0.0
 10
350.122154
 20
77.568714
 30
0.0
 10
349.012669
 20
78.756516
 30
0.0
  0
SPLINE
  5
21e
100
AcDbEntity
  8
Qlocktwo_blank_laser_v3
 62
5
100
AcDbSpline
 70
8
 71
3
 72
8
 73
4
 74
0
 40
0
 40
0
 40
0
 40
0
 40
1
 40
1
 40
1
 40
1
 10
349.012669
 20
78.756516
 30
0.0
 10
347.906006
 20
79.942907
 30
0.0
 10
347.353556
 20
82.173872
 30
0.0
 10
347.353556
 20
85.448353
 30
0.0
  0
LWPOLYLINE
  5
21f
100
AcDbEntity
  8
Qlocktwo_blank_laser_v3
 62
5
100
AcDbPolyline
 90
8
 70
1
 10
327.258997
 20
94.857634
 30
0.0
 10
321.212037
 20
94.857634
 30
0.0
 10
321.212037
 20
77.328825
 30
0.0
 10
317.441904
 20
77.328825
 30
0.0
 10
317.441904
 20
94.857634
 30
0.0
 10
311.394945
 20
94.857634
 30
0.0
 10
311.394945
 20
98.037924
 30
0.0
 10
327.258997
 20
98.037924
 30
0.0
  0
SPLINE
  5
220
100
AcDbEntity
  8
Qlocktwo_blank_laser_v3
 62
5
100
AcDbSpline
 70
8
 71
3
 72
8
 73
4
 74
0
 40
0
 40
0
 40
0
 40
0
 40
1
 40
1
 40
1
 40
1
 10
351.129334
 20
85.084286
 30
0.0
 10
351.129334
 20
83.283357
 30
0.0
 10
351.363578
 20
82.026411
 30
0.0
 10
351.834889
 20
81.314153
 30
0.0
  0
SPLINE
  5
221
100
AcDbEntity
  8
Qlocktwo_blank_laser_v3
 62
5
100
AcDbSpline
 70
8
 71
3
 72
8
 73
4
 74
0
 40
0
 40
0
 40
0
 40
0
 40
1
 40
1
 40
1
 40
1
 10
351.834889
 20
81.314153
 30
0.0
 10
352.304789
 20
80.604365
 30
0.0
 10
353.049149
 20
80.250176
 30
0.0
 10
354.067265
 20
80.250176
 30
0.0
  0
SPLINE
  5
222
100
AcDbEntity
  8
Qlocktwo_blank_laser_v3
 62
5
100
AcDbSpline
 70
8
 71
3
 72
8
 73
4
 74
0
 40
0
 40
0
 40
0
 40
0
 40
1
 40
1
 40
1
 40
1
 10
354.067265
 20
80.250176
 30
0.0
 10
355.176750
 20
80.250176
 30
0.0
 10
355.931694
 20
80.616712
 30
0.0
 10
356.332802
 20
81.352606
 30
0.0
  0
SPLINE
  5
223
100
AcDbEntity
  8
Qlocktwo_blank_laser_v3
 62
5
100
AcDbSpline
 70
8
 71
3
 72
8
 73
4
 74
0
 40
0
 40
0
 40
0
 40
0
 40
1
 40
1
 40
1
 40
1
 10
356.332802
 20
81.352606
 30
0.0
 10
356.732499
 20
82.087088
 30
0.0
 10
356.933582
 20
83.331687
 30
0.0
 10
356.933582
 20
85.084286
 30
0.0
  0
LWPOLYLINE
  5
224
100
AcDbEntity
  8
Qlocktwo_blank_laser_v3
 62
5
100
AcDbPolyline
 90
4
 70
0
 10
347.353556
 20
85.448353
 30
0.0
 10
347.353556
 20
98.037924
 30
0.0
 10
351.129334
 20
98.037924
 30
0.0
 10
351.129334
 20
85.084286
 30
0.0
  0
SPLINE
  5
225
100
AcDbEntity
  8
Qlocktwo_blank_laser_v3
 62
5
100
AcDbSpline
 70
8
 71
3
 72
8
 73
4
 74
0
 40
0
 40
0
 40
0
 40
0
 40
1
 40
1
 40
1
 40
1
 10
395.378217
 20
85.635677
 30
0.0
 10
395.378217
 20
82.290994
 30
0.0
 10
394.865632
 20
80.010640
 30
0.0
 10
393.840107
 20
78.794969
 30
0.0
  0
SPLINE
  5
226
100
AcDbEntity
  8
Qlocktwo_blank_laser_v3
 62
5
100
AcDbSpline
 70
8
 71
3
 72
8
 73
4
 74
0
 40
0
 40
0
 40
0
 40
0
 40
1
 40
1
 40
1
 40
1
 10
393.840107
 20
78.794969
 30
0.0
 10
392.814936
 20
77.582472
 30
0.0
 10
391.180518
 20
76.976048
 30
0.0
 10
388.940028
 20
76.976048
 30
0.0
  0
SPLINE
  5
227
100
AcDbEntity
  8
Qlocktwo_blank_laser_v3
 62
5
100
AcDbSpline
 70
8
 71
3
 72
8
 73
4
 74
0
 40
0
 40
0
 40
0
 40
0
 40
1
 40
1
 40
1
 40
1
 10
388.940028
 20
76.976048
 30
0.0
 10
386.558780
 20
76.976048
 30
0.0
 10
384.812884
 20
77.568714
 30
0.0
 10
383.703398
 20
78.756516
 30
0.0
  0
SPLINE
  5
228
100
AcDbEntity
  8
Qlocktwo_blank_laser_v3
 62
5
100
AcDbSpline
 70
8
 71
3
 72
8
 73
4
 74
0
 40
0
 40
0
 40
0
 40
0
 40
1
 40
1
 40
1
 40
1
 10
383.703398
 20
78.756516
 30
0.0
 10
382.596735
 20
79.942907
 30
0.0
 10
382.044286
 20
82.173872
 30
0.0
 10
382.044286
 20
85.448353
 30
0.0
  0
LWPOLYLINE
  5
229
100
AcDbEntity
  8
Qlocktwo_blank_laser_v3
 62
5
100
AcDbPolyline
 90
4
 70
0
 10
356.933582
 20
85.084286
 30
0.0
 10
356.933582
 20
98.037924
 30
0.0
 10
360.687488
 20
98.037924
 30
0.0
 10
360.687488
 20
85.635677
 30
0.0
  0
SPLINE
  5
22a
100
AcDbEntity
  8
Qlocktwo_blank_laser_v3
 62
5
100
AcDbSpline
 70
8
 71
3
 72
8
 73
4
 74
0
 40
0
 40
0
 40
0
 40
0
 40
1
 40
1
 40
1
 40
1
 10
385.820063
 20
85.084286
 30
0.0
 10
385.820063
 20
83.283357
 30
0.0
 10
386.054308
 20
82.026411
 30
0.0
 10
386.525618
 20
81.314153
 30
0.0
  0
SPLINE
  5
22b
100
AcDbEntity
  8
Qlocktwo_blank_laser_v3
 62
5
100
AcDbSpline
 70
8
 71
3
 72
8
 73
4
 74
0
 40
0
 40
0
 40
0
 40
0
 40
1
 40
1
 40
1
 40
1
 10
386.525618
 20
81.314153
 30
0.0
 10
386.995518
 20
80.604365
 30
0.0
 10
387.739526
 20
80.250176
 30
0.0
 10
388.757995
 20
80.250176
 30
0.0
  0
SPLINE
  5
22c
100
AcDbEntity
  8
Qlocktwo_blank_laser_v3
 62
5
100
AcDbSpline
 70
8
 71
3
 72
8
 73
4
 74
0
 40
0
 40
0
 40
0
 40
0
 40
1
 40
1
 40
1
 40
1
 10
388.757995
 20
80.250176
 30
0.0
 10
389.867480
 20
80.250176
 30
0.0
 10
390.622424
 20
80.616712
 30
0.0
 10
391.023532
 20
81.352606
 30
0.0
  0
SPLINE
  5
22d
100
AcDbEntity
  8
Qlocktwo_blank_laser_v3
 62
5
100
AcDbSpline
 70
8
 71
3
 72
8
 73
4
 74
0
 40
0
 40
0
 40
0
 40
0
 40
1
 40
1
 40
1
 40
1
 10
391.023532
 20
81.352606
 30
0.0
 10
391.423229
 20
82.087088
 30
0.0
 10
391.624312
 20
83.331687
 30
0.0
 10
391.624312
 20
85.084286
 30
0.0
  0
LWPOLYLINE
  5
22e
100
AcDbEntity
  8
Qlocktwo_blank_laser_v3
 62
5
100
AcDbPolyline
 90
4
 70
0
 10
382.044286
 20
85.448353
 30
0.0
 10
382.044286
 20
98.037924
 30
0.0
 10
385.820063
 20
98.037924
 30
0.0
 10
385.820063
 20
85.084286
 30
0.0
  0
LWPOLYLINE
  5
22f
100
AcDbEntity
  8
Qlocktwo_blank_laser_v3
 62
5
100
AcDbPolyline
 90
4
 70
0
 10
391.624312
 20
85.084286
 30
0.0
 10
391.624312
 20
98.037924
 30
0.0
 10
395.378217
 20
98.037924
 30
0.0
 10
395.378217
 20
85.635677
 30
0.0
  0
SPLINE
  5
230
100
AcDbEntity
  8
Qlocktwo_blank_laser_v3
 62
5
100
AcDbSpline
 70
8
 71
3
 72
8
 73
4
 74
0
 40
0
 40
0
 40
0
 40
0
 40
1
 40
1
 40
1
 40
1
 10
282.278453
 20
315.107923
 30
0.0
 10
288.792490
 20
315.432831
 30
0.0
 10
292.837084
 20
313.522894
 30
0.0
 10
292.482895
 20
308.582597
 30
0.0
  0
SPLINE
  5
231
100
AcDbEntity
  8
Qlocktwo_blank_laser_v3
 62
5
100
AcDbSpline
 70
8
 71
3
 72
8
 73
4
 74
0
 40
0
 40
0
 40
0
 40
0
 40
1
 40
1
 40
1
 40
1
 10
292.482895
 20
308.582597
 30
0.0
 10
291.921979
 20
300.223534
 30
0.0
 10
284.056099
 20
302.680630
 30
0.0
 10
282.070314
 20
301.988833
 30
0.0
  0
LWPOLYLINE
  5
232
100
AcDbEntity
  8
Qlocktwo_blank_laser_v3
 62
5
100
AcDbPolyline
 90
2
 70
0
 10
278.184470
 20
315.107923
 30
0.0
 10
282.278453
 20
315.107923
 30
0.0
  0
SPLINE
  5
233
100
AcDbEntity
  8
Qlocktwo_blank_laser_v3
 62
5
100
AcDbSpline
 70
8
 71
3
 72
8
 73
4
 74
0
 40
0
 40
0
 40
0
 40
0
 40
1
 40
1
 40
1
 40
1
 10
282.140870
 20
305.320817
 30
0.0
 10
286.616558
 20
305.213572
 30
0.0
 10
288.379034
 20
305.508494
 30
0.0
 10
288.665843
 20
308.374812
 30
0.0
  0
SPLINE
  5
234
100
AcDbEntity
  8
Qlocktwo_blank_laser_v3
 62
5
100
AcDbSpline
 70
8
 71
3
 72
8
 73
4
 74
0
 40
0
 40
0
 40
0
 40
0
 40
1
 40
1
 40
1
 40
1
 10
288.665843
 20
308.374812
 30
0.0
 10
288.569181
 20
311.267234
 30
0.0
 10
286.578105
 20
312.026412
 30
0.0
 10
282.001523
 20
311.776998
 30
0.0
  0
LWPOLYLINE
  5
235
100
AcDbEntity
  8
Qlocktwo_blank_laser_v3
 62
5
100
AcDbPolyline
 90
5
 70
0
 10
282.070314
 20
301.988833
 30
0.0
 10
282.070314
 20
294.145178
 30
0.0
 10
278.322053
 20
294.213969
 30
0.0
 10
278.322053
 20
305.320817
 30
0.0
 10
282.140870
 20
305.320817
 30
0.0
  0
SPLINE
  5
236
100
AcDbEntity
  8
Qlocktwo_blank_laser_v3
 62
5
100
AcDbSpline
 70
8
 71
3
 72
8
 73
4
 74
0
 40
0
 40
0
 40
0
 40
0
 40
1
 40
1
 40
1
 40
1
 10
417.193979
 20
98.121885
 30
0.0
 10
417.193979
 20
98.121885
 30
0.0
 10
420.040893
 20
98.121885
 30
0.0
 10
424.458726
 20
98.072496
 30
0.0
  0
SPLINE
  5
237
100
AcDbEntity
  8
Qlocktwo_blank_laser_v3
 62
5
100
AcDbSpline
 70
8
 71
3
 72
8
 73
4
 74
0
 40
0
 40
0
 40
0
 40
0
 40
1
 40
1
 40
1
 40
1
 10
424.458726
 20
98.072496
 30
0.0
 10
428.875500
 20
98.024165
 30
0.0
 10
430.807663
 20
95.324712
 30
0.0
 10
430.791082
 20
92.428056
 30
0.0
  0
SPLINE
  5
238
100
AcDbEntity
  8
Qlocktwo_blank_laser_v3
 62
5
100
AcDbSpline
 70
8
 71
3
 72
8
 73
4
 74
0
 40
0
 40
0
 40
0
 40
0
 40
1
 40
1
 40
1
 40
1
 10
430.791082
 20
92.428056
 30
0.0
 10
430.766035
 20
88.452253
 30
0.0
 10
427.869379
 20
86.931076
 30
0.0
 10
425.710028
 20
86.513388
 30
0.0
  0
SPLINE
  5
239
100
AcDbEntity
  8
Qlocktwo_blank_laser_v3
 62
5
100
AcDbSpline
 70
8
 71
3
 72
8
 73
4
 74
0
 40
0
 40
0
 40
0
 40
0
 40
1
 40
1
 40
1
 40
1
 10
425.710028
 20
86.513388
 30
0.0
 10
428.360092
 20
85.189061
 30
0.0
 10
432.459720
 20
77.359164
 30
0.0
 10
432.459720
 20
77.359164
 30
0.0
  0
LWPOLYLINE
  5
23a
100
AcDbEntity
  8
Qlocktwo_blank_laser_v3
 62
5
100
AcDbPolyline
 90
3
 70
0
 10
282.001523
 20
311.776998
 30
0.0
 10
278.184470
 20
311.776998
 30
0.0
 10
278.184470
 20
315.107923
 30
0.0
  0
SPLINE
  5
23b
100
AcDbEntity
  8
Qlocktwo_blank_laser_v3
 62
5
100
AcDbSpline
 70
8
 71
3
 72
8
 73
4
 74
0
 40
0
 40
0
 40
0
 40
0
 40
1
 40
1
 40
1
 40
1
 10
427.894426
 20
77.310834
 30
0.0
 10
424.774462
 20
82.123072
 30
0.0
 10
424.188851
 20
86.342644
 30
0.0
 10
420.924248
 20
86.047722
 30
0.0
  0
LWPOLYLINE
  5
23c
100
AcDbEntity
  8
Qlocktwo_blank_laser_v3
 62
5
100
AcDbPolyline
 90
2
 70
0
 10
432.459720
 20
77.359164
 30
0.0
 10
427.894426
 20
77.310834
 30
0.0
  0
SPLINE
  5
23d
100
AcDbEntity
  8
Qlocktwo_blank_laser_v3
 62
5
100
AcDbSpline
 70
8
 71
3
 72
8
 73
4
 74
0
 40
0
 40
0
 40
0
 40
0
 40
1
 40
1
 40
1
 40
1
 10
421.021967
 20
89.164864
 30
0.0
 10
424.066084
 20
89.188147
 30
0.0
 10
426.871724
 20
89.087605
 30
0.0
 10
426.813868
 20
91.962389
 30
0.0
  0
SPLINE
  5
23e
100
AcDbEntity
  8
Qlocktwo_blank_laser_v3
 62
5
100
AcDbSpline
 70
8
 71
3
 72
8
 73
4
 74
0
 40
0
 40
0
 40
0
 40
0
 40
1
 40
1
 40
1
 40
1
 10
426.813868
 20
91.962389
 30
0.0
 10
426.757424
 20
94.836820
 30
0.0
 10
425.435920
 20
95.008976
 30
0.0
 10
420.953176
 20
94.894676
 30
0.0
  0
LWPOLYLINE
  5
23f
100
AcDbEntity
  8
Qlocktwo_blank_laser_v3
 62
5
100
AcDbPolyline
 90
5
 70
0
 10
420.924248
 20
86.047722
 30
0.0
 10
420.973637
 20
77.359164
 30
0.0
 10
417.193979
 20
77.359164
 30
0.0
 10
417.193979
 20
89.188147
 30
0.0
 10
421.021967
 20
89.164864
 30
0.0
  0
SPLINE
  5
240
100
AcDbEntity
  8
Qlocktwo_blank_laser_v3
 62
5
100
AcDbSpline
 70
8
 71
3
 72
8
 73
4
 74
0
 40
0
 40
0
 40
0
 40
0
 40
1
 40
1
 40
1
 40
1
 10
278.385553
 20
97.926446
 30
0.0
 10
278.385553
 20
97.926446
 30
0.0
 10
281.232468
 20
97.926446
 30
0.0
 10
285.649242
 20
97.876704
 30
0.0
  0
SPLINE
  5
241
100
AcDbEntity
  8
Qlocktwo_blank_laser_v3
 62
5
100
AcDbSpline
 70
8
 71
3
 72
8
 73
4
 74
0
 40
0
 40
0
 40
0
 40
0
 40
1
 40
1
 40
1
 40
1
 10
285.649242
 20
97.876704
 30
0.0
 10
290.067075
 20
97.827315
 30
0.0
 10
291.999237
 20
95.128920
 30
0.0
 10
291.981246
 20
92.232264
 30
0.0
  0
SPLINE
  5
242
100
AcDbEntity
  8
Qlocktwo_blank_laser_v3
 62
5
100
AcDbSpline
 70
8
 71
3
 72
8
 73
4
 74
0
 40
0
 40
0
 40
0
 40
0
 40
1
 40
1
 40
1
 40
1
 10
291.981246
 20
92.232264
 30
0.0
 10
291.956551
 20
88.256814
 30
0.0
 10
289.061306
 20
86.735285
 30
0.0
 10
286.901955
 20
86.317949
 30
0.0
  0
SPLINE
  5
243
100
AcDbEntity
  8
Qlocktwo_blank_laser_v3
 62
5
100
AcDbSpline
 70
8
 71
3
 72
8
 73
4
 74
0
 40
0
 40
0
 40
0
 40
0
 40
1
 40
1
 40
1
 40
1
 10
286.901955
 20
86.317949
 30
0.0
 10
289.551667
 20
84.992211
 30
0.0
 10
293.650236
 20
77.163373
 30
0.0
 10
293.650236
 20
77.163373
 30
0.0
  0
LWPOLYLINE
  5
244
100
AcDbEntity
  8
Qlocktwo_blank_laser_v3
 62
5
100
AcDbPolyline
 90
3
 70
0
 10
420.953176
 20
94.894676
 30
0.0
 10
417.218673
 20
94.882329
 30
0.0
 10
417.193979
 20
98.121885
 30
0.0
  0
SPLINE
  5
245
100
AcDbEntity
  8
Qlocktwo_blank_laser_v3
 62
5
100
AcDbSpline
 70
8
 71
3
 72
8
 73
4
 74
0
 40
0
 40
0
 40
0
 40
0
 40
1
 40
1
 40
1
 40
1
 10
289.086001
 20
77.113984
 30
0.0
 10
285.966036
 20
81.927280
 30
0.0
 10
285.380426
 20
86.145441
 30
0.0
 10
282.115822
 20
85.850519
 30
0.0
  0
LWPOLYLINE
  5
246
100
AcDbEntity
  8
Qlocktwo_blank_laser_v3
 62
5
100
AcDbPolyline
 90
2
 70
0
 10
293.650236
 20
77.163373
 30
0.0
 10
289.086001
 20
77.113984
 30
0.0
  0
SPLINE
  5
247
100
AcDbEntity
  8
Qlocktwo_blank_laser_v3
 62
5
100
AcDbSpline
 70
8
 71
3
 72
8
 73
4
 74
0
 40
0
 40
0
 40
0
 40
0
 40
1
 40
1
 40
1
 40
1
 10
282.213895
 20
88.967661
 30
0.0
 10
285.256601
 20
88.992708
 30
0.0
 10
288.063651
 20
88.891814
 30
0.0
 10
288.005796
 20
91.765187
 30
0.0
  0
SPLINE
  5
248
100
AcDbEntity
  8
Qlocktwo_blank_laser_v3
 62
5
100
AcDbSpline
 70
8
 71
3
 72
8
 73
4
 74
0
 40
0
 40
0
 40
0
 40
0
 40
1
 40
1
 40
1
 40
1
 10
288.005796
 20
91.765187
 30
0.0
 10
287.948999
 20
94.639618
 30
0.0
 10
286.627494
 20
94.812126
 30
0.0
 10
282.144750
 20
94.697473
 30
0.0
  0
LWPOLYLINE
  5
249
100
AcDbEntity
  8
Qlocktwo_blank_laser_v3
 62
5
100
AcDbPolyline
 90
5
 70
0
 10
282.115822
 20
85.850519
 30
0.0
 10
282.164153
 20
77.163373
 30
0.0
 10
278.385553
 20
77.163373
 30
0.0
 10
278.385553
 20
88.992708
 30
0.0
 10
282.213895
 20
88.967661
 30
0.0
  0
SPLINE
  5
24a
100
AcDbEntity
  8
Qlocktwo_blank_laser_v3
 62
5
100
AcDbSpline
 70
8
 71
3
 72
8
 73
4
 74
0
 40
0
 40
0
 40
0
 40
0
 40
1
 40
1
 40
1
 40
1
 10
382.442572
 20
387.323949
 30
0.0
 10
382.442572
 20
387.323949
 30
0.0
 10
385.289486
 20
387.323949
 30
0.0
 10
389.707672
 20
387.274207
 30
0.0
  0
SPLINE
  5
24b
100
AcDbEntity
  8
Qlocktwo_blank_laser_v3
 62
5
100
AcDbSpline
 70
8
 71
3
 72
8
 73
4
 74
0
 40
0
 40
0
 40
0
 40
0
 40
1
 40
1
 40
1
 40
1
 10
389.707672
 20
387.274207
 30
0.0
 10
394.124093
 20
387.224466
 30
0.0
 10
396.057667
 20
384.526423
 30
0.0
 10
396.039675
 20
381.629767
 30
0.0
  0
SPLINE
  5
24c
100
AcDbEntity
  8
Qlocktwo_blank_laser_v3
 62
5
100
AcDbSpline
 70
8
 71
3
 72
8
 73
4
 74
0
 40
0
 40
0
 40
0
 40
0
 40
1
 40
1
 40
1
 40
1
 10
396.039675
 20
381.629767
 30
0.0
 10
396.014628
 20
377.653965
 30
0.0
 10
393.118325
 20
376.132788
 30
0.0
 10
390.958621
 20
375.715099
 30
0.0
  0
SPLINE
  5
24d
100
AcDbEntity
  8
Qlocktwo_blank_laser_v3
 62
5
100
AcDbSpline
 70
8
 71
3
 72
8
 73
4
 74
0
 40
0
 40
0
 40
0
 40
0
 40
1
 40
1
 40
1
 40
1
 10
390.958621
 20
375.715099
 30
0.0
 10
393.608685
 20
374.389714
 30
0.0
 10
397.708313
 20
366.560876
 30
0.0
 10
397.708313
 20
366.560876
 30
0.0
  0
LWPOLYLINE
  5
24e
100
AcDbEntity
  8
Qlocktwo_blank_laser_v3
 62
5
100
AcDbPolyline
 90
3
 70
0
 10
282.144750
 20
94.697473
 30
0.0
 10
278.410248
 20
94.686537
 30
0.0
 10
278.385553
 20
97.926446
 30
0.0
  0
SPLINE
  5
24f
100
AcDbEntity
  8
Qlocktwo_blank_laser_v3
 62
5
100
AcDbSpline
 70
8
 71
3
 72
8
 73
4
 74
0
 40
0
 40
0
 40
0
 40
0
 40
1
 40
1
 40
1
 40
1
 10
393.143019
 20
366.511487
 30
0.0
 10
390.023055
 20
371.324783
 30
0.0
 10
389.437444
 20
375.542944
 30
0.0
 10
386.172841
 20
375.249433
 30
0.0
  0
LWPOLYLINE
  5
250
100
AcDbEntity
  8
Qlocktwo_blank_laser_v3
 62
5
100
AcDbPolyline
 90
2
 70
0
 10
397.708313
 20
366.560876
 30
0.0
 10
393.143019
 20
366.511487
 30
0.0
  0
SPLINE
  5
251
100
AcDbEntity
  8
Qlocktwo_blank_laser_v3
 62
5
100
AcDbSpline
 70
8
 71
3
 72
8
 73
4
 74
0
 40
0
 40
0
 40
0
 40
0
 40
1
 40
1
 40
1
 40
1
 10
386.270560
 20
378.365164
 30
0.0
 10
389.314677
 20
378.389858
 30
0.0
 10
392.120317
 20
378.289317
 30
0.0
 10
392.062461
 20
381.164101
 30
0.0
  0
SPLINE
  5
252
100
AcDbEntity
  8
Qlocktwo_blank_laser_v3
 62
5
100
AcDbSpline
 70
8
 71
3
 72
8
 73
4
 74
0
 40
0
 40
0
 40
0
 40
0
 40
1
 40
1
 40
1
 40
1
 10
392.062461
 20
381.164101
 30
0.0
 10
392.006017
 20
384.037121
 30
0.0
 10
390.684512
 20
384.210687
 30
0.0
 10
386.201769
 20
384.094976
 30
0.0
  0
LWPOLYLINE
  5
253
100
AcDbEntity
  8
Qlocktwo_blank_laser_v3
 62
5
100
AcDbPolyline
 90
5
 70
0
 10
386.172841
 20
375.249433
 30
0.0
 10
386.222583
 20
366.560876
 30
0.0
 10
382.442572
 20
366.560876
 30
0.0
 10
382.442572
 20
378.389858
 30
0.0
 10
386.270560
 20
378.365164
 30
0.0
  0
SPLINE
  5
254
100
AcDbEntity
  8
Qlocktwo_blank_laser_v3
 62
5
100
AcDbSpline
 70
8
 71
3
 72
8
 73
4
 74
0
 40
0
 40
0
 40
0
 40
0
 40
1
 40
1
 40
1
 40
1
 10
173.935893
 20
315.071940
 30
0.0
 10
173.935893
 20
315.071940
 30
0.0
 10
176.781397
 20
315.071940
 30
0.0
 10
181.199582
 20
315.023609
 30
0.0
  0
SPLINE
  5
255
100
AcDbEntity
  8
Qlocktwo_blank_laser_v3
 62
5
100
AcDbSpline
 70
8
 71
3
 72
8
 73
4
 74
0
 40
0
 40
0
 40
0
 40
0
 40
1
 40
1
 40
1
 40
1
 10
181.199582
 20
315.023609
 30
0.0
 10
185.617415
 20
314.974220
 30
0.0
 10
187.549577
 20
312.274414
 30
0.0
 10
187.531586
 20
309.377758
 30
0.0
  0
SPLINE
  5
256
100
AcDbEntity
  8
Qlocktwo_blank_laser_v3
 62
5
100
AcDbSpline
 70
8
 71
3
 72
8
 73
4
 74
0
 40
0
 40
0
 40
0
 40
0
 40
1
 40
1
 40
1
 40
1
 10
187.531586
 20
309.377758
 30
0.0
 10
187.506891
 20
305.402308
 30
0.0
 10
184.611646
 20
303.880779
 30
0.0
 10
182.450884
 20
303.463443
 30
0.0
  0
SPLINE
  5
257
100
AcDbEntity
  8
Qlocktwo_blank_laser_v3
 62
5
100
AcDbSpline
 70
8
 71
3
 72
8
 73
4
 74
0
 40
0
 40
0
 40
0
 40
0
 40
1
 40
1
 40
1
 40
1
 10
182.450884
 20
303.463443
 30
0.0
 10
185.102007
 20
302.139116
 30
0.0
 10
189.200223
 20
294.309219
 30
0.0
 10
189.200223
 20
294.309219
 30
0.0
  0
LWPOLYLINE
  5
258
100
AcDbEntity
  8
Qlocktwo_blank_laser_v3
 62
5
100
AcDbPolyline
 90
3
 70
0
 10
386.201769
 20
384.094976
 30
0.0
 10
382.467266
 20
384.084040
 30
0.0
 10
382.442572
 20
387.323949
 30
0.0
  0
SPLINE
  5
259
100
AcDbEntity
  8
Qlocktwo_blank_laser_v3
 62
5
100
AcDbSpline
 70
8
 71
3
 72
8
 73
4
 74
0
 40
0
 40
0
 40
0
 40
0
 40
1
 40
1
 40
1
 40
1
 10
184.634930
 20
294.260889
 30
0.0
 10
181.514965
 20
299.074185
 30
0.0
 10
180.929355
 20
303.292346
 30
0.0
 10
177.666163
 20
302.997424
 30
0.0
  0
LWPOLYLINE
  5
25a
100
AcDbEntity
  8
Qlocktwo_blank_laser_v3
 62
5
100
AcDbPolyline
 90
2
 70
0
 10
189.200223
 20
294.309219
 30
0.0
 10
184.634930
 20
294.260889
 30
0.0
  0
SPLINE
  5
25b
100
AcDbEntity
  8
Qlocktwo_blank_laser_v3
 62
5
100
AcDbSpline
 70
8
 71
3
 72
8
 73
4
 74
0
 40
0
 40
0
 40
0
 40
0
 40
1
 40
1
 40
1
 40
1
 10
177.763882
 20
306.114566
 30
0.0
 10
180.806588
 20
306.139613
 30
0.0
 10
183.612580
 20
306.037661
 30
0.0
 10
183.555783
 20
308.912092
 30
0.0
  0
SPLINE
  5
25c
100
AcDbEntity
  8
Qlocktwo_blank_laser_v3
 62
5
100
AcDbSpline
 70
8
 71
3
 72
8
 73
4
 74
0
 40
0
 40
0
 40
0
 40
0
 40
1
 40
1
 40
1
 40
1
 10
183.555783
 20
308.912092
 30
0.0
 10
183.497928
 20
311.786876
 30
0.0
 10
182.177834
 20
311.959031
 30
0.0
 10
177.693679
 20
311.844731
 30
0.0
  0
LWPOLYLINE
  5
25d
100
AcDbEntity
  8
Qlocktwo_blank_laser_v3
 62
5
100
AcDbPolyline
 90
5
 70
0
 10
177.666163
 20
302.997424
 30
0.0
 10
177.714493
 20
294.309219
 30
0.0
 10
173.935893
 20
294.309219
 30
0.0
 10
173.935893
 20
306.139613
 30
0.0
 10
177.763882
 20
306.114566
 30
0.0
  0
LWPOLYLINE
  5
25e
100
AcDbEntity
  8
Qlocktwo_blank_laser_v3
 62
5
100
AcDbPolyline
 90
3
 70
0
 10
177.693679
 20
311.844731
 30
0.0
 10
173.959177
 20
311.832031
 30
0.0
 10
173.935893
 20
315.071940
 30
0.0
  0
LWPOLYLINE
  5
25f
100
AcDbEntity
  8
Qlocktwo_blank_laser_v3
 62
5
100
AcDbPolyline
 90
11
 70
1
 10
137.581818
 20
77.261445
 30
0.0
 10
144.404535
 20
97.926446
 30
0.0
 10
148.330596
 20
97.876704
 30
0.0
 10
154.957522
 20
77.113984
 30
0.0
 10
150.834258
 20
77.163373
 30
0.0
 10
149.705723
 20
81.482075
 30
0.0
 10
146.220634
 20
81.434097
 30
0.0
 10
146.220634
 20
84.721984
 30
0.0
 10
148.674907
 20
84.721984
 30
0.0
 10
146.171245
 20
93.213338
 30
0.0
 10
141.361829
 20
77.213114
 30
0.0
  0
LWPOLYLINE
  5
260
100
AcDbEntity
  8
Qlocktwo_blank_laser_v3
 62
5
100
AcDbPolyline
 90
11
 70
1
 10
171.940584
 20
77.458295
 30
0.0
 10
178.762948
 20
98.121885
 30
0.0
 10
182.689009
 20
98.073907
 30
0.0
 10
189.316287
 20
77.310834
 30
0.0
 10
185.193024
 20
77.359164
 30
0.0
 10
184.064488
 20
81.679278
 30
0.0
 10
180.579399
 20
81.629536
 30
0.0
 10
180.579399
 20
84.919186
 30
0.0
 10
183.033673
 20
84.919186
 30
0.0
 10
180.529658
 20
93.410541
 30
0.0
 10
175.720242
 20
77.408906
 30
0.0
  0
SPLINE
  5
261
100
AcDbEntity
  8
Qlocktwo_blank_laser_v3
 62
5
100
AcDbSpline
 70
8
 71
3
 72
8
 73
4
 74
0
 40
0
 40
0
 40
0
 40
0
 40
1
 40
1
 40
1
 40
1
 10
174.131685
 20
206.302167
 30
0.0
 10
174.131685
 20
206.302167
 30
0.0
 10
176.978599
 20
206.302167
 30
0.0
 10
181.396432
 20
206.253836
 30
0.0
  0
SPLINE
  5
262
100
AcDbEntity
  8
Qlocktwo_blank_laser_v3
 62
5
100
AcDbSpline
 70
8
 71
3
 72
8
 73
4
 74
0
 40
0
 40
0
 40
0
 40
0
 40
1
 40
1
 40
1
 40
1
 10
181.396432
 20
206.253836
 30
0.0
 10
185.813207
 20
206.204094
 30
0.0
 10
187.745016
 20
203.504641
 30
0.0
 10
187.727377
 20
200.609396
 30
0.0
  0
SPLINE
  5
263
100
AcDbEntity
  8
Qlocktwo_blank_laser_v3
 62
5
100
AcDbSpline
 70
8
 71
3
 72
8
 73
4
 74
0
 40
0
 40
0
 40
0
 40
0
 40
1
 40
1
 40
1
 40
1
 10
187.727377
 20
200.609396
 30
0.0
 10
187.702330
 20
196.633946
 30
0.0
 10
184.807085
 20
195.111006
 30
0.0
 10
182.647734
 20
194.694728
 30
0.0
  0
SPLINE
  5
264
100
AcDbEntity
  8
Qlocktwo_blank_laser_v3
 62
5
100
AcDbSpline
 70
8
 71
3
 72
8
 73
4
 74
0
 40
0
 40
0
 40
0
 40
0
 40
1
 40
1
 40
1
 40
1
 10
182.647734
 20
194.694728
 30
0.0
 10
185.297799
 20
193.369343
 30
0.0
 10
189.396015
 20
185.540505
 30
0.0
 10
189.396015
 20
185.540505
 30
0.0
  0
LWPOLYLINE
  5
265
100
AcDbEntity
  8
Qlocktwo_blank_laser_v3
 62
5
100
AcDbPolyline
 90
11
 70
1
 10
67.686363
 20
113.583770
 30
0.0
 10
74.509080
 20
134.247360
 30
0.0
 10
78.436552
 20
134.199030
 30
0.0
 10
85.062066
 20
113.436309
 30
0.0
 10
80.939155
 20
113.485698
 30
0.0
 10
79.810267
 20
117.804400
 30
0.0
 10
76.325178
 20
117.756423
 30
0.0
 10
76.325178
 20
121.044309
 30
0.0
 10
78.779451
 20
121.044309
 30
0.0
 10
76.275789
 20
129.535664
 30
0.0
 10
71.466374
 20
113.534028
 30
0.0
  0
SPLINE
  5
266
100
AcDbEntity
  8
Qlocktwo_blank_laser_v3
 62
5
100
AcDbSpline
 70
8
 71
3
 72
8
 73
4
 74
0
 40
0
 40
0
 40
0
 40
0
 40
1
 40
1
 40
1
 40
1
 10
184.832132
 20
185.491116
 30
0.0
 10
181.712168
 20
190.304412
 30
0.0
 10
181.126557
 20
194.522573
 30
0.0
 10
177.861954
 20
194.227651
 30
0.0
  0
LWPOLYLINE
  5
267
100
AcDbEntity
  8
Qlocktwo_blank_laser_v3
 62
5
100
AcDbPolyline
 90
2
 70
0
 10
189.396015
 20
185.540505
 30
0.0
 10
184.832132
 20
185.491116
 30
0.0
  0
SPLINE
  5
268
100
AcDbEntity
  8
Qlocktwo_blank_laser_v3
 62
5
100
AcDbSpline
 70
8
 71
3
 72
8
 73
4
 74
0
 40
0
 40
0
 40
0
 40
0
 40
1
 40
1
 40
1
 40
1
 10
177.959674
 20
197.344793
 30
0.0
 10
181.003791
 20
197.369487
 30
0.0
 10
183.809430
 20
197.268946
 30
0.0
 10
183.751575
 20
200.142318
 30
0.0
  0
SPLINE
  5
269
100
AcDbEntity
  8
Qlocktwo_blank_laser_v3
 62
5
100
AcDbSpline
 70
8
 71
3
 72
8
 73
4
 74
0
 40
0
 40
0
 40
0
 40
0
 40
1
 40
1
 40
1
 40
1
 10
183.751575
 20
200.142318
 30
0.0
 10
183.695130
 20
203.016750
 30
0.0
 10
182.373626
 20
203.189258
 30
0.0
 10
177.890882
 20
203.074605
 30
0.0
  0
LWPOLYLINE
  5
26a
100
AcDbEntity
  8
Qlocktwo_blank_laser_v3
 62
5
100
AcDbPolyline
 90
5
 70
0
 10
177.861954
 20
194.227651
 30
0.0
 10
177.911343
 20
185.540505
 30
0.0
 10
174.131685
 20
185.540505
 30
0.0
 10
174.131685
 20
197.369487
 30
0.0
 10
177.959674
 20
197.344793
 30
0.0
  0
SPLINE
  5
26b
100
AcDbEntity
  8
Qlocktwo_blank_laser_v3
 62
5
100
AcDbSpline
 70
8
 71
3
 72
8
 73
4
 74
0
 40
0
 40
0
 40
0
 40
0
 40
1
 40
1
 40
1
 40
1
 10
347.642834
 20
242.673881
 30
0.0
 10
347.642834
 20
242.673881
 30
0.0
 10
350.490101
 20
242.673881
 30
0.0
 10
354.906523
 20
242.624492
 30
0.0
  0
SPLINE
  5
26c
100
AcDbEntity
  8
Qlocktwo_blank_laser_v3
 62
5
100
AcDbSpline
 70
8
 71
3
 72
8
 73
4
 74
0
 40
0
 40
0
 40
0
 40
0
 40
1
 40
1
 40
1
 40
1
 10
354.906523
 20
242.624492
 30
0.0
 10
359.324708
 20
242.576161
 30
0.0
 10
361.256518
 20
239.876708
 30
0.0
 10
361.238526
 20
236.980052
 30
0.0
  0
SPLINE
  5
26d
100
AcDbEntity
  8
Qlocktwo_blank_laser_v3
 62
5
100
AcDbSpline
 70
8
 71
3
 72
8
 73
4
 74
0
 40
0
 40
0
 40
0
 40
0
 40
1
 40
1
 40
1
 40
1
 10
361.238526
 20
236.980052
 30
0.0
 10
361.213832
 20
233.004249
 30
0.0
 10
358.318587
 20
231.483073
 30
0.0
 10
356.159236
 20
231.065384
 30
0.0
  0
SPLINE
  5
26e
100
AcDbEntity
  8
Qlocktwo_blank_laser_v3
 62
5
100
AcDbSpline
 70
8
 71
3
 72
8
 73
4
 74
0
 40
0
 40
0
 40
0
 40
0
 40
1
 40
1
 40
1
 40
1
 10
356.159236
 20
231.065384
 30
0.0
 10
358.809301
 20
229.739646
 30
0.0
 10
362.907517
 20
221.911160
 30
0.0
 10
362.907517
 20
221.911160
 30
0.0
  0
LWPOLYLINE
  5
26f
100
AcDbEntity
  8
Qlocktwo_blank_laser_v3
 62
5
100
AcDbPolyline
 90
3
 70
0
 10
177.890882
 20
203.074605
 30
0.0
 10
174.156379
 20
203.063669
 30
0.0
 10
174.131685
 20
206.302167
 30
0.0
  0
SPLINE
  5
270
100
AcDbEntity
  8
Qlocktwo_blank_laser_v3
 62
5
100
AcDbSpline
 70
8
 71
3
 72
8
 73
4
 74
0
 40
0
 40
0
 40
0
 40
0
 40
1
 40
1
 40
1
 40
1
 10
358.343281
 20
221.861419
 30
0.0
 10
355.223670
 20
226.675068
 30
0.0
 10
354.636648
 20
230.893229
 30
0.0
 10
351.373456
 20
230.599718
 30
0.0
  0
LWPOLYLINE
  5
271
100
AcDbEntity
  8
Qlocktwo_blank_laser_v3
 62
5
100
AcDbPolyline
 90
2
 70
0
 10
362.907517
 20
221.911160
 30
0.0
 10
358.343281
 20
221.861419
 30
0.0
  0
SPLINE
  5
272
100
AcDbEntity
  8
Qlocktwo_blank_laser_v3
 62
5
100
AcDbSpline
 70
8
 71
3
 72
8
 73
4
 74
0
 40
0
 40
0
 40
0
 40
0
 40
1
 40
1
 40
1
 40
1
 10
351.471176
 20
233.715449
 30
0.0
 10
354.513882
 20
233.740143
 30
0.0
 10
357.319521
 20
233.639601
 30
0.0
 10
357.263077
 20
236.514033
 30
0.0
  0
SPLINE
  5
273
100
AcDbEntity
  8
Qlocktwo_blank_laser_v3
 62
5
100
AcDbSpline
 70
8
 71
3
 72
8
 73
4
 74
0
 40
0
 40
0
 40
0
 40
0
 40
1
 40
1
 40
1
 40
1
 10
357.263077
 20
236.514033
 30
0.0
 10
357.205221
 20
239.387405
 30
0.0
 10
355.885128
 20
239.560972
 30
0.0
 10
351.402384
 20
239.445261
 30
0.0
  0
LWPOLYLINE
  5
274
100
AcDbEntity
  8
Qlocktwo_blank_laser_v3
 62
5
100
AcDbPolyline
 90
5
 70
0
 10
351.373456
 20
230.599718
 30
0.0
 10
351.421434
 20
221.911160
 30
0.0
 10
347.642834
 20
221.911160
 30
0.0
 10
347.642834
 20
233.740143
 30
0.0
 10
351.471176
 20
233.715449
 30
0.0
  0
SPLINE
  5
275
100
AcDbEntity
  8
Qlocktwo_blank_laser_v3
 62
5
100
AcDbSpline
 70
8
 71
3
 72
8
 73
4
 74
0
 40
0
 40
0
 40
0
 40
0
 40
1
 40
1
 40
1
 40
1
 10
312.822635
 20
242.682347
 30
0.0
 10
312.822635
 20
242.682347
 30
0.0
 10
316.303491
 20
242.650597
 30
0.0
 10
319.080203
 20
242.671411
 30
0.0
  0
SPLINE
  5
276
100
AcDbEntity
  8
Qlocktwo_blank_laser_v3
 62
5
100
AcDbSpline
 70
8
 71
3
 72
8
 73
4
 74
0
 40
0
 40
0
 40
0
 40
0
 40
1
 40
1
 40
1
 40
1
 10
319.080203
 20
242.671411
 30
0.0
 10
321.219093
 20
242.687639
 30
0.0
 10
327.162688
 20
241.760540
 30
0.0
 10
327.395522
 20
232.651472
 30
0.0
  0
SPLINE
  5
277
100
AcDbEntity
  8
Qlocktwo_blank_laser_v3
 62
5
100
AcDbSpline
 70
8
 71
3
 72
8
 73
4
 74
0
 40
0
 40
0
 40
0
 40
0
 40
1
 40
1
 40
1
 40
1
 10
327.395522
 20
232.651472
 30
0.0
 10
327.620241
 20
223.901178
 30
0.0
 10
322.025189
 20
222.063913
 30
0.0
 10
319.256592
 20
222.047685
 30
0.0
  0
LWPOLYLINE
  5
278
100
AcDbEntity
  8
Qlocktwo_blank_laser_v3
 62
5
100
AcDbPolyline
 90
3
 70
0
 10
351.402384
 20
239.445261
 30
0.0
 10
347.667881
 20
239.434325
 30
0.0
 10
347.642834
 20
242.673881
 30
0.0
  0
SPLINE
  5
279
100
AcDbEntity
  8
Qlocktwo_blank_laser_v3
 62
5
100
AcDbSpline
 70
8
 71
3
 72
8
 73
4
 74
0
 40
0
 40
0
 40
0
 40
0
 40
1
 40
1
 40
1
 40
1
 10
316.606880
 20
225.154950
 30
0.0
 10
321.713687
 20
225.108030
 30
0.0
 10
323.556244
 20
226.064410
 30
0.0
 10
323.513558
 20
232.512477
 30
0.0
  0
SPLINE
  5
27a
100
AcDbEntity
  8
Qlocktwo_blank_laser_v3
 62
5
100
AcDbSpline
 70
8
 71
3
 72
8
 73
4
 74
0
 40
0
 40
0
 40
0
 40
0
 40
1
 40
1
 40
1
 40
1
 10
323.513558
 20
232.512477
 30
0.0
 10
323.473694
 20
238.449017
 30
0.0
 10
321.220504
 20
239.609302
 30
0.0
 10
316.569485
 20
239.523930
 30
0.0
  0
LWPOLYLINE
  5
27b
100
AcDbEntity
  8
Qlocktwo_blank_laser_v3
 62
5
100
AcDbPolyline
 90
4
 70
0
 10
319.256592
 20
222.047685
 30
0.0
 10
312.800763
 20
222.008880
 30
0.0
 10
312.788416
 20
225.189522
 30
0.0
 10
316.606880
 20
225.154950
 30
0.0
  0
SPLINE
  5
27c
100
AcDbEntity
  8
Qlocktwo_blank_laser_v3
 62
5
100
AcDbSpline
 70
8
 71
3
 72
8
 73
4
 74
0
 40
0
 40
0
 40
0
 40
0
 40
1
 40
1
 40
1
 40
1
 10
243.448232
 20
387.253393
 30
0.0
 10
243.448232
 20
387.253393
 30
0.0
 10
246.927677
 20
387.221996
 30
0.0
 10
249.704389
 20
387.243868
 30
0.0
  0
SPLINE
  5
27d
100
AcDbEntity
  8
Qlocktwo_blank_laser_v3
 62
5
100
AcDbSpline
 70
8
 71
3
 72
8
 73
4
 74
0
 40
0
 40
0
 40
0
 40
0
 40
1
 40
1
 40
1
 40
1
 10
249.704389
 20
387.243868
 30
0.0
 10
251.843279
 20
387.260449
 30
0.0
 10
257.786521
 20
386.331586
 30
0.0
 10
258.020766
 20
377.222870
 30
0.0
  0
SPLINE
  5
27e
100
AcDbEntity
  8
Qlocktwo_blank_laser_v3
 62
5
100
AcDbSpline
 70
8
 71
3
 72
8
 73
4
 74
0
 40
0
 40
0
 40
0
 40
0
 40
1
 40
1
 40
1
 40
1
 10
258.020766
 20
377.222870
 30
0.0
 10
258.244074
 20
368.472224
 30
0.0
 10
252.650786
 20
366.635312
 30
0.0
 10
249.880777
 20
366.618731
 30
0.0
  0
LWPOLYLINE
  5
27f
100
AcDbEntity
  8
Qlocktwo_blank_laser_v3
 62
5
100
AcDbPolyline
 90
4
 70
0
 10
316.569485
 20
239.523930
 30
0.0
 10
316.849238
 20
232.096200
 30
0.0
 10
312.898483
 20
232.105725
 30
0.0
 10
312.822635
 20
242.682347
 30
0.0
  0
SPLINE
  5
280
100
AcDbEntity
  8
Qlocktwo_blank_laser_v3
 62
5
100
AcDbSpline
 70
8
 71
3
 72
8
 73
4
 74
0
 40
0
 40
0
 40
0
 40
0
 40
1
 40
1
 40
1
 40
1
 10
247.230713
 20
369.726348
 30
0.0
 10
252.337873
 20
369.679429
 30
0.0
 10
254.180430
 20
370.635809
 30
0.0
 10
254.137744
 20
377.084934
 30
0.0
  0
SPLINE
  5
281
100
AcDbEntity
  8
Qlocktwo_blank_laser_v3
 62
5
100
AcDbSpline
 70
8
 71
3
 72
8
 73
4
 74
0
 40
0
 40
0
 40
0
 40
0
 40
1
 40
1
 40
1
 40
1
 10
254.137744
 20
377.084934
 30
0.0
 10
254.097527
 20
383.021474
 30
0.0
 10
251.844690
 20
384.180349
 30
0.0
 10
247.193671
 20
384.094976
 30
0.0
  0
LWPOLYLINE
  5
282
100
AcDbEntity
  8
Qlocktwo_blank_laser_v3
 62
5
100
AcDbPolyline
 90
4
 70
0
 10
249.880777
 20
366.618731
 30
0.0
 10
243.424596
 20
366.580279
 30
0.0
 10
243.412249
 20
369.760568
 30
0.0
 10
247.230713
 20
369.726348
 30
0.0
  0
LWPOLYLINE
  5
283
100
AcDbEntity
  8
Qlocktwo_blank_laser_v3
 62
5
100
AcDbPolyline
 90
4
 70
0
 10
247.193671
 20
384.094976
 30
0.0
 10
247.473424
 20
376.667599
 30
0.0
 10
243.522668
 20
376.678535
 30
0.0
 10
243.448232
 20
387.253393
 30
0.0
  0
SPLINE
  5
284
100
AcDbEntity
  8
Qlocktwo_blank_laser_v3
 62
5
100
AcDbSpline
 70
8
 71
3
 72
8
 73
4
 74
0
 40
0
 40
0
 40
0
 40
0
 40
1
 40
1
 40
1
 40
1
 10
212.954850
 20
278.787009
 30
0.0
 10
219.468887
 20
279.111917
 30
0.0
 10
223.513481
 20
277.201980
 30
0.0
 10
223.159292
 20
272.261683
 30
0.0
  0
SPLINE
  5
285
100
AcDbEntity
  8
Qlocktwo_blank_laser_v3
 62
5
100
AcDbSpline
 70
8
 71
3
 72
8
 73
4
 74
0
 40
0
 40
0
 40
0
 40
0
 40
1
 40
1
 40
1
 40
1
 10
223.159292
 20
272.261683
 30
0.0
 10
222.598376
 20
263.902620
 30
0.0
 10
214.732496
 20
266.359716
 30
0.0
 10
212.746711
 20
265.667919
 30
0.0
  0
LWPOLYLINE
  5
286
100
AcDbEntity
  8
Qlocktwo_blank_laser_v3
 62
5
100
AcDbPolyline
 90
2
 70
0
 10
208.860867
 20
278.787009
 30
0.0
 10
212.954850
 20
278.787009
 30
0.0
  0
SPLINE
  5
287
100
AcDbEntity
  8
Qlocktwo_blank_laser_v3
 62
5
100
AcDbSpline
 70
8
 71
3
 72
8
 73
4
 74
0
 40
0
 40
0
 40
0
 40
0
 40
1
 40
1
 40
1
 40
1
 10
212.817267
 20
268.999902
 30
0.0
 10
217.292955
 20
268.892658
 30
0.0
 10
219.055431
 20
269.187580
 30
0.0
 10
219.342239
 20
272.053897
 30
0.0
  0
SPLINE
  5
288
100
AcDbEntity
  8
Qlocktwo_blank_laser_v3
 62
5
100
AcDbSpline
 70
8
 71
3
 72
8
 73
4
 74
0
 40
0
 40
0
 40
0
 40
0
 40
1
 40
1
 40
1
 40
1
 10
219.342239
 20
272.053897
 30
0.0
 10
219.245578
 20
274.946320
 30
0.0
 10
217.254502
 20
275.705497
 30
0.0
 10
212.677920
 20
275.456084
 30
0.0
  0
LWPOLYLINE
  5
289
100
AcDbEntity
  8
Qlocktwo_blank_laser_v3
 62
5
100
AcDbPolyline
 90
5
 70
0
 10
212.746711
 20
265.667919
 30
0.0
 10
212.746711
 20
257.824264
 30
0.0
 10
208.998803
 20
257.893055
 30
0.0
 10
208.998803
 20
268.999902
 30
0.0
 10
212.817267
 20
268.999902
 30
0.0
  0
LWPOLYLINE
  5
28a
100
AcDbEntity
  8
Qlocktwo_blank_laser_v3
 62
5
100
AcDbPolyline
 90
3
 70
0
 10
212.677920
 20
275.456084
 30
0.0
 10
208.860867
 20
275.456084
 30
0.0
 10
208.860867
 20
278.787009
 30
0.0
  0
SPLINE
  5
28b
100
AcDbEntity
  8
Qlocktwo_blank_laser_v3
 62
5
100
AcDbSpline
 70
8
 71
3
 72
8
 73
4
 74
0
 40
0
 40
0
 40
0
 40
0
 40
1
 40
1
 40
1
 40
1
 10
417.136123
 20
314.962932
 30
0.0
 10
417.136123
 20
314.962932
 30
0.0
 10
419.845102
 20
314.979512
 30
0.0
 10
424.261876
 20
314.931534
 30
0.0
  0
SPLINE
  5
28c
100
AcDbEntity
  8
Qlocktwo_blank_laser_v3
 62
5
100
AcDbSpline
 70
8
 71
3
 72
8
 73
4
 74
0
 40
0
 40
0
 40
0
 40
0
 40
1
 40
1
 40
1
 40
1
 10
424.261876
 20
314.931534
 30
0.0
 10
428.679709
 20
314.881793
 30
0.0
 10
430.611871
 20
312.078975
 30
0.0
 10
430.593879
 20
309.182319
 30
0.0
  0
SPLINE
  5
28d
100
AcDbEntity
  8
Qlocktwo_blank_laser_v3
 62
5
100
AcDbSpline
 70
8
 71
3
 72
8
 73
4
 74
0
 40
0
 40
0
 40
0
 40
0
 40
1
 40
1
 40
1
 40
1
 10
430.593879
 20
309.182319
 30
0.0
 10
430.569185
 20
305.206517
 30
0.0
 10
427.673940
 20
303.685340
 30
0.0
 10
425.514589
 20
303.267651
 30
0.0
  0
SPLINE
  5
28e
100
AcDbEntity
  8
Qlocktwo_blank_laser_v3
 62
5
100
AcDbSpline
 70
8
 71
3
 72
8
 73
4
 74
0
 40
0
 40
0
 40
0
 40
0
 40
1
 40
1
 40
1
 40
1
 10
425.514589
 20
303.267651
 30
0.0
 10
428.164301
 20
301.941914
 30
0.0
 10
432.262517
 20
294.113428
 30
0.0
 10
432.262517
 20
294.113428
 30
0.0
  0
LWPOLYLINE
  5
28f
100
AcDbEntity
  8
Qlocktwo_blank_laser_v3
 62
5
100
AcDbPolyline
 90
11
 70
1
 10
102.654022
 20
258.342141
 30
0.0
 10
109.476739
 20
279.006084
 30
0.0
 10
113.402800
 20
278.957753
 30
0.0
 10
120.029726
 20
258.194680
 30
0.0
 10
115.906815
 20
258.243011
 30
0.0
 10
114.777927
 20
262.563124
 30
0.0
 10
111.293191
 20
262.513735
 30
0.0
 10
111.293191
 20
265.803033
 30
0.0
 10
113.747464
 20
265.803033
 30
0.0
 10
111.243449
 20
274.294387
 30
0.0
 10
106.432622
 20
258.292752
 30
0.0
  0
SPLINE
  5
290
100
AcDbEntity
  8
Qlocktwo_blank_laser_v3
 62
5
100
AcDbSpline
 70
8
 71
3
 72
8
 73
4
 74
0
 40
0
 40
0
 40
0
 40
0
 40
1
 40
1
 40
1
 40
1
 10
427.698634
 20
294.063686
 30
0.0
 10
424.578670
 20
298.877335
 30
0.0
 10
423.991648
 20
303.095496
 30
0.0
 10
420.728456
 20
302.801985
 30
0.0
  0
LWPOLYLINE
  5
291
100
AcDbEntity
  8
Qlocktwo_blank_laser_v3
 62
5
100
AcDbPolyline
 90
2
 70
0
 10
432.262517
 20
294.113428
 30
0.0
 10
427.698634
 20
294.063686
 30
0.0
  0
SPLINE
  5
292
100
AcDbEntity
  8
Qlocktwo_blank_laser_v3
 62
5
100
AcDbSpline
 70
8
 71
3
 72
8
 73
4
 74
0
 40
0
 40
0
 40
0
 40
0
 40
1
 40
1
 40
1
 40
1
 10
420.826529
 20
305.917716
 30
0.0
 10
423.869235
 20
305.942411
 30
0.0
 10
426.676285
 20
305.841869
 30
0.0
 10
426.618077
 20
308.716300
 30
0.0
  0
SPLINE
  5
293
100
AcDbEntity
  8
Qlocktwo_blank_laser_v3
 62
5
100
AcDbSpline
 70
8
 71
3
 72
8
 73
4
 74
0
 40
0
 40
0
 40
0
 40
0
 40
1
 40
1
 40
1
 40
1
 10
426.618077
 20
308.716300
 30
0.0
 10
426.560221
 20
311.589673
 30
0.0
 10
425.255297
 20
311.910701
 30
0.0
 10
420.913312
 20
311.804514
 30
0.0
  0
SPLINE
  5
294
100
AcDbEntity
  8
Qlocktwo_blank_laser_v3
 62
5
100
AcDbSpline
 70
8
 71
3
 72
8
 73
4
 74
0
 40
0
 40
0
 40
0
 40
0
 40
1
 40
1
 40
1
 40
1
 10
420.913312
 20
311.804514
 30
0.0
 10
420.913312
 20
311.804514
 30
0.0
 10
420.899554
 20
311.800634
 30
0.0
 10
417.095906
 20
311.830973
 30
0.0
  0
LWPOLYLINE
  5
295
100
AcDbEntity
  8
Qlocktwo_blank_laser_v3
 62
5
100
AcDbPolyline
 90
5
 70
0
 10
420.728456
 20
302.801985
 30
0.0
 10
420.776787
 20
294.113428
 30
0.0
 10
416.998187
 20
294.113428
 30
0.0
 10
416.998187
 20
305.942411
 30
0.0
 10
420.826529
 20
305.917716
 30
0.0
  0
LWPOLYLINE
  5
296
100
AcDbEntity
  8
Qlocktwo_blank_laser_v3
 62
5
100
AcDbPolyline
 90
2
 70
0
 10
417.095906
 20
311.830973
 30
0.0
 10
417.136123
 20
314.962932
 30
0.0
  0
SPLINE
  5
297
100
AcDbEntity
  8
Qlocktwo_blank_laser_v3
 62
5
100
AcDbSpline
 70
8
 71
3
 72
8
 73
4
 74
0
 40
0
 40
0
 40
0
 40
0
 40
1
 40
1
 40
1
 40
1
 10
142.064562
 20
303.568218
 30
0.0
 10
142.027520
 20
298.640269
 30
0.0
 10
143.461914
 20
297.387556
 30
0.0
 10
145.883026
 20
297.390378
 30
0.0
  0
SPLINE
  5
298
100
AcDbEntity
  8
Qlocktwo_blank_laser_v3
 62
5
100
AcDbSpline
 70
8
 71
3
 72
8
 73
4
 74
0
 40
0
 40
0
 40
0
 40
0
 40
1
 40
1
 40
1
 40
1
 10
145.883026
 20
297.390378
 30
0.0
 10
148.355290
 20
297.393200
 30
0.0
 10
149.507462
 20
298.644502
 30
0.0
 10
149.770634
 20
303.707212
 30
0.0
  0
LWPOLYLINE
  5
299
100
AcDbEntity
  8
Qlocktwo_blank_laser_v3
 62
5
100
AcDbPolyline
 90
2
 70
0
 10
138.177306
 20
303.568218
 30
0.0
 10
142.064562
 20
303.568218
 30
0.0
  0
SPLINE
  5
29a
100
AcDbEntity
  8
Qlocktwo_blank_laser_v3
 62
5
100
AcDbSpline
 70
8
 71
3
 72
8
 73
4
 74
0
 40
0
 40
0
 40
0
 40
0
 40
1
 40
1
 40
1
 40
1
 10
153.587686
 20
303.707212
 30
0.0
 10
153.419764
 20
295.933760
 30
0.0
 10
150.479011
 20
294.761127
 30
0.0
 10
146.159956
 20
293.919047
 30
0.0
  0
SPLINE
  5
29b
100
AcDbEntity
  8
Qlocktwo_blank_laser_v3
 62
5
100
AcDbSpline
 70
8
 71
3
 72
8
 73
4
 74
0
 40
0
 40
0
 40
0
 40
0
 40
1
 40
1
 40
1
 40
1
 10
146.159956
 20
293.919047
 30
0.0
 10
142.575736
 20
294.396003
 30
0.0
 10
139.010920
 20
294.522650
 30
0.0
 10
138.177306
 20
303.568218
 30
0.0
  0
LWPOLYLINE
  5
29c
100
AcDbEntity
  8
Qlocktwo_blank_laser_v3
 62
5
100
AcDbPolyline
 90
2
 70
0
 10
149.770634
 20
303.707212
 30
0.0
 10
153.587686
 20
303.707212
 30
0.0
  0
LWPOLYLINE
  5
29d
100
AcDbEntity
  8
Qlocktwo_blank_laser_v3
 62
5
100
AcDbPolyline
 90
1
 70
1
 10
138.177306
 20
303.568218
 30
0.0
  0
SPLINE
  5
29e
100
AcDbEntity
  8
Qlocktwo_blank_laser_v3
 62
5
100
AcDbSpline
 70
8
 71
3
 72
8
 73
4
 74
0
 40
0
 40
0
 40
0
 40
0
 40
1
 40
1
 40
1
 40
1
 10
142.129473
 20
305.822466
 30
0.0
 10
142.092079
 20
310.750415
 30
0.0
 10
143.526825
 20
312.003128
 30
0.0
 10
145.946526
 20
312.001717
 30
0.0
  0
SPLINE
  5
29f
100
AcDbEntity
  8
Qlocktwo_blank_laser_v3
 62
5
100
AcDbSpline
 70
8
 71
3
 72
8
 73
4
 74
0
 40
0
 40
0
 40
0
 40
0
 40
1
 40
1
 40
1
 40
1
 10
145.946526
 20
312.001717
 30
0.0
 10
148.420201
 20
311.998895
 30
0.0
 10
149.572020
 20
310.746182
 30
0.0
 10
149.834134
 20
305.684883
 30
0.0
  0
LWPOLYLINE
  5
2a0
100
AcDbEntity
  8
Qlocktwo_blank_laser_v3
 62
5
100
AcDbPolyline
 90
2
 70
0
 10
138.241865
 20
305.822466
 30
0.0
 10
142.129473
 20
305.822466
 30
0.0
  0
SPLINE
  5
2a1
100
AcDbEntity
  8
Qlocktwo_blank_laser_v3
 62
5
100
AcDbSpline
 70
8
 71
3
 72
8
 73
4
 74
0
 40
0
 40
0
 40
0
 40
0
 40
1
 40
1
 40
1
 40
1
 10
153.652598
 20
305.684883
 30
0.0
 10
153.484323
 20
313.458335
 30
0.0
 10
150.543569
 20
314.629557
 30
0.0
 10
146.224867
 20
315.471637
 30
0.0
  0
SPLINE
  5
2a2
100
AcDbEntity
  8
Qlocktwo_blank_laser_v3
 62
5
100
AcDbSpline
 70
8
 71
3
 72
8
 73
4
 74
0
 40
0
 40
0
 40
0
 40
0
 40
1
 40
1
 40
1
 40
1
 10
146.224867
 20
315.471637
 30
0.0
 10
142.640648
 20
314.994681
 30
0.0
 10
139.075478
 20
314.869445
 30
0.0
 10
138.241865
 20
305.822466
 30
0.0
  0
LWPOLYLINE
  5
2a3
100
AcDbEntity
  8
Qlocktwo_blank_laser_v3
 62
5
100
AcDbPolyline
 90
2
 70
0
 10
149.834134
 20
305.684883
 30
0.0
 10
153.652598
 20
305.684883
 30
0.0
  0
LWPOLYLINE
  5
2a4
100
AcDbEntity
  8
Qlocktwo_blank_laser_v3
 62
5
100
AcDbPolyline
 90
1
 70
1
 10
138.241865
 20
305.822466
 30
0.0
  0
SPLINE
  5
2a5
100
AcDbEntity
  8
Qlocktwo_blank_laser_v3
 62
5
100
AcDbSpline
 70
8
 71
3
 72
8
 73
4
 74
0
 40
0
 40
0
 40
0
 40
0
 40
1
 40
1
 40
1
 40
1
 10
315.600758
 20
303.635598
 30
0.0
 10
315.563717
 20
298.707649
 30
0.0
 10
316.998110
 20
297.455289
 30
0.0
 10
319.419222
 20
297.457759
 30
0.0
  0
SPLINE
  5
2a6
100
AcDbEntity
  8
Qlocktwo_blank_laser_v3
 62
5
100
AcDbSpline
 70
8
 71
3
 72
8
 73
4
 74
0
 40
0
 40
0
 40
0
 40
0
 40
1
 40
1
 40
1
 40
1
 10
319.419222
 20
297.457759
 30
0.0
 10
321.891487
 20
297.460581
 30
0.0
 10
323.043658
 20
298.711883
 30
0.0
 10
323.306830
 20
303.774946
 30
0.0
  0
LWPOLYLINE
  5
2a7
100
AcDbEntity
  8
Qlocktwo_blank_laser_v3
 62
5
100
AcDbPolyline
 90
2
 70
0
 10
311.713503
 20
303.635598
 30
0.0
 10
315.600758
 20
303.635598
 30
0.0
  0
SPLINE
  5
2a8
100
AcDbEntity
  8
Qlocktwo_blank_laser_v3
 62
5
100
AcDbSpline
 70
8
 71
3
 72
8
 73
4
 74
0
 40
0
 40
0
 40
0
 40
0
 40
1
 40
1
 40
1
 40
1
 10
327.123883
 20
303.774946
 30
0.0
 10
326.955961
 20
296.001140
 30
0.0
 10
324.015207
 20
294.828508
 30
0.0
 10
319.696505
 20
293.986781
 30
0.0
  0
SPLINE
  5
2a9
100
AcDbEntity
  8
Qlocktwo_blank_laser_v3
 62
5
100
AcDbSpline
 70
8
 71
3
 72
8
 73
4
 74
0
 40
0
 40
0
 40
0
 40
0
 40
1
 40
1
 40
1
 40
1
 10
319.696505
 20
293.986781
 30
0.0
 10
316.111933
 20
294.463383
 30
0.0
 10
312.548527
 20
294.590030
 30
0.0
 10
311.713503
 20
303.635598
 30
0.0
  0
LWPOLYLINE
  5
2aa
100
AcDbEntity
  8
Qlocktwo_blank_laser_v3
 62
5
100
AcDbPolyline
 90
2
 70
0
 10
323.306830
 20
303.774946
 30
0.0
 10
327.123883
 20
303.774946
 30
0.0
  0
LWPOLYLINE
  5
2ab
100
AcDbEntity
  8
Qlocktwo_blank_laser_v3
 62
5
100
AcDbPolyline
 90
1
 70
1
 10
311.713503
 20
303.635598
 30
0.0
  0
SPLINE
  5
2ac
100
AcDbEntity
  8
Qlocktwo_blank_laser_v3
 62
5
100
AcDbSpline
 70
8
 71
3
 72
8
 73
4
 74
0
 40
0
 40
0
 40
0
 40
0
 40
1
 40
1
 40
1
 40
1
 10
315.665669
 20
305.890200
 30
0.0
 10
315.628275
 20
310.817796
 30
0.0
 10
317.063021
 20
312.070509
 30
0.0
 10
319.484133
 20
312.069098
 30
0.0
  0
SPLINE
  5
2ad
100
AcDbEntity
  8
Qlocktwo_blank_laser_v3
 62
5
100
AcDbSpline
 70
8
 71
3
 72
8
 73
4
 74
0
 40
0
 40
0
 40
0
 40
0
 40
1
 40
1
 40
1
 40
1
 10
319.484133
 20
312.069098
 30
0.0
 10
321.956398
 20
312.066628
 30
0.0
 10
323.108216
 20
310.813915
 30
0.0
 10
323.370330
 20
305.752263
 30
0.0
  0
LWPOLYLINE
  5
2ae
100
AcDbEntity
  8
Qlocktwo_blank_laser_v3
 62
5
100
AcDbPolyline
 90
2
 70
0
 10
311.778061
 20
305.890200
 30
0.0
 10
315.665669
 20
305.890200
 30
0.0
  0
SPLINE
  5
2af
100
AcDbEntity
  8
Qlocktwo_blank_laser_v3
 62
5
100
AcDbSpline
 70
8
 71
3
 72
8
 73
4
 74
0
 40
0
 40
0
 40
0
 40
0
 40
1
 40
1
 40
1
 40
1
 10
327.188794
 20
305.752263
 30
0.0
 10
327.020519
 20
313.525716
 30
0.0
 10
324.079766
 20
314.697290
 30
0.0
 10
319.761063
 20
315.539017
 30
0.0
  0
SPLINE
  5
2b0
100
AcDbEntity
  8
Qlocktwo_blank_laser_v3
 62
5
100
AcDbSpline
 70
8
 71
3
 72
8
 73
4
 74
0
 40
0
 40
0
 40
0
 40
0
 40
1
 40
1
 40
1
 40
1
 10
319.761063
 20
315.539017
 30
0.0
 10
316.176844
 20
315.062415
 30
0.0
 10
312.612027
 20
314.936826
 30
0.0
 10
311.778061
 20
305.890200
 30
0.0
  0
LWPOLYLINE
  5
2b1
100
AcDbEntity
  8
Qlocktwo_blank_laser_v3
 62
5
100
AcDbPolyline
 90
2
 70
0
 10
323.370330
 20
305.752263
 30
0.0
 10
327.188794
 20
305.752263
 30
0.0
  0
SPLINE
  5
2b2
100
AcDbEntity
  8
Qlocktwo_blank_laser_v3
 62
5
100
AcDbSpline
 70
8
 71
3
 72
8
 73
4
 74
0
 40
0
 40
0
 40
0
 40
0
 40
1
 40
1
 40
1
 40
1
 10
38.999907
 20
460.500235
 30
0.0
 10
38.999907
 20
459.119464
 30
0.0
 10
37.880896
 20
458.000454
 30
0.0
 10
36.500125
 20
458.000454
 30
0.0
  0
SPLINE
  5
2b3
100
AcDbEntity
  8
Qlocktwo_blank_laser_v3
 62
5
100
AcDbSpline
 70
8
 71
3
 72
8
 73
4
 74
0
 40
0
 40
0
 40
0
 40
0
 40
1
 40
1
 40
1
 40
1
 10
36.500125
 20
458.000454
 30
0.0
 10
35.119354
 20
458.000454
 30
0.0
 10
34.000344
 20
459.119464
 30
0.0
 10
34.000344
 20
460.500235
 30
0.0
  0
SPLINE
  5
2b4
100
AcDbEntity
  8
Qlocktwo_blank_laser_v3
 62
5
100
AcDbSpline
 70
8
 71
3
 72
8
 73
4
 74
0
 40
0
 40
0
 40
0
 40
0
 40
1
 40
1
 40
1
 40
1
 10
34.000344
 20
460.500235
 30
0.0
 10
34.000344
 20
461.881006
 30
0.0
 10
35.119354
 20
463.001428
 30
0.0
 10
36.500125
 20
463.001428
 30
0.0
  0
SPLINE
  5
2b5
100
AcDbEntity
  8
Qlocktwo_blank_laser_v3
 62
5
100
AcDbSpline
 70
8
 71
3
 72
8
 73
4
 74
0
 40
0
 40
0
 40
0
 40
0
 40
1
 40
1
 40
1
 40
1
 10
36.500125
 20
463.001428
 30
0.0
 10
37.880896
 20
463.001428
 30
0.0
 10
38.999907
 20
461.881006
 30
0.0
 10
38.999907
 20
460.500235
 30
0.0
  0
SPLINE
  5
2b6
100
AcDbEntity
  8
Qlocktwo_blank_laser_v3
 62
5
100
AcDbSpline
 70
8
 71
3
 72
8
 73
4
 74
0
 40
0
 40
0
 40
0
 40
0
 40
1
 40
1
 40
1
 40
1
 10
38.999907
 20
40.500970
 30
0.0
 10
38.999907
 20
39.119846
 30
0.0
 10
37.880896
 20
38.001188
 30
0.0
 10
36.500125
 20
38.001188
 30
0.0
  0
SPLINE
  5
2b7
100
AcDbEntity
  8
Qlocktwo_blank_laser_v3
 62
5
100
AcDbSpline
 70
8
 71
3
 72
8
 73
4
 74
0
 40
0
 40
0
 40
0
 40
0
 40
1
 40
1
 40
1
 40
1
 10
36.500125
 20
38.001188
 30
0.0
 10
35.119354
 20
38.001188
 30
0.0
 10
34.000344
 20
39.119846
 30
0.0
 10
34.000344
 20
40.500970
 30
0.0
  0
SPLINE
  5
2b8
100
AcDbEntity
  8
Qlocktwo_blank_laser_v3
 62
5
100
AcDbSpline
 70
8
 71
3
 72
8
 73
4
 74
0
 40
0
 40
0
 40
0
 40
0
 40
1
 40
1
 40
1
 40
1
 10
34.000344
 20
40.500970
 30
0.0
 10
34.000344
 20
41.881741
 30
0.0
 10
35.119354
 20
43.000399
 30
0.0
 10
36.500125
 20
43.000399
 30
0.0
  0
SPLINE
  5
2b9
100
AcDbEntity
  8
Qlocktwo_blank_laser_v3
 62
5
100
AcDbSpline
 70
8
 71
3
 72
8
 73
4
 74
0
 40
0
 40
0
 40
0
 40
0
 40
1
 40
1
 40
1
 40
1
 10
36.500125
 20
43.000399
 30
0.0
 10
37.880896
 20
43.000399
 30
0.0
 10
38.999907
 20
41.881741
 30
0.0
 10
38.999907
 20
40.500970
 30
0.0
  0
SPLINE
  5
2ba
100
AcDbEntity
  8
Qlocktwo_blank_laser_v3
 62
5
100
AcDbSpline
 70
8
 71
3
 72
8
 73
4
 74
0
 40
0
 40
0
 40
0
 40
0
 40
1
 40
1
 40
1
 40
1
 10
465.999689
 20
40.500970
 30
0.0
 10
465.999689
 20
39.119846
 30
0.0
 10
464.880679
 20
38.001188
 30
0.0
 10
463.499907
 20
38.001188
 30
0.0
  0
SPLINE
  5
2bb
100
AcDbEntity
  8
Qlocktwo_blank_laser_v3
 62
5
100
AcDbSpline
 70
8
 71
3
 72
8
 73
4
 74
0
 40
0
 40
0
 40
0
 40
0
 40
1
 40
1
 40
1
 40
1
 10
463.499907
 20
38.001188
 30
0.0
 10
462.119136
 20
38.001188
 30
0.0
 10
461.000126
 20
39.119846
 30
0.0
 10
461.000126
 20
40.500970
 30
0.0
  0
SPLINE
  5
2bc
100
AcDbEntity
  8
Qlocktwo_blank_laser_v3
 62
5
100
AcDbSpline
 70
8
 71
3
 72
8
 73
4
 74
0
 40
0
 40
0
 40
0
 40
0
 40
1
 40
1
 40
1
 40
1
 10
461.000126
 20
40.500970
 30
0.0
 10
461.000126
 20
41.881741
 30
0.0
 10
462.119136
 20
43.000399
 30
0.0
 10
463.499907
 20
43.000399
 30
0.0
  0
SPLINE
  5
2bd
100
AcDbEntity
  8
Qlocktwo_blank_laser_v3
 62
5
100
AcDbSpline
 70
8
 71
3
 72
8
 73
4
 74
0
 40
0
 40
0
 40
0
 40
0
 40
1
 40
1
 40
1
 40
1
 10
463.499907
 20
43.000399
 30
0.0
 10
464.880679
 20
43.000399
 30
0.0
 10
465.999689
 20
41.881741
 30
0.0
 10
465.999689
 20
40.500970
 30
0.0
  0
SPLINE
  5
2be
100
AcDbEntity
  8
Qlocktwo_blank_laser_v3
 62
5
100
AcDbSpline
 70
8
 71
3
 72
8
 73
4
 74
0
 40
0
 40
0
 40
0
 40
0
 40
1
 40
1
 40
1
 40
1
 10
465.999689
 20
461.500712
 30
0.0
 10
465.999689
 20
460.119941
 30
0.0
 10
464.880679
 20
459.000931
 30
0.0
 10
463.499907
 20
459.000931
 30
0.0
  0
SPLINE
  5
2bf
100
AcDbEntity
  8
Qlocktwo_blank_laser_v3
 62
5
100
AcDbSpline
 70
8
 71
3
 72
8
 73
4
 74
0
 40
0
 40
0
 40
0
 40
0
 40
1
 40
1
 40
1
 40
1
 10
463.499907
 20
459.000931
 30
0.0
 10
462.119136
 20
459.000931
 30
0.0
 10
461.000126
 20
460.119941
 30
0.0
 10
461.000126
 20
461.500712
 30
0.0
  0
SPLINE
  5
2c0
100
AcDbEntity
  8
Qlocktwo_blank_laser_v3
 62
5
100
AcDbSpline
 70
8
 71
3
 72
8
 73
4
 74
0
 40
0
 40
0
 40
0
 40
0
 40
1
 40
1
 40
1
 40
1
 10
461.000126
 20
461.500712
 30
0.0
 10
461.000126
 20
462.881483
 30
0.0
 10
462.119136
 20
464.000494
 30
0.0
 10
463.499907
 20
464.000494
 30
0.0
  0
SPLINE
  5
2c1
100
AcDbEntity
  8
Qlocktwo_blank_laser_v3
 62
5
100
AcDbSpline
 70
8
 71
3
 72
8
 73
4
 74
0
 40
0
 40
0
 40
0
 40
0
 40
1
 40
1
 40
1
 40
1
 10
463.499907
 20
464.000494
 30
0.0
 10
464.880679
 20
464.000494
 30
0.0
 10
465.999689
 20
462.881483
 30
0.0
 10
465.999689
 20
461.500712
 30
0.0
  0
SPLINE
  5
2c2
100
AcDbEntity
  8
Qlocktwo_blank_laser_v3
 62
5
100
AcDbSpline
 70
8
 71
3
 72
8
 73
4
 74
0
 40
0
 40
0
 40
0
 40
0
 40
1
 40
1
 40
1
 40
1
 10
312.982444
 20
351.172368
 30
0.0
 10
312.982444
 20
351.172368
 30
0.0
 10
313.400132
 20
351.256329
 30
0.0
 10
316.810785
 20
351.197062
 30
0.0
  0
SPLINE
  5
2c3
100
AcDbEntity
  8
Qlocktwo_blank_laser_v3
 62
5
100
AcDbSpline
 70
8
 71
3
 72
8
 73
4
 74
0
 40
0
 40
0
 40
0
 40
0
 40
1
 40
1
 40
1
 40
1
 10
316.810785
 20
351.197062
 30
0.0
 10
321.081157
 20
351.124037
 30
0.0
 10
325.949839
 20
351.687776
 30
0.0
 10
326.603183
 20
345.895875
 30
0.0
  0
SPLINE
  5
2c4
100
AcDbEntity
  8
Qlocktwo_blank_laser_v3
 62
5
100
AcDbSpline
 70
8
 71
3
 72
8
 73
4
 74
0
 40
0
 40
0
 40
0
 40
0
 40
1
 40
1
 40
1
 40
1
 10
326.603183
 20
345.895875
 30
0.0
 10
326.505111
 20
343.318835
 30
0.0
 10
325.069307
 20
342.266147
 30
0.0
 10
323.583761
 20
341.454406
 30
0.0
  0
SPLINE
  5
2c5
100
AcDbEntity
  8
Qlocktwo_blank_laser_v3
 62
5
100
AcDbSpline
 70
8
 71
3
 72
8
 73
4
 74
0
 40
0
 40
0
 40
0
 40
0
 40
1
 40
1
 40
1
 40
1
 10
323.583761
 20
341.454406
 30
0.0
 10
325.385042
 20
341.024370
 30
0.0
 10
327.570499
 20
339.663002
 30
0.0
 10
327.608952
 20
336.373704
 30
0.0
  0
SPLINE
  5
2c6
100
AcDbEntity
  8
Qlocktwo_blank_laser_v3
 62
5
100
AcDbSpline
 70
8
 71
3
 72
8
 73
4
 74
0
 40
0
 40
0
 40
0
 40
0
 40
1
 40
1
 40
1
 40
1
 10
327.608952
 20
336.373704
 30
0.0
 10
326.798622
 20
330.558167
 30
0.0
 10
323.583761
 20
330.484084
 30
0.0
 10
316.565605
 20
330.459036
 30
0.0
  0
LWPOLYLINE
  5
2c7
100
AcDbEntity
  8
Qlocktwo_blank_laser_v3
 62
5
100
AcDbPolyline
 90
1
 70
1
 10
311.778061
 20
305.890200
 30
0.0
  0
SPLINE
  5
2c8
100
AcDbEntity
  8
Qlocktwo_blank_laser_v3
 62
5
100
AcDbSpline
 70
8
 71
3
 72
8
 73
4
 74
0
 40
0
 40
0
 40
0
 40
0
 40
1
 40
1
 40
1
 40
1
 10
316.737760
 20
333.650615
 30
0.0
 10
320.983437
 20
333.664373
 30
0.0
 10
323.658197
 20
333.503154
 30
0.0
 10
323.658197
 20
336.718015
 30
0.0
  0
SPLINE
  5
2c9
100
AcDbEntity
  8
Qlocktwo_blank_laser_v3
 62
5
100
AcDbSpline
 70
8
 71
3
 72
8
 73
4
 74
0
 40
0
 40
0
 40
0
 40
0
 40
1
 40
1
 40
1
 40
1
 10
323.658197
 20
336.718015
 30
0.0
 10
323.658197
 20
339.886310
 30
0.0
 10
320.222849
 20
339.588566
 30
0.0
 10
316.737760
 20
339.540235
 30
0.0
  0
LWPOLYLINE
  5
2ca
100
AcDbEntity
  8
Qlocktwo_blank_laser_v3
 62
5
100
AcDbPolyline
 90
4
 70
0
 10
316.565605
 20
330.459036
 30
0.0
 10
313.000435
 20
330.511600
 30
0.0
 10
312.975741
 20
333.674251
 30
0.0
 10
316.737760
 20
333.650615
 30
0.0
  0
SPLINE
  5
2cb
100
AcDbEntity
  8
Qlocktwo_blank_laser_v3
 62
5
100
AcDbSpline
 70
8
 71
3
 72
8
 73
4
 74
0
 40
0
 40
0
 40
0
 40
0
 40
1
 40
1
 40
1
 40
1
 10
316.663324
 20
342.780144
 30
0.0
 10
321.412062
 20
342.682424
 30
0.0
 10
322.751558
 20
342.921960
 30
0.0
 10
322.847867
 20
345.430208
 30
0.0
  0
SPLINE
  5
2cc
100
AcDbEntity
  8
Qlocktwo_blank_laser_v3
 62
5
100
AcDbSpline
 70
8
 71
3
 72
8
 73
4
 74
0
 40
0
 40
0
 40
0
 40
0
 40
1
 40
1
 40
1
 40
1
 10
322.847867
 20
345.430208
 30
0.0
 10
322.685236
 20
347.764537
 30
0.0
 10
321.103382
 20
348.084154
 30
0.0
 10
316.737760
 20
347.957507
 30
0.0
  0
LWPOLYLINE
  5
2cd
100
AcDbEntity
  8
Qlocktwo_blank_laser_v3
 62
5
100
AcDbPolyline
 90
4
 70
0
 10
316.737760
 20
339.540235
 30
0.0
 10
312.982444
 20
339.515541
 30
0.0
 10
313.007491
 20
342.755449
 30
0.0
 10
316.663324
 20
342.780144
 30
0.0
  0
LWPOLYLINE
  5
2ce
100
AcDbEntity
  8
Qlocktwo_blank_laser_v3
 62
5
100
AcDbPolyline
 90
3
 70
0
 10
316.737760
 20
347.957507
 30
0.0
 10
313.055468
 20
347.957507
 30
0.0
 10
312.982444
 20
351.172368
 30
0.0
  0
SPLINE
  5
2cf
100
AcDbEntity
  8
Qlocktwo_blank_laser_v3
 62
5
100
AcDbSpline
 70
8
 71
3
 72
8
 73
4
 74
0
 40
0
 40
0
 40
0
 40
0
 40
1
 40
1
 40
1
 40
1
 10
107.320210
 20
303.551637
 30
0.0
 10
107.282816
 20
298.623688
 30
0.0
 10
108.717562
 20
297.370975
 30
0.0
 10
111.138674
 20
297.373798
 30
0.0
  0
SPLINE
  5
2d0
100
AcDbEntity
  8
Qlocktwo_blank_laser_v3
 62
5
100
AcDbSpline
 70
8
 71
3
 72
8
 73
4
 74
0
 40
0
 40
0
 40
0
 40
0
 40
1
 40
1
 40
1
 40
1
 10
111.138674
 20
297.373798
 30
0.0
 10
113.610939
 20
297.375209
 30
0.0
 10
114.762758
 20
298.627922
 30
0.0
 10
115.024871
 20
303.689221
 30
0.0
  0
LWPOLYLINE
  5
2d1
100
AcDbEntity
  8
Qlocktwo_blank_laser_v3
 62
5
100
AcDbPolyline
 90
2
 70
0
 10
103.432602
 20
303.551637
 30
0.0
 10
107.320210
 20
303.551637
 30
0.0
  0
SPLINE
  5
2d2
100
AcDbEntity
  8
Qlocktwo_blank_laser_v3
 62
5
100
AcDbSpline
 70
8
 71
3
 72
8
 73
4
 74
0
 40
0
 40
0
 40
0
 40
0
 40
1
 40
1
 40
1
 40
1
 10
118.843335
 20
303.689221
 30
0.0
 10
118.675060
 20
295.915768
 30
0.0
 10
115.734307
 20
294.744547
 30
0.0
 10
111.415605
 20
293.902467
 30
0.0
  0
SPLINE
  5
2d3
100
AcDbEntity
  8
Qlocktwo_blank_laser_v3
 62
5
100
AcDbSpline
 70
8
 71
3
 72
8
 73
4
 74
0
 40
0
 40
0
 40
0
 40
0
 40
1
 40
1
 40
1
 40
1
 10
111.415605
 20
293.902467
 30
0.0
 10
107.831385
 20
294.379422
 30
0.0
 10
104.266568
 20
294.504658
 30
0.0
 10
103.432602
 20
303.551637
 30
0.0
  0
LWPOLYLINE
  5
2d4
100
AcDbEntity
  8
Qlocktwo_blank_laser_v3
 62
5
100
AcDbPolyline
 90
2
 70
0
 10
115.024871
 20
303.689221
 30
0.0
 10
118.843335
 20
303.689221
 30
0.0
  0
LWPOLYLINE
  5
2d5
100
AcDbEntity
  8
Qlocktwo_blank_laser_v3
 62
5
100
AcDbPolyline
 90
1
 70
1
 10
103.432602
 20
303.551637
 30
0.0
  0
SPLINE
  5
2d6
100
AcDbEntity
  8
Qlocktwo_blank_laser_v3
 62
5
100
AcDbSpline
 70
8
 71
3
 72
8
 73
4
 74
0
 40
0
 40
0
 40
0
 40
0
 40
1
 40
1
 40
1
 40
1
 10
107.384769
 20
305.805886
 30
0.0
 10
107.347727
 20
310.733835
 30
0.0
 10
108.782120
 20
311.986548
 30
0.0
 10
111.202174
 20
311.983725
 30
0.0
  0
SPLINE
  5
2d7
100
AcDbEntity
  8
Qlocktwo_blank_laser_v3
 62
5
100
AcDbSpline
 70
8
 71
3
 72
8
 73
4
 74
0
 40
0
 40
0
 40
0
 40
0
 40
1
 40
1
 40
1
 40
1
 10
111.202174
 20
311.983725
 30
0.0
 10
113.674439
 20
311.982314
 30
0.0
 10
114.827669
 20
310.729601
 30
0.0
 10
115.089430
 20
305.666891
 30
0.0
  0
LWPOLYLINE
  5
2d8
100
AcDbEntity
  8
Qlocktwo_blank_laser_v3
 62
5
100
AcDbPolyline
 90
2
 70
0
 10
103.497513
 20
305.805886
 30
0.0
 10
107.384769
 20
305.805886
 30
0.0
  0
SPLINE
  5
2d9
100
AcDbEntity
  8
Qlocktwo_blank_laser_v3
 62
5
100
AcDbSpline
 70
8
 71
3
 72
8
 73
4
 74
0
 40
0
 40
0
 40
0
 40
0
 40
1
 40
1
 40
1
 40
1
 10
118.907893
 20
305.666891
 30
0.0
 10
118.739971
 20
313.441755
 30
0.0
 10
115.799218
 20
314.612976
 30
0.0
 10
111.480516
 20
315.455056
 30
0.0
  0
SPLINE
  5
2da
100
AcDbEntity
  8
Qlocktwo_blank_laser_v3
 62
5
100
AcDbSpline
 70
8
 71
3
 72
8
 73
4
 74
0
 40
0
 40
0
 40
0
 40
0
 40
1
 40
1
 40
1
 40
1
 10
111.480516
 20
315.455056
 30
0.0
 10
107.896296
 20
314.978101
 30
0.0
 10
104.331127
 20
314.851454
 30
0.0
 10
103.497513
 20
305.805886
 30
0.0
  0
LWPOLYLINE
  5
2db
100
AcDbEntity
  8
Qlocktwo_blank_laser_v3
 62
5
100
AcDbPolyline
 90
2
 70
0
 10
115.089430
 20
305.666891
 30
0.0
 10
118.907893
 20
305.666891
 30
0.0
  0
LWPOLYLINE
  5
2dc
100
AcDbEntity
  8
Qlocktwo_blank_laser_v3
 62
5
100
AcDbPolyline
 90
1
 70
1
 10
103.497513
 20
305.805886
 30
0.0
  0
LWPOLYLINE
  5
2dd
100
AcDbEntity
  8
Qlocktwo_blank_laser_v3
 62
5
100
AcDbPolyline
 90
11
 70
1
 10
206.446458
 20
366.560876
 30
0.0
 10
213.269175
 20
387.224466
 30
0.0
 10
217.195236
 20
387.176488
 30
0.0
 10
223.822161
 20
366.413415
 30
0.0
 10
219.699250
 20
366.463156
 30
0.0
 10
218.568951
 20
370.781859
 30
0.0
 10
215.085273
 20
370.732117
 30
0.0
 10
215.085273
 20
374.021767
 30
0.0
 10
217.539546
 20
374.021767
 30
0.0
 10
215.035884
 20
382.513122
 30
0.0
 10
210.225057
 20
366.511487
 30
0.0
  0
LWPOLYLINE
  5
2de
100
AcDbEntity
  8
Qlocktwo_blank_laser_v3
 62
5
100
AcDbPolyline
 90
11
 70
1
 10
415.073080
 20
330.439986
 30
0.0
 10
421.895797
 20
351.104987
 30
0.0
 10
425.821858
 20
351.055246
 30
0.0
 10
432.448784
 20
330.293584
 30
0.0
 10
428.325520
 20
330.341914
 30
0.0
 10
427.195574
 20
334.662028
 30
0.0
 10
423.710485
 20
334.612639
 30
0.0
 10
423.710485
 20
337.900525
 30
0.0
 10
426.164758
 20
337.900525
 30
0.0
 10
423.662507
 20
346.391880
 30
0.0
 10
418.851680
 20
330.391656
 30
0.0
  0
LWPOLYLINE
  5
2df
100
AcDbEntity
  8
Qlocktwo_blank_laser_v3
 62
5
100
AcDbPolyline
 90
4
 70
1
 10
0.549980
 20
500.450877
 30
0.0
 10
500.449471
 20
500.450877
 30
0.0
 10
500.449471
 20
0.551386
 30
0.0
 10
0.549980
 20
0.551386
 30
0.0
  0
ENDSEC
  0
SECTION
  2
OBJECTS
  0
DICTIONARY
  5
C
330
0
100
AcDbDictionary
  3
ACAD_GROUP
350
D
  3
ACAD_MLINESTYLE
350
17
  0
DICTIONARY
  5
D
330
C
100
AcDbDictionary
  0
DICTIONARY
  5
1A
330
C
100
AcDbDictionary
  0
DICTIONARY
  5
17
330
C
100
AcDbDictionary
  3
STANDARD
350
18
  0
DICTIONARY
  5
19
330
C
100
AcDbDictionary
  0
ENDSEC
  0
EOF
