<?xml version="1.0" encoding="UTF-8" standalone="no"?>
<svg
   version="1.1"
   id="svg10"
   xml:space="preserve"
   width="500mm"
   height="500mm"
   viewBox="0 0 1889.7638 1889.7638"
   sodipodi:docname="Qlocktwo_blank_laser.svg"
   inkscape:version="1.1 (c68e22c387, 2021-05-23)"
   inkscape:export-filename="/Users/gert/OneDrive/github/NeoWordClock/images/Qlocktwo_blank.png"
   inkscape:export-xdpi="150"
   inkscape:export-ydpi="150"
   xmlns:inkscape="http://www.inkscape.org/namespaces/inkscape"
   xmlns:sodipodi="http://sodipodi.sourceforge.net/DTD/sodipodi-0.dtd"
   xmlns="http://www.w3.org/2000/svg"
   xmlns:svg="http://www.w3.org/2000/svg"
   xmlns:rdf="http://www.w3.org/1999/02/22-rdf-syntax-ns#"
   xmlns:cc="http://creativecommons.org/ns#"
   xmlns:dc="http://purl.org/dc/elements/1.1/"><metadata
     id="metadata16"><rdf:RDF><cc:Work
         rdf:about=""><dc:format>image/svg+xml</dc:format><dc:type
           rdf:resource="http://purl.org/dc/dcmitype/StillImage" /></cc:Work></rdf:RDF></metadata><defs
     id="defs14"><clipPath
       clipPathUnits="userSpaceOnUse"
       id="clipPath48"><path
         d="M 0,1275.59 H 1275.59 V 0 H 0 Z"
         id="path46" /></clipPath></defs><sodipodi:namedview
     pagecolor="#ffffff"
     bordercolor="#666666"
     borderopacity="1"
     objecttolerance="10"
     gridtolerance="10"
     guidetolerance="10"
     inkscape:pageopacity="0.70980392"
     inkscape:pageshadow="2"
     inkscape:window-width="2560"
     inkscape:window-height="1377"
     id="namedview12"
     showgrid="false"
     inkscape:zoom="0.33690291"
     inkscape:cx="620.35677"
     inkscape:cy="936.47158"
     inkscape:window-x="-8"
     inkscape:window-y="-8"
     inkscape:window-maximized="1"
     inkscape:current-layer="g18"
     inkscape:snap-grids="false"
     inkscape:snap-to-guides="false"
     inkscape:document-units="mm"
     units="mm"
     inkscape:pagecheckerboard="0" /><g
     id="g18"
     inkscape:groupmode="layer"
     inkscape:label="Qlocktwo_blank"
     transform="matrix(1.3333333,0,0,-1.3333333,0,1700.7867)"><text
       transform="scale(1,-1)"
       style="font-style:normal;font-variant:normal;font-weight:bold;font-stretch:normal;font-size:82px;font-family:'Arial monospaced for SAP';-inkscape-font-specification:'Arial monospaced for SAP, Bold';font-variant-ligatures:no-common-ligatures;font-variant-caps:normal;font-variant-numeric:normal;font-variant-east-asian:normal;writing-mode:lr-tb;fill:none;fill-opacity:1;fill-rule:nonzero;stroke:#000000;stroke-opacity:1"
       id="text40"
       x="192.21759"
       y="-997.12836"><tspan
         sodipodi:role="line"
         id="tspan144"
         x="192.21759"
         y="-997.12836">H E T M I S E V I J F</tspan><tspan
         sodipodi:role="line"
         id="tspan146"
         x="192.21759"
         y="-894.62836">T I E N A D K W A R T</tspan><tspan
         sodipodi:role="line"
         id="tspan148"
         x="192.21759"
         y="-792.12836">T W I N T I G B Y N A</tspan><tspan
         sodipodi:role="line"
         id="tspan150"
         x="192.21759"
         y="-689.62836">V O O R H A P O V E R</tspan><tspan
         sodipodi:role="line"
         id="tspan152"
         x="192.21759"
         y="-587.12836">H A L F P I N E E N G</tspan><tspan
         sodipodi:role="line"
         id="tspan154"
         x="192.21759"
         y="-484.62836">T W E E E S S D R I E</tspan><tspan
         sodipodi:role="line"
         id="tspan156"
         x="192.21759"
         y="-382.12836">V I E R V I J F Z E S</tspan><tspan
         sodipodi:role="line"
         id="tspan158"
         x="192.21759"
         y="-279.62836">Z E V E N E N E G E N</tspan><tspan
         sodipodi:role="line"
         id="tspan160"
         x="192.21759"
         y="-177.12836">A C H T T I E N E L F</tspan><tspan
         sodipodi:role="line"
         id="tspan162"
         x="192.21759"
         y="-74.628357">T W A A L F R T U U R</tspan></text><g
       id="g50"
       transform="matrix(2.2904377,0,0,2.2904377,110.55118,1160.7869)"
       style="fill:none;fill-opacity:0;stroke:#000000;stroke-opacity:1"><path
         d="m 0,0 c 0,-1.709 -1.385,-3.094 -3.094,-3.094 -1.709,0 -3.094,1.385 -3.094,3.094 0,1.709 1.385,3.094 3.094,3.094 C -1.385,3.094 0,1.709 0,0"
         style="fill:none;fill-opacity:0;fill-rule:nonzero;stroke:#000000;stroke-opacity:1"
         id="path52" /></g><g
       id="g54"
       transform="matrix(2.2904377,0,0,2.2904377,110.55119,-29.76431)"
       style="fill:none;fill-opacity:0;stroke:#000000;stroke-opacity:1"><path
         d="m 0,0 c 0,-1.709 -1.385,-3.094 -3.094,-3.094 -1.709,0 -3.094,1.385 -3.094,3.094 0,1.709 1.385,3.094 3.094,3.094 C -1.385,3.094 0,1.709 0,0"
         style="fill:none;fill-opacity:0;fill-rule:nonzero;stroke:#000000;stroke-opacity:1"
         id="path56" /></g><g
       id="g58"
       transform="matrix(2.2904377,0,0,2.2904377,1320.9449,-29.764311)"
       style="fill:none;fill-opacity:0;stroke:#000000;stroke-opacity:1"><path
         d="m 0,0 c 0,-1.709 -1.385,-3.094 -3.094,-3.094 -1.709,0 -3.094,1.385 -3.094,3.094 0,1.709 1.385,3.094 3.094,3.094 C -1.385,3.094 0,1.709 0,0"
         style="fill:none;fill-opacity:0;fill-rule:nonzero;stroke:#000000;stroke-opacity:1"
         id="path60" /></g><g
       id="g62"
       transform="matrix(2.2904377,0,0,2.2904377,1320.9449,1163.6215)"
       style="fill:none;fill-opacity:0;stroke:#000000;stroke-opacity:1"><path
         d="m 0,0 c 0,-1.709 -1.385,-3.094 -3.094,-3.094 -1.709,0 -3.094,1.385 -3.094,3.094 0,1.709 1.385,3.094 3.094,3.094 C -1.385,3.094 0,1.709 0,0"
         style="fill:none;fill-opacity:0;fill-rule:nonzero;stroke:#000000;stroke-opacity:1"
         id="path64" /></g></g></svg>
