<?xml version="1.0" encoding="UTF-8" standalone="no"?>
<svg
   version="1.1"
   id="svg10"
   xml:space="preserve"
   width="500mm"
   height="500mm"
   viewBox="0 0 1889.7638 1889.7638"
   sodipodi:docname="Qlocktwo_blank_laser_v2.svg"
   inkscape:version="1.1 (c68e22c387, 2021-05-23)"
   inkscape:export-filename="/Users/gert/OneDrive/github/NeoWordClock/images/Qlocktwo_blank.png"
   inkscape:export-xdpi="150"
   inkscape:export-ydpi="150"
   xmlns:inkscape="http://www.inkscape.org/namespaces/inkscape"
   xmlns:sodipodi="http://sodipodi.sourceforge.net/DTD/sodipodi-0.dtd"
   xmlns="http://www.w3.org/2000/svg"
   xmlns:svg="http://www.w3.org/2000/svg"
   xmlns:rdf="http://www.w3.org/1999/02/22-rdf-syntax-ns#"
   xmlns:cc="http://creativecommons.org/ns#"
   xmlns:dc="http://purl.org/dc/elements/1.1/"><metadata
     id="metadata16"><rdf:RDF><cc:Work
         rdf:about=""><dc:format>image/svg+xml</dc:format><dc:type
           rdf:resource="http://purl.org/dc/dcmitype/StillImage" /></cc:Work></rdf:RDF></metadata><defs
     id="defs14"><clipPath
       clipPathUnits="userSpaceOnUse"
       id="clipPath48"><path
         d="M 0,1275.59 H 1275.59 V 0 H 0 Z"
         id="path46" /></clipPath></defs><sodipodi:namedview
     pagecolor="#ffffff"
     bordercolor="#666666"
     borderopacity="1"
     objecttolerance="10"
     gridtolerance="10"
     guidetolerance="10"
     inkscape:pageopacity="0.70980392"
     inkscape:pageshadow="2"
     inkscape:window-width="2560"
     inkscape:window-height="1377"
     id="namedview12"
     showgrid="false"
     inkscape:zoom="0.67380582"
     inkscape:cx="1037.3909"
     inkscape:cy="874.88113"
     inkscape:window-x="-8"
     inkscape:window-y="-8"
     inkscape:window-maximized="1"
     inkscape:current-layer="g18"
     inkscape:snap-grids="false"
     inkscape:snap-to-guides="false"
     inkscape:document-units="mm"
     units="mm"
     inkscape:pagecheckerboard="0" /><g
     id="g18"
     inkscape:groupmode="layer"
     inkscape:label="Qlocktwo_blank"
     transform="matrix(1.3333333,0,0,-1.3333333,0,1700.7867)"><text
       transform="scale(1,-1)"
       style="font-style:normal;font-variant:normal;font-weight:bold;font-stretch:normal;font-size:82px;font-family:'Arial monospaced for SAP';-inkscape-font-specification:'Arial monospaced for SAP, Bold';font-variant-ligatures:no-common-ligatures;font-variant-caps:normal;font-variant-numeric:normal;font-variant-east-asian:normal;writing-mode:lr-tb;fill:none;fill-opacity:1;fill-rule:nonzero;stroke:#000000;stroke-opacity:1"
       id="text40"
       x="192.21759"
       y="-997.12836"><tspan
         sodipodi:role="line"
         id="tspan144"
         x="192.21759"
         y="-997.12836">H E T M I S E V I J F</tspan><tspan
         sodipodi:role="line"
         id="tspan146"
         x="192.21759"
         y="-894.62836">T I E N A D K W A R T</tspan><tspan
         sodipodi:role="line"
         id="tspan148"
         x="192.21759"
         y="-792.12836">T W I N T I G B Y N A</tspan><tspan
         sodipodi:role="line"
         id="tspan150"
         x="192.21759"
         y="-689.62836">V O O R H A P O V E R</tspan><tspan
         sodipodi:role="line"
         id="tspan152"
         x="192.21759"
         y="-587.12836">H A L F P I N E E N G</tspan><tspan
         sodipodi:role="line"
         id="tspan154"
         x="192.21759"
         y="-484.62836">T W E E E S S D R I E</tspan><tspan
         sodipodi:role="line"
         id="tspan156"
         x="192.21759"
         y="-382.12836">V I E R V I J F Z E S</tspan><tspan
         sodipodi:role="line"
         id="tspan158"
         x="192.21759"
         y="-279.62836">Z E V E N E N E G E N</tspan><tspan
         sodipodi:role="line"
         id="tspan160"
         x="192.21759"
         y="-177.12836">A C H T T I E N E L F</tspan><tspan
         sodipodi:role="line"
         id="tspan162"
         x="192.21759"
         y="-74.628357">T W A A L F R T U U R</tspan></text><path
       style="fill:none;stroke:#fe0000;stroke-width:0.75px;stroke-linecap:butt;stroke-linejoin:miter;stroke-opacity:0.626471"
       d="m 1182.5983,133.57071 c 0,0 8.0699,0 20.5921,-0.13913 12.5222,-0.13913 17.999,-7.79053 17.9484,-16.00052 -0.07,-11.26994 -8.2785,-15.58314 -14.4005,-16.76579 7.5133,-3.756642 19.1311,-25.948692 19.1311,-25.948692 l -12.9395,-0.13912 c -8.8438,13.64331 -10.5047,25.600852 -19.7573,24.76604 l 0.1391,-24.62691 h -10.7134 v 33.531552 l 10.8525,-0.0696 c 8.6265,0.0696 16.5804,-0.21655 16.4181,7.9307 -0.1622,8.14726 -3.9073,8.63679 -16.6149,8.31157 l -10.5856,-0.033 z"
       id="path9273-9-1"
       sodipodi:nodetypes="csscccccccczccc" /><path
       style="fill:none;stroke:#fe0000;stroke-width:0.75px;stroke-linecap:butt;stroke-linejoin:miter;stroke-opacity:0.626471"
       d="m 789.1244,133.01417 c 0,0 8.0699,0 20.59202,-0.13913 12.5222,-0.13913 17.999,-7.79053 17.9484,-16.00052 -0.07,-11.26994 -8.2785,-15.58314 -14.4005,-16.76579 7.5133,-3.756641 19.1311,-25.948691 19.1311,-25.948691 l -12.9395,-0.13912 c -8.8438,13.64331 -10.5047,25.60085 -19.75722,24.76604 l 0.1391,-24.62691 H 789.1244 V 107.6916 l 10.8525,-0.0696 c 8.62642,0.0696 16.58032,-0.21655 16.41802,7.9307 -0.1622,8.14726 -3.9073,8.63679 -16.61482,8.31157 l -10.58567,-0.033 z"
       id="path9273-9-9"
       sodipodi:nodetypes="csscccccccczccc" /><path
       style="fill:none;stroke:#ff0000;stroke-width:0.75px;stroke-linecap:butt;stroke-linejoin:miter;stroke-opacity:0.579412"
       d="m 389.99615,74.438588 19.33977,58.575862 11.1308,-0.13913 18.78323,-58.854132 -11.68734,0.13914 -3.2001,12.24388 -9.87859,-0.13914 v 9.32205 h 6.95675 l -7.09589,24.070372 -13.63523,-45.358032 z"
       id="path28234-3-6" /><path
       style="fill:none;stroke:#ff0000;stroke-width:0.75px;stroke-linecap:butt;stroke-linejoin:miter;stroke-opacity:0.579412"
       d="m 487.39069,74.99513 19.33977,58.57586 11.1308,-0.13913 18.78323,-58.85413 -11.68734,0.13914 -3.2001,12.24388 -9.87859,-0.13914 v 9.32205 h 6.95675 L 511.73932,120.21403 498.10409,74.856 Z"
       id="path28234-3-6-1" /><path
       style="fill:none;stroke:#ff0000;stroke-width:0.75px;stroke-linecap:butt;stroke-linejoin:miter;stroke-opacity:0.579412"
       d="m 191.86785,177.39852 19.33977,58.57586 11.1308,-0.13913 18.78323,-58.85413 -11.68734,0.13914 -3.2001,12.24388 -9.87859,-0.13914 v 9.32205 h 6.95675 l -7.09589,24.07037 -13.63523,-45.35803 z"
       id="path28234-7" /><path
       style="fill:none;stroke:#fe0000;stroke-width:0.75px;stroke-linecap:butt;stroke-linejoin:miter;stroke-opacity:0.626471"
       d="m 493.60156,440.22434 c 0,0 8.0699,0 20.59202,-0.13913 12.5222,-0.13913 17.999,-7.79053 17.9484,-16.00052 -0.07,-11.26994 -8.2785,-15.58314 -14.4005,-16.76579 7.5133,-3.75664 19.1311,-25.94869 19.1311,-25.94869 l -12.9395,-0.13912 c -8.8438,13.64331 -10.5047,25.60085 -19.75722,24.76604 l 0.1391,-24.62691 h -10.7134 v 33.53155 l 10.8525,-0.0696 c 8.62642,0.0696 16.58032,-0.21655 16.41802,7.9307 -0.1622,8.14726 -3.9073,8.63679 -16.61482,8.31157 l -10.58567,-0.033 z"
       id="path9273-9-5"
       sodipodi:nodetypes="csscccccccczccc" /><path
       style="fill:none;stroke:#fe0000;stroke-width:0.75px;stroke-linecap:butt;stroke-linejoin:miter;stroke-opacity:0.626471"
       d="m 985.44408,543.32342 c 0,0 8.0699,0 20.59202,-0.13913 12.5222,-0.13913 17.999,-7.79053 17.9484,-16.00052 -0.07,-11.26994 -8.2785,-15.58314 -14.4005,-16.76579 7.5133,-3.75664 19.1311,-25.94869 19.1311,-25.94869 l -12.9395,-0.13912 c -8.8438,13.64331 -10.5047,25.60085 -19.75722,24.76604 l 0.1391,-24.62691 h -10.7134 v 33.53155 l 10.8525,-0.0696 c 8.62642,0.0696 16.58032,-0.21655 16.41802,7.9307 -0.1622,8.14726 -3.9073,8.63679 -16.61482,8.31157 l -10.58567,-0.033 z"
       id="path9273-9"
       sodipodi:nodetypes="csscccccccczccc" /><path
       style="fill:none;stroke:#ff0000;stroke-width:0.75px;stroke-linecap:butt;stroke-linejoin:miter;stroke-opacity:0.517647"
       d="m 886.74343,543.34657 c 0,0 9.86493,-0.0895 17.73781,-0.0288 6.06192,0.0467 22.90975,-2.58414 23.57125,-28.40397 0.63548,-24.80403 -15.22256,-30.01126 -23.07336,-30.05858 l -18.2993,-0.1103 -0.0348,9.01649 10.82216,-0.0984 c 14.47796,-0.13164 19.699,2.57749 19.57829,20.85727 -0.11113,16.82781 -6.49904,20.11467 -19.68264,19.87344 l 0.79307,-21.05404 -11.1978,0.0288 z"
       id="path4733-7"
       sodipodi:nodetypes="csssccsscccc" /><path
       style="fill:none;stroke:#ff0000;stroke-width:0.75px;stroke-linecap:butt;stroke-linejoin:miter;stroke-opacity:0.629412"
       d="m 592.04502,645.69347 h 11.60925 c 18.46148,0.92035 29.92607,-4.49386 28.92465,-18.49607 -1.5918,-23.6991 -23.88869,-16.73105 -29.51498,-18.69284 v -22.23463 l -10.6254,0.19677 v 31.48266 l 10.82213,1e-5 c 12.68707,-0.30479 17.68587,0.53188 18.49612,8.65773 -0.27092,8.19877 -5.91646,10.35003 -18.88964,9.64156 h -10.82214 z"
       id="path28599-7"
       sodipodi:nodetypes="cccccccccccc" /><path
       style="fill:none;stroke:#ff0000;stroke-width:0.75px;stroke-linecap:butt;stroke-linejoin:miter;stroke-opacity:0.579412"
       d="m 290.98746,587.73741 19.33977,58.57586 11.1308,-0.13913 18.78323,-58.85413 -11.68734,0.13914 -3.2001,12.24388 -9.87859,-0.13914 v 9.32205 h 6.95675 l -7.09589,24.07037 -13.63523,-45.35803 z"
       id="path28234-3" /><path
       style="fill:none;stroke:#fe0000;stroke-width:0.75px;stroke-linecap:butt;stroke-linejoin:miter;stroke-opacity:0.626471"
       d="m 1182.4354,748.23703 c 0,0 7.6764,0.0492 20.1985,-0.0899 12.5222,-0.13913 17.999,-8.08568 17.9484,-16.29567 -0.07,-11.26994 -8.2785,-15.58314 -14.4005,-16.76579 7.5133,-3.75664 19.1311,-25.94869 19.1311,-25.94869 l -12.9395,-0.13912 c -8.8438,13.64331 -10.5047,25.60085 -19.7572,24.76604 l 0.1391,-24.62691 h -10.7134 v 33.53155 l 10.8525,-0.0696 c 8.6264,0.0696 16.5803,-0.21655 16.418,7.9307 -0.1622,8.14726 -3.8639,9.05662 -16.1721,8.7543 0,0 -0.037,-0.0106 -10.8197,0.0738 z"
       id="path9273-2"
       sodipodi:nodetypes="csscccccccczccc" /><path
       style="fill:none;stroke:#ff0000;stroke-width:0.75px;stroke-linecap:butt;stroke-linejoin:miter;stroke-opacity:0.626471"
       d="m 391.685,715.93765 11.01893,-10e-6 c -0.10632,-13.96713 3.96006,-17.51868 10.82217,-17.51223 7.00819,0.007 10.27579,3.55633 11.01893,17.90577 h 10.82218 c -0.47728,-22.03557 -8.81273,-25.35832 -21.05404,-27.7441 -10.16096,1.35138 -20.26468,1.709 -22.62817,27.35057 z"
       id="path23116-8-4"
       sodipodi:nodetypes="ccccccc" /><path
       style="fill:none;stroke:#ff0000;stroke-width:0.75px;stroke-linecap:butt;stroke-linejoin:miter;stroke-opacity:0.626471"
       d="m 391.8678,722.3302 11.01893,10e-6 c -0.10632,13.96713 3.96006,17.51868 10.82217,17.51223 7.00819,-0.007 10.27579,-3.55633 11.01893,-17.90577 h 10.82218 c -0.47728,22.03557 -8.81273,25.35832 -21.05404,27.7441 -10.16096,-1.35138 -20.26468,-1.709 -22.62817,-27.35057 z"
       id="path23116-7"
       sodipodi:nodetypes="ccccccc" /><path
       style="fill:none;stroke:#ff0000;stroke-width:0.75px;stroke-linecap:butt;stroke-linejoin:miter;stroke-opacity:0.626471"
       d="m 293.1963,715.88968 11.01893,-10e-6 c -0.10632,-13.96713 3.96006,-17.51868 10.82217,-17.51223 7.00819,0.007 10.27579,3.55633 11.01893,17.90577 h 10.82218 c -0.47728,-22.03557 -8.81273,-25.35832 -21.05404,-27.7441 -10.16096,1.35138 -20.26468,1.709 -22.62817,27.35057 z"
       id="path23116-8"
       sodipodi:nodetypes="ccccccc" /><g
       id="g50"
       transform="matrix(2.2904377,0,0,2.2904377,110.55118,1160.7869)"
       style="fill:none;fill-opacity:0;stroke:#000000;stroke-opacity:1"><path
         d="m 0,0 c 0,-1.709 -1.385,-3.094 -3.094,-3.094 -1.709,0 -3.094,1.385 -3.094,3.094 0,1.709 1.385,3.094 3.094,3.094 C -1.385,3.094 0,1.709 0,0"
         style="fill:none;fill-opacity:0;fill-rule:nonzero;stroke:#000000;stroke-opacity:1"
         id="path52" /></g><g
       id="g54"
       transform="matrix(2.2904377,0,0,2.2904377,110.55119,-29.76431)"
       style="fill:none;fill-opacity:0;stroke:#000000;stroke-opacity:1"><path
         d="m 0,0 c 0,-1.709 -1.385,-3.094 -3.094,-3.094 -1.709,0 -3.094,1.385 -3.094,3.094 0,1.709 1.385,3.094 3.094,3.094 C -1.385,3.094 0,1.709 0,0"
         style="fill:none;fill-opacity:0;fill-rule:nonzero;stroke:#000000;stroke-opacity:1"
         id="path56" /></g><g
       id="g58"
       transform="matrix(2.2904377,0,0,2.2904377,1320.9449,-29.764311)"
       style="fill:none;fill-opacity:0;stroke:#000000;stroke-opacity:1"><path
         d="m 0,0 c 0,-1.709 -1.385,-3.094 -3.094,-3.094 -1.709,0 -3.094,1.385 -3.094,3.094 0,1.709 1.385,3.094 3.094,3.094 C -1.385,3.094 0,1.709 0,0"
         style="fill:none;fill-opacity:0;fill-rule:nonzero;stroke:#000000;stroke-opacity:1"
         id="path60" /></g><g
       id="g62"
       transform="matrix(2.2904377,0,0,2.2904377,1320.9449,1163.6215)"
       style="fill:none;fill-opacity:0;stroke:#000000;stroke-opacity:1"><path
         d="m 0,0 c 0,-1.709 -1.385,-3.094 -3.094,-3.094 -1.709,0 -3.094,1.385 -3.094,3.094 0,1.709 1.385,3.094 3.094,3.094 C -1.385,3.094 0,1.709 0,0"
         style="fill:none;fill-opacity:0;fill-rule:nonzero;stroke:#000000;stroke-opacity:1"
         id="path64" /></g><path
       style="fill:none;stroke:#ff0000;stroke-width:0.75px;stroke-linecap:butt;stroke-linejoin:miter;stroke-opacity:0.6"
       d="m 605.09831,953.49247 11.1308,-0.13914 18.85279,-58.78455 -11.06123,0.0696 -3.75664,11.96562 h -19.89631 l -3.61751,-12.24389 -10.85253,0.13913 7.02632,21.4268 24.69646,-0.13914 -7.16545,24.07036 -4.52189,-15.65269 -10.43513,0.0695 z"
       id="path3049"
       sodipodi:nodetypes="cccccccccccccc" /><path
       style="fill:none;stroke:#ff0000;stroke-width:0.75px;stroke-linecap:butt;stroke-linejoin:miter;stroke-opacity:0.517647"
       d="m 690.35585,953.2863 c 0,0 9.86493,-0.0895 17.73781,-0.0288 6.06192,0.0467 22.90975,-2.58414 23.57125,-28.40397 0.63548,-24.80403 -15.22256,-30.01126 -23.07336,-30.05858 l -18.2993,-0.1103 -0.0348,9.01649 10.82216,-0.0984 c 14.47796,-0.13164 19.699,2.57749 19.57829,20.85727 -0.11113,16.82781 -6.49904,20.11467 -19.68264,19.87344 l 0.006,-32.26974 -10.6075,0.0288 z"
       id="path4733"
       sodipodi:nodetypes="csssccsscccc" /><path
       style="fill:none;stroke:#fe0000;stroke-width:0.75px;stroke-linecap:butt;stroke-linejoin:miter;stroke-opacity:0.626471"
       d="m 1084.0011,953.35333 c 0,0 8.0699,0 20.592,-0.13913 12.5222,-0.13913 17.999,-7.79053 17.9484,-16.00052 -0.07,-11.26994 -8.2785,-15.58314 -14.4005,-16.76579 7.5133,-3.75664 19.1311,-25.94869 19.1311,-25.94869 l -12.9395,-0.13912 c -8.8438,13.64331 -10.5047,25.60085 -19.7572,24.76604 l 0.1391,-24.62691 h -10.7134 v 33.53155 l 10.8525,-0.0696 c 8.6264,0.0696 16.5803,-0.21655 16.418,7.9307 -0.1622,8.14726 -4.3066,8.61389 -16.6148,8.31157 l -0.1056,-7.62783 -10.4105,0.0815 z"
       id="path9273"
       sodipodi:nodetypes="csscccccccczcccc" /><path
       style="fill:none;stroke:#ff0000;stroke-width:0.75px;stroke-linecap:butt;stroke-linejoin:miter;stroke-opacity:0.6"
       d="m 998.90576,953.73107 11.13074,-0.13914 18.8528,-58.78455 -11.0612,0.0696 -3.7566,11.96562 h -19.89633 l -3.61751,-12.24389 -10.85253,0.13913 7.02632,21.4268 24.69645,-0.13914 -7.1655,24.07036 -4.52183,-15.65269 -10.43513,0.0695 z"
       id="path3049-4"
       sodipodi:nodetypes="cccccccccccccc" /><path
       style="fill:none;stroke:#ff0000;stroke-width:0.75px;stroke-linecap:butt;stroke-linejoin:miter;stroke-opacity:0.6"
       d="m 1196.066,850.62533 11.1308,-0.13914 18.8528,-58.78455 -11.0612,0.0696 -3.7566,11.96562 h -19.8964 l -3.6175,-12.24389 -10.8525,0.13913 7.0263,21.4268 24.6965,-0.13914 -7.1655,24.07036 -4.5219,-15.65269 -10.4351,0.0695 z"
       id="path3049-4-1"
       sodipodi:nodetypes="cccccccccccccc" /><path
       style="fill:none;stroke:#fd0000;stroke-width:0.75px;stroke-linecap:butt;stroke-linejoin:miter;stroke-opacity:0.717647"
       d="m 887.1946,850.88037 c 0,0 1.18385,0.23627 10.85257,0.0696 12.1047,-0.20867 25.90715,1.38901 27.7574,-15.02658 -0.27829,-7.30459 -4.3471,-10.29045 -8.5568,-12.59172 5.10251,-1.21769 11.29936,-5.07577 11.40908,-14.40048 -2.29575,-16.48751 -11.40907,-16.69621 -31.30539,-16.76577 l -10.10468,0.14782 -0.12174,17.52233 h 10.71341 l 1.3e-4,-8.62637 c 12.03622,0.0416 19.61811,-0.41741 19.61805,8.69594 -5e-5,8.98094 -9.73946,8.13939 -19.61801,8.00027 l -10.64387,-0.0696 0.0697,9.18292 10.36559,0.0696 c 13.46069,-0.27632 17.69906,0.45326 17.53098,7.51329 0.0779,6.46973 -5.65693,7.62801 -17.3223,7.16545 l -0.0287,-7.45217 -10.68452,-0.0611 z"
       id="path16779"
       sodipodi:nodetypes="csccccccccsccccccccc" /><path
       style="fill:none;stroke:#ff0000;stroke-width:0.75px;stroke-linecap:butt;stroke-linejoin:miter;stroke-opacity:0.626471"
       d="m 293.3791,722.28223 11.01893,10e-6 c -0.10632,13.96713 3.96006,17.51868 10.82217,17.51223 7.00819,-0.007 10.27579,-3.55633 11.01893,-17.90577 h 10.82218 c -0.47728,22.03557 -8.81273,25.35832 -21.05404,27.7441 -10.16096,-1.35138 -20.26468,-1.709 -22.62817,-27.35057 z"
       id="path23116"
       sodipodi:nodetypes="ccccccc" /><path
       style="fill:none;stroke:#ff0000;stroke-width:0.75px;stroke-linecap:butt;stroke-linejoin:miter;stroke-opacity:0.591176"
       d="m 493.51201,689.55329 -0.27828,58.85412 19.61805,-0.13913 c 19.75717,0.27828 18.59035,-14.31548 19.06149,-16.41793 -0.0206,-7.90168 -4.45232,-13.91351 -14.47004,-16.69621 7.65242,-3.47837 19.20064,-25.60085 19.20064,-25.60085 l -12.52216,-0.13913 -12.24388,20.45285 -0.27827,13.35696 c 8.90421,0.27732 8.48332,3.71898 9.32204,8.06984 -1.25981,6.90381 -4.03966,8.65566 -16.97447,8.06983 l 0.41741,-50.08862 z"
       id="path24977"
       sodipodi:nodetypes="ccccccccccccc" /><path
       style="fill:none;stroke:#ff0000;stroke-width:0.75px;stroke-linecap:butt;stroke-linejoin:miter;stroke-opacity:0.579412"
       d="m 684.26615,689.69242 19.33977,58.57586 11.1308,-0.13913 18.78323,-58.85413 -11.68734,0.13914 -3.2001,12.24388 -9.87859,-0.13914 v 9.32205 h 6.95675 l -7.09589,24.07037 -13.63523,-45.35803 z"
       id="path28234" /><path
       style="fill:none;stroke:#ff0000;stroke-width:0.75px;stroke-linecap:butt;stroke-linejoin:miter;stroke-opacity:0.629412"
       d="m 788.44405,748.64897 h 11.60925 c 18.46148,0.92035 29.92607,-4.49386 28.92465,-18.49607 -1.5918,-23.6991 -23.88869,-16.73105 -29.51498,-18.69284 v -22.23463 l -10.6254,0.19677 v 31.48266 l 10.82213,10e-6 c 12.68707,-0.30479 17.68587,0.53188 18.49612,8.65773 -0.27092,8.19877 -4.90576,10.32723 -18.88964,9.64156 l 0.1968,-9.24803 h -10.62541 z"
       id="path28599"
       sodipodi:nodetypes="ccccccccccccc" /><path
       style="fill:none;stroke:#ff0000;stroke-width:0.75px;stroke-linecap:butt;stroke-linejoin:miter;stroke-opacity:0.605882"
       d="m 883.94882,722.5324 c 0.86354,19.87317 9.5068,26.90712 22.93343,26.84896 15.74177,-0.25585 21.00661,-13.44232 20.70577,-30.93716 -0.49848,-20.71324 -9.14636,-29.33422 -20.65809,-30.18243 -13.77999,-0.49199 -21.4077,7.23542 -22.79982,22.78729 l 10.83569,-0.083 c 1.35274,-10.49177 5.75082,-13.25472 10.81733,-13.26004 9.98641,-0.30178 10.84306,12.46245 10.95239,20.78732 -0.23694,14.55575 -2.52897,21.68546 -10.78648,21.64044 -8.0306,-0.0769 -10.53104,-6.36386 -11.14772,-17.61252 z"
       id="path30830"
       sodipodi:nodetypes="ccccccccccc" /></g></svg>
