<?xml version="1.0" encoding="UTF-8" standalone="no"?>
<svg
   viewBox="0 0 64 64"
   version="1.1"
   id="svg23"
   sodipodi:docname="brightness.svg"
   inkscape:version="1.1 (c68e22c387, 2021-05-23)"
   xmlns:inkscape="http://www.inkscape.org/namespaces/inkscape"
   xmlns:sodipodi="http://sodipodi.sourceforge.net/DTD/sodipodi-0.dtd"
   xmlns="http://www.w3.org/2000/svg"
   xmlns:svg="http://www.w3.org/2000/svg">
  <defs
     id="defs27" />
  <sodipodi:namedview
     id="namedview25"
     pagecolor="#ffffff"
     bordercolor="#666666"
     borderopacity="1.0"
     inkscape:pageshadow="2"
     inkscape:pageopacity="0.0"
     inkscape:pagecheckerboard="true"
     showgrid="false"
     inkscape:zoom="13.640625"
     inkscape:cx="31.963345"
     inkscape:cy="32"
     inkscape:window-width="2824"
     inkscape:window-height="2041"
     inkscape:window-x="1070"
     inkscape:window-y="0"
     inkscape:window-maximized="0"
     inkscape:current-layer="svg23" />
  <g
     id="Layer_10"
     data-name="Layer 10"
     style="fill:#ffffff;fill-opacity:1">
    <path
       d="M32,15.27A16.76,16.76,0,0,0,15.27,32c.92,22.19,32.54,22.18,33.46,0A16.76,16.76,0,0,0,32,15.27Zm0,30.46A13.75,13.75,0,0,1,18.27,32C19,13.79,45,13.79,45.73,32A13.75,13.75,0,0,1,32,45.73Z"
       id="path2"
       style="fill:#ffffff;fill-opacity:1" />
    <path
       d="M32,12.57a1.5,1.5,0,0,0,1.5-1.5V6a1.5,1.5,0,0,0-3,0v5A1.5,1.5,0,0,0,32,12.57Z"
       id="path4"
       style="fill:#ffffff;fill-opacity:1" />
    <path
       d="M46.8,18.7a1.51,1.51,0,0,0,1.06-.44l3.56-3.55a1.51,1.51,0,1,0-2.13-2.13l-3.55,3.56A1.51,1.51,0,0,0,46.8,18.7Z"
       id="path6"
       style="fill:#ffffff;fill-opacity:1" />
    <path
       d="M58,30.5h-5a1.5,1.5,0,0,0,0,3h5A1.5,1.5,0,0,0,58,30.5Z"
       id="path8"
       style="fill:#ffffff;fill-opacity:1" />
    <path
       d="M47.86,45.74a1.5,1.5,0,0,0-2.12,2.12l3.55,3.56a1.5,1.5,0,0,0,2.12-2.13Z"
       id="path10"
       style="fill:#ffffff;fill-opacity:1" />
    <path
       d="M32,51.43a1.5,1.5,0,0,0-1.5,1.5v5a1.5,1.5,0,0,0,3,0v-5A1.5,1.5,0,0,0,32,51.43Z"
       id="path12"
       style="fill:#ffffff;fill-opacity:1" />
    <path
       d="M16.14,45.74l-3.56,3.55a1.51,1.51,0,0,0,2.13,2.13l3.55-3.56A1.5,1.5,0,0,0,16.14,45.74Z"
       id="path14"
       style="fill:#ffffff;fill-opacity:1" />
    <path
       d="M11.07,30.5H6a1.5,1.5,0,1,0,0,3h5A1.5,1.5,0,0,0,11.07,30.5Z"
       id="path16"
       style="fill:#ffffff;fill-opacity:1" />
    <path
       d="M16.14,18.26a1.5,1.5,0,0,0,2.12-2.12l-3.55-3.56a1.51,1.51,0,1,0-2.13,2.13Z"
       id="path18"
       style="fill:#ffffff;fill-opacity:1" />
    <path
       d="M32,20.27a1.5,1.5,0,0,0-1.5,1.5V42.23a1.5,1.5,0,0,0,1.5,1.5C47.56,43.09,47.56,20.91,32,20.27Z"
       id="path20"
       style="fill:#ffffff;fill-opacity:1" />
  </g>
</svg>
