<?xml version="1.0" encoding="UTF-8" standalone="no"?>
<svg
   width="64"
   height="64"
   viewBox="0 0 64 64"
   fill="none"
   version="1.1"
   id="svg16"
   sodipodi:docname="rgb.svg"
   inkscape:version="1.1 (c68e22c387, 2021-05-23)"
   xmlns:inkscape="http://www.inkscape.org/namespaces/inkscape"
   xmlns:sodipodi="http://sodipodi.sourceforge.net/DTD/sodipodi-0.dtd"
   xmlns="http://www.w3.org/2000/svg"
   xmlns:svg="http://www.w3.org/2000/svg">
  <defs
     id="defs20" />
  <sodipodi:namedview
     id="namedview18"
     pagecolor="#ffffff"
     bordercolor="#666666"
     borderopacity="1.0"
     inkscape:pageshadow="2"
     inkscape:pageopacity="0.0"
     inkscape:pagecheckerboard="true"
     showgrid="false"
     inkscape:zoom="27.28125"
     inkscape:cx="49.997709"
     inkscape:cy="42.666667"
     inkscape:window-width="3840"
     inkscape:window-height="2054"
     inkscape:window-x="-11"
     inkscape:window-y="-11"
     inkscape:window-maximized="1"
     inkscape:current-layer="svg16" />
  <path
     d="M37.28 39.61L37.16 38.47L36 38.75C33.351 39.4412 30.5689 39.4412 27.92 38.75L26.8 38.47L26.68 39.61C26.4135 42.0429 26.6877 44.5046 27.4829 46.8193C28.278 49.134 29.5746 51.2445 31.28 53L32 53.75L32.72 53C34.4141 51.2443 35.7008 49.1371 36.4889 46.8282C37.277 44.5192 37.5471 42.0651 37.28 39.64V39.61Z"
     fill="#97CCEF"
     id="path2" />
  <path
     d="M47.49 25.28C46.1251 24.923 44.7208 24.7382 43.31 24.73C39.4993 24.7382 35.8056 26.047 32.84 28.44L31.99 29.12L32.75 29.91C34.7428 32.0004 36.1619 34.57 36.87 37.37L37.14 38.49L38.21 38.06C40.6781 37.0649 42.873 35.495 44.6123 33.4809C46.3516 31.4668 47.585 29.0667 48.21 26.48L48.44 25.53L47.49 25.28Z"
     fill="#F0454E"
     id="path4" />
  <path
     d="M31.1599 28.44C28.1943 26.047 24.5006 24.7382 20.6899 24.73C19.2791 24.7382 17.8748 24.923 16.5099 25.28L15.5099 25.53L15.7399 26.48C16.3649 29.0667 17.5983 31.4668 19.3376 33.4809C21.0769 35.495 23.2718 37.0649 25.7399 38.06L26.8099 38.49L27.0799 37.37C27.7879 34.57 29.2071 32.0004 31.1999 29.91L31.9599 29.12L31.1599 28.44Z"
     fill="#F8B64C"
     id="path6" />
  <path
     d="M31.9999 40.2699C28.4983 40.2719 25.0748 39.2352 22.1626 37.2911C19.2503 35.3469 16.9801 32.5827 15.6392 29.348C14.2983 26.1133 13.9469 22.5536 14.6295 19.1192C15.3122 15.6848 16.9981 12.5301 19.4741 10.0541C21.9501 7.5781 25.1049 5.89213 28.5393 5.20949C31.9737 4.52685 35.5334 4.87822 38.768 6.21913C42.0027 7.56004 44.767 9.83024 46.7111 12.7425C48.6552 15.6548 49.6919 19.0783 49.6899 22.5799C49.6846 27.2699 47.8192 31.7664 44.5028 35.0827C41.1864 38.3991 36.69 40.2646 31.9999 40.2699V40.2699ZM31.9999 6.87988C28.8943 6.8779 25.8579 7.79701 23.2747 9.52094C20.6916 11.2449 18.6777 13.6962 17.4879 16.5648C16.2981 19.4334 15.9857 22.5905 16.5904 25.6367C17.195 28.6828 18.6895 31.4812 20.8848 33.6779C23.0801 35.8746 25.8776 37.3709 28.9233 37.9775C31.9691 38.5841 35.1264 38.2737 37.9957 37.0857C40.8651 35.8977 43.3177 33.8854 45.0433 31.3034C46.7689 28.7213 47.6899 25.6855 47.6899 22.5799C47.6873 18.4185 46.0337 14.4282 43.0921 11.4848C40.1505 8.5413 36.1613 6.88518 31.9999 6.87988V6.87988Z"
     fill="#F8B64C"
     id="path8" />
  <path
     d="M43.31 59.12C39.8088 59.122 36.3857 58.0856 33.4737 56.1419C30.5616 54.1982 28.2914 51.4345 26.9502 48.2004C25.609 44.9663 25.257 41.4071 25.9389 37.973C26.6207 34.5389 28.3057 31.3841 30.7807 28.9077C33.2556 26.4313 36.4095 24.7446 39.8432 24.0608C43.2769 23.377 46.8363 23.727 50.0712 25.0664C53.306 26.4057 56.071 28.6744 58.0163 31.5853C59.9616 34.4963 61 37.9188 61 41.42C60.9973 46.1118 59.133 50.6108 55.8164 53.9293C52.4997 57.2478 48.0018 59.1147 43.31 59.12V59.12ZM43.31 25.73C40.204 25.728 37.1672 26.6474 34.5838 28.3717C32.0004 30.0961 29.9865 32.548 28.797 35.4172C27.6075 38.2864 27.2957 41.444 27.9012 44.4904C28.5066 47.5369 30.0021 50.3353 32.1984 52.5316C34.3947 54.7278 37.1931 56.2233 40.2395 56.8288C43.286 57.4343 46.4435 57.1225 49.3127 55.933C52.1819 54.7434 54.6338 52.7296 56.3582 50.1462C58.0826 47.5628 59.002 44.526 59 41.42C58.9947 37.2604 57.3399 33.2726 54.3986 30.3313C51.4573 27.39 47.4696 25.7353 43.31 25.73V25.73Z"
     fill="#F0454E"
     id="path10" />
  <path
     d="M20.69 59.12C17.1888 59.122 13.7657 58.0856 10.8537 56.1419C7.94161 54.1982 5.6714 51.4345 4.33019 48.2004C2.98899 44.9663 2.63704 41.4071 3.31887 37.973C4.0007 34.5389 5.68567 31.3841 8.16066 28.9077C10.6357 26.4313 13.7895 24.7446 17.2232 24.0608C20.6569 23.377 24.2163 23.727 27.4512 25.0664C30.686 26.4057 33.451 28.6744 35.3963 31.5853C37.3416 34.4963 38.38 37.9188 38.38 41.42C38.3747 46.111 36.5096 50.6084 33.1935 53.9264C29.8774 57.2444 25.381 59.112 20.69 59.12ZM20.69 25.73C17.584 25.728 14.5472 26.6474 11.9638 28.3717C9.38039 30.0961 7.36653 32.548 6.177 35.4172C4.98746 38.2864 4.67571 41.444 5.28118 44.4904C5.88664 47.5369 7.38213 50.3353 9.57841 52.5316C11.7747 54.7278 14.5731 56.2233 17.6195 56.8288C20.666 57.4343 23.8235 57.1225 26.6927 55.933C29.5619 54.7434 32.0139 52.7296 33.7382 50.1462C35.4626 47.5628 36.382 44.526 36.38 41.42C36.3747 37.2604 34.7199 33.2726 31.7786 30.3313C28.8373 27.39 24.8496 25.7353 20.69 25.73V25.73Z"
     fill="#97CCEF"
     id="path12" />
  <path
     d="M49.5199 24.88C49.8915 22.3657 49.7168 19.8008 49.0079 17.36C48.2989 14.9193 47.0724 12.6599 45.4117 10.7358C43.751 8.81175 41.6952 7.26811 39.3843 6.21002C37.0734 5.15194 34.5616 4.60425 32.0199 4.60425C29.4783 4.60425 26.9665 5.15194 24.6556 6.21002C22.3447 7.26811 20.2889 8.81175 18.6282 10.7358C16.9675 12.6599 15.741 14.9193 15.032 17.36C14.3231 19.8008 14.1484 22.3657 14.5199 24.88C12.0967 25.769 9.89744 27.1779 8.07678 29.0076C6.25612 30.8374 4.85819 33.0436 3.98119 35.4712C3.1042 37.8989 2.76941 40.4892 3.00035 43.06C3.23129 45.6309 4.02236 48.12 5.31799 50.3525C6.61361 52.585 8.38235 54.5068 10.5 55.9827C12.6176 57.4587 15.0327 58.453 17.5756 58.896C20.1186 59.3389 22.7276 59.2196 25.2196 58.5466C27.7115 57.8735 30.0258 56.663 31.9999 55C33.9741 56.6552 36.2862 57.859 38.7744 58.5271C41.2626 59.1951 43.8667 59.3114 46.4044 58.8676C48.9422 58.4238 51.3524 57.4308 53.4662 55.958C55.58 54.4852 57.3464 52.5683 58.6417 50.3414C59.9371 48.1144 60.7301 45.6313 60.9653 43.0657C61.2004 40.5002 60.8721 37.9143 60.0032 35.4889C59.1343 33.0636 57.7458 30.8575 55.935 29.0249C54.1242 27.1924 51.9348 25.7777 49.5199 24.88V24.88ZM16.3099 22.58C16.3099 18.4188 17.963 14.4279 20.9054 11.4855C23.8479 8.54305 27.8387 6.89 31.9999 6.89C36.1612 6.89 40.152 8.54305 43.0944 11.4855C46.0369 14.4279 47.6899 18.4188 47.6899 22.58C47.6901 23.1479 47.6601 23.7153 47.5999 24.28C46.1984 23.9189 44.7573 23.7341 43.3099 23.73C39.1754 23.7258 35.1713 25.1773 31.9999 27.83C28.8286 25.1773 24.8245 23.7258 20.6899 23.73C19.2426 23.7341 17.8015 23.9189 16.3999 24.28C16.3398 23.7153 16.3098 23.1479 16.3099 22.58V22.58ZM36.3799 41.42C36.3803 45.4704 34.8103 49.3632 31.9999 52.28C29.1896 49.3632 27.6196 45.4704 27.6199 41.42C27.6198 40.8521 27.6498 40.2847 27.7099 39.72C30.5229 40.4536 33.477 40.4536 36.2899 39.72C36.3501 40.2847 36.3801 40.8521 36.3799 41.42ZM31.9999 38.27C30.6731 38.266 29.3522 38.0913 28.0699 37.75C28.7216 35.0511 30.0777 32.5735 31.9999 30.57C33.9221 32.5735 35.2783 35.0511 35.9299 37.75C34.6477 38.0913 33.3268 38.266 31.9999 38.27ZM26.1599 37.13C23.8411 36.1942 21.7788 34.719 20.1441 32.8269C18.5093 30.9347 17.3492 28.6801 16.7599 26.25C19.1288 25.6247 21.6123 25.5706 24.0061 26.0921C26.4 26.6136 28.6359 27.6959 30.5299 29.25C28.4186 31.4562 26.9133 34.1707 26.1599 37.13V37.13ZM33.4699 29.22C35.364 27.6659 37.5999 26.5836 39.9937 26.0621C42.3876 25.5406 44.8711 25.5947 47.2399 26.22C46.6507 28.6501 45.4906 30.9047 43.8558 32.7969C42.221 34.689 40.1588 36.1642 37.8399 37.1C37.0866 34.1407 35.5813 31.4262 33.4699 29.22V29.22ZM4.99994 41.42C5.00461 38.2879 5.946 35.2288 7.70307 32.6359C9.46014 30.0431 11.9526 28.0351 14.8599 26.87C15.5575 29.641 16.9149 32.2023 18.8164 34.3353C20.7178 36.4683 23.1069 38.1099 25.7799 39.12C25.4232 41.7403 25.6653 44.4074 26.4881 46.9207C27.3108 49.4339 28.6928 51.7279 30.5299 53.63C28.2278 55.4938 25.4444 56.667 22.5027 57.0134C19.5609 57.3599 16.5812 56.8654 13.909 55.5874C11.2368 54.3094 8.98156 52.3002 7.40473 49.7927C5.82791 47.2852 4.99409 44.3821 4.99994 41.42V41.42ZM43.3099 57.12C39.726 57.1238 36.2505 55.8911 33.4699 53.63C35.3071 51.7279 36.6891 49.4339 37.5118 46.9207C38.3346 44.4074 38.5767 41.7403 38.2199 39.12C40.893 38.1099 43.2821 36.4683 45.1835 34.3353C47.0849 32.2023 48.4423 29.641 49.1399 26.87C52.5207 28.2276 55.3237 30.7193 57.0681 33.9177C58.8124 37.1162 59.3893 40.8219 58.6999 44.3993C58.0104 47.9766 56.0976 51.2025 53.2895 53.5236C50.4814 55.8446 46.9531 57.1162 43.3099 57.12V57.12Z"
     fill="black"
     id="path14"
     style="fill:#ffffff;fill-opacity:1;stroke:#ffffff;stroke-opacity:1" />
</svg>
