<?xml version="1.0" encoding="UTF-8" standalone="no"?>
<svg
   viewBox="0 0 64 64"
   version="1.1"
   id="svg14"
   sodipodi:docname="settings.svg"
   inkscape:version="1.1 (c68e22c387, 2021-05-23)"
   xmlns:inkscape="http://www.inkscape.org/namespaces/inkscape"
   xmlns:sodipodi="http://sodipodi.sourceforge.net/DTD/sodipodi-0.dtd"
   xmlns="http://www.w3.org/2000/svg"
   xmlns:svg="http://www.w3.org/2000/svg"
   xmlns:rdf="http://www.w3.org/1999/02/22-rdf-syntax-ns#"
   xmlns:cc="http://creativecommons.org/ns#"
   xmlns:dc="http://purl.org/dc/elements/1.1/">
  <sodipodi:namedview
     id="namedview16"
     pagecolor="#ffffff"
     bordercolor="#666666"
     borderopacity="1.0"
     inkscape:pageshadow="2"
     inkscape:pageopacity="0.0"
     inkscape:pagecheckerboard="true"
     showgrid="false"
     inkscape:zoom="13.640625"
     inkscape:cx="31.963345"
     inkscape:cy="31.963345"
     inkscape:window-width="3840"
     inkscape:window-height="2054"
     inkscape:window-x="-11"
     inkscape:window-y="-11"
     inkscape:window-maximized="1"
     inkscape:current-layer="svg14" />
  <defs
     id="defs4">
    <style
       id="style2">.cls-1{fill:#35353d;}</style>
  </defs>
  <title
     id="title6">Asset 67</title>
  <g
     id="Layer_2"
     data-name="Layer 2"
     style="stroke:#ffffff;stroke-opacity:1;fill:#ffffff;fill-opacity:1">
    <g
       id="Layer_1-2"
       data-name="Layer 1"
       style="stroke:#ffffff;stroke-opacity:1;fill:#ffffff;fill-opacity:1">
      <path
         class="cls-1"
         d="M59.2,23.58a4.41,4.41,0,0,1-2-4.86A9.79,9.79,0,0,0,45.27,6.81a4.4,4.4,0,0,1-4.85-2,9.79,9.79,0,0,0-16.84,0,4.39,4.39,0,0,1-4.86,2A9.79,9.79,0,0,0,6.81,18.73a4.39,4.39,0,0,1-2,4.85,9.79,9.79,0,0,0,0,16.84,4.4,4.4,0,0,1,2,4.86A9.79,9.79,0,0,0,18.73,57.19a4.4,4.4,0,0,1,4.85,2,9.79,9.79,0,0,0,16.84,0,4.41,4.41,0,0,1,4.86-2A9.79,9.79,0,0,0,57.19,45.27a4.4,4.4,0,0,1,2-4.85,9.79,9.79,0,0,0,0-16.84ZM56.44,35.76A9.84,9.84,0,0,0,52,46.63a4.37,4.37,0,0,1-5.33,5.31,9.86,9.86,0,0,0-10.86,4.5,4.36,4.36,0,0,1-7.52,0,9.85,9.85,0,0,0-8.45-4.8,9.56,9.56,0,0,0-2.42.31,4.37,4.37,0,0,1-5.31-5.33,9.85,9.85,0,0,0-4.5-10.86,4.36,4.36,0,0,1,0-7.52,9.84,9.84,0,0,0,4.49-10.87,4.38,4.38,0,0,1,5.34-5.31,9.85,9.85,0,0,0,10.85-4.5,4.36,4.36,0,0,1,7.52,0,9.84,9.84,0,0,0,10.87,4.49A4.38,4.38,0,0,1,52,17.38a9.83,9.83,0,0,0,4.49,10.86,4.36,4.36,0,0,1,0,7.52Z"
         id="path8"
         style="stroke:#ffffff;stroke-opacity:1;fill:#ffffff;fill-opacity:1" />
      <path
         class="cls-1"
         d="M32,18.47A13.53,13.53,0,1,0,45.53,32,13.55,13.55,0,0,0,32,18.47Zm0,21.65A8.12,8.12,0,1,1,40.12,32,8.13,8.13,0,0,1,32,40.12Z"
         id="path10"
         style="stroke:#ffffff;stroke-opacity:1;fill:#ffffff;fill-opacity:1" />
    </g>
  </g>
  <metadata
     id="metadata833">
    <rdf:RDF>
      <cc:Work
         rdf:about="">
        <dc:title>Asset 67</dc:title>
      </cc:Work>
    </rdf:RDF>
  </metadata>
</svg>
